M48
; DRILL file {KiCad (5.1.10)-1} date 07/30/21 17:06:54
; FORMAT={-:-/ absolute / inch / decimal}
; #@! TF.CreationDate,2021-07-30T17:06:54-07:00
; #@! TF.GenerationSoftware,Kicad,Pcbnew,(5.1.10)-1
FMAT,2
INCH
T1C0.0098
T2C0.0125
T3C0.0197
T4C0.0236
T5C0.0335
%
G90
G05
T1
X0.061Y0.9114
X0.1811Y0.378
X0.185Y1.0315
X0.2146Y1.1004
X0.253Y0.2854
X0.2976Y0.8882
X0.3957Y1.0689
X0.4055Y0.6457
X0.4055Y0.6181
X0.4227Y0.1378
X0.4227Y0.1024
X0.435Y1.189
X0.435Y1.1496
X0.4409Y0.6457
X0.4409Y0.6181
X0.4547Y0.7626
X0.4606Y0.185
X0.4803Y0.6457
X0.4803Y0.6181
X0.4882Y0.185
X0.4961Y0.8071
X0.5118Y0.6457
X0.5118Y0.6181
X0.5177Y0.5138
X0.5236Y0.7579
X0.5394Y1.0197
X0.5398Y1.1102
X0.5433Y0.5138
X0.563Y0.3268
X0.563Y0.2992
X0.6014Y0.6289
X0.6339Y0.4331
X0.6417Y0.252
X0.6677Y1.1027
X0.6677Y0.9567
X0.6693Y0.252
X0.7027Y0.25
X0.7165Y0.6181
X0.7362Y0.5394
X0.7677Y0.2441
X0.7756Y0.8543
X0.7992Y0.9567
X0.8002Y1.1027
X0.8041Y0.1486
X0.8051Y0.2441
X0.815Y1.1496
X0.8228Y1.3189
X0.8346Y0.9134
X0.8346Y0.626
X0.8858Y0.626
X0.8937Y1.0906
X0.8976Y0.4961
X0.9016Y1.3189
X0.9094Y1.0197
X0.9232Y1.2087
X0.9331Y0.7953
X0.9409Y0.5551
X0.9469Y0.6693
X0.9724Y0.5
X0.9823Y0.4705
X1.0079Y0.561
X1.0118Y0.4016
X1.0315Y1.1102
X1.0315Y0.8268
X1.0335Y1.0236
X1.0394Y0.5571
X1.0413Y0.8937
X1.0602Y1.072
X1.061Y0.4409
X1.0669Y0.3937
X1.0866Y0.6063
X1.0866Y0.5827
X1.1181Y0.7795
X1.128Y1.2461
X1.1437Y0.7461
X1.1732Y1.122
X1.1732Y0.6496
X1.3189Y0.876
T2
X0.2126Y0.5315
X0.2707Y1.2776
X0.2707Y1.2411
X0.2717Y0.5315
X0.315Y1.1004
X0.315Y0.5591
X0.315Y0.4843
X0.315Y0.3976
X0.3189Y1.3159
X0.3189Y0.185
X0.3504Y0.6063
X0.3602Y1.2165
X0.3898Y1.2165
X0.3986Y1.3661
X0.4311Y1.3858
X0.5217Y1.3858
X0.9173Y0.3031
X0.9429Y1.3858
X0.9783Y0.3051
X1.0335Y1.3858
X1.0925Y0.6555
X1.1417Y0.315
X1.1575Y1.3071
X1.1575Y1.189
X1.1732Y0.2854
X1.1772Y0.9724
X1.2126Y0.7106
X1.2343Y0.2854
X1.2677Y0.3189
X1.2697Y0.7461
X1.2736Y0.7106
X1.2756Y0.8661
T3
X0.0652Y0.5727
X0.0965Y0.4902
X0.9877Y0.1052
X1.1027Y0.1602
T5
X0.6543Y0.1865
X0.8511Y0.1865
T4
X0.6149Y0.0664G85X0.6149Y0.0939
G05
X0.8905Y0.0939G85X0.8905Y0.0664
G05
T0
M30
