G04 #@! TF.GenerationSoftware,KiCad,Pcbnew,(5.1.10)-1*
G04 #@! TF.CreationDate,2021-07-30T17:06:44-07:00*
G04 #@! TF.ProjectId,esp32-smartwatch,65737033-322d-4736-9d61-727477617463,rev?*
G04 #@! TF.SameCoordinates,PX8f56560PY66b5f20*
G04 #@! TF.FileFunction,Copper,L4,Bot*
G04 #@! TF.FilePolarity,Positive*
%FSLAX46Y46*%
G04 Gerber Fmt 4.6, Leading zero omitted, Abs format (unit mm)*
G04 Created by KiCad (PCBNEW (5.1.10)-1) date 2021-07-30 17:06:44*
%MOMM*%
%LPD*%
G01*
G04 APERTURE LIST*
G04 #@! TA.AperFunction,Profile*
%ADD10C,0.050000*%
G04 #@! TD*
G04 #@! TA.AperFunction,ComponentPad*
%ADD11O,1.200000X1.900000*%
G04 #@! TD*
G04 #@! TA.AperFunction,ComponentPad*
%ADD12C,1.450000*%
G04 #@! TD*
G04 #@! TA.AperFunction,SMDPad,CuDef*
%ADD13R,0.350000X2.500000*%
G04 #@! TD*
G04 #@! TA.AperFunction,ComponentPad*
%ADD14C,0.800000*%
G04 #@! TD*
G04 #@! TA.AperFunction,ViaPad*
%ADD15C,0.500000*%
G04 #@! TD*
G04 #@! TA.AperFunction,ViaPad*
%ADD16C,0.635000*%
G04 #@! TD*
G04 #@! TA.AperFunction,Conductor*
%ADD17C,0.381000*%
G04 #@! TD*
G04 #@! TA.AperFunction,Conductor*
%ADD18C,0.254000*%
G04 #@! TD*
G04 #@! TA.AperFunction,Conductor*
%ADD19C,0.200000*%
G04 #@! TD*
G04 APERTURE END LIST*
D10*
X37530000Y18800000D02*
G75*
G03*
X37530000Y18800000I-18750000J0D01*
G01*
D11*
X22618000Y2036000D03*
X15618000Y2036000D03*
D12*
X21618000Y4736000D03*
X16618000Y4736000D03*
D13*
X18387000Y7941500D03*
X17687000Y7941500D03*
X16987000Y7941500D03*
X16287000Y7941500D03*
X15587000Y7941500D03*
X14887000Y7941500D03*
X19087000Y7941500D03*
X19787000Y7941500D03*
X20487000Y7941500D03*
X21187000Y7941500D03*
X21887000Y7941500D03*
X22587000Y7941500D03*
D14*
X1655500Y14545500D03*
X28008000Y4068000D03*
X2450000Y12450000D03*
X25087000Y2671000D03*
D15*
X27100000Y10000000D03*
X25700000Y10200000D03*
X16959000Y28007500D03*
X20324500Y28007500D03*
X20300000Y24300000D03*
X16959000Y24300000D03*
X33500000Y22250000D03*
X29800000Y28500000D03*
X16100000Y11000000D03*
X12600000Y20500000D03*
D16*
X6875000Y32450000D03*
X6875000Y31525000D03*
X8100000Y33425000D03*
X23950000Y35200000D03*
X26250000Y35200000D03*
X13250000Y35200000D03*
X10950000Y35200000D03*
X8000000Y27950000D03*
X8000000Y10100000D03*
X8000000Y12300000D03*
X8900000Y15400000D03*
X8000000Y14200000D03*
X5400000Y13500000D03*
X8100000Y4700000D03*
X31350000Y7250000D03*
D15*
X29050000Y18950000D03*
D16*
X32350000Y18050000D03*
X32200000Y8100000D03*
X23300000Y7700000D03*
X24850000Y7750000D03*
D15*
X21200000Y15900000D03*
X24050000Y17000000D03*
X27600000Y15400000D03*
X27600000Y14800000D03*
X17848000Y6350000D03*
X14300000Y8300000D03*
X14300000Y7600000D03*
X19500000Y6200000D03*
X10736000Y3500000D03*
X10736000Y2600000D03*
X11700000Y4700000D03*
X12400000Y4700000D03*
X7560000Y22560000D03*
X13150000Y13050000D03*
X13800000Y13050000D03*
X15275000Y15975000D03*
D16*
X6900000Y13500000D03*
D15*
X22800000Y12600000D03*
X20425000Y3775000D03*
D16*
X9150000Y30900000D03*
X9900000Y30900000D03*
X10125000Y34700000D03*
D15*
X10050000Y27150000D03*
X4600000Y9600000D03*
X25600000Y14250000D03*
X22500000Y15900000D03*
X17000000Y6400000D03*
D16*
X27750000Y16650000D03*
X30800000Y18050000D03*
X32250000Y18950000D03*
X32400000Y22000000D03*
X29400000Y33200000D03*
X29400000Y30200000D03*
X29800000Y7250000D03*
D15*
X16300000Y6400000D03*
X10300000Y16400000D03*
X11200000Y16400000D03*
X12200000Y16400000D03*
X13000000Y16400000D03*
X10300000Y15700000D03*
X11200000Y15700000D03*
X12200000Y15700000D03*
X13000000Y15700000D03*
D16*
X29000000Y8000000D03*
D15*
X6425000Y7250000D03*
X1550000Y23150000D03*
X26450000Y22700000D03*
X20700000Y29200000D03*
X26200000Y28200000D03*
D16*
X29900000Y24700000D03*
D15*
X18200000Y15700000D03*
X29800000Y16500000D03*
X26929000Y27229000D03*
X11050000Y30200000D03*
X5450000Y27950000D03*
X13710000Y28200000D03*
X11550000Y19370000D03*
X28650000Y31650000D03*
X20900000Y33500000D03*
X28400000Y19800000D03*
X21200000Y23200000D03*
X26400000Y14150000D03*
X26200000Y21000000D03*
X23700000Y20200000D03*
X23900000Y14100000D03*
X22700000Y27700000D03*
X23100000Y25900000D03*
X24700000Y12700000D03*
X23450000Y30700000D03*
X24950000Y11950000D03*
X18700000Y13700000D03*
X11050000Y29200000D03*
X4700000Y26200000D03*
X13300000Y19250000D03*
X13700000Y25900000D03*
X22900000Y33500000D03*
X19700000Y21700000D03*
X26250000Y26000000D03*
X20450000Y6200000D03*
X26950000Y11200000D03*
D17*
X26900000Y10200000D02*
X27100000Y10000000D01*
X25700000Y10200000D02*
X26900000Y10200000D01*
X18387000Y7941500D02*
X17687000Y7941500D01*
X18387000Y7941500D02*
X18387000Y6637000D01*
X17687000Y6561000D02*
X17848000Y6400000D01*
X17687000Y7941500D02*
X17687000Y6561000D01*
X18150000Y6400000D02*
X18387000Y6637000D01*
X17848000Y6400000D02*
X18150000Y6400000D01*
X14528500Y8300000D02*
X14887000Y7941500D01*
X14300000Y8300000D02*
X14528500Y8300000D01*
X14545500Y7600000D02*
X14887000Y7941500D01*
X14300000Y7600000D02*
X14545500Y7600000D01*
X14458500Y7941500D02*
X14300000Y8100000D01*
X14887000Y7941500D02*
X14458500Y7941500D01*
X14300000Y8100000D02*
X14300000Y7600000D01*
X14300000Y8300000D02*
X14300000Y8100000D01*
X22828500Y7700000D02*
X22587000Y7941500D01*
X23300000Y7700000D02*
X22828500Y7700000D01*
X17687000Y6511000D02*
X17848000Y6350000D01*
X17687000Y6561000D02*
X17687000Y6511000D01*
X18100000Y6350000D02*
X18150000Y6400000D01*
X17848000Y6350000D02*
X18100000Y6350000D01*
D18*
X16287000Y7941500D02*
X16987000Y7941500D01*
D17*
X16300000Y6450000D02*
X16287000Y6463000D01*
X16987000Y6463000D02*
X17000000Y6450000D01*
X16287000Y6413000D02*
X16300000Y6400000D01*
X16287000Y7941500D02*
X16287000Y6413000D01*
X16300000Y6400000D02*
X17000000Y6400000D01*
X16987000Y6413000D02*
X17000000Y6400000D01*
X16987000Y7941500D02*
X16987000Y6413000D01*
X2450000Y10942158D02*
X2450000Y12450000D01*
X2450000Y10942158D02*
X2450000Y10910098D01*
X6425000Y7250000D02*
X6142158Y7250000D01*
X2450000Y10942158D02*
X2450000Y10700000D01*
X5900000Y7250000D02*
X6425000Y7250000D01*
X2450000Y10700000D02*
X5900000Y7250000D01*
D19*
X13200000Y29200000D02*
X16200000Y29200000D01*
X16200000Y29200000D02*
X20700000Y29200000D01*
X20700000Y29200000D02*
X20700000Y29200000D01*
X1550000Y23150000D02*
X1550000Y23550000D01*
X1550000Y23550000D02*
X2450000Y24450000D01*
X8450000Y24450000D02*
X9950000Y25950000D01*
X2450000Y24450000D02*
X8450000Y24450000D01*
X9950000Y25950000D02*
X13200000Y29200000D01*
X9700000Y25700000D02*
X9950000Y25950000D01*
D18*
X26200000Y28200000D02*
X28200000Y28200000D01*
X28200000Y28200000D02*
X29900000Y26500000D01*
X29900000Y26500000D02*
X29900000Y24700000D01*
D19*
X29900000Y24700000D02*
X29900000Y24700000D01*
D17*
X15587000Y7941500D02*
X15587000Y10113000D01*
X15587000Y10113000D02*
X15400000Y10300000D01*
X15400000Y10300000D02*
X15400000Y12000000D01*
X15400000Y12900000D02*
X18200000Y15700000D01*
X15400000Y12000000D02*
X15400000Y12900000D01*
D19*
X29800000Y20600000D02*
X29800000Y16500000D01*
X28100000Y22300000D02*
X29800000Y20600000D01*
X28100000Y26058000D02*
X28100000Y22300000D01*
X26929000Y27229000D02*
X28100000Y26058000D01*
X5450000Y27950000D02*
X7700000Y30200000D01*
X7700000Y30200000D02*
X11100000Y30200000D01*
X13710000Y28200000D02*
X13730000Y28200000D01*
X13730000Y28200000D02*
X13980000Y27950000D01*
X13980000Y27950000D02*
X13980000Y27510000D01*
X13980000Y27510000D02*
X11550000Y25080000D01*
X11550000Y25080000D02*
X11550000Y19370000D01*
X11550000Y19370000D02*
X11550000Y19370000D01*
X28650000Y31650000D02*
X26800000Y31650000D01*
X26800000Y31650000D02*
X24350000Y34100000D01*
X24350000Y34100000D02*
X21900000Y34100000D01*
X21900000Y34100000D02*
X21500000Y34100000D01*
X21500000Y34100000D02*
X20900000Y33500000D01*
X20900000Y33500000D02*
X20900000Y33500000D01*
X26399999Y20800001D02*
X26200000Y21000000D01*
X26400000Y14150000D02*
X26399999Y20800001D01*
X23700000Y17450000D02*
X23700000Y20200000D01*
X23100000Y16850000D02*
X23700000Y17450000D01*
X23100000Y14400000D02*
X23100000Y16850000D01*
X23400000Y14100000D02*
X23100000Y14400000D01*
X23900000Y14100000D02*
X23400000Y14100000D01*
X22700000Y27700000D02*
X22700000Y27700000D01*
X22700000Y27100000D02*
X22700000Y27700000D01*
X23100000Y26700000D02*
X22700000Y27100000D01*
X23100000Y25900000D02*
X23100000Y26700000D01*
X24700000Y12700000D02*
X24700000Y27200000D01*
X24700000Y27200000D02*
X23450000Y28450000D01*
X23450000Y28450000D02*
X23450000Y30700000D01*
X23450000Y30700000D02*
X23450000Y30700000D01*
X7700000Y29200000D02*
X11050000Y29200000D01*
X4700000Y26200000D02*
X7700000Y29200000D01*
X13300000Y19250000D02*
X13300000Y19250000D01*
X19087000Y6491500D02*
X19087000Y7941500D01*
X18445500Y5850000D02*
X19087000Y6491500D01*
X15144898Y5850000D02*
X18445500Y5850000D01*
X13300000Y11050000D02*
X13300000Y7694898D01*
X14600000Y12350000D02*
X13300000Y11050000D01*
X14600000Y17100000D02*
X14600000Y12350000D01*
X13300000Y18400000D02*
X14600000Y17100000D01*
X13300000Y7694898D02*
X15144898Y5850000D01*
X13300000Y19250000D02*
X13300000Y18400000D01*
X13700000Y25900000D02*
X13700000Y25900000D01*
X21887000Y7941500D02*
X21887000Y6807898D01*
X13700000Y25900000D02*
X13700000Y20550000D01*
X13700000Y20550000D02*
X12400000Y19250000D01*
X12400000Y13800000D02*
X12400000Y6800000D01*
X12400000Y6800000D02*
X15700000Y3500000D01*
X18700000Y3500000D02*
X21300000Y6100000D01*
X12400000Y19250000D02*
X12400000Y17800000D01*
X12400000Y17800000D02*
X14000000Y16200000D01*
X14000000Y16200000D02*
X14000000Y15400000D01*
X14000000Y15400000D02*
X12400000Y13800000D01*
X15700000Y3500000D02*
X18700000Y3500000D01*
X21300000Y6100000D02*
X21700000Y6100000D01*
X21700000Y6100000D02*
X21900000Y6300000D01*
X21887000Y6313000D02*
X21887000Y7941500D01*
X21900000Y6300000D02*
X21887000Y6313000D01*
X22900000Y33500000D02*
X22900000Y33500000D01*
X21187000Y14587000D02*
X21187000Y7941500D01*
X21900000Y15300000D02*
X21187000Y14587000D01*
X22900000Y33500000D02*
X21900000Y32500000D01*
X21900000Y32500000D02*
X21900000Y15300000D01*
X19700000Y21700000D02*
X19700000Y21700000D01*
X20487000Y9663000D02*
X20487000Y7941500D01*
X19700000Y10450000D02*
X20487000Y9663000D01*
X19700000Y15300000D02*
X19700000Y10450000D01*
X19707522Y15366757D02*
X19700000Y15300000D01*
X19729710Y15430166D02*
X19707522Y15366757D01*
X19765451Y15487047D02*
X19729710Y15430166D01*
X19812954Y15534550D02*
X19765451Y15487047D01*
X19869835Y15570291D02*
X19812954Y15534550D01*
X19933244Y15592479D02*
X19869835Y15570291D01*
X20000000Y15600000D02*
X19933244Y15592479D01*
X20235225Y15600000D02*
X20000000Y15600000D01*
X20301982Y15607522D02*
X20235225Y15600000D01*
X20365391Y15629710D02*
X20301982Y15607522D01*
X20422272Y15665451D02*
X20365391Y15629710D01*
X20469775Y15712954D02*
X20422272Y15665451D01*
X20527704Y15833244D02*
X20505516Y15769835D01*
X20527704Y15966757D02*
X20535225Y15900000D01*
X20505516Y16030166D02*
X20527704Y15966757D01*
X20301982Y17392479D02*
X20365391Y17370291D01*
X20365391Y17370291D02*
X20422272Y17334550D01*
X20235225Y17400000D02*
X20301982Y17392479D01*
X18977728Y17465451D02*
X19034609Y17429710D01*
X19034609Y17429710D02*
X19098018Y17407522D01*
X18930225Y17512954D02*
X18977728Y17465451D01*
X19098018Y16207522D02*
X19164775Y16200000D01*
X18894484Y17569835D02*
X18930225Y17512954D01*
X18872296Y17633244D02*
X18894484Y17569835D01*
X18864775Y16500000D02*
X18872296Y16433244D01*
X18864775Y17700000D02*
X18872296Y17633244D01*
X18872296Y17766757D02*
X18864775Y17700000D01*
X18894484Y17830166D02*
X18872296Y17766757D01*
X20527704Y17033244D02*
X20505516Y16969835D01*
X19692478Y18233244D02*
X19670290Y18169835D01*
X18930225Y17887047D02*
X18894484Y17830166D01*
X19670290Y18169835D02*
X19634549Y18112954D01*
X18894484Y16369835D02*
X18930225Y16312954D01*
X20505516Y17230166D02*
X20527704Y17166757D01*
X19587046Y18065451D02*
X19530165Y18029710D01*
X20527704Y17166757D02*
X20535225Y17100000D01*
X19634549Y18112954D02*
X19587046Y18065451D01*
X19530165Y18029710D02*
X19466756Y18007522D01*
X19700000Y21700000D02*
X19700000Y18300000D01*
X20469775Y16912954D02*
X20422272Y16865451D01*
X20505516Y15769835D02*
X20469775Y15712954D01*
X20301982Y16807522D02*
X20235225Y16800000D01*
X20469775Y17287047D02*
X20505516Y17230166D01*
X19034609Y16770291D02*
X18977728Y16734550D01*
X19466756Y18007522D02*
X19400000Y18000000D01*
X19164775Y17400000D02*
X20235225Y17400000D01*
X19098018Y17407522D02*
X19164775Y17400000D01*
X19164775Y16800000D02*
X19098018Y16792479D01*
X18977728Y17934550D02*
X18930225Y17887047D01*
X20422272Y16865451D02*
X20365391Y16829710D01*
X20235225Y16200000D02*
X20301982Y16192479D01*
X20422272Y17334550D02*
X20469775Y17287047D01*
X18977728Y16734550D02*
X18930225Y16687047D01*
X19400000Y18000000D02*
X19164775Y18000000D01*
X19164775Y18000000D02*
X19098018Y17992479D01*
X19098018Y17992479D02*
X19034609Y17970291D01*
X19034609Y17970291D02*
X18977728Y17934550D01*
X20535225Y17100000D02*
X20527704Y17033244D01*
X19700000Y18300000D02*
X19692478Y18233244D01*
X20505516Y16969835D02*
X20469775Y16912954D01*
X20535225Y15900000D02*
X20527704Y15833244D01*
X20365391Y16829710D02*
X20301982Y16807522D01*
X20235225Y16800000D02*
X19164775Y16800000D01*
X19098018Y16792479D02*
X19034609Y16770291D01*
X18930225Y16687047D02*
X18894484Y16630166D01*
X18894484Y16630166D02*
X18872296Y16566757D01*
X18872296Y16566757D02*
X18864775Y16500000D01*
X18872296Y16433244D02*
X18894484Y16369835D01*
X18930225Y16312954D02*
X18977728Y16265451D01*
X18977728Y16265451D02*
X19034609Y16229710D01*
X19034609Y16229710D02*
X19098018Y16207522D01*
X19164775Y16200000D02*
X20235225Y16200000D01*
X20301982Y16192479D02*
X20365391Y16170291D01*
X20365391Y16170291D02*
X20422272Y16134550D01*
X20422272Y16134550D02*
X20469775Y16087047D01*
X20469775Y16087047D02*
X20505516Y16030166D01*
X27000000Y11250000D02*
X26950000Y11200000D01*
X26950000Y11200000D02*
X26950000Y12950000D01*
X26950000Y12950000D02*
X28700000Y14700000D01*
X27300000Y24950000D02*
X27300000Y18300000D01*
X26250000Y26000000D02*
X27300000Y24950000D01*
X27300000Y18300000D02*
X28700000Y16900000D01*
X28700000Y14700000D02*
X28700000Y16900000D01*
X19787000Y7941500D02*
X19787000Y6613000D01*
X20200000Y6200000D02*
X20450000Y6200000D01*
X19787000Y6613000D02*
X20200000Y6200000D01*
M02*
