G04 #@! TF.GenerationSoftware,KiCad,Pcbnew,(5.1.10)-1*
G04 #@! TF.CreationDate,2021-08-15T15:57:37-07:00*
G04 #@! TF.ProjectId,esp32-smartwatch,65737033-322d-4736-9d61-727477617463,rev?*
G04 #@! TF.SameCoordinates,Original*
G04 #@! TF.FileFunction,Soldermask,Bot*
G04 #@! TF.FilePolarity,Negative*
%FSLAX46Y46*%
G04 Gerber Fmt 4.6, Leading zero omitted, Abs format (unit mm)*
G04 Created by KiCad (PCBNEW (5.1.10)-1) date 2021-08-15 15:57:37*
%MOMM*%
%LPD*%
G01*
G04 APERTURE LIST*
%ADD10C,1.100000*%
%ADD11O,2.000000X1.300000*%
%ADD12C,1.550000*%
G04 APERTURE END LIST*
D10*
X153314400Y-83210400D03*
G36*
G01*
X168775000Y-102613500D02*
X168775000Y-100113500D01*
G75*
G02*
X168825000Y-100063500I50000J0D01*
G01*
X169175000Y-100063500D01*
G75*
G02*
X169225000Y-100113500I0J-50000D01*
G01*
X169225000Y-102613500D01*
G75*
G02*
X169175000Y-102663500I-50000J0D01*
G01*
X168825000Y-102663500D01*
G75*
G02*
X168775000Y-102613500I0J50000D01*
G01*
G37*
G36*
G01*
X168075000Y-102613500D02*
X168075000Y-100113500D01*
G75*
G02*
X168125000Y-100063500I50000J0D01*
G01*
X168475000Y-100063500D01*
G75*
G02*
X168525000Y-100113500I0J-50000D01*
G01*
X168525000Y-102613500D01*
G75*
G02*
X168475000Y-102663500I-50000J0D01*
G01*
X168125000Y-102663500D01*
G75*
G02*
X168075000Y-102613500I0J50000D01*
G01*
G37*
G36*
G01*
X167375000Y-102613500D02*
X167375000Y-100113500D01*
G75*
G02*
X167425000Y-100063500I50000J0D01*
G01*
X167775000Y-100063500D01*
G75*
G02*
X167825000Y-100113500I0J-50000D01*
G01*
X167825000Y-102613500D01*
G75*
G02*
X167775000Y-102663500I-50000J0D01*
G01*
X167425000Y-102663500D01*
G75*
G02*
X167375000Y-102613500I0J50000D01*
G01*
G37*
G36*
G01*
X166675000Y-102613500D02*
X166675000Y-100113500D01*
G75*
G02*
X166725000Y-100063500I50000J0D01*
G01*
X167075000Y-100063500D01*
G75*
G02*
X167125000Y-100113500I0J-50000D01*
G01*
X167125000Y-102613500D01*
G75*
G02*
X167075000Y-102663500I-50000J0D01*
G01*
X166725000Y-102663500D01*
G75*
G02*
X166675000Y-102613500I0J50000D01*
G01*
G37*
G36*
G01*
X165975000Y-102613500D02*
X165975000Y-100113500D01*
G75*
G02*
X166025000Y-100063500I50000J0D01*
G01*
X166375000Y-100063500D01*
G75*
G02*
X166425000Y-100113500I0J-50000D01*
G01*
X166425000Y-102613500D01*
G75*
G02*
X166375000Y-102663500I-50000J0D01*
G01*
X166025000Y-102663500D01*
G75*
G02*
X165975000Y-102613500I0J50000D01*
G01*
G37*
G36*
G01*
X165275000Y-102613500D02*
X165275000Y-100113500D01*
G75*
G02*
X165325000Y-100063500I50000J0D01*
G01*
X165675000Y-100063500D01*
G75*
G02*
X165725000Y-100113500I0J-50000D01*
G01*
X165725000Y-102613500D01*
G75*
G02*
X165675000Y-102663500I-50000J0D01*
G01*
X165325000Y-102663500D01*
G75*
G02*
X165275000Y-102613500I0J50000D01*
G01*
G37*
G36*
G01*
X169475000Y-102613500D02*
X169475000Y-100113500D01*
G75*
G02*
X169525000Y-100063500I50000J0D01*
G01*
X169875000Y-100063500D01*
G75*
G02*
X169925000Y-100113500I0J-50000D01*
G01*
X169925000Y-102613500D01*
G75*
G02*
X169875000Y-102663500I-50000J0D01*
G01*
X169525000Y-102663500D01*
G75*
G02*
X169475000Y-102613500I0J50000D01*
G01*
G37*
G36*
G01*
X170175000Y-102613500D02*
X170175000Y-100113500D01*
G75*
G02*
X170225000Y-100063500I50000J0D01*
G01*
X170575000Y-100063500D01*
G75*
G02*
X170625000Y-100113500I0J-50000D01*
G01*
X170625000Y-102613500D01*
G75*
G02*
X170575000Y-102663500I-50000J0D01*
G01*
X170225000Y-102663500D01*
G75*
G02*
X170175000Y-102613500I0J50000D01*
G01*
G37*
G36*
G01*
X170875000Y-102613500D02*
X170875000Y-100113500D01*
G75*
G02*
X170925000Y-100063500I50000J0D01*
G01*
X171275000Y-100063500D01*
G75*
G02*
X171325000Y-100113500I0J-50000D01*
G01*
X171325000Y-102613500D01*
G75*
G02*
X171275000Y-102663500I-50000J0D01*
G01*
X170925000Y-102663500D01*
G75*
G02*
X170875000Y-102613500I0J50000D01*
G01*
G37*
G36*
G01*
X171575000Y-102613500D02*
X171575000Y-100113500D01*
G75*
G02*
X171625000Y-100063500I50000J0D01*
G01*
X171975000Y-100063500D01*
G75*
G02*
X172025000Y-100113500I0J-50000D01*
G01*
X172025000Y-102613500D01*
G75*
G02*
X171975000Y-102663500I-50000J0D01*
G01*
X171625000Y-102663500D01*
G75*
G02*
X171575000Y-102613500I0J50000D01*
G01*
G37*
G36*
G01*
X172275000Y-102613500D02*
X172275000Y-100113500D01*
G75*
G02*
X172325000Y-100063500I50000J0D01*
G01*
X172675000Y-100063500D01*
G75*
G02*
X172725000Y-100113500I0J-50000D01*
G01*
X172725000Y-102613500D01*
G75*
G02*
X172675000Y-102663500I-50000J0D01*
G01*
X172325000Y-102663500D01*
G75*
G02*
X172275000Y-102613500I0J50000D01*
G01*
G37*
G36*
G01*
X172975000Y-102613500D02*
X172975000Y-100113500D01*
G75*
G02*
X173025000Y-100063500I50000J0D01*
G01*
X173375000Y-100063500D01*
G75*
G02*
X173425000Y-100113500I0J-50000D01*
G01*
X173425000Y-102613500D01*
G75*
G02*
X173375000Y-102663500I-50000J0D01*
G01*
X173025000Y-102663500D01*
G75*
G02*
X172975000Y-102613500I0J50000D01*
G01*
G37*
X176600000Y-104200000D03*
X161798000Y-104495600D03*
X153720800Y-96062800D03*
D11*
X152262500Y-92500000D03*
X152262500Y-85500000D03*
D12*
X154962500Y-91500000D03*
X154962500Y-86500000D03*
G36*
G01*
X168270000Y-99636000D02*
X168270000Y-99246000D01*
G75*
G02*
X168435000Y-99081000I165000J0D01*
G01*
X168765000Y-99081000D01*
G75*
G02*
X168930000Y-99246000I0J-165000D01*
G01*
X168930000Y-99636000D01*
G75*
G02*
X168765000Y-99801000I-165000J0D01*
G01*
X168435000Y-99801000D01*
G75*
G02*
X168270000Y-99636000I0J165000D01*
G01*
G37*
G36*
G01*
X167310000Y-99636000D02*
X167310000Y-99246000D01*
G75*
G02*
X167475000Y-99081000I165000J0D01*
G01*
X167805000Y-99081000D01*
G75*
G02*
X167970000Y-99246000I0J-165000D01*
G01*
X167970000Y-99636000D01*
G75*
G02*
X167805000Y-99801000I-165000J0D01*
G01*
X167475000Y-99801000D01*
G75*
G02*
X167310000Y-99636000I0J165000D01*
G01*
G37*
M02*
