G04 #@! TF.GenerationSoftware,KiCad,Pcbnew,(5.1.10)-1*
G04 #@! TF.CreationDate,2021-08-15T15:57:36-07:00*
G04 #@! TF.ProjectId,esp32-smartwatch,65737033-322d-4736-9d61-727477617463,rev?*
G04 #@! TF.SameCoordinates,Original*
G04 #@! TF.FileFunction,Copper,L1,Top*
G04 #@! TF.FilePolarity,Positive*
%FSLAX46Y46*%
G04 Gerber Fmt 4.6, Leading zero omitted, Abs format (unit mm)*
G04 Created by KiCad (PCBNEW (5.1.10)-1) date 2021-08-15 15:57:36*
%MOMM*%
%LPD*%
G01*
G04 APERTURE LIST*
G04 #@! TA.AperFunction,SMDPad,CuDef*
%ADD10R,0.300000X0.350000*%
G04 #@! TD*
G04 #@! TA.AperFunction,SMDPad,CuDef*
%ADD11R,0.350000X0.300000*%
G04 #@! TD*
G04 #@! TA.AperFunction,ComponentPad*
%ADD12C,1.000000*%
G04 #@! TD*
G04 #@! TA.AperFunction,SMDPad,CuDef*
%ADD13R,0.300000X1.400000*%
G04 #@! TD*
G04 #@! TA.AperFunction,SMDPad,CuDef*
%ADD14R,3.000000X6.000000*%
G04 #@! TD*
G04 #@! TA.AperFunction,SMDPad,CuDef*
%ADD15R,0.600000X1.524000*%
G04 #@! TD*
G04 #@! TA.AperFunction,SMDPad,CuDef*
%ADD16R,1.524000X0.600000*%
G04 #@! TD*
G04 #@! TA.AperFunction,SMDPad,CuDef*
%ADD17R,5.000000X5.000000*%
G04 #@! TD*
G04 #@! TA.AperFunction,SMDPad,CuDef*
%ADD18R,0.650000X1.060000*%
G04 #@! TD*
G04 #@! TA.AperFunction,SMDPad,CuDef*
%ADD19R,0.450000X0.300000*%
G04 #@! TD*
G04 #@! TA.AperFunction,SMDPad,CuDef*
%ADD20C,2.000000*%
G04 #@! TD*
G04 #@! TA.AperFunction,SMDPad,CuDef*
%ADD21R,0.900000X0.800000*%
G04 #@! TD*
G04 #@! TA.AperFunction,SMDPad,CuDef*
%ADD22R,0.457200X1.016000*%
G04 #@! TD*
G04 #@! TA.AperFunction,SMDPad,CuDef*
%ADD23R,0.406400X1.016000*%
G04 #@! TD*
G04 #@! TA.AperFunction,SMDPad,CuDef*
%ADD24R,1.143000X0.762000*%
G04 #@! TD*
G04 #@! TA.AperFunction,SMDPad,CuDef*
%ADD25R,1.900000X1.200000*%
G04 #@! TD*
G04 #@! TA.AperFunction,ComponentPad*
%ADD26O,1.900000X1.200000*%
G04 #@! TD*
G04 #@! TA.AperFunction,SMDPad,CuDef*
%ADD27R,1.900000X1.500000*%
G04 #@! TD*
G04 #@! TA.AperFunction,ComponentPad*
%ADD28C,1.450000*%
G04 #@! TD*
G04 #@! TA.AperFunction,SMDPad,CuDef*
%ADD29R,1.350000X0.400000*%
G04 #@! TD*
G04 #@! TA.AperFunction,SMDPad,CuDef*
%ADD30R,0.900000X1.200000*%
G04 #@! TD*
G04 #@! TA.AperFunction,SMDPad,CuDef*
%ADD31R,1.200000X0.900000*%
G04 #@! TD*
G04 #@! TA.AperFunction,ViaPad*
%ADD32C,0.635000*%
G04 #@! TD*
G04 #@! TA.AperFunction,ViaPad*
%ADD33C,0.500000*%
G04 #@! TD*
G04 #@! TA.AperFunction,Conductor*
%ADD34C,0.635000*%
G04 #@! TD*
G04 #@! TA.AperFunction,Conductor*
%ADD35C,0.381000*%
G04 #@! TD*
G04 #@! TA.AperFunction,Conductor*
%ADD36C,0.508000*%
G04 #@! TD*
G04 #@! TA.AperFunction,Conductor*
%ADD37C,0.254000*%
G04 #@! TD*
G04 #@! TA.AperFunction,Conductor*
%ADD38C,0.200000*%
G04 #@! TD*
G04 APERTURE END LIST*
D10*
X173550000Y-90375000D03*
X174050000Y-90375000D03*
D11*
X173025000Y-90400000D03*
X174575000Y-90400000D03*
D10*
X173550000Y-91925000D03*
X174050000Y-91925000D03*
D11*
X173025000Y-91900000D03*
X174575000Y-91900000D03*
X173025000Y-90900000D03*
X173025000Y-91400000D03*
X174575000Y-90900000D03*
X174575000Y-91400000D03*
D12*
X153314400Y-83210400D03*
G04 #@! TA.AperFunction,SMDPad,CuDef*
G36*
G01*
X172170000Y-91700000D02*
X171830000Y-91700000D01*
G75*
G02*
X171690000Y-91560000I0J140000D01*
G01*
X171690000Y-91280000D01*
G75*
G02*
X171830000Y-91140000I140000J0D01*
G01*
X172170000Y-91140000D01*
G75*
G02*
X172310000Y-91280000I0J-140000D01*
G01*
X172310000Y-91560000D01*
G75*
G02*
X172170000Y-91700000I-140000J0D01*
G01*
G37*
G04 #@! TD.AperFunction*
G04 #@! TA.AperFunction,SMDPad,CuDef*
G36*
G01*
X172170000Y-92660000D02*
X171830000Y-92660000D01*
G75*
G02*
X171690000Y-92520000I0J140000D01*
G01*
X171690000Y-92240000D01*
G75*
G02*
X171830000Y-92100000I140000J0D01*
G01*
X172170000Y-92100000D01*
G75*
G02*
X172310000Y-92240000I0J-140000D01*
G01*
X172310000Y-92520000D01*
G75*
G02*
X172170000Y-92660000I-140000J0D01*
G01*
G37*
G04 #@! TD.AperFunction*
D13*
X161350000Y-92650000D03*
X160850000Y-92650000D03*
X160350000Y-92650000D03*
X159850000Y-92650000D03*
X159350000Y-92650000D03*
X159350000Y-88250000D03*
X159850000Y-88250000D03*
X160350000Y-88250000D03*
X160850000Y-88250000D03*
X161350000Y-88250000D03*
D14*
X173045000Y-103500000D03*
X165425000Y-103500000D03*
D15*
X172456000Y-87825000D03*
X171440000Y-87825000D03*
X170424000Y-87825000D03*
X169408000Y-87825000D03*
X168392000Y-87825000D03*
X167376000Y-87825000D03*
X166360000Y-87825000D03*
X165344000Y-87825000D03*
D16*
X175400000Y-78325000D03*
X175400000Y-72325000D03*
X175400000Y-81325000D03*
X175400000Y-80325000D03*
X175400000Y-73325000D03*
X175400000Y-74325000D03*
X175400000Y-75325000D03*
X175400000Y-76325000D03*
X175400000Y-86325000D03*
X175400000Y-85325000D03*
X175400000Y-79325000D03*
X175400000Y-83325000D03*
X175400000Y-77325000D03*
X175400000Y-82325000D03*
X175400000Y-84325000D03*
X162400000Y-72325000D03*
X162400000Y-73325000D03*
X162400000Y-74325000D03*
X162400000Y-75325000D03*
X162400000Y-76325000D03*
X162400000Y-77325000D03*
X162400000Y-78325000D03*
X162400000Y-79325000D03*
X162400000Y-80325000D03*
X162400000Y-81325000D03*
X162400000Y-82325000D03*
X162400000Y-83325000D03*
X162400000Y-84325000D03*
X162400000Y-85325000D03*
X162400000Y-86325000D03*
D17*
X168900000Y-81325000D03*
D18*
X173300000Y-96950000D03*
X171400000Y-96950000D03*
X171400000Y-94750000D03*
X172350000Y-94750000D03*
X173300000Y-94750000D03*
G04 #@! TA.AperFunction,SMDPad,CuDef*
G36*
G01*
X180150000Y-88305000D02*
X180150000Y-88605000D01*
G75*
G02*
X180000000Y-88755000I-150000J0D01*
G01*
X178350000Y-88755000D01*
G75*
G02*
X178200000Y-88605000I0J150000D01*
G01*
X178200000Y-88305000D01*
G75*
G02*
X178350000Y-88155000I150000J0D01*
G01*
X180000000Y-88155000D01*
G75*
G02*
X180150000Y-88305000I0J-150000D01*
G01*
G37*
G04 #@! TD.AperFunction*
G04 #@! TA.AperFunction,SMDPad,CuDef*
G36*
G01*
X180150000Y-87035000D02*
X180150000Y-87335000D01*
G75*
G02*
X180000000Y-87485000I-150000J0D01*
G01*
X178350000Y-87485000D01*
G75*
G02*
X178200000Y-87335000I0J150000D01*
G01*
X178200000Y-87035000D01*
G75*
G02*
X178350000Y-86885000I150000J0D01*
G01*
X180000000Y-86885000D01*
G75*
G02*
X180150000Y-87035000I0J-150000D01*
G01*
G37*
G04 #@! TD.AperFunction*
G04 #@! TA.AperFunction,SMDPad,CuDef*
G36*
G01*
X180150000Y-85765000D02*
X180150000Y-86065000D01*
G75*
G02*
X180000000Y-86215000I-150000J0D01*
G01*
X178350000Y-86215000D01*
G75*
G02*
X178200000Y-86065000I0J150000D01*
G01*
X178200000Y-85765000D01*
G75*
G02*
X178350000Y-85615000I150000J0D01*
G01*
X180000000Y-85615000D01*
G75*
G02*
X180150000Y-85765000I0J-150000D01*
G01*
G37*
G04 #@! TD.AperFunction*
G04 #@! TA.AperFunction,SMDPad,CuDef*
G36*
G01*
X180150000Y-84495000D02*
X180150000Y-84795000D01*
G75*
G02*
X180000000Y-84945000I-150000J0D01*
G01*
X178350000Y-84945000D01*
G75*
G02*
X178200000Y-84795000I0J150000D01*
G01*
X178200000Y-84495000D01*
G75*
G02*
X178350000Y-84345000I150000J0D01*
G01*
X180000000Y-84345000D01*
G75*
G02*
X180150000Y-84495000I0J-150000D01*
G01*
G37*
G04 #@! TD.AperFunction*
G04 #@! TA.AperFunction,SMDPad,CuDef*
G36*
G01*
X185100000Y-84495000D02*
X185100000Y-84795000D01*
G75*
G02*
X184950000Y-84945000I-150000J0D01*
G01*
X183300000Y-84945000D01*
G75*
G02*
X183150000Y-84795000I0J150000D01*
G01*
X183150000Y-84495000D01*
G75*
G02*
X183300000Y-84345000I150000J0D01*
G01*
X184950000Y-84345000D01*
G75*
G02*
X185100000Y-84495000I0J-150000D01*
G01*
G37*
G04 #@! TD.AperFunction*
G04 #@! TA.AperFunction,SMDPad,CuDef*
G36*
G01*
X185100000Y-85765000D02*
X185100000Y-86065000D01*
G75*
G02*
X184950000Y-86215000I-150000J0D01*
G01*
X183300000Y-86215000D01*
G75*
G02*
X183150000Y-86065000I0J150000D01*
G01*
X183150000Y-85765000D01*
G75*
G02*
X183300000Y-85615000I150000J0D01*
G01*
X184950000Y-85615000D01*
G75*
G02*
X185100000Y-85765000I0J-150000D01*
G01*
G37*
G04 #@! TD.AperFunction*
G04 #@! TA.AperFunction,SMDPad,CuDef*
G36*
G01*
X185100000Y-87035000D02*
X185100000Y-87335000D01*
G75*
G02*
X184950000Y-87485000I-150000J0D01*
G01*
X183300000Y-87485000D01*
G75*
G02*
X183150000Y-87335000I0J150000D01*
G01*
X183150000Y-87035000D01*
G75*
G02*
X183300000Y-86885000I150000J0D01*
G01*
X184950000Y-86885000D01*
G75*
G02*
X185100000Y-87035000I0J-150000D01*
G01*
G37*
G04 #@! TD.AperFunction*
G04 #@! TA.AperFunction,SMDPad,CuDef*
G36*
G01*
X185100000Y-88305000D02*
X185100000Y-88605000D01*
G75*
G02*
X184950000Y-88755000I-150000J0D01*
G01*
X183300000Y-88755000D01*
G75*
G02*
X183150000Y-88605000I0J150000D01*
G01*
X183150000Y-88305000D01*
G75*
G02*
X183300000Y-88155000I150000J0D01*
G01*
X184950000Y-88155000D01*
G75*
G02*
X185100000Y-88305000I0J-150000D01*
G01*
G37*
G04 #@! TD.AperFunction*
X165050000Y-96900000D03*
X163150000Y-96900000D03*
X163150000Y-94700000D03*
X164100000Y-94700000D03*
X165050000Y-94700000D03*
D19*
X157900000Y-89400000D03*
X156500000Y-88900000D03*
X157900000Y-88400000D03*
X156500000Y-89400000D03*
X156500000Y-88400000D03*
D12*
X176600000Y-104200000D03*
X161798000Y-104495600D03*
X153720800Y-96062800D03*
G04 #@! TA.AperFunction,SMDPad,CuDef*
D20*
G36*
X153826771Y-78706041D02*
G01*
X154533877Y-79413147D01*
X153685349Y-80261675D01*
X152978243Y-79554569D01*
X153826771Y-78706041D01*
G37*
G04 #@! TD.AperFunction*
G04 #@! TA.AperFunction,SMDPad,CuDef*
G36*
X155028853Y-79908123D02*
G01*
X155735959Y-80615229D01*
X154887431Y-81463757D01*
X154180325Y-80756651D01*
X155028853Y-79908123D01*
G37*
G04 #@! TD.AperFunction*
G04 #@! TA.AperFunction,SMDPad,CuDef*
G36*
X158988651Y-75948325D02*
G01*
X159695757Y-76655431D01*
X158847229Y-77503959D01*
X158140123Y-76796853D01*
X158988651Y-75948325D01*
G37*
G04 #@! TD.AperFunction*
G04 #@! TA.AperFunction,SMDPad,CuDef*
G36*
X157786569Y-74746243D02*
G01*
X158493675Y-75453349D01*
X157645147Y-76301877D01*
X156938041Y-75594771D01*
X157786569Y-74746243D01*
G37*
G04 #@! TD.AperFunction*
G04 #@! TA.AperFunction,SMDPad,CuDef*
G36*
G01*
X179825000Y-96575000D02*
X179825000Y-96025000D01*
G75*
G02*
X180025000Y-95825000I200000J0D01*
G01*
X180425000Y-95825000D01*
G75*
G02*
X180625000Y-96025000I0J-200000D01*
G01*
X180625000Y-96575000D01*
G75*
G02*
X180425000Y-96775000I-200000J0D01*
G01*
X180025000Y-96775000D01*
G75*
G02*
X179825000Y-96575000I0J200000D01*
G01*
G37*
G04 #@! TD.AperFunction*
G04 #@! TA.AperFunction,SMDPad,CuDef*
G36*
G01*
X178175000Y-96575000D02*
X178175000Y-96025000D01*
G75*
G02*
X178375000Y-95825000I200000J0D01*
G01*
X178775000Y-95825000D01*
G75*
G02*
X178975000Y-96025000I0J-200000D01*
G01*
X178975000Y-96575000D01*
G75*
G02*
X178775000Y-96775000I-200000J0D01*
G01*
X178375000Y-96775000D01*
G75*
G02*
X178175000Y-96575000I0J200000D01*
G01*
G37*
G04 #@! TD.AperFunction*
G04 #@! TA.AperFunction,SMDPad,CuDef*
G36*
G01*
X165425000Y-92875000D02*
X165425000Y-92325000D01*
G75*
G02*
X165625000Y-92125000I200000J0D01*
G01*
X166025000Y-92125000D01*
G75*
G02*
X166225000Y-92325000I0J-200000D01*
G01*
X166225000Y-92875000D01*
G75*
G02*
X166025000Y-93075000I-200000J0D01*
G01*
X165625000Y-93075000D01*
G75*
G02*
X165425000Y-92875000I0J200000D01*
G01*
G37*
G04 #@! TD.AperFunction*
G04 #@! TA.AperFunction,SMDPad,CuDef*
G36*
G01*
X163775000Y-92875000D02*
X163775000Y-92325000D01*
G75*
G02*
X163975000Y-92125000I200000J0D01*
G01*
X164375000Y-92125000D01*
G75*
G02*
X164575000Y-92325000I0J-200000D01*
G01*
X164575000Y-92875000D01*
G75*
G02*
X164375000Y-93075000I-200000J0D01*
G01*
X163975000Y-93075000D01*
G75*
G02*
X163775000Y-92875000I0J200000D01*
G01*
G37*
G04 #@! TD.AperFunction*
G04 #@! TA.AperFunction,SMDPad,CuDef*
G36*
G01*
X186425000Y-84925000D02*
X185875000Y-84925000D01*
G75*
G02*
X185675000Y-84725000I0J200000D01*
G01*
X185675000Y-84325000D01*
G75*
G02*
X185875000Y-84125000I200000J0D01*
G01*
X186425000Y-84125000D01*
G75*
G02*
X186625000Y-84325000I0J-200000D01*
G01*
X186625000Y-84725000D01*
G75*
G02*
X186425000Y-84925000I-200000J0D01*
G01*
G37*
G04 #@! TD.AperFunction*
G04 #@! TA.AperFunction,SMDPad,CuDef*
G36*
G01*
X186425000Y-86575000D02*
X185875000Y-86575000D01*
G75*
G02*
X185675000Y-86375000I0J200000D01*
G01*
X185675000Y-85975000D01*
G75*
G02*
X185875000Y-85775000I200000J0D01*
G01*
X186425000Y-85775000D01*
G75*
G02*
X186625000Y-85975000I0J-200000D01*
G01*
X186625000Y-86375000D01*
G75*
G02*
X186425000Y-86575000I-200000J0D01*
G01*
G37*
G04 #@! TD.AperFunction*
G04 #@! TA.AperFunction,SMDPad,CuDef*
G36*
G01*
X158482000Y-82750500D02*
X158482000Y-82200500D01*
G75*
G02*
X158682000Y-82000500I200000J0D01*
G01*
X159082000Y-82000500D01*
G75*
G02*
X159282000Y-82200500I0J-200000D01*
G01*
X159282000Y-82750500D01*
G75*
G02*
X159082000Y-82950500I-200000J0D01*
G01*
X158682000Y-82950500D01*
G75*
G02*
X158482000Y-82750500I0J200000D01*
G01*
G37*
G04 #@! TD.AperFunction*
G04 #@! TA.AperFunction,SMDPad,CuDef*
G36*
G01*
X156832000Y-82750500D02*
X156832000Y-82200500D01*
G75*
G02*
X157032000Y-82000500I200000J0D01*
G01*
X157432000Y-82000500D01*
G75*
G02*
X157632000Y-82200500I0J-200000D01*
G01*
X157632000Y-82750500D01*
G75*
G02*
X157432000Y-82950500I-200000J0D01*
G01*
X157032000Y-82950500D01*
G75*
G02*
X156832000Y-82750500I0J200000D01*
G01*
G37*
G04 #@! TD.AperFunction*
G04 #@! TA.AperFunction,SMDPad,CuDef*
G36*
G01*
X179825000Y-90725000D02*
X179825000Y-90175000D01*
G75*
G02*
X180025000Y-89975000I200000J0D01*
G01*
X180425000Y-89975000D01*
G75*
G02*
X180625000Y-90175000I0J-200000D01*
G01*
X180625000Y-90725000D01*
G75*
G02*
X180425000Y-90925000I-200000J0D01*
G01*
X180025000Y-90925000D01*
G75*
G02*
X179825000Y-90725000I0J200000D01*
G01*
G37*
G04 #@! TD.AperFunction*
G04 #@! TA.AperFunction,SMDPad,CuDef*
G36*
G01*
X178175000Y-90725000D02*
X178175000Y-90175000D01*
G75*
G02*
X178375000Y-89975000I200000J0D01*
G01*
X178775000Y-89975000D01*
G75*
G02*
X178975000Y-90175000I0J-200000D01*
G01*
X178975000Y-90725000D01*
G75*
G02*
X178775000Y-90925000I-200000J0D01*
G01*
X178375000Y-90925000D01*
G75*
G02*
X178175000Y-90725000I0J200000D01*
G01*
G37*
G04 #@! TD.AperFunction*
G04 #@! TA.AperFunction,SMDPad,CuDef*
G36*
G01*
X164827000Y-98827000D02*
X164827000Y-98277000D01*
G75*
G02*
X165027000Y-98077000I200000J0D01*
G01*
X165427000Y-98077000D01*
G75*
G02*
X165627000Y-98277000I0J-200000D01*
G01*
X165627000Y-98827000D01*
G75*
G02*
X165427000Y-99027000I-200000J0D01*
G01*
X165027000Y-99027000D01*
G75*
G02*
X164827000Y-98827000I0J200000D01*
G01*
G37*
G04 #@! TD.AperFunction*
G04 #@! TA.AperFunction,SMDPad,CuDef*
G36*
G01*
X163177000Y-98827000D02*
X163177000Y-98277000D01*
G75*
G02*
X163377000Y-98077000I200000J0D01*
G01*
X163777000Y-98077000D01*
G75*
G02*
X163977000Y-98277000I0J-200000D01*
G01*
X163977000Y-98827000D01*
G75*
G02*
X163777000Y-99027000I-200000J0D01*
G01*
X163377000Y-99027000D01*
G75*
G02*
X163177000Y-98827000I0J200000D01*
G01*
G37*
G04 #@! TD.AperFunction*
G04 #@! TA.AperFunction,SMDPad,CuDef*
G36*
G01*
X165425000Y-91275000D02*
X165425000Y-90725000D01*
G75*
G02*
X165625000Y-90525000I200000J0D01*
G01*
X166025000Y-90525000D01*
G75*
G02*
X166225000Y-90725000I0J-200000D01*
G01*
X166225000Y-91275000D01*
G75*
G02*
X166025000Y-91475000I-200000J0D01*
G01*
X165625000Y-91475000D01*
G75*
G02*
X165425000Y-91275000I0J200000D01*
G01*
G37*
G04 #@! TD.AperFunction*
G04 #@! TA.AperFunction,SMDPad,CuDef*
G36*
G01*
X163775000Y-91275000D02*
X163775000Y-90725000D01*
G75*
G02*
X163975000Y-90525000I200000J0D01*
G01*
X164375000Y-90525000D01*
G75*
G02*
X164575000Y-90725000I0J-200000D01*
G01*
X164575000Y-91275000D01*
G75*
G02*
X164375000Y-91475000I-200000J0D01*
G01*
X163975000Y-91475000D01*
G75*
G02*
X163775000Y-91275000I0J200000D01*
G01*
G37*
G04 #@! TD.AperFunction*
G04 #@! TA.AperFunction,SMDPad,CuDef*
G36*
G01*
X178975000Y-82725000D02*
X178975000Y-83275000D01*
G75*
G02*
X178775000Y-83475000I-200000J0D01*
G01*
X178375000Y-83475000D01*
G75*
G02*
X178175000Y-83275000I0J200000D01*
G01*
X178175000Y-82725000D01*
G75*
G02*
X178375000Y-82525000I200000J0D01*
G01*
X178775000Y-82525000D01*
G75*
G02*
X178975000Y-82725000I0J-200000D01*
G01*
G37*
G04 #@! TD.AperFunction*
G04 #@! TA.AperFunction,SMDPad,CuDef*
G36*
G01*
X180625000Y-82725000D02*
X180625000Y-83275000D01*
G75*
G02*
X180425000Y-83475000I-200000J0D01*
G01*
X180025000Y-83475000D01*
G75*
G02*
X179825000Y-83275000I0J200000D01*
G01*
X179825000Y-82725000D01*
G75*
G02*
X180025000Y-82525000I200000J0D01*
G01*
X180425000Y-82525000D01*
G75*
G02*
X180625000Y-82725000I0J-200000D01*
G01*
G37*
G04 #@! TD.AperFunction*
G04 #@! TA.AperFunction,SMDPad,CuDef*
G36*
G01*
X167825000Y-96500000D02*
X168375000Y-96500000D01*
G75*
G02*
X168575000Y-96700000I0J-200000D01*
G01*
X168575000Y-97100000D01*
G75*
G02*
X168375000Y-97300000I-200000J0D01*
G01*
X167825000Y-97300000D01*
G75*
G02*
X167625000Y-97100000I0J200000D01*
G01*
X167625000Y-96700000D01*
G75*
G02*
X167825000Y-96500000I200000J0D01*
G01*
G37*
G04 #@! TD.AperFunction*
G04 #@! TA.AperFunction,SMDPad,CuDef*
G36*
G01*
X167825000Y-94850000D02*
X168375000Y-94850000D01*
G75*
G02*
X168575000Y-95050000I0J-200000D01*
G01*
X168575000Y-95450000D01*
G75*
G02*
X168375000Y-95650000I-200000J0D01*
G01*
X167825000Y-95650000D01*
G75*
G02*
X167625000Y-95450000I0J200000D01*
G01*
X167625000Y-95050000D01*
G75*
G02*
X167825000Y-94850000I200000J0D01*
G01*
G37*
G04 #@! TD.AperFunction*
G04 #@! TA.AperFunction,SMDPad,CuDef*
G36*
G01*
X169975000Y-95650000D02*
X169425000Y-95650000D01*
G75*
G02*
X169225000Y-95450000I0J200000D01*
G01*
X169225000Y-95050000D01*
G75*
G02*
X169425000Y-94850000I200000J0D01*
G01*
X169975000Y-94850000D01*
G75*
G02*
X170175000Y-95050000I0J-200000D01*
G01*
X170175000Y-95450000D01*
G75*
G02*
X169975000Y-95650000I-200000J0D01*
G01*
G37*
G04 #@! TD.AperFunction*
G04 #@! TA.AperFunction,SMDPad,CuDef*
G36*
G01*
X169975000Y-97300000D02*
X169425000Y-97300000D01*
G75*
G02*
X169225000Y-97100000I0J200000D01*
G01*
X169225000Y-96700000D01*
G75*
G02*
X169425000Y-96500000I200000J0D01*
G01*
X169975000Y-96500000D01*
G75*
G02*
X170175000Y-96700000I0J-200000D01*
G01*
X170175000Y-97100000D01*
G75*
G02*
X169975000Y-97300000I-200000J0D01*
G01*
G37*
G04 #@! TD.AperFunction*
G04 #@! TA.AperFunction,SMDPad,CuDef*
G36*
G01*
X175175000Y-95800000D02*
X174625000Y-95800000D01*
G75*
G02*
X174425000Y-95600000I0J200000D01*
G01*
X174425000Y-95200000D01*
G75*
G02*
X174625000Y-95000000I200000J0D01*
G01*
X175175000Y-95000000D01*
G75*
G02*
X175375000Y-95200000I0J-200000D01*
G01*
X175375000Y-95600000D01*
G75*
G02*
X175175000Y-95800000I-200000J0D01*
G01*
G37*
G04 #@! TD.AperFunction*
G04 #@! TA.AperFunction,SMDPad,CuDef*
G36*
G01*
X175175000Y-97450000D02*
X174625000Y-97450000D01*
G75*
G02*
X174425000Y-97250000I0J200000D01*
G01*
X174425000Y-96850000D01*
G75*
G02*
X174625000Y-96650000I200000J0D01*
G01*
X175175000Y-96650000D01*
G75*
G02*
X175375000Y-96850000I0J-200000D01*
G01*
X175375000Y-97250000D01*
G75*
G02*
X175175000Y-97450000I-200000J0D01*
G01*
G37*
G04 #@! TD.AperFunction*
G04 #@! TA.AperFunction,SMDPad,CuDef*
G36*
G01*
X158482000Y-84250500D02*
X158482000Y-83700500D01*
G75*
G02*
X158682000Y-83500500I200000J0D01*
G01*
X159082000Y-83500500D01*
G75*
G02*
X159282000Y-83700500I0J-200000D01*
G01*
X159282000Y-84250500D01*
G75*
G02*
X159082000Y-84450500I-200000J0D01*
G01*
X158682000Y-84450500D01*
G75*
G02*
X158482000Y-84250500I0J200000D01*
G01*
G37*
G04 #@! TD.AperFunction*
G04 #@! TA.AperFunction,SMDPad,CuDef*
G36*
G01*
X156832000Y-84250500D02*
X156832000Y-83700500D01*
G75*
G02*
X157032000Y-83500500I200000J0D01*
G01*
X157432000Y-83500500D01*
G75*
G02*
X157632000Y-83700500I0J-200000D01*
G01*
X157632000Y-84250500D01*
G75*
G02*
X157432000Y-84450500I-200000J0D01*
G01*
X157032000Y-84450500D01*
G75*
G02*
X156832000Y-84250500I0J200000D01*
G01*
G37*
G04 #@! TD.AperFunction*
G04 #@! TA.AperFunction,SMDPad,CuDef*
G36*
G01*
X158482000Y-85750500D02*
X158482000Y-85200500D01*
G75*
G02*
X158682000Y-85000500I200000J0D01*
G01*
X159082000Y-85000500D01*
G75*
G02*
X159282000Y-85200500I0J-200000D01*
G01*
X159282000Y-85750500D01*
G75*
G02*
X159082000Y-85950500I-200000J0D01*
G01*
X158682000Y-85950500D01*
G75*
G02*
X158482000Y-85750500I0J200000D01*
G01*
G37*
G04 #@! TD.AperFunction*
G04 #@! TA.AperFunction,SMDPad,CuDef*
G36*
G01*
X156832000Y-85750500D02*
X156832000Y-85200500D01*
G75*
G02*
X157032000Y-85000500I200000J0D01*
G01*
X157432000Y-85000500D01*
G75*
G02*
X157632000Y-85200500I0J-200000D01*
G01*
X157632000Y-85750500D01*
G75*
G02*
X157432000Y-85950500I-200000J0D01*
G01*
X157032000Y-85950500D01*
G75*
G02*
X156832000Y-85750500I0J200000D01*
G01*
G37*
G04 #@! TD.AperFunction*
G04 #@! TA.AperFunction,SMDPad,CuDef*
G36*
G01*
X177125000Y-74425000D02*
X177675000Y-74425000D01*
G75*
G02*
X177875000Y-74625000I0J-200000D01*
G01*
X177875000Y-75025000D01*
G75*
G02*
X177675000Y-75225000I-200000J0D01*
G01*
X177125000Y-75225000D01*
G75*
G02*
X176925000Y-75025000I0J200000D01*
G01*
X176925000Y-74625000D01*
G75*
G02*
X177125000Y-74425000I200000J0D01*
G01*
G37*
G04 #@! TD.AperFunction*
G04 #@! TA.AperFunction,SMDPad,CuDef*
G36*
G01*
X177125000Y-72775000D02*
X177675000Y-72775000D01*
G75*
G02*
X177875000Y-72975000I0J-200000D01*
G01*
X177875000Y-73375000D01*
G75*
G02*
X177675000Y-73575000I-200000J0D01*
G01*
X177125000Y-73575000D01*
G75*
G02*
X176925000Y-73375000I0J200000D01*
G01*
X176925000Y-72975000D01*
G75*
G02*
X177125000Y-72775000I200000J0D01*
G01*
G37*
G04 #@! TD.AperFunction*
G04 #@! TA.AperFunction,SMDPad,CuDef*
G36*
G01*
X177125000Y-77425000D02*
X177675000Y-77425000D01*
G75*
G02*
X177875000Y-77625000I0J-200000D01*
G01*
X177875000Y-78025000D01*
G75*
G02*
X177675000Y-78225000I-200000J0D01*
G01*
X177125000Y-78225000D01*
G75*
G02*
X176925000Y-78025000I0J200000D01*
G01*
X176925000Y-77625000D01*
G75*
G02*
X177125000Y-77425000I200000J0D01*
G01*
G37*
G04 #@! TD.AperFunction*
G04 #@! TA.AperFunction,SMDPad,CuDef*
G36*
G01*
X177125000Y-75775000D02*
X177675000Y-75775000D01*
G75*
G02*
X177875000Y-75975000I0J-200000D01*
G01*
X177875000Y-76375000D01*
G75*
G02*
X177675000Y-76575000I-200000J0D01*
G01*
X177125000Y-76575000D01*
G75*
G02*
X176925000Y-76375000I0J200000D01*
G01*
X176925000Y-75975000D01*
G75*
G02*
X177125000Y-75775000I200000J0D01*
G01*
G37*
G04 #@! TD.AperFunction*
D21*
X180550000Y-93450000D03*
X178550000Y-94400000D03*
X178550000Y-92500000D03*
X169300000Y-91600000D03*
X167300000Y-92550000D03*
X167300000Y-90650000D03*
D22*
X160223200Y-95300800D03*
X158902400Y-95300800D03*
D23*
X159562800Y-97231200D03*
D24*
X184917000Y-93600000D03*
X182250000Y-93600000D03*
D25*
X152262500Y-86100000D03*
X152262500Y-91900000D03*
D26*
X152262500Y-92500000D03*
X152262500Y-85500000D03*
D27*
X152262500Y-88000000D03*
D28*
X154962500Y-91500000D03*
D29*
X154962500Y-89000000D03*
X154962500Y-89650000D03*
X154962500Y-90300000D03*
X154962500Y-87700000D03*
X154962500Y-88350000D03*
D28*
X154962500Y-86500000D03*
D27*
X152262500Y-90000000D03*
D30*
X184950000Y-90450000D03*
X181650000Y-90450000D03*
G04 #@! TA.AperFunction,SMDPad,CuDef*
G36*
G01*
X179050000Y-81143750D02*
X179050000Y-81656250D01*
G75*
G02*
X178831250Y-81875000I-218750J0D01*
G01*
X178393750Y-81875000D01*
G75*
G02*
X178175000Y-81656250I0J218750D01*
G01*
X178175000Y-81143750D01*
G75*
G02*
X178393750Y-80925000I218750J0D01*
G01*
X178831250Y-80925000D01*
G75*
G02*
X179050000Y-81143750I0J-218750D01*
G01*
G37*
G04 #@! TD.AperFunction*
G04 #@! TA.AperFunction,SMDPad,CuDef*
G36*
G01*
X180625000Y-81143750D02*
X180625000Y-81656250D01*
G75*
G02*
X180406250Y-81875000I-218750J0D01*
G01*
X179968750Y-81875000D01*
G75*
G02*
X179750000Y-81656250I0J218750D01*
G01*
X179750000Y-81143750D01*
G75*
G02*
X179968750Y-80925000I218750J0D01*
G01*
X180406250Y-80925000D01*
G75*
G02*
X180625000Y-81143750I0J-218750D01*
G01*
G37*
G04 #@! TD.AperFunction*
D31*
X157200000Y-93050000D03*
X157200000Y-96350000D03*
G04 #@! TA.AperFunction,SMDPad,CuDef*
G36*
G01*
X171680000Y-93570000D02*
X171680000Y-93230000D01*
G75*
G02*
X171820000Y-93090000I140000J0D01*
G01*
X172100000Y-93090000D01*
G75*
G02*
X172240000Y-93230000I0J-140000D01*
G01*
X172240000Y-93570000D01*
G75*
G02*
X172100000Y-93710000I-140000J0D01*
G01*
X171820000Y-93710000D01*
G75*
G02*
X171680000Y-93570000I0J140000D01*
G01*
G37*
G04 #@! TD.AperFunction*
G04 #@! TA.AperFunction,SMDPad,CuDef*
G36*
G01*
X170720000Y-93570000D02*
X170720000Y-93230000D01*
G75*
G02*
X170860000Y-93090000I140000J0D01*
G01*
X171140000Y-93090000D01*
G75*
G02*
X171280000Y-93230000I0J-140000D01*
G01*
X171280000Y-93570000D01*
G75*
G02*
X171140000Y-93710000I-140000J0D01*
G01*
X170860000Y-93710000D01*
G75*
G02*
X170720000Y-93570000I0J140000D01*
G01*
G37*
G04 #@! TD.AperFunction*
G04 #@! TA.AperFunction,SMDPad,CuDef*
G36*
G01*
X171720000Y-98470000D02*
X171720000Y-98130000D01*
G75*
G02*
X171860000Y-97990000I140000J0D01*
G01*
X172140000Y-97990000D01*
G75*
G02*
X172280000Y-98130000I0J-140000D01*
G01*
X172280000Y-98470000D01*
G75*
G02*
X172140000Y-98610000I-140000J0D01*
G01*
X171860000Y-98610000D01*
G75*
G02*
X171720000Y-98470000I0J140000D01*
G01*
G37*
G04 #@! TD.AperFunction*
G04 #@! TA.AperFunction,SMDPad,CuDef*
G36*
G01*
X170760000Y-98470000D02*
X170760000Y-98130000D01*
G75*
G02*
X170900000Y-97990000I140000J0D01*
G01*
X171180000Y-97990000D01*
G75*
G02*
X171320000Y-98130000I0J-140000D01*
G01*
X171320000Y-98470000D01*
G75*
G02*
X171180000Y-98610000I-140000J0D01*
G01*
X170900000Y-98610000D01*
G75*
G02*
X170760000Y-98470000I0J140000D01*
G01*
G37*
G04 #@! TD.AperFunction*
G04 #@! TA.AperFunction,SMDPad,CuDef*
G36*
G01*
X158451000Y-81055500D02*
X158451000Y-81395500D01*
G75*
G02*
X158311000Y-81535500I-140000J0D01*
G01*
X158031000Y-81535500D01*
G75*
G02*
X157891000Y-81395500I0J140000D01*
G01*
X157891000Y-81055500D01*
G75*
G02*
X158031000Y-80915500I140000J0D01*
G01*
X158311000Y-80915500D01*
G75*
G02*
X158451000Y-81055500I0J-140000D01*
G01*
G37*
G04 #@! TD.AperFunction*
G04 #@! TA.AperFunction,SMDPad,CuDef*
G36*
G01*
X159411000Y-81055500D02*
X159411000Y-81395500D01*
G75*
G02*
X159271000Y-81535500I-140000J0D01*
G01*
X158991000Y-81535500D01*
G75*
G02*
X158851000Y-81395500I0J140000D01*
G01*
X158851000Y-81055500D01*
G75*
G02*
X158991000Y-80915500I140000J0D01*
G01*
X159271000Y-80915500D01*
G75*
G02*
X159411000Y-81055500I0J-140000D01*
G01*
G37*
G04 #@! TD.AperFunction*
G04 #@! TA.AperFunction,SMDPad,CuDef*
G36*
G01*
X161079000Y-72952000D02*
X160739000Y-72952000D01*
G75*
G02*
X160599000Y-72812000I0J140000D01*
G01*
X160599000Y-72532000D01*
G75*
G02*
X160739000Y-72392000I140000J0D01*
G01*
X161079000Y-72392000D01*
G75*
G02*
X161219000Y-72532000I0J-140000D01*
G01*
X161219000Y-72812000D01*
G75*
G02*
X161079000Y-72952000I-140000J0D01*
G01*
G37*
G04 #@! TD.AperFunction*
G04 #@! TA.AperFunction,SMDPad,CuDef*
G36*
G01*
X161079000Y-73912000D02*
X160739000Y-73912000D01*
G75*
G02*
X160599000Y-73772000I0J140000D01*
G01*
X160599000Y-73492000D01*
G75*
G02*
X160739000Y-73352000I140000J0D01*
G01*
X161079000Y-73352000D01*
G75*
G02*
X161219000Y-73492000I0J-140000D01*
G01*
X161219000Y-73772000D01*
G75*
G02*
X161079000Y-73912000I-140000J0D01*
G01*
G37*
G04 #@! TD.AperFunction*
G04 #@! TA.AperFunction,SMDPad,CuDef*
G36*
G01*
X159889000Y-74097000D02*
X159389000Y-74097000D01*
G75*
G02*
X159164000Y-73872000I0J225000D01*
G01*
X159164000Y-73422000D01*
G75*
G02*
X159389000Y-73197000I225000J0D01*
G01*
X159889000Y-73197000D01*
G75*
G02*
X160114000Y-73422000I0J-225000D01*
G01*
X160114000Y-73872000D01*
G75*
G02*
X159889000Y-74097000I-225000J0D01*
G01*
G37*
G04 #@! TD.AperFunction*
G04 #@! TA.AperFunction,SMDPad,CuDef*
G36*
G01*
X159889000Y-75647000D02*
X159389000Y-75647000D01*
G75*
G02*
X159164000Y-75422000I0J225000D01*
G01*
X159164000Y-74972000D01*
G75*
G02*
X159389000Y-74747000I225000J0D01*
G01*
X159889000Y-74747000D01*
G75*
G02*
X160114000Y-74972000I0J-225000D01*
G01*
X160114000Y-75422000D01*
G75*
G02*
X159889000Y-75647000I-225000J0D01*
G01*
G37*
G04 #@! TD.AperFunction*
G04 #@! TA.AperFunction,SMDPad,CuDef*
G36*
G01*
X175770000Y-91380000D02*
X175430000Y-91380000D01*
G75*
G02*
X175290000Y-91240000I0J140000D01*
G01*
X175290000Y-90960000D01*
G75*
G02*
X175430000Y-90820000I140000J0D01*
G01*
X175770000Y-90820000D01*
G75*
G02*
X175910000Y-90960000I0J-140000D01*
G01*
X175910000Y-91240000D01*
G75*
G02*
X175770000Y-91380000I-140000J0D01*
G01*
G37*
G04 #@! TD.AperFunction*
G04 #@! TA.AperFunction,SMDPad,CuDef*
G36*
G01*
X175770000Y-92340000D02*
X175430000Y-92340000D01*
G75*
G02*
X175290000Y-92200000I0J140000D01*
G01*
X175290000Y-91920000D01*
G75*
G02*
X175430000Y-91780000I140000J0D01*
G01*
X175770000Y-91780000D01*
G75*
G02*
X175910000Y-91920000I0J-140000D01*
G01*
X175910000Y-92200000D01*
G75*
G02*
X175770000Y-92340000I-140000J0D01*
G01*
G37*
G04 #@! TD.AperFunction*
G04 #@! TA.AperFunction,SMDPad,CuDef*
G36*
G01*
X162920000Y-92500000D02*
X162580000Y-92500000D01*
G75*
G02*
X162440000Y-92360000I0J140000D01*
G01*
X162440000Y-92080000D01*
G75*
G02*
X162580000Y-91940000I140000J0D01*
G01*
X162920000Y-91940000D01*
G75*
G02*
X163060000Y-92080000I0J-140000D01*
G01*
X163060000Y-92360000D01*
G75*
G02*
X162920000Y-92500000I-140000J0D01*
G01*
G37*
G04 #@! TD.AperFunction*
G04 #@! TA.AperFunction,SMDPad,CuDef*
G36*
G01*
X162920000Y-93460000D02*
X162580000Y-93460000D01*
G75*
G02*
X162440000Y-93320000I0J140000D01*
G01*
X162440000Y-93040000D01*
G75*
G02*
X162580000Y-92900000I140000J0D01*
G01*
X162920000Y-92900000D01*
G75*
G02*
X163060000Y-93040000I0J-140000D01*
G01*
X163060000Y-93320000D01*
G75*
G02*
X162920000Y-93460000I-140000J0D01*
G01*
G37*
G04 #@! TD.AperFunction*
G04 #@! TA.AperFunction,SMDPad,CuDef*
G36*
G01*
X166603500Y-96620000D02*
X166263500Y-96620000D01*
G75*
G02*
X166123500Y-96480000I0J140000D01*
G01*
X166123500Y-96200000D01*
G75*
G02*
X166263500Y-96060000I140000J0D01*
G01*
X166603500Y-96060000D01*
G75*
G02*
X166743500Y-96200000I0J-140000D01*
G01*
X166743500Y-96480000D01*
G75*
G02*
X166603500Y-96620000I-140000J0D01*
G01*
G37*
G04 #@! TD.AperFunction*
G04 #@! TA.AperFunction,SMDPad,CuDef*
G36*
G01*
X166603500Y-97580000D02*
X166263500Y-97580000D01*
G75*
G02*
X166123500Y-97440000I0J140000D01*
G01*
X166123500Y-97160000D01*
G75*
G02*
X166263500Y-97020000I140000J0D01*
G01*
X166603500Y-97020000D01*
G75*
G02*
X166743500Y-97160000I0J-140000D01*
G01*
X166743500Y-97440000D01*
G75*
G02*
X166603500Y-97580000I-140000J0D01*
G01*
G37*
G04 #@! TD.AperFunction*
G04 #@! TA.AperFunction,SMDPad,CuDef*
G36*
G01*
X185680000Y-87980000D02*
X186020000Y-87980000D01*
G75*
G02*
X186160000Y-88120000I0J-140000D01*
G01*
X186160000Y-88400000D01*
G75*
G02*
X186020000Y-88540000I-140000J0D01*
G01*
X185680000Y-88540000D01*
G75*
G02*
X185540000Y-88400000I0J140000D01*
G01*
X185540000Y-88120000D01*
G75*
G02*
X185680000Y-87980000I140000J0D01*
G01*
G37*
G04 #@! TD.AperFunction*
G04 #@! TA.AperFunction,SMDPad,CuDef*
G36*
G01*
X185680000Y-87020000D02*
X186020000Y-87020000D01*
G75*
G02*
X186160000Y-87160000I0J-140000D01*
G01*
X186160000Y-87440000D01*
G75*
G02*
X186020000Y-87580000I-140000J0D01*
G01*
X185680000Y-87580000D01*
G75*
G02*
X185540000Y-87440000I0J140000D01*
G01*
X185540000Y-87160000D01*
G75*
G02*
X185680000Y-87020000I140000J0D01*
G01*
G37*
G04 #@! TD.AperFunction*
G04 #@! TA.AperFunction,SMDPad,CuDef*
G36*
G01*
X161150000Y-96525000D02*
X161650000Y-96525000D01*
G75*
G02*
X161875000Y-96750000I0J-225000D01*
G01*
X161875000Y-97200000D01*
G75*
G02*
X161650000Y-97425000I-225000J0D01*
G01*
X161150000Y-97425000D01*
G75*
G02*
X160925000Y-97200000I0J225000D01*
G01*
X160925000Y-96750000D01*
G75*
G02*
X161150000Y-96525000I225000J0D01*
G01*
G37*
G04 #@! TD.AperFunction*
G04 #@! TA.AperFunction,SMDPad,CuDef*
G36*
G01*
X161150000Y-94975000D02*
X161650000Y-94975000D01*
G75*
G02*
X161875000Y-95200000I0J-225000D01*
G01*
X161875000Y-95650000D01*
G75*
G02*
X161650000Y-95875000I-225000J0D01*
G01*
X161150000Y-95875000D01*
G75*
G02*
X160925000Y-95650000I0J225000D01*
G01*
X160925000Y-95200000D01*
G75*
G02*
X161150000Y-94975000I225000J0D01*
G01*
G37*
G04 #@! TD.AperFunction*
G04 #@! TA.AperFunction,SMDPad,CuDef*
G36*
G01*
X157250000Y-87080000D02*
X157250000Y-87420000D01*
G75*
G02*
X157110000Y-87560000I-140000J0D01*
G01*
X156830000Y-87560000D01*
G75*
G02*
X156690000Y-87420000I0J140000D01*
G01*
X156690000Y-87080000D01*
G75*
G02*
X156830000Y-86940000I140000J0D01*
G01*
X157110000Y-86940000D01*
G75*
G02*
X157250000Y-87080000I0J-140000D01*
G01*
G37*
G04 #@! TD.AperFunction*
G04 #@! TA.AperFunction,SMDPad,CuDef*
G36*
G01*
X158210000Y-87080000D02*
X158210000Y-87420000D01*
G75*
G02*
X158070000Y-87560000I-140000J0D01*
G01*
X157790000Y-87560000D01*
G75*
G02*
X157650000Y-87420000I0J140000D01*
G01*
X157650000Y-87080000D01*
G75*
G02*
X157790000Y-86940000I140000J0D01*
G01*
X158070000Y-86940000D01*
G75*
G02*
X158210000Y-87080000I0J-140000D01*
G01*
G37*
G04 #@! TD.AperFunction*
G04 #@! TA.AperFunction,SMDPad,CuDef*
D20*
G36*
X183710229Y-99798959D02*
G01*
X183003123Y-99091853D01*
X183851651Y-98243325D01*
X184558757Y-98950431D01*
X183710229Y-99798959D01*
G37*
G04 #@! TD.AperFunction*
G04 #@! TA.AperFunction,SMDPad,CuDef*
G36*
X182508147Y-98596877D02*
G01*
X181801041Y-97889771D01*
X182649569Y-97041243D01*
X183356675Y-97748349D01*
X182508147Y-98596877D01*
G37*
G04 #@! TD.AperFunction*
G04 #@! TA.AperFunction,SMDPad,CuDef*
G36*
X178548349Y-102556675D02*
G01*
X177841243Y-101849569D01*
X178689771Y-101001041D01*
X179396877Y-101708147D01*
X178548349Y-102556675D01*
G37*
G04 #@! TD.AperFunction*
G04 #@! TA.AperFunction,SMDPad,CuDef*
G36*
X179750431Y-103758757D02*
G01*
X179043325Y-103051651D01*
X179891853Y-102203123D01*
X180598959Y-102910229D01*
X179750431Y-103758757D01*
G37*
G04 #@! TD.AperFunction*
G04 #@! TA.AperFunction,SMDPad,CuDef*
G36*
X185222757Y-79554569D02*
G01*
X184515651Y-80261675D01*
X183667123Y-79413147D01*
X184374229Y-78706041D01*
X185222757Y-79554569D01*
G37*
G04 #@! TD.AperFunction*
G04 #@! TA.AperFunction,SMDPad,CuDef*
G36*
X184020675Y-80756651D02*
G01*
X183313569Y-81463757D01*
X182465041Y-80615229D01*
X183172147Y-79908123D01*
X184020675Y-80756651D01*
G37*
G04 #@! TD.AperFunction*
G04 #@! TA.AperFunction,SMDPad,CuDef*
G36*
X180060877Y-76796853D02*
G01*
X179353771Y-77503959D01*
X178505243Y-76655431D01*
X179212349Y-75948325D01*
X180060877Y-76796853D01*
G37*
G04 #@! TD.AperFunction*
G04 #@! TA.AperFunction,SMDPad,CuDef*
G36*
X181262959Y-75594771D02*
G01*
X180555853Y-76301877D01*
X179707325Y-75453349D01*
X180414431Y-74746243D01*
X181262959Y-75594771D01*
G37*
G04 #@! TD.AperFunction*
G04 #@! TA.AperFunction,SMDPad,CuDef*
G36*
X157801041Y-103110229D02*
G01*
X158508147Y-102403123D01*
X159356675Y-103251651D01*
X158649569Y-103958757D01*
X157801041Y-103110229D01*
G37*
G04 #@! TD.AperFunction*
G04 #@! TA.AperFunction,SMDPad,CuDef*
G36*
X159003123Y-101908147D02*
G01*
X159710229Y-101201041D01*
X160558757Y-102049569D01*
X159851651Y-102756675D01*
X159003123Y-101908147D01*
G37*
G04 #@! TD.AperFunction*
G04 #@! TA.AperFunction,SMDPad,CuDef*
G36*
X155043325Y-97948349D02*
G01*
X155750431Y-97241243D01*
X156598959Y-98089771D01*
X155891853Y-98796877D01*
X155043325Y-97948349D01*
G37*
G04 #@! TD.AperFunction*
G04 #@! TA.AperFunction,SMDPad,CuDef*
G36*
X153841243Y-99150431D02*
G01*
X154548349Y-98443325D01*
X155396877Y-99291853D01*
X154689771Y-99998959D01*
X153841243Y-99150431D01*
G37*
G04 #@! TD.AperFunction*
D32*
X167132000Y-79629000D03*
X168465500Y-79629000D03*
X169735500Y-79629000D03*
X170878500Y-79629000D03*
X170878500Y-80772000D03*
X169735500Y-80772000D03*
X168452800Y-80772000D03*
X167132000Y-80772000D03*
X167132000Y-81915000D03*
X168465500Y-81940400D03*
X169735500Y-81915000D03*
X170878500Y-81915000D03*
X170878500Y-83058000D03*
X169735500Y-83058000D03*
X168465500Y-83058000D03*
X167132000Y-83058000D03*
X180009800Y-77419200D03*
X178358800Y-75946000D03*
X167284400Y-105816400D03*
X167284400Y-104902000D03*
X167284400Y-103987600D03*
D33*
X177876200Y-83032600D03*
D32*
X155600400Y-81330800D03*
X167284400Y-91744800D03*
X160464500Y-97028000D03*
X156972000Y-86588600D03*
X160502600Y-74625200D03*
X158800800Y-74879200D03*
D33*
X171040000Y-97463400D03*
D32*
X176530000Y-72326500D03*
X174244000Y-72326500D03*
X168084500Y-97663000D03*
X170942000Y-105816400D03*
X170942000Y-104902000D03*
X170942000Y-103987600D03*
X181864000Y-97155000D03*
X178562000Y-95123000D03*
X185864500Y-88900000D03*
X172618400Y-98298000D03*
D33*
X173024800Y-89966800D03*
X175003900Y-91150000D03*
X172563400Y-93400000D03*
X172577760Y-92369640D03*
X168605200Y-98856800D03*
X169164000Y-99441000D03*
D32*
X165481000Y-99695000D03*
X158800800Y-73761600D03*
X160274000Y-72898000D03*
X178308000Y-73152000D03*
D33*
X167068500Y-99441000D03*
X172000000Y-90850000D03*
D32*
X185864500Y-93599000D03*
X187007500Y-86169500D03*
X177800000Y-96266000D03*
X186499500Y-87312500D03*
X185775000Y-90450000D03*
D33*
X175600000Y-92592800D03*
X167640000Y-98856800D03*
D32*
X156413200Y-83947000D03*
X158902400Y-86334600D03*
X159004000Y-101092000D03*
D33*
X163474400Y-92608400D03*
X164401500Y-93726000D03*
X163766500Y-93726000D03*
X162750500Y-93726000D03*
D32*
X157527100Y-81225500D03*
D33*
X173202600Y-99796600D03*
X178765200Y-83870800D03*
D32*
X156260800Y-90271600D03*
D33*
X160324800Y-87274400D03*
D32*
X166420800Y-95681800D03*
X162471100Y-87007700D03*
D33*
X166935972Y-97314572D03*
X166420800Y-97866200D03*
X162750000Y-91631000D03*
D32*
X169697400Y-97688400D03*
X161036000Y-99568000D03*
X161798000Y-100330000D03*
X159562800Y-98094800D03*
X160083500Y-98679000D03*
D33*
X176276000Y-95504000D03*
X175514000Y-89916000D03*
X167640000Y-93599000D03*
X169291000Y-92583000D03*
X165862000Y-94894400D03*
X177419000Y-89154000D03*
X172237400Y-89966800D03*
X177927000Y-88455500D03*
X173550000Y-74862000D03*
X173990000Y-88396500D03*
X173550000Y-78046000D03*
X161290000Y-77343000D03*
X166878000Y-89154000D03*
X160274000Y-86106000D03*
X163355600Y-91000000D03*
X172339000Y-86614000D03*
X174117000Y-79184500D03*
X178186080Y-78864460D03*
X172466000Y-88900000D03*
X177800000Y-97790000D03*
X171831000Y-85979000D03*
X164084000Y-88900000D03*
X172720000Y-85344000D03*
X163322000Y-88646000D03*
X182753000Y-85915500D03*
X171196000Y-84328000D03*
X164592000Y-84328000D03*
X176530000Y-83312000D03*
X177482500Y-94107000D03*
X165862000Y-89789000D03*
X173609000Y-98348800D03*
X161036000Y-86614000D03*
X174371000Y-73342500D03*
X176466500Y-80327500D03*
X174371000Y-81343500D03*
X176403000Y-79375000D03*
X178562000Y-80645000D03*
X165608000Y-83566000D03*
X177863500Y-90487500D03*
X165227000Y-93599000D03*
X182753000Y-84709000D03*
X176530000Y-82296000D03*
D34*
X171040000Y-97310000D02*
X171040000Y-97463400D01*
X171400000Y-96950000D02*
X171040000Y-97310000D01*
D35*
X157232000Y-85475500D02*
X157243200Y-85475500D01*
X157232000Y-85475500D02*
X157776600Y-85475500D01*
X157930000Y-85628900D02*
X157930000Y-87250000D01*
X157776600Y-85475500D02*
X157930000Y-85628900D01*
X157930000Y-88370000D02*
X157900000Y-88400000D01*
X156462980Y-87700000D02*
X156640490Y-87877510D01*
X154962500Y-87700000D02*
X156462980Y-87700000D01*
X157789590Y-87877510D02*
X157930000Y-87737100D01*
X156640490Y-87877510D02*
X157789590Y-87877510D01*
X157930000Y-87737100D02*
X157930000Y-88370000D01*
X157930000Y-87250000D02*
X157930000Y-87737100D01*
X153720800Y-87885700D02*
X153720800Y-92303600D01*
X153906500Y-87700000D02*
X153720800Y-87885700D01*
X154962500Y-87700000D02*
X153906500Y-87700000D01*
D34*
X171040000Y-97463400D02*
X171040000Y-98300000D01*
D35*
X153720800Y-92303600D02*
X153720800Y-92779200D01*
X153720800Y-92779200D02*
X153720800Y-93220800D01*
X153750000Y-93050000D02*
X153720800Y-93020800D01*
X153720800Y-93020800D02*
X153720800Y-92837600D01*
X153720800Y-93220800D02*
X153720800Y-93020800D01*
X154091600Y-93050000D02*
X153720800Y-93420800D01*
X154250000Y-93050000D02*
X154091600Y-93050000D01*
X153720800Y-93220800D02*
X153720800Y-93420800D01*
X157200000Y-93050000D02*
X154250000Y-93050000D01*
X153720800Y-93420800D02*
X153720800Y-96062800D01*
X153720800Y-92303600D02*
X153720800Y-92620800D01*
X153720800Y-92620800D02*
X154150000Y-93050000D01*
X154150000Y-93050000D02*
X153750000Y-93050000D01*
X154250000Y-93050000D02*
X154150000Y-93050000D01*
D36*
X154150000Y-93050000D02*
X157200000Y-93050000D01*
X157580000Y-93980000D02*
X159080000Y-93980000D01*
X157200000Y-93600000D02*
X157580000Y-93980000D01*
X157200000Y-93050000D02*
X157200000Y-93600000D01*
D35*
X159080000Y-93980000D02*
X159180000Y-93980000D01*
X160223200Y-95023200D02*
X160223200Y-95300800D01*
X159180000Y-93980000D02*
X160223200Y-95023200D01*
D34*
X185850000Y-88885500D02*
X185864500Y-88900000D01*
X185850000Y-88260000D02*
X185850000Y-88885500D01*
D35*
X178550000Y-94400000D02*
X178550000Y-94627000D01*
X178550000Y-95111000D02*
X178562000Y-95123000D01*
X178550000Y-94400000D02*
X178550000Y-95111000D01*
X181914798Y-97155000D02*
X182578858Y-97819060D01*
X181864000Y-97155000D02*
X181914798Y-97155000D01*
D34*
X172557400Y-103987600D02*
X173045000Y-103500000D01*
X170942000Y-103987600D02*
X170942000Y-105816400D01*
X171643000Y-104902000D02*
X173045000Y-103500000D01*
X171348400Y-104648000D02*
X171602400Y-104902000D01*
X171348400Y-103987600D02*
X171348400Y-104648000D01*
X171602400Y-104902000D02*
X171643000Y-104902000D01*
X170942000Y-104902000D02*
X171602400Y-104902000D01*
X170942000Y-103987600D02*
X171348400Y-103987600D01*
X171348400Y-103987600D02*
X172557400Y-103987600D01*
X170942000Y-105816400D02*
X171551600Y-105816400D01*
X171317900Y-105582700D02*
X171551600Y-105816400D01*
X171317900Y-105227100D02*
X171317900Y-105582700D01*
X171317900Y-105227100D02*
X173045000Y-103500000D01*
X172000000Y-98300000D02*
X172618400Y-98298000D01*
D37*
X175550000Y-91150000D02*
X175600000Y-91100000D01*
X174575000Y-91150000D02*
X174978500Y-91150000D01*
X174575000Y-90900000D02*
X174575000Y-91150000D01*
X174575000Y-91150000D02*
X174575000Y-91400000D01*
X174978500Y-91150000D02*
X175003900Y-91150000D01*
X173037500Y-90387500D02*
X173025000Y-90400000D01*
X173024800Y-89966800D02*
X173037500Y-90387500D01*
X175003900Y-91150000D02*
X175550000Y-91150000D01*
D35*
X171960000Y-93400000D02*
X171960000Y-93851000D01*
X172350000Y-94241000D02*
X172350000Y-94750000D01*
X171960000Y-93851000D02*
X172350000Y-94241000D01*
X172000000Y-92380000D02*
X172000000Y-92464800D01*
X171960000Y-92420000D02*
X171986720Y-92393280D01*
X171960000Y-93400000D02*
X171960000Y-92420000D01*
X172563400Y-93400000D02*
X171960000Y-93400000D01*
X171986720Y-92393280D02*
X172000000Y-92380000D01*
X172567400Y-92380000D02*
X172577760Y-92369640D01*
X172000000Y-92380000D02*
X172567400Y-92380000D01*
X168100000Y-97647500D02*
X168084500Y-97663000D01*
X168100000Y-96900000D02*
X168100000Y-97647500D01*
D34*
X175398500Y-72326500D02*
X175400000Y-72325000D01*
X174244000Y-72326500D02*
X175398500Y-72326500D01*
X175401500Y-72326500D02*
X175400000Y-72325000D01*
X176530000Y-72326500D02*
X175401500Y-72326500D01*
D35*
X159639000Y-73647000D02*
X159639000Y-73431400D01*
D36*
X160274000Y-73012000D02*
X159639000Y-73647000D01*
X160274000Y-72898000D02*
X160274000Y-73012000D01*
X160683000Y-72898000D02*
X160909000Y-72672000D01*
X160274000Y-72898000D02*
X160683000Y-72898000D01*
X161256000Y-72325000D02*
X162400000Y-72325000D01*
X160909000Y-72672000D02*
X161256000Y-72325000D01*
X159524400Y-73761600D02*
X159639000Y-73647000D01*
X158800800Y-73761600D02*
X159524400Y-73761600D01*
D35*
X156970000Y-86590600D02*
X156972000Y-86588600D01*
X156970000Y-87250000D02*
X156970000Y-86590600D01*
D34*
X184950000Y-93567000D02*
X184917000Y-93600000D01*
X184950000Y-90450000D02*
X184950000Y-92418000D01*
X184950000Y-92418000D02*
X184950000Y-93567000D01*
X184950000Y-90450000D02*
X185775000Y-90450000D01*
X178541000Y-96266000D02*
X178575000Y-96300000D01*
X177800000Y-96266000D02*
X178541000Y-96266000D01*
X179175000Y-85915000D02*
X181038000Y-85915000D01*
X182308000Y-87185000D02*
X184125000Y-87185000D01*
X181038000Y-85915000D02*
X182308000Y-87185000D01*
X185850000Y-87300000D02*
X185850000Y-87300000D01*
X185735000Y-87185000D02*
X185850000Y-87300000D01*
X186487000Y-87300000D02*
X186499500Y-87312500D01*
X185850000Y-87300000D02*
X186487000Y-87300000D01*
X184125000Y-87185000D02*
X185735000Y-87185000D01*
X187002000Y-86175000D02*
X187007500Y-86169500D01*
X186150000Y-86175000D02*
X187002000Y-86175000D01*
X185863500Y-93600000D02*
X185864500Y-93599000D01*
X184917000Y-93600000D02*
X185863500Y-93600000D01*
D35*
X172000000Y-90850000D02*
X172000000Y-91420000D01*
D37*
X173005000Y-91420000D02*
X173025000Y-91400000D01*
X172000000Y-91420000D02*
X173005000Y-91420000D01*
X174575000Y-91900000D02*
X174831000Y-91900000D01*
X174991000Y-92060000D02*
X175600000Y-92060000D01*
X174831000Y-91900000D02*
X174991000Y-92060000D01*
X175600000Y-92624000D02*
X175577500Y-92646500D01*
X175600000Y-92060000D02*
X176037000Y-92060000D01*
X176037000Y-92060000D02*
X176339500Y-91757500D01*
X176339500Y-91757500D02*
X176339500Y-90614500D01*
X174595001Y-90420001D02*
X174575000Y-90400000D01*
X176145001Y-90420001D02*
X174595001Y-90420001D01*
X176339500Y-90614500D02*
X176145001Y-90420001D01*
X175600000Y-92592800D02*
X175600000Y-92060000D01*
X175600000Y-92592800D02*
X175600000Y-92624000D01*
D34*
X177400000Y-73175000D02*
X177400000Y-73171000D01*
X177419000Y-73152000D02*
X178308000Y-73152000D01*
X177400000Y-73171000D02*
X177419000Y-73152000D01*
D36*
X159930800Y-75197000D02*
X160502600Y-74625200D01*
X159639000Y-75197000D02*
X159930800Y-75197000D01*
X160502600Y-74625200D02*
X160502600Y-74371200D01*
X160909000Y-73964800D02*
X160909000Y-73632000D01*
X160502600Y-74371200D02*
X160909000Y-73964800D01*
X160909000Y-73632000D02*
X161343400Y-73632000D01*
X161650400Y-73325000D02*
X162400000Y-73325000D01*
X161343400Y-73632000D02*
X161650400Y-73325000D01*
X158800800Y-74879200D02*
X158851600Y-74879200D01*
X159169400Y-75197000D02*
X159639000Y-75197000D01*
X158851600Y-74879200D02*
X159169400Y-75197000D01*
X157203500Y-83947000D02*
X157232000Y-83975500D01*
X156413200Y-83947000D02*
X157203500Y-83947000D01*
D35*
X158882000Y-86314200D02*
X158902400Y-86334600D01*
X158882000Y-85475500D02*
X158882000Y-86228000D01*
D34*
X159004000Y-101201918D02*
X159780940Y-101978858D01*
X159004000Y-101092000D02*
X159004000Y-101201918D01*
X161347000Y-97028000D02*
X161400000Y-96975000D01*
X160464500Y-97028000D02*
X161347000Y-97028000D01*
D37*
X159850000Y-92650000D02*
X159850000Y-93556000D01*
X159850000Y-93556000D02*
X160147000Y-93853000D01*
X161350000Y-93604000D02*
X161350000Y-92650000D01*
X161101000Y-93853000D02*
X161350000Y-93604000D01*
X160147000Y-93853000D02*
X161101000Y-93853000D01*
X161350000Y-92650000D02*
X161731000Y-92650000D01*
X162161000Y-92220000D02*
X162750000Y-92220000D01*
X161731000Y-92650000D02*
X162161000Y-92220000D01*
D35*
X163086000Y-92220000D02*
X163474400Y-92608400D01*
X162750000Y-92220000D02*
X163086000Y-92220000D01*
D36*
X164100000Y-94027500D02*
X164401500Y-93726000D01*
X164100000Y-94700000D02*
X164100000Y-94027500D01*
X163766500Y-93726000D02*
X164401500Y-93726000D01*
X164100000Y-94059500D02*
X164100000Y-94700000D01*
X163766500Y-93726000D02*
X164100000Y-94059500D01*
D35*
X164166600Y-92608400D02*
X164175000Y-92600000D01*
X163474400Y-92608400D02*
X164166600Y-92608400D01*
D36*
X165050000Y-96900000D02*
X165797500Y-96900000D01*
X166197500Y-97300000D02*
X166433500Y-97300000D01*
X165797500Y-96900000D02*
X166197500Y-97300000D01*
X174542000Y-95758000D02*
X174900000Y-95400000D01*
X172767198Y-95758000D02*
X174542000Y-95758000D01*
X172350000Y-95340802D02*
X172767198Y-95758000D01*
X172350000Y-94750000D02*
X172350000Y-95340802D01*
X162750000Y-93725500D02*
X162750500Y-93726000D01*
X162750000Y-93180000D02*
X162750000Y-93725500D01*
X167284400Y-92534400D02*
X167300000Y-92550000D01*
X167284400Y-91744800D02*
X167284400Y-92534400D01*
X157527100Y-81225500D02*
X158171000Y-81225500D01*
X154958142Y-80688542D02*
X155600400Y-81330800D01*
X154958142Y-80685940D02*
X154958142Y-80688542D01*
D35*
X178542400Y-83032600D02*
X178575000Y-83000000D01*
X177876200Y-83032600D02*
X178542400Y-83032600D01*
X179175000Y-84645000D02*
X179175000Y-84229800D01*
X178575000Y-83629800D02*
X178575000Y-83000000D01*
X179175000Y-84229800D02*
X178765200Y-83870800D01*
X178765200Y-83870800D02*
X178575000Y-83629800D01*
D37*
X156500000Y-89400000D02*
X156500000Y-89626000D01*
X156260800Y-89865200D02*
X156260800Y-90271600D01*
X156500000Y-89626000D02*
X156260800Y-89865200D01*
D35*
X156232400Y-90300000D02*
X156260800Y-90271600D01*
X154962500Y-90300000D02*
X156232400Y-90300000D01*
X158882000Y-86228000D02*
X158882000Y-86314200D01*
D37*
X160350000Y-87299600D02*
X160324800Y-87274400D01*
X160350000Y-88250000D02*
X160350000Y-87299600D01*
D36*
X166433500Y-96202500D02*
X166433500Y-96340000D01*
X166420800Y-95681800D02*
X166433500Y-96202500D01*
D34*
X179316742Y-76726142D02*
X180009800Y-77419200D01*
X179283060Y-76726142D02*
X179316742Y-76726142D01*
D36*
X162400000Y-86325000D02*
X162417200Y-86325000D01*
X162471100Y-86378900D02*
X162471100Y-87007700D01*
X162417200Y-86325000D02*
X162471100Y-86378900D01*
X166642000Y-97300000D02*
X166433500Y-97300000D01*
X166669500Y-97300000D02*
X166433500Y-97300000D01*
X166935972Y-97314572D02*
X166669500Y-97300000D01*
X166433500Y-97853500D02*
X166420800Y-97866200D01*
X166433500Y-97300000D02*
X166433500Y-97853500D01*
D34*
X178129800Y-76175000D02*
X178358800Y-75946000D01*
X177400000Y-76175000D02*
X178129800Y-76175000D01*
D35*
X162750000Y-91631000D02*
X162750000Y-92220000D01*
D34*
X171400000Y-94750000D02*
X171250000Y-94750000D01*
X171000000Y-94500000D02*
X171000000Y-93400000D01*
X171250000Y-94750000D02*
X171000000Y-94500000D01*
D35*
X169700000Y-96746000D02*
X169700000Y-96900000D01*
X170478490Y-95967510D02*
X169700000Y-96746000D01*
X171140490Y-95967510D02*
X170478490Y-95967510D01*
X171400000Y-95708000D02*
X171140490Y-95967510D01*
X171400000Y-94750000D02*
X171400000Y-95708000D01*
D34*
X161036000Y-99568000D02*
X161036000Y-99568000D01*
X167284400Y-104762300D02*
X166985850Y-105060850D01*
X167284400Y-103987600D02*
X167284400Y-104762300D01*
X166985850Y-105060850D02*
X165425000Y-103500000D01*
X167284400Y-105359400D02*
X166985850Y-105060850D01*
X166827000Y-104902000D02*
X165425000Y-103500000D01*
X167284400Y-104902000D02*
X166827000Y-104902000D01*
X167284400Y-103987600D02*
X167284400Y-104444600D01*
X165912600Y-103987600D02*
X165425000Y-103500000D01*
X167284400Y-103987600D02*
X165912600Y-103987600D01*
X165958600Y-103500000D02*
X167093800Y-104635200D01*
X165425000Y-103500000D02*
X165958600Y-103500000D01*
X167093800Y-104635200D02*
X166827000Y-104902000D01*
X167284400Y-104444600D02*
X167093800Y-104635200D01*
X165425000Y-103957000D02*
X167284400Y-105816400D01*
X165425000Y-103500000D02*
X165425000Y-103957000D01*
X165425000Y-104465000D02*
X165425000Y-103500000D01*
X167284400Y-105359400D02*
X165425000Y-103500000D01*
X167284400Y-105816400D02*
X167284400Y-105359400D01*
X167284400Y-105816400D02*
X165425000Y-103500000D01*
D35*
X169697400Y-96902600D02*
X169700000Y-96900000D01*
X169697400Y-97688400D02*
X169697400Y-96902600D01*
D34*
X161798000Y-100330000D02*
X162682000Y-101214000D01*
X161798000Y-100330000D02*
X161036000Y-99568000D01*
X159562800Y-98094800D02*
X159562800Y-97231200D01*
X165323400Y-103398400D02*
X165425000Y-103500000D01*
X162682000Y-102992000D02*
X163088400Y-103398400D01*
X162682000Y-102687200D02*
X162682000Y-102992000D01*
X163088400Y-103398400D02*
X165323400Y-103398400D01*
X162682000Y-103398400D02*
X163088400Y-103398400D01*
X162682000Y-101214000D02*
X162682000Y-102687200D01*
X162682000Y-102687200D02*
X162682000Y-103398400D01*
X162682000Y-103611600D02*
X162682000Y-103398400D01*
X161798000Y-104495600D02*
X162682000Y-103611600D01*
D38*
X176276000Y-95504000D02*
X176276000Y-95504000D01*
X175381000Y-85344000D02*
X175400000Y-85325000D01*
X174371000Y-85344000D02*
X175381000Y-85344000D01*
X174244000Y-85471000D02*
X174371000Y-85344000D01*
X174244000Y-87122000D02*
X174244000Y-85471000D01*
X174752000Y-87630000D02*
X174244000Y-87122000D01*
X174752000Y-89154000D02*
X174752000Y-87630000D01*
X175514000Y-89916000D02*
X174752000Y-89154000D01*
X175818800Y-99009200D02*
X176276000Y-98552000D01*
X170459400Y-99009200D02*
X175818800Y-99009200D01*
X176276000Y-98552000D02*
X176276000Y-95504000D01*
X165227000Y-98552000D02*
X167132000Y-98552000D01*
X169829999Y-98379799D02*
X169849800Y-98399600D01*
X167304201Y-98379799D02*
X169829999Y-98379799D01*
X167132000Y-98552000D02*
X167304201Y-98379799D01*
X169849800Y-98399600D02*
X170459400Y-99009200D01*
D37*
X180187500Y-82962500D02*
X180225000Y-83000000D01*
X180187500Y-81400000D02*
X180187500Y-82962500D01*
D36*
X165825000Y-91000000D02*
X166429000Y-91000000D01*
X166779000Y-90650000D02*
X167300000Y-90650000D01*
X166429000Y-91000000D02*
X166779000Y-90650000D01*
D38*
X167132000Y-93599000D02*
X167640000Y-93599000D01*
X167640000Y-93599000D02*
X167640000Y-93599000D01*
X169291000Y-91609000D02*
X169300000Y-91600000D01*
X169291000Y-92583000D02*
X169291000Y-91609000D01*
X167132000Y-93624400D02*
X167132000Y-93599000D01*
X165862000Y-94894400D02*
X167132000Y-93624400D01*
D35*
X178550000Y-92500000D02*
X179026000Y-92500000D01*
X180225000Y-91301000D02*
X180225000Y-90450000D01*
X179026000Y-92500000D02*
X180225000Y-91301000D01*
D38*
X175400000Y-77325000D02*
X176258000Y-77325000D01*
X176758000Y-77825000D02*
X177400000Y-77825000D01*
X176258000Y-77325000D02*
X176758000Y-77825000D01*
X179130000Y-87230000D02*
X179175000Y-87185000D01*
X177438000Y-87014000D02*
X177654000Y-87230000D01*
X177400000Y-87014000D02*
X177438000Y-87014000D01*
X177654000Y-87230000D02*
X179130000Y-87230000D01*
X177400000Y-87230000D02*
X177654000Y-87230000D01*
X177400000Y-87014000D02*
X177400000Y-87230000D01*
X177400000Y-87484000D02*
X177654000Y-87230000D01*
X177400000Y-87522000D02*
X177400000Y-87484000D01*
X177400000Y-87230000D02*
X177400000Y-87522000D01*
X177419000Y-88138000D02*
X177400000Y-88119000D01*
X177419000Y-89154000D02*
X177419000Y-88138000D01*
X177400000Y-88119000D02*
X177400000Y-88284000D01*
X177400000Y-87522000D02*
X177400000Y-88119000D01*
X172237400Y-89966800D02*
X172237400Y-90335100D01*
X172802300Y-90900000D02*
X173025000Y-90900000D01*
X172237400Y-90335100D02*
X172802300Y-90900000D01*
X177400000Y-87014000D02*
X177400000Y-83826400D01*
X177400000Y-83826400D02*
X177215800Y-83642200D01*
X177215800Y-83642200D02*
X177215800Y-82575400D01*
X177400000Y-82391200D02*
X177400000Y-77825000D01*
X177215800Y-82575400D02*
X177400000Y-82391200D01*
X175400000Y-74325000D02*
X176179000Y-74325000D01*
X176679000Y-74825000D02*
X177400000Y-74825000D01*
X176179000Y-74325000D02*
X176679000Y-74825000D01*
X177927500Y-88455000D02*
X177927000Y-88455500D01*
X179175000Y-88455000D02*
X177927500Y-88455000D01*
X173609000Y-88455500D02*
X173550000Y-88514500D01*
X173550000Y-88396500D02*
X173550000Y-88396500D01*
X173550000Y-88514500D02*
X173550000Y-88333000D01*
X173550000Y-88333000D02*
X173672500Y-88455500D01*
X173672500Y-88455500D02*
X173609000Y-88455500D01*
X173550000Y-88578000D02*
X173672500Y-88455500D01*
X173550000Y-88641500D02*
X173550000Y-88578000D01*
X173550000Y-90375000D02*
X173550000Y-88641500D01*
X173550000Y-88641500D02*
X173550000Y-88514500D01*
X174087000Y-74325000D02*
X175400000Y-74325000D01*
X173550000Y-74862000D02*
X174087000Y-74325000D01*
X173990000Y-88396500D02*
X173609000Y-88455500D01*
X173550000Y-88333000D02*
X173990000Y-88396500D01*
X173550000Y-78046000D02*
X173550000Y-78046000D01*
X173550000Y-88333000D02*
X173550000Y-78046000D01*
X169700000Y-95250000D02*
X168100000Y-95250000D01*
X168100000Y-95250000D02*
X168100000Y-94155000D01*
X168100000Y-94155000D02*
X168275000Y-93980000D01*
X168275000Y-93980000D02*
X168275000Y-90170000D01*
X167640000Y-89535000D02*
X167640000Y-89535000D01*
X167259000Y-89154000D02*
X167703500Y-89598500D01*
X166878000Y-89154000D02*
X167259000Y-89154000D01*
X167703500Y-89598500D02*
X167640000Y-89535000D01*
X168275000Y-90170000D02*
X167703500Y-89598500D01*
X162382000Y-77343000D02*
X162400000Y-77325000D01*
X161290000Y-77343000D02*
X162382000Y-77343000D01*
X161438000Y-79325000D02*
X160274000Y-80489000D01*
X162400000Y-79325000D02*
X161438000Y-79325000D01*
X160274000Y-80489000D02*
X160274000Y-85598000D01*
X160274000Y-86106000D02*
X160274000Y-86106000D01*
X160274000Y-85598000D02*
X160274000Y-86106000D01*
X163355600Y-91000000D02*
X164175000Y-91000000D01*
X180500000Y-75500000D02*
X180500000Y-75500000D01*
X165344000Y-87825000D02*
X165344000Y-86878000D01*
X165344000Y-86878000D02*
X165608000Y-86614000D01*
X165608000Y-86614000D02*
X172339000Y-86614000D01*
X172339000Y-86614000D02*
X172339000Y-86614000D01*
X180500000Y-75500000D02*
X180500000Y-75471000D01*
X182020541Y-77059459D02*
X184444940Y-79483858D01*
X181893541Y-77186459D02*
X181864000Y-77216000D01*
X181893541Y-76932459D02*
X181893541Y-77186459D01*
X181864000Y-77216000D02*
X182020541Y-77059459D01*
X180485142Y-75524060D02*
X181893541Y-76932459D01*
X181893541Y-76932459D02*
X182020541Y-77059459D01*
X181864000Y-77216000D02*
X182118000Y-77216000D01*
X186150000Y-83534000D02*
X186150000Y-84525000D01*
X185420000Y-82804000D02*
X186150000Y-83534000D01*
X185420000Y-80458918D02*
X185420000Y-82804000D01*
X184444940Y-79483858D02*
X185420000Y-80458918D01*
X180276500Y-78803500D02*
X180290470Y-78789530D01*
X180290470Y-78789530D02*
X181864000Y-77216000D01*
X180215540Y-78864460D02*
X180290470Y-78789530D01*
X178186080Y-78864460D02*
X180215540Y-78864460D01*
X172466000Y-88900000D02*
X172466000Y-88773000D01*
X172456000Y-87825000D02*
X172466000Y-88900000D01*
X180225000Y-97143000D02*
X180225000Y-96300000D01*
X177800000Y-97790000D02*
X179578000Y-97790000D01*
X179578000Y-97790000D02*
X179832000Y-97536000D01*
X179832000Y-97536000D02*
X179959000Y-97409000D01*
X182980082Y-99822000D02*
X183780940Y-99021142D01*
X182372000Y-99822000D02*
X182980082Y-99822000D01*
X180086000Y-97282000D02*
X180086000Y-97536000D01*
X180086000Y-97536000D02*
X182372000Y-99822000D01*
X179959000Y-97409000D02*
X180086000Y-97536000D01*
X179959000Y-97409000D02*
X180086000Y-97282000D01*
X180086000Y-97282000D02*
X180225000Y-97143000D01*
X179832000Y-97536000D02*
X180086000Y-97536000D01*
X176720500Y-90106500D02*
X175400000Y-88786000D01*
X175807762Y-93091000D02*
X176720500Y-92178262D01*
X175400000Y-88786000D02*
X175400000Y-86325000D01*
X174307500Y-93091000D02*
X175807762Y-93091000D01*
X174050000Y-92833500D02*
X174307500Y-93091000D01*
X176720500Y-92178262D02*
X176720500Y-90106500D01*
X174050000Y-91925000D02*
X174050000Y-92833500D01*
X176527000Y-84325000D02*
X175400000Y-84325000D01*
X176784000Y-84582000D02*
X176527000Y-84325000D01*
X177165000Y-89789000D02*
X176784000Y-89408000D01*
X177165000Y-92456000D02*
X177165000Y-89789000D01*
X173990000Y-93472000D02*
X176149001Y-93472000D01*
X176784000Y-89408000D02*
X176784000Y-84582000D01*
X173550000Y-93032000D02*
X173990000Y-93472000D01*
X176149001Y-93472000D02*
X177165000Y-92456000D01*
X173550000Y-91925000D02*
X173550000Y-93032000D01*
X171831000Y-85979000D02*
X171831000Y-77343000D01*
X173849000Y-75325000D02*
X175400000Y-75325000D01*
X171831000Y-77343000D02*
X173849000Y-75325000D01*
X160850000Y-92650000D02*
X160850000Y-91880000D01*
X160850000Y-91880000D02*
X161544000Y-91186000D01*
X161544000Y-91186000D02*
X162052000Y-91186000D01*
X164084000Y-89154000D02*
X164084000Y-88900000D01*
X162052000Y-91186000D02*
X164084000Y-89154000D01*
X174246000Y-76325000D02*
X175400000Y-76325000D01*
X172720000Y-77851000D02*
X174246000Y-76325000D01*
X172720000Y-85344000D02*
X172720000Y-77851000D01*
X160350000Y-92650000D02*
X160350000Y-91618000D01*
X160350000Y-91618000D02*
X163322000Y-88646000D01*
X164589000Y-84325000D02*
X164592000Y-84328000D01*
X162400000Y-84325000D02*
X164589000Y-84325000D01*
X182817000Y-85915000D02*
X182753000Y-85979000D01*
X184124500Y-85915500D02*
X184125000Y-85915000D01*
X182753000Y-85915500D02*
X184124500Y-85915500D01*
X162400000Y-74325000D02*
X161768000Y-74325000D01*
X159131000Y-81225500D02*
X159131000Y-81661000D01*
X158882000Y-81910000D02*
X158882000Y-82475500D01*
X159131000Y-81661000D02*
X158882000Y-81910000D01*
X158882000Y-82475500D02*
X158882000Y-83975500D01*
X161387000Y-74325000D02*
X162400000Y-74325000D01*
X161239200Y-74472800D02*
X161387000Y-74325000D01*
X161239200Y-76149200D02*
X161239200Y-74472800D01*
X159131000Y-78257400D02*
X161239200Y-76149200D01*
X159131000Y-81225500D02*
X159131000Y-78257400D01*
X175413000Y-83312000D02*
X175400000Y-83325000D01*
X176530000Y-83312000D02*
X175413000Y-83312000D01*
X173300000Y-94750000D02*
X173728000Y-94750000D01*
X173728000Y-94750000D02*
X174180500Y-94297500D01*
X174180500Y-94297500D02*
X177292000Y-94297500D01*
X177292000Y-94297500D02*
X177482500Y-94107000D01*
X177482500Y-94107000D02*
X177482500Y-94107000D01*
X164592000Y-88900000D02*
X164592000Y-88900000D01*
X163557000Y-85325000D02*
X162400000Y-85325000D01*
X164592000Y-86360000D02*
X163557000Y-85325000D01*
X164592000Y-89027000D02*
X164592000Y-86360000D01*
X165354000Y-89789000D02*
X164592000Y-89027000D01*
X165862000Y-89789000D02*
X165354000Y-89789000D01*
X161438000Y-81325000D02*
X162400000Y-81325000D01*
X161036000Y-81727000D02*
X161438000Y-81325000D01*
X161036000Y-86614000D02*
X161036000Y-86614000D01*
X161036000Y-86614000D02*
X161036000Y-81727000D01*
X175382500Y-73342500D02*
X175400000Y-73325000D01*
X174371000Y-73342500D02*
X175382500Y-73342500D01*
X175402500Y-80327500D02*
X175400000Y-80325000D01*
X176466500Y-80327500D02*
X175402500Y-80327500D01*
X175381500Y-81343500D02*
X175400000Y-81325000D01*
X174371000Y-81343500D02*
X175381500Y-81343500D01*
X160875000Y-88825000D02*
X160850000Y-88800000D01*
X155882967Y-88350000D02*
X154962500Y-88350000D01*
X155975001Y-88350000D02*
X155882967Y-88350000D01*
X157447998Y-88929798D02*
X156968200Y-88450000D01*
X157447998Y-89729798D02*
X157447998Y-88929798D01*
X157693200Y-89975000D02*
X157447998Y-89729798D01*
X158420048Y-90003305D02*
X158414091Y-89993825D01*
X158423746Y-90013873D02*
X158420048Y-90003305D01*
X158429951Y-90046694D02*
X158426253Y-90036126D01*
X158435908Y-90056174D02*
X158429951Y-90046694D01*
X158443825Y-90064091D02*
X158435908Y-90056174D01*
X158463873Y-90073746D02*
X158453305Y-90070048D01*
X158975000Y-90075000D02*
X158475000Y-90075000D01*
X158375000Y-89975000D02*
X157693200Y-89975000D01*
X158986126Y-90073746D02*
X158975000Y-90075000D01*
X156075001Y-88450000D02*
X155975001Y-88350000D01*
X158996694Y-90070048D02*
X158986126Y-90073746D01*
X158386126Y-89976253D02*
X158375000Y-89975000D01*
X159006174Y-90064091D02*
X158996694Y-90070048D01*
X158426253Y-90036126D02*
X158423746Y-90013873D01*
X159014091Y-90056174D02*
X159006174Y-90064091D01*
X158406174Y-89985908D02*
X158396694Y-89979951D01*
X159020048Y-90046694D02*
X159014091Y-90056174D01*
X156968200Y-88450000D02*
X156075001Y-88450000D01*
X159023746Y-90036126D02*
X159020048Y-90046694D01*
X158453305Y-90070048D02*
X158443825Y-90064091D01*
X159632521Y-89741757D02*
X159625000Y-89675000D01*
X159625000Y-89675000D02*
X159625000Y-89650067D01*
X159737953Y-89909550D02*
X159690450Y-89862047D01*
X160850000Y-89300001D02*
X160875000Y-89325001D01*
X160306800Y-89975000D02*
X159925000Y-89975000D01*
X159025000Y-89650067D02*
X159025000Y-90025000D01*
X159794834Y-89945291D02*
X159737953Y-89909550D01*
X159858243Y-89967479D02*
X159794834Y-89945291D01*
X159194834Y-89379777D02*
X159137953Y-89415518D01*
X158414091Y-89993825D02*
X158406174Y-89985908D01*
X159025000Y-90025000D02*
X159023746Y-90036126D01*
X159925000Y-89975000D02*
X159858243Y-89967479D01*
X158396694Y-89979951D02*
X158386126Y-89976253D01*
X160875000Y-89325001D02*
X160875000Y-89406800D01*
X159137953Y-89415518D02*
X159090450Y-89463021D01*
X159617478Y-89583311D02*
X159595290Y-89519902D01*
X159032521Y-89583311D02*
X159025000Y-89650067D01*
X160875000Y-89406800D02*
X160306800Y-89975000D01*
X159690450Y-89862047D02*
X159654709Y-89805166D01*
X160850000Y-88250000D02*
X160850000Y-89300001D01*
X159595290Y-89519902D02*
X159559549Y-89463021D01*
X159559549Y-89463021D02*
X159512046Y-89415518D01*
X159512046Y-89415518D02*
X159455165Y-89379777D01*
X159455165Y-89379777D02*
X159391756Y-89357589D01*
X159391756Y-89357589D02*
X159325000Y-89350067D01*
X159325000Y-89350067D02*
X159258243Y-89357589D01*
X159258243Y-89357589D02*
X159194834Y-89379777D01*
X159654709Y-89805166D02*
X159632521Y-89741757D01*
X159090450Y-89463021D02*
X159054709Y-89519902D01*
X158475000Y-90075000D02*
X158463873Y-90073746D01*
X159625000Y-89650067D02*
X159617478Y-89583311D01*
X159054709Y-89519902D02*
X159032521Y-89583311D01*
X161325000Y-88825000D02*
X161350000Y-88800000D01*
X156781800Y-88900000D02*
X156075001Y-88900000D01*
X156997998Y-89116198D02*
X156781800Y-88900000D01*
X157506800Y-90425000D02*
X156997998Y-89916198D01*
X156075001Y-88900000D02*
X155975001Y-89000000D01*
X160493200Y-90425000D02*
X157506800Y-90425000D01*
X155975001Y-89000000D02*
X154962500Y-89000000D01*
X161325000Y-89325001D02*
X161325000Y-89593200D01*
X156997998Y-89916198D02*
X156997998Y-89116198D01*
X161350000Y-89300001D02*
X161325000Y-89325001D01*
X161325000Y-89593200D02*
X160493200Y-90425000D01*
X161350000Y-88250000D02*
X161350000Y-89300001D01*
D34*
X152262500Y-88000000D02*
X152262500Y-86544510D01*
X152262500Y-90000000D02*
X152262500Y-88000000D01*
X152262500Y-90000000D02*
X152262500Y-91455490D01*
D35*
X158902400Y-95300800D02*
X158902400Y-95465900D01*
D34*
X161400000Y-95425000D02*
X161877000Y-95425000D01*
X162602000Y-94700000D02*
X163150000Y-94700000D01*
X161877000Y-95425000D02*
X162602000Y-94700000D01*
D36*
X165050000Y-95290802D02*
X165050000Y-94700000D01*
X164582802Y-95758000D02*
X165050000Y-95290802D01*
X163512500Y-95758000D02*
X164582802Y-95758000D01*
X163150000Y-95395500D02*
X163512500Y-95758000D01*
X163150000Y-94700000D02*
X163150000Y-95395500D01*
X157200000Y-95800000D02*
X157699200Y-95300800D01*
X157200000Y-96350000D02*
X157200000Y-95800000D01*
X157699200Y-95300800D02*
X158902400Y-95300800D01*
X158902400Y-95702400D02*
X158902400Y-95300800D01*
X159402500Y-96202500D02*
X158902400Y-95702400D01*
D35*
X159402500Y-96202500D02*
X160697500Y-96202500D01*
X161400000Y-95500000D02*
X161400000Y-95425000D01*
X160697500Y-96202500D02*
X161400000Y-95500000D01*
D37*
X175400000Y-79325000D02*
X176403000Y-79375000D01*
X176403000Y-79375000D02*
X176480000Y-79325000D01*
X178562000Y-81349500D02*
X178562000Y-81349500D01*
X178562000Y-81349500D02*
X178612500Y-81400000D01*
X178562000Y-80645000D02*
X178562000Y-81349500D01*
D35*
X181650000Y-90450000D02*
X181650000Y-91146000D01*
X180550000Y-92246000D02*
X180550000Y-93450000D01*
X181650000Y-91146000D02*
X180550000Y-92246000D01*
X182100000Y-93450000D02*
X182250000Y-93600000D01*
X180550000Y-93450000D02*
X181143500Y-93450000D01*
X181293500Y-93600000D02*
X182250000Y-93600000D01*
X181143500Y-93450000D02*
X181293500Y-93600000D01*
D36*
X173300000Y-96950000D02*
X173975500Y-96950000D01*
X174075500Y-97050000D02*
X174900000Y-97050000D01*
X173975500Y-96950000D02*
X174075500Y-97050000D01*
D38*
X161036000Y-98552000D02*
X163577000Y-98552000D01*
X158686500Y-99631500D02*
X159956500Y-99631500D01*
X157734000Y-100584000D02*
X158686500Y-99631500D01*
X157734000Y-102336082D02*
X157734000Y-100584000D01*
X158578858Y-103180940D02*
X157734000Y-102336082D01*
X159956500Y-99631500D02*
X161036000Y-98552000D01*
X178537500Y-90487500D02*
X178575000Y-90450000D01*
X177863500Y-90487500D02*
X178537500Y-90487500D01*
X162400000Y-80325000D02*
X163891000Y-80325000D01*
X165608000Y-82042000D02*
X165608000Y-83566000D01*
X163891000Y-80325000D02*
X165608000Y-82042000D01*
X153756060Y-79483858D02*
X153162000Y-80077918D01*
X153162000Y-80077918D02*
X153162000Y-81534000D01*
X154103500Y-82475500D02*
X157232000Y-82475500D01*
X153162000Y-81534000D02*
X154103500Y-82475500D01*
X165825000Y-93128000D02*
X165825000Y-92600000D01*
X165227000Y-93599000D02*
X165608000Y-93599000D01*
X165825000Y-93382000D02*
X165825000Y-93128000D01*
X165608000Y-93599000D02*
X165825000Y-93382000D01*
X182817000Y-84645000D02*
X182753000Y-84709000D01*
X184125000Y-84645000D02*
X182817000Y-84645000D01*
X176501000Y-82325000D02*
X176530000Y-82296000D01*
X175400000Y-82325000D02*
X176501000Y-82325000D01*
M02*
