G04 #@! TF.GenerationSoftware,KiCad,Pcbnew,(5.1.10)-1*
G04 #@! TF.CreationDate,2021-08-15T15:57:36-07:00*
G04 #@! TF.ProjectId,esp32-smartwatch,65737033-322d-4736-9d61-727477617463,rev?*
G04 #@! TF.SameCoordinates,Original*
G04 #@! TF.FileFunction,Copper,L2,Inr*
G04 #@! TF.FilePolarity,Positive*
%FSLAX46Y46*%
G04 Gerber Fmt 4.6, Leading zero omitted, Abs format (unit mm)*
G04 Created by KiCad (PCBNEW (5.1.10)-1) date 2021-08-15 15:57:36*
%MOMM*%
%LPD*%
G01*
G04 APERTURE LIST*
G04 #@! TA.AperFunction,ComponentPad*
%ADD10C,1.000000*%
G04 #@! TD*
G04 #@! TA.AperFunction,ComponentPad*
%ADD11O,1.900000X1.200000*%
G04 #@! TD*
G04 #@! TA.AperFunction,ComponentPad*
%ADD12C,1.450000*%
G04 #@! TD*
G04 #@! TA.AperFunction,ViaPad*
%ADD13C,0.635000*%
G04 #@! TD*
G04 #@! TA.AperFunction,ViaPad*
%ADD14C,0.500000*%
G04 #@! TD*
G04 #@! TA.AperFunction,Conductor*
%ADD15C,0.254000*%
G04 #@! TD*
G04 #@! TA.AperFunction,Conductor*
%ADD16C,2.000000*%
G04 #@! TD*
G04 APERTURE END LIST*
D10*
X153314400Y-83210400D03*
X176600000Y-104200000D03*
X161798000Y-104495600D03*
X153720800Y-96062800D03*
D11*
X152262500Y-92500000D03*
X152262500Y-85500000D03*
D12*
X154962500Y-91500000D03*
X154962500Y-86500000D03*
D13*
X167132000Y-79629000D03*
X168465500Y-79629000D03*
X169735500Y-79629000D03*
X170878500Y-79629000D03*
X170878500Y-80772000D03*
X169735500Y-80772000D03*
X168452800Y-80772000D03*
X167132000Y-80772000D03*
X167132000Y-81915000D03*
X168465500Y-81940400D03*
X169735500Y-81915000D03*
X170878500Y-81915000D03*
X170878500Y-83058000D03*
X169735500Y-83058000D03*
X168465500Y-83058000D03*
X167132000Y-83058000D03*
X180009800Y-77419200D03*
X178358800Y-75946000D03*
X167284400Y-105816400D03*
X167284400Y-104902000D03*
X167284400Y-103987600D03*
D14*
X177876200Y-83032600D03*
D13*
X155600400Y-81330800D03*
X167284400Y-91744800D03*
X160464500Y-97028000D03*
X156972000Y-86588600D03*
X160502600Y-74625200D03*
X158800800Y-74879200D03*
D14*
X171040000Y-97463400D03*
D13*
X176530000Y-72326500D03*
X174244000Y-72326500D03*
X168084500Y-97663000D03*
X170942000Y-105816400D03*
X170942000Y-104902000D03*
X170942000Y-103987600D03*
X181864000Y-97155000D03*
X178562000Y-95123000D03*
X185864500Y-88900000D03*
X172618400Y-98298000D03*
D14*
X173024800Y-89966800D03*
X175003900Y-91150000D03*
X172563400Y-93400000D03*
X172577760Y-92369640D03*
X168605200Y-98856800D03*
X169164000Y-99441000D03*
D13*
X165481000Y-99695000D03*
X158800800Y-73761600D03*
X160274000Y-72898000D03*
X178308000Y-73152000D03*
D14*
X167068500Y-99441000D03*
X172000000Y-90850000D03*
D13*
X185864500Y-93599000D03*
X187007500Y-86169500D03*
X177800000Y-96266000D03*
X186499500Y-87312500D03*
X185775000Y-90450000D03*
D14*
X175600000Y-92592800D03*
X167640000Y-98856800D03*
D13*
X156413200Y-83947000D03*
X158902400Y-86334600D03*
X159004000Y-101092000D03*
D14*
X163474400Y-92608400D03*
X164401500Y-93726000D03*
X163766500Y-93726000D03*
X162750500Y-93726000D03*
D13*
X157527100Y-81225500D03*
D14*
X173202600Y-99796600D03*
X178765200Y-83870800D03*
D13*
X156260800Y-90271600D03*
D14*
X160324800Y-87274400D03*
D13*
X166420800Y-95681800D03*
X162471100Y-87007700D03*
D14*
X166935972Y-97314572D03*
X166420800Y-97866200D03*
X162750000Y-91631000D03*
D13*
X169697400Y-97688400D03*
X161036000Y-99568000D03*
X161798000Y-100330000D03*
X159562800Y-98094800D03*
X160083500Y-98679000D03*
D14*
X176276000Y-95504000D03*
X175514000Y-89916000D03*
X167640000Y-93599000D03*
X169291000Y-92583000D03*
X165862000Y-94894400D03*
X177419000Y-89154000D03*
X172237400Y-89966800D03*
X177927000Y-88455500D03*
X173550000Y-74862000D03*
X173990000Y-88396500D03*
X173550000Y-78046000D03*
X161290000Y-77343000D03*
X166878000Y-89154000D03*
X160274000Y-86106000D03*
X163355600Y-91000000D03*
X172339000Y-86614000D03*
X174117000Y-79184500D03*
X178186080Y-78864460D03*
X172466000Y-88900000D03*
X177800000Y-97790000D03*
X171831000Y-85979000D03*
X164084000Y-88900000D03*
X172720000Y-85344000D03*
X163322000Y-88646000D03*
X182753000Y-85915500D03*
X171196000Y-84328000D03*
X164592000Y-84328000D03*
X176530000Y-83312000D03*
X177482500Y-94107000D03*
X165862000Y-89789000D03*
X173609000Y-98348800D03*
X161036000Y-86614000D03*
X174371000Y-73342500D03*
X176466500Y-80327500D03*
X174371000Y-81343500D03*
X176403000Y-79375000D03*
X178562000Y-80645000D03*
X165608000Y-83566000D03*
X177863500Y-90487500D03*
X165227000Y-93599000D03*
X182753000Y-84709000D03*
X176530000Y-82296000D03*
D15*
X176511339Y-72069622D02*
X177824861Y-72723679D01*
X177807385Y-72741155D01*
X177736852Y-72846715D01*
X177688268Y-72964006D01*
X177663500Y-73088522D01*
X177663500Y-73215478D01*
X177688268Y-73339994D01*
X177736852Y-73457285D01*
X177807385Y-73562845D01*
X177897155Y-73652615D01*
X178002715Y-73723148D01*
X178120006Y-73771732D01*
X178244522Y-73796500D01*
X178371478Y-73796500D01*
X178495994Y-73771732D01*
X178613285Y-73723148D01*
X178718845Y-73652615D01*
X178808615Y-73562845D01*
X178879148Y-73457285D01*
X178914092Y-73372923D01*
X179477380Y-73721696D01*
X180833504Y-74745794D01*
X182089351Y-75890649D01*
X183234206Y-77146496D01*
X184258304Y-78502620D01*
X185152905Y-79947451D01*
X185910378Y-81468661D01*
X186524260Y-83053273D01*
X186989313Y-84687768D01*
X187148709Y-85540462D01*
X187070978Y-85525000D01*
X186944022Y-85525000D01*
X186819506Y-85549768D01*
X186702215Y-85598352D01*
X186596655Y-85668885D01*
X186506885Y-85758655D01*
X186436352Y-85864215D01*
X186387768Y-85981506D01*
X186363000Y-86106022D01*
X186363000Y-86232978D01*
X186387768Y-86357494D01*
X186436352Y-86474785D01*
X186506885Y-86580345D01*
X186596655Y-86670115D01*
X186606423Y-86676642D01*
X186562978Y-86668000D01*
X186436022Y-86668000D01*
X186311506Y-86692768D01*
X186194215Y-86741352D01*
X186088655Y-86811885D01*
X185998885Y-86901655D01*
X185928352Y-87007215D01*
X185879768Y-87124506D01*
X185855000Y-87249022D01*
X185855000Y-87375978D01*
X185879768Y-87500494D01*
X185928352Y-87617785D01*
X185998885Y-87723345D01*
X186088655Y-87813115D01*
X186194215Y-87883648D01*
X186311506Y-87932232D01*
X186436022Y-87957000D01*
X186562978Y-87957000D01*
X186687494Y-87932232D01*
X186804785Y-87883648D01*
X186910345Y-87813115D01*
X187000115Y-87723345D01*
X187070648Y-87617785D01*
X187119232Y-87500494D01*
X187144000Y-87375978D01*
X187144000Y-87249022D01*
X187119232Y-87124506D01*
X187070648Y-87007215D01*
X187000115Y-86901655D01*
X186910345Y-86811885D01*
X186900577Y-86805358D01*
X186944022Y-86814000D01*
X187070978Y-86814000D01*
X187195494Y-86789232D01*
X187312785Y-86740648D01*
X187335598Y-86725405D01*
X187458369Y-88050317D01*
X187458369Y-89749683D01*
X187301571Y-91441801D01*
X186989313Y-93112232D01*
X186524260Y-94746727D01*
X185910378Y-96331339D01*
X185152905Y-97852549D01*
X184258304Y-99297380D01*
X183234206Y-100653504D01*
X182089351Y-101909351D01*
X180833504Y-103054206D01*
X179477380Y-104078304D01*
X178032549Y-104972905D01*
X176511339Y-105730378D01*
X174926727Y-106344260D01*
X173292232Y-106809313D01*
X171621801Y-107121571D01*
X169929683Y-107278369D01*
X168230317Y-107278369D01*
X166538199Y-107121571D01*
X164867768Y-106809313D01*
X163233273Y-106344260D01*
X161648661Y-105730378D01*
X160127451Y-104972905D01*
X159225027Y-104414148D01*
X160971000Y-104414148D01*
X160971000Y-104577052D01*
X161002782Y-104736827D01*
X161065123Y-104887331D01*
X161155628Y-105022781D01*
X161270819Y-105137972D01*
X161406269Y-105228477D01*
X161556773Y-105290818D01*
X161716548Y-105322600D01*
X161879452Y-105322600D01*
X162039227Y-105290818D01*
X162189731Y-105228477D01*
X162325181Y-105137972D01*
X162440372Y-105022781D01*
X162530877Y-104887331D01*
X162593218Y-104736827D01*
X162625000Y-104577052D01*
X162625000Y-104414148D01*
X162593218Y-104254373D01*
X162530877Y-104103869D01*
X162440372Y-103968419D01*
X162396075Y-103924122D01*
X166639900Y-103924122D01*
X166639900Y-104051078D01*
X166664668Y-104175594D01*
X166713252Y-104292885D01*
X166783785Y-104398445D01*
X166830140Y-104444800D01*
X166783785Y-104491155D01*
X166713252Y-104596715D01*
X166664668Y-104714006D01*
X166639900Y-104838522D01*
X166639900Y-104965478D01*
X166664668Y-105089994D01*
X166713252Y-105207285D01*
X166783785Y-105312845D01*
X166830140Y-105359200D01*
X166783785Y-105405555D01*
X166713252Y-105511115D01*
X166664668Y-105628406D01*
X166639900Y-105752922D01*
X166639900Y-105879878D01*
X166664668Y-106004394D01*
X166713252Y-106121685D01*
X166783785Y-106227245D01*
X166873555Y-106317015D01*
X166979115Y-106387548D01*
X167096406Y-106436132D01*
X167220922Y-106460900D01*
X167347878Y-106460900D01*
X167472394Y-106436132D01*
X167589685Y-106387548D01*
X167695245Y-106317015D01*
X167785015Y-106227245D01*
X167855548Y-106121685D01*
X167904132Y-106004394D01*
X167928900Y-105879878D01*
X167928900Y-105752922D01*
X167904132Y-105628406D01*
X167855548Y-105511115D01*
X167785015Y-105405555D01*
X167738660Y-105359200D01*
X167785015Y-105312845D01*
X167855548Y-105207285D01*
X167904132Y-105089994D01*
X167926376Y-104978166D01*
X176001439Y-104978166D01*
X176036550Y-105191588D01*
X176240826Y-105282458D01*
X176458905Y-105331731D01*
X176682406Y-105337511D01*
X176902740Y-105299577D01*
X177111440Y-105219387D01*
X177163450Y-105191588D01*
X177198561Y-104978166D01*
X176600000Y-104379605D01*
X176001439Y-104978166D01*
X167926376Y-104978166D01*
X167928900Y-104965478D01*
X167928900Y-104838522D01*
X167904132Y-104714006D01*
X167855548Y-104596715D01*
X167785015Y-104491155D01*
X167738660Y-104444800D01*
X167785015Y-104398445D01*
X167855548Y-104292885D01*
X167859888Y-104282406D01*
X175462489Y-104282406D01*
X175500423Y-104502740D01*
X175580613Y-104711440D01*
X175608412Y-104763450D01*
X175821834Y-104798561D01*
X176420395Y-104200000D01*
X176779605Y-104200000D01*
X177378166Y-104798561D01*
X177591588Y-104763450D01*
X177682458Y-104559174D01*
X177731731Y-104341095D01*
X177737511Y-104117594D01*
X177699577Y-103897260D01*
X177619387Y-103688560D01*
X177591588Y-103636550D01*
X177378166Y-103601439D01*
X176779605Y-104200000D01*
X176420395Y-104200000D01*
X175821834Y-103601439D01*
X175608412Y-103636550D01*
X175517542Y-103840826D01*
X175468269Y-104058905D01*
X175462489Y-104282406D01*
X167859888Y-104282406D01*
X167904132Y-104175594D01*
X167928900Y-104051078D01*
X167928900Y-103924122D01*
X167904132Y-103799606D01*
X167855548Y-103682315D01*
X167785015Y-103576755D01*
X167695245Y-103486985D01*
X167597740Y-103421834D01*
X176001439Y-103421834D01*
X176600000Y-104020395D01*
X177198561Y-103421834D01*
X177163450Y-103208412D01*
X176959174Y-103117542D01*
X176741095Y-103068269D01*
X176517594Y-103062489D01*
X176297260Y-103100423D01*
X176088560Y-103180613D01*
X176036550Y-103208412D01*
X176001439Y-103421834D01*
X167597740Y-103421834D01*
X167589685Y-103416452D01*
X167472394Y-103367868D01*
X167347878Y-103343100D01*
X167220922Y-103343100D01*
X167096406Y-103367868D01*
X166979115Y-103416452D01*
X166873555Y-103486985D01*
X166783785Y-103576755D01*
X166713252Y-103682315D01*
X166664668Y-103799606D01*
X166639900Y-103924122D01*
X162396075Y-103924122D01*
X162325181Y-103853228D01*
X162189731Y-103762723D01*
X162039227Y-103700382D01*
X161879452Y-103668600D01*
X161716548Y-103668600D01*
X161556773Y-103700382D01*
X161406269Y-103762723D01*
X161270819Y-103853228D01*
X161155628Y-103968419D01*
X161065123Y-104103869D01*
X161002782Y-104254373D01*
X160971000Y-104414148D01*
X159225027Y-104414148D01*
X158682620Y-104078304D01*
X157326496Y-103054206D01*
X156070649Y-101909351D01*
X154925794Y-100653504D01*
X154058123Y-99504522D01*
X160391500Y-99504522D01*
X160391500Y-99631478D01*
X160416268Y-99755994D01*
X160464852Y-99873285D01*
X160535385Y-99978845D01*
X160625155Y-100068615D01*
X160730715Y-100139148D01*
X160848006Y-100187732D01*
X160972522Y-100212500D01*
X161099478Y-100212500D01*
X161166914Y-100199086D01*
X161153500Y-100266522D01*
X161153500Y-100393478D01*
X161178268Y-100517994D01*
X161226852Y-100635285D01*
X161297385Y-100740845D01*
X161387155Y-100830615D01*
X161492715Y-100901148D01*
X161610006Y-100949732D01*
X161734522Y-100974500D01*
X161861478Y-100974500D01*
X161985994Y-100949732D01*
X162103285Y-100901148D01*
X162208845Y-100830615D01*
X162298615Y-100740845D01*
X162369148Y-100635285D01*
X162417732Y-100517994D01*
X162442500Y-100393478D01*
X162442500Y-100266522D01*
X162417732Y-100142006D01*
X162369148Y-100024715D01*
X162298615Y-99919155D01*
X162208845Y-99829385D01*
X162103285Y-99758852D01*
X161985994Y-99710268D01*
X161861478Y-99685500D01*
X161734522Y-99685500D01*
X161667086Y-99698914D01*
X161680500Y-99631478D01*
X161680500Y-99504522D01*
X161656561Y-99384170D01*
X166491500Y-99384170D01*
X166491500Y-99497830D01*
X166513674Y-99609305D01*
X166557169Y-99714312D01*
X166620315Y-99808816D01*
X166700684Y-99889185D01*
X166795188Y-99952331D01*
X166900195Y-99995826D01*
X167011670Y-100018000D01*
X167125330Y-100018000D01*
X167236805Y-99995826D01*
X167341812Y-99952331D01*
X167436316Y-99889185D01*
X167516685Y-99808816D01*
X167579831Y-99714312D01*
X167623326Y-99609305D01*
X167645500Y-99497830D01*
X167645500Y-99433800D01*
X167696830Y-99433800D01*
X167808305Y-99411626D01*
X167913312Y-99368131D01*
X168007816Y-99304985D01*
X168088185Y-99224616D01*
X168151331Y-99130112D01*
X168194826Y-99025105D01*
X168217000Y-98913630D01*
X168217000Y-98799970D01*
X168194826Y-98688495D01*
X168151331Y-98583488D01*
X168088185Y-98488984D01*
X168007816Y-98408615D01*
X167913312Y-98345469D01*
X167808305Y-98301974D01*
X167696830Y-98279800D01*
X167583170Y-98279800D01*
X167471695Y-98301974D01*
X167366688Y-98345469D01*
X167272184Y-98408615D01*
X167191815Y-98488984D01*
X167128669Y-98583488D01*
X167085174Y-98688495D01*
X167063000Y-98799970D01*
X167063000Y-98864000D01*
X167011670Y-98864000D01*
X166900195Y-98886174D01*
X166795188Y-98929669D01*
X166700684Y-98992815D01*
X166620315Y-99073184D01*
X166557169Y-99167688D01*
X166513674Y-99272695D01*
X166491500Y-99384170D01*
X161656561Y-99384170D01*
X161655732Y-99380006D01*
X161607148Y-99262715D01*
X161536615Y-99157155D01*
X161446845Y-99067385D01*
X161341285Y-98996852D01*
X161223994Y-98948268D01*
X161099478Y-98923500D01*
X160972522Y-98923500D01*
X160848006Y-98948268D01*
X160730715Y-98996852D01*
X160625155Y-99067385D01*
X160535385Y-99157155D01*
X160464852Y-99262715D01*
X160416268Y-99380006D01*
X160391500Y-99504522D01*
X154058123Y-99504522D01*
X153901696Y-99297380D01*
X153117787Y-98031322D01*
X158918300Y-98031322D01*
X158918300Y-98158278D01*
X158943068Y-98282794D01*
X158991652Y-98400085D01*
X159062185Y-98505645D01*
X159151955Y-98595415D01*
X159257515Y-98665948D01*
X159374806Y-98714532D01*
X159439000Y-98727301D01*
X159439000Y-98742478D01*
X159463768Y-98866994D01*
X159512352Y-98984285D01*
X159582885Y-99089845D01*
X159672655Y-99179615D01*
X159778215Y-99250148D01*
X159895506Y-99298732D01*
X160020022Y-99323500D01*
X160146978Y-99323500D01*
X160271494Y-99298732D01*
X160388785Y-99250148D01*
X160494345Y-99179615D01*
X160584115Y-99089845D01*
X160654648Y-98984285D01*
X160703232Y-98866994D01*
X160728000Y-98742478D01*
X160728000Y-98615522D01*
X160703232Y-98491006D01*
X160654648Y-98373715D01*
X160584115Y-98268155D01*
X160494345Y-98178385D01*
X160388785Y-98107852D01*
X160271494Y-98059268D01*
X160207300Y-98046499D01*
X160207300Y-98031322D01*
X160182532Y-97906806D01*
X160142173Y-97809370D01*
X165843800Y-97809370D01*
X165843800Y-97923030D01*
X165865974Y-98034505D01*
X165909469Y-98139512D01*
X165972615Y-98234016D01*
X166052984Y-98314385D01*
X166147488Y-98377531D01*
X166252495Y-98421026D01*
X166363970Y-98443200D01*
X166477630Y-98443200D01*
X166589105Y-98421026D01*
X166694112Y-98377531D01*
X166788616Y-98314385D01*
X166868985Y-98234016D01*
X166932131Y-98139512D01*
X166975626Y-98034505D01*
X166997800Y-97923030D01*
X166997800Y-97890578D01*
X167104277Y-97869398D01*
X167209284Y-97825903D01*
X167303788Y-97762757D01*
X167384157Y-97682388D01*
X167422554Y-97624922D01*
X169052900Y-97624922D01*
X169052900Y-97751878D01*
X169077668Y-97876394D01*
X169126252Y-97993685D01*
X169196785Y-98099245D01*
X169286555Y-98189015D01*
X169392115Y-98259548D01*
X169509406Y-98308132D01*
X169633922Y-98332900D01*
X169760878Y-98332900D01*
X169885394Y-98308132D01*
X169924412Y-98291970D01*
X173032000Y-98291970D01*
X173032000Y-98405630D01*
X173054174Y-98517105D01*
X173097669Y-98622112D01*
X173160815Y-98716616D01*
X173241184Y-98796985D01*
X173335688Y-98860131D01*
X173440695Y-98903626D01*
X173552170Y-98925800D01*
X173665830Y-98925800D01*
X173777305Y-98903626D01*
X173882312Y-98860131D01*
X173976816Y-98796985D01*
X174057185Y-98716616D01*
X174120331Y-98622112D01*
X174163826Y-98517105D01*
X174186000Y-98405630D01*
X174186000Y-98291970D01*
X174163826Y-98180495D01*
X174120331Y-98075488D01*
X174057185Y-97980984D01*
X173976816Y-97900615D01*
X173882312Y-97837469D01*
X173777305Y-97793974D01*
X173665830Y-97771800D01*
X173552170Y-97771800D01*
X173440695Y-97793974D01*
X173335688Y-97837469D01*
X173241184Y-97900615D01*
X173160815Y-97980984D01*
X173097669Y-98075488D01*
X173054174Y-98180495D01*
X173032000Y-98291970D01*
X169924412Y-98291970D01*
X170002685Y-98259548D01*
X170108245Y-98189015D01*
X170198015Y-98099245D01*
X170268548Y-97993685D01*
X170317132Y-97876394D01*
X170341900Y-97751878D01*
X170341900Y-97624922D01*
X170317132Y-97500406D01*
X170278264Y-97406570D01*
X170463000Y-97406570D01*
X170463000Y-97520230D01*
X170485174Y-97631705D01*
X170528669Y-97736712D01*
X170591815Y-97831216D01*
X170672184Y-97911585D01*
X170766688Y-97974731D01*
X170871695Y-98018226D01*
X170983170Y-98040400D01*
X171096830Y-98040400D01*
X171208305Y-98018226D01*
X171313312Y-97974731D01*
X171407816Y-97911585D01*
X171488185Y-97831216D01*
X171551331Y-97736712D01*
X171552798Y-97733170D01*
X177223000Y-97733170D01*
X177223000Y-97846830D01*
X177245174Y-97958305D01*
X177288669Y-98063312D01*
X177351815Y-98157816D01*
X177432184Y-98238185D01*
X177526688Y-98301331D01*
X177631695Y-98344826D01*
X177743170Y-98367000D01*
X177856830Y-98367000D01*
X177968305Y-98344826D01*
X178073312Y-98301331D01*
X178167816Y-98238185D01*
X178248185Y-98157816D01*
X178311331Y-98063312D01*
X178354826Y-97958305D01*
X178377000Y-97846830D01*
X178377000Y-97733170D01*
X178354826Y-97621695D01*
X178311331Y-97516688D01*
X178248185Y-97422184D01*
X178167816Y-97341815D01*
X178073312Y-97278669D01*
X177968305Y-97235174D01*
X177856830Y-97213000D01*
X177743170Y-97213000D01*
X177631695Y-97235174D01*
X177526688Y-97278669D01*
X177432184Y-97341815D01*
X177351815Y-97422184D01*
X177288669Y-97516688D01*
X177245174Y-97621695D01*
X177223000Y-97733170D01*
X171552798Y-97733170D01*
X171594826Y-97631705D01*
X171617000Y-97520230D01*
X171617000Y-97406570D01*
X171594826Y-97295095D01*
X171551331Y-97190088D01*
X171488185Y-97095584D01*
X171407816Y-97015215D01*
X171313312Y-96952069D01*
X171208305Y-96908574D01*
X171096830Y-96886400D01*
X170983170Y-96886400D01*
X170871695Y-96908574D01*
X170766688Y-96952069D01*
X170672184Y-97015215D01*
X170591815Y-97095584D01*
X170528669Y-97190088D01*
X170485174Y-97295095D01*
X170463000Y-97406570D01*
X170278264Y-97406570D01*
X170268548Y-97383115D01*
X170198015Y-97277555D01*
X170108245Y-97187785D01*
X170002685Y-97117252D01*
X169885394Y-97068668D01*
X169760878Y-97043900D01*
X169633922Y-97043900D01*
X169509406Y-97068668D01*
X169392115Y-97117252D01*
X169286555Y-97187785D01*
X169196785Y-97277555D01*
X169126252Y-97383115D01*
X169077668Y-97500406D01*
X169052900Y-97624922D01*
X167422554Y-97624922D01*
X167447303Y-97587884D01*
X167490798Y-97482877D01*
X167512972Y-97371402D01*
X167512972Y-97257742D01*
X167490798Y-97146267D01*
X167447303Y-97041260D01*
X167384157Y-96946756D01*
X167303788Y-96866387D01*
X167209284Y-96803241D01*
X167104277Y-96759746D01*
X166992802Y-96737572D01*
X166879142Y-96737572D01*
X166767667Y-96759746D01*
X166662660Y-96803241D01*
X166568156Y-96866387D01*
X166487787Y-96946756D01*
X166424641Y-97041260D01*
X166381146Y-97146267D01*
X166358972Y-97257742D01*
X166358972Y-97290194D01*
X166252495Y-97311374D01*
X166147488Y-97354869D01*
X166052984Y-97418015D01*
X165972615Y-97498384D01*
X165909469Y-97592888D01*
X165865974Y-97697895D01*
X165843800Y-97809370D01*
X160142173Y-97809370D01*
X160133948Y-97789515D01*
X160063415Y-97683955D01*
X159973645Y-97594185D01*
X159868085Y-97523652D01*
X159750794Y-97475068D01*
X159626278Y-97450300D01*
X159499322Y-97450300D01*
X159374806Y-97475068D01*
X159257515Y-97523652D01*
X159151955Y-97594185D01*
X159062185Y-97683955D01*
X158991652Y-97789515D01*
X158943068Y-97906806D01*
X158918300Y-98031322D01*
X153117787Y-98031322D01*
X153007095Y-97852549D01*
X152249622Y-96331339D01*
X152114035Y-95981348D01*
X152893800Y-95981348D01*
X152893800Y-96144252D01*
X152925582Y-96304027D01*
X152987923Y-96454531D01*
X153078428Y-96589981D01*
X153193619Y-96705172D01*
X153329069Y-96795677D01*
X153479573Y-96858018D01*
X153639348Y-96889800D01*
X153802252Y-96889800D01*
X153962027Y-96858018D01*
X154112531Y-96795677D01*
X154247981Y-96705172D01*
X154363172Y-96589981D01*
X154453677Y-96454531D01*
X154516018Y-96304027D01*
X154536209Y-96202522D01*
X177155500Y-96202522D01*
X177155500Y-96329478D01*
X177180268Y-96453994D01*
X177228852Y-96571285D01*
X177299385Y-96676845D01*
X177389155Y-96766615D01*
X177494715Y-96837148D01*
X177612006Y-96885732D01*
X177736522Y-96910500D01*
X177863478Y-96910500D01*
X177987994Y-96885732D01*
X178105285Y-96837148D01*
X178210845Y-96766615D01*
X178300615Y-96676845D01*
X178371148Y-96571285D01*
X178419732Y-96453994D01*
X178444500Y-96329478D01*
X178444500Y-96202522D01*
X178419732Y-96078006D01*
X178371148Y-95960715D01*
X178300615Y-95855155D01*
X178210845Y-95765385D01*
X178105285Y-95694852D01*
X177987994Y-95646268D01*
X177863478Y-95621500D01*
X177736522Y-95621500D01*
X177612006Y-95646268D01*
X177494715Y-95694852D01*
X177389155Y-95765385D01*
X177299385Y-95855155D01*
X177228852Y-95960715D01*
X177180268Y-96078006D01*
X177155500Y-96202522D01*
X154536209Y-96202522D01*
X154547800Y-96144252D01*
X154547800Y-95981348D01*
X154516018Y-95821573D01*
X154453677Y-95671069D01*
X154363172Y-95535619D01*
X154247981Y-95420428D01*
X154112531Y-95329923D01*
X153962027Y-95267582D01*
X153802252Y-95235800D01*
X153639348Y-95235800D01*
X153479573Y-95267582D01*
X153329069Y-95329923D01*
X153193619Y-95420428D01*
X153078428Y-95535619D01*
X152987923Y-95671069D01*
X152925582Y-95821573D01*
X152893800Y-95981348D01*
X152114035Y-95981348D01*
X151670933Y-94837570D01*
X165285000Y-94837570D01*
X165285000Y-94951230D01*
X165307174Y-95062705D01*
X165350669Y-95167712D01*
X165413815Y-95262216D01*
X165494184Y-95342585D01*
X165588688Y-95405731D01*
X165693695Y-95449226D01*
X165805170Y-95471400D01*
X165918830Y-95471400D01*
X166030305Y-95449226D01*
X166035268Y-95447170D01*
X175699000Y-95447170D01*
X175699000Y-95560830D01*
X175721174Y-95672305D01*
X175764669Y-95777312D01*
X175827815Y-95871816D01*
X175908184Y-95952185D01*
X176002688Y-96015331D01*
X176107695Y-96058826D01*
X176219170Y-96081000D01*
X176332830Y-96081000D01*
X176444305Y-96058826D01*
X176549312Y-96015331D01*
X176643816Y-95952185D01*
X176724185Y-95871816D01*
X176787331Y-95777312D01*
X176830826Y-95672305D01*
X176853000Y-95560830D01*
X176853000Y-95447170D01*
X176830826Y-95335695D01*
X176787331Y-95230688D01*
X176724185Y-95136184D01*
X176643816Y-95055815D01*
X176549312Y-94992669D01*
X176444305Y-94949174D01*
X176332830Y-94927000D01*
X176219170Y-94927000D01*
X176107695Y-94949174D01*
X176002688Y-94992669D01*
X175908184Y-95055815D01*
X175827815Y-95136184D01*
X175764669Y-95230688D01*
X175721174Y-95335695D01*
X175699000Y-95447170D01*
X166035268Y-95447170D01*
X166135312Y-95405731D01*
X166229816Y-95342585D01*
X166310185Y-95262216D01*
X166373331Y-95167712D01*
X166416826Y-95062705D01*
X166439000Y-94951230D01*
X166439000Y-94837570D01*
X166416826Y-94726095D01*
X166373331Y-94621088D01*
X166310185Y-94526584D01*
X166229816Y-94446215D01*
X166135312Y-94383069D01*
X166030305Y-94339574D01*
X165918830Y-94317400D01*
X165805170Y-94317400D01*
X165693695Y-94339574D01*
X165588688Y-94383069D01*
X165494184Y-94446215D01*
X165413815Y-94526584D01*
X165350669Y-94621088D01*
X165307174Y-94726095D01*
X165285000Y-94837570D01*
X151670933Y-94837570D01*
X151635740Y-94746727D01*
X151293015Y-93542170D01*
X164650000Y-93542170D01*
X164650000Y-93655830D01*
X164672174Y-93767305D01*
X164715669Y-93872312D01*
X164778815Y-93966816D01*
X164859184Y-94047185D01*
X164953688Y-94110331D01*
X165058695Y-94153826D01*
X165170170Y-94176000D01*
X165283830Y-94176000D01*
X165395305Y-94153826D01*
X165500312Y-94110331D01*
X165594816Y-94047185D01*
X165675185Y-93966816D01*
X165738331Y-93872312D01*
X165781826Y-93767305D01*
X165804000Y-93655830D01*
X165804000Y-93542170D01*
X167063000Y-93542170D01*
X167063000Y-93655830D01*
X167085174Y-93767305D01*
X167128669Y-93872312D01*
X167191815Y-93966816D01*
X167272184Y-94047185D01*
X167366688Y-94110331D01*
X167471695Y-94153826D01*
X167583170Y-94176000D01*
X167696830Y-94176000D01*
X167808305Y-94153826D01*
X167913312Y-94110331D01*
X168003348Y-94050170D01*
X176905500Y-94050170D01*
X176905500Y-94163830D01*
X176927674Y-94275305D01*
X176971169Y-94380312D01*
X177034315Y-94474816D01*
X177114684Y-94555185D01*
X177209188Y-94618331D01*
X177314195Y-94661826D01*
X177425670Y-94684000D01*
X177539330Y-94684000D01*
X177650805Y-94661826D01*
X177755812Y-94618331D01*
X177850316Y-94555185D01*
X177930685Y-94474816D01*
X177993831Y-94380312D01*
X178037326Y-94275305D01*
X178059500Y-94163830D01*
X178059500Y-94050170D01*
X178037326Y-93938695D01*
X177993831Y-93833688D01*
X177930685Y-93739184D01*
X177850316Y-93658815D01*
X177755812Y-93595669D01*
X177650805Y-93552174D01*
X177567091Y-93535522D01*
X185220000Y-93535522D01*
X185220000Y-93662478D01*
X185244768Y-93786994D01*
X185293352Y-93904285D01*
X185363885Y-94009845D01*
X185453655Y-94099615D01*
X185559215Y-94170148D01*
X185676506Y-94218732D01*
X185801022Y-94243500D01*
X185927978Y-94243500D01*
X186052494Y-94218732D01*
X186169785Y-94170148D01*
X186275345Y-94099615D01*
X186365115Y-94009845D01*
X186435648Y-93904285D01*
X186484232Y-93786994D01*
X186509000Y-93662478D01*
X186509000Y-93535522D01*
X186484232Y-93411006D01*
X186435648Y-93293715D01*
X186365115Y-93188155D01*
X186275345Y-93098385D01*
X186169785Y-93027852D01*
X186052494Y-92979268D01*
X185927978Y-92954500D01*
X185801022Y-92954500D01*
X185676506Y-92979268D01*
X185559215Y-93027852D01*
X185453655Y-93098385D01*
X185363885Y-93188155D01*
X185293352Y-93293715D01*
X185244768Y-93411006D01*
X185220000Y-93535522D01*
X177567091Y-93535522D01*
X177539330Y-93530000D01*
X177425670Y-93530000D01*
X177314195Y-93552174D01*
X177209188Y-93595669D01*
X177114684Y-93658815D01*
X177034315Y-93739184D01*
X176971169Y-93833688D01*
X176927674Y-93938695D01*
X176905500Y-94050170D01*
X168003348Y-94050170D01*
X168007816Y-94047185D01*
X168088185Y-93966816D01*
X168151331Y-93872312D01*
X168194826Y-93767305D01*
X168217000Y-93655830D01*
X168217000Y-93542170D01*
X168194826Y-93430695D01*
X168151331Y-93325688D01*
X168088185Y-93231184D01*
X168007816Y-93150815D01*
X167913312Y-93087669D01*
X167808305Y-93044174D01*
X167696830Y-93022000D01*
X167583170Y-93022000D01*
X167471695Y-93044174D01*
X167366688Y-93087669D01*
X167272184Y-93150815D01*
X167191815Y-93231184D01*
X167128669Y-93325688D01*
X167085174Y-93430695D01*
X167063000Y-93542170D01*
X165804000Y-93542170D01*
X165781826Y-93430695D01*
X165738331Y-93325688D01*
X165675185Y-93231184D01*
X165594816Y-93150815D01*
X165500312Y-93087669D01*
X165395305Y-93044174D01*
X165283830Y-93022000D01*
X165170170Y-93022000D01*
X165058695Y-93044174D01*
X164953688Y-93087669D01*
X164859184Y-93150815D01*
X164778815Y-93231184D01*
X164715669Y-93325688D01*
X164672174Y-93430695D01*
X164650000Y-93542170D01*
X151293015Y-93542170D01*
X151170687Y-93112232D01*
X151157398Y-93041143D01*
X151253841Y-93158659D01*
X151394995Y-93274501D01*
X151556036Y-93360580D01*
X151730776Y-93413587D01*
X151866962Y-93427000D01*
X152658038Y-93427000D01*
X152794224Y-93413587D01*
X152968964Y-93360580D01*
X153130005Y-93274501D01*
X153271159Y-93158659D01*
X153387001Y-93017505D01*
X153473080Y-92856464D01*
X153526087Y-92681724D01*
X153543985Y-92500000D01*
X153526087Y-92318276D01*
X153473080Y-92143536D01*
X153387001Y-91982495D01*
X153271159Y-91841341D01*
X153130005Y-91725499D01*
X152968964Y-91639420D01*
X152794224Y-91586413D01*
X152658038Y-91573000D01*
X151866962Y-91573000D01*
X151730776Y-91586413D01*
X151556036Y-91639420D01*
X151394995Y-91725499D01*
X151253841Y-91841341D01*
X151137999Y-91982495D01*
X151051920Y-92143536D01*
X151013365Y-92270634D01*
X150858429Y-91441801D01*
X150854221Y-91396387D01*
X153910500Y-91396387D01*
X153910500Y-91603613D01*
X153950928Y-91806857D01*
X154030230Y-91998309D01*
X154145358Y-92170611D01*
X154291889Y-92317142D01*
X154464191Y-92432270D01*
X154655643Y-92511572D01*
X154858887Y-92552000D01*
X155066113Y-92552000D01*
X155068274Y-92551570D01*
X162897400Y-92551570D01*
X162897400Y-92665230D01*
X162919574Y-92776705D01*
X162963069Y-92881712D01*
X163026215Y-92976216D01*
X163106584Y-93056585D01*
X163201088Y-93119731D01*
X163306095Y-93163226D01*
X163417570Y-93185400D01*
X163531230Y-93185400D01*
X163642705Y-93163226D01*
X163747712Y-93119731D01*
X163842216Y-93056585D01*
X163922585Y-92976216D01*
X163985731Y-92881712D01*
X164029226Y-92776705D01*
X164051400Y-92665230D01*
X164051400Y-92551570D01*
X164046348Y-92526170D01*
X168714000Y-92526170D01*
X168714000Y-92639830D01*
X168736174Y-92751305D01*
X168779669Y-92856312D01*
X168842815Y-92950816D01*
X168923184Y-93031185D01*
X169017688Y-93094331D01*
X169122695Y-93137826D01*
X169234170Y-93160000D01*
X169347830Y-93160000D01*
X169459305Y-93137826D01*
X169564312Y-93094331D01*
X169658816Y-93031185D01*
X169739185Y-92950816D01*
X169802331Y-92856312D01*
X169845826Y-92751305D01*
X169868000Y-92639830D01*
X169868000Y-92535970D01*
X175023000Y-92535970D01*
X175023000Y-92649630D01*
X175045174Y-92761105D01*
X175088669Y-92866112D01*
X175151815Y-92960616D01*
X175232184Y-93040985D01*
X175326688Y-93104131D01*
X175431695Y-93147626D01*
X175543170Y-93169800D01*
X175656830Y-93169800D01*
X175768305Y-93147626D01*
X175873312Y-93104131D01*
X175967816Y-93040985D01*
X176048185Y-92960616D01*
X176111331Y-92866112D01*
X176154826Y-92761105D01*
X176177000Y-92649630D01*
X176177000Y-92535970D01*
X176154826Y-92424495D01*
X176111331Y-92319488D01*
X176048185Y-92224984D01*
X175967816Y-92144615D01*
X175873312Y-92081469D01*
X175768305Y-92037974D01*
X175656830Y-92015800D01*
X175543170Y-92015800D01*
X175431695Y-92037974D01*
X175326688Y-92081469D01*
X175232184Y-92144615D01*
X175151815Y-92224984D01*
X175088669Y-92319488D01*
X175045174Y-92424495D01*
X175023000Y-92535970D01*
X169868000Y-92535970D01*
X169868000Y-92526170D01*
X169845826Y-92414695D01*
X169802331Y-92309688D01*
X169739185Y-92215184D01*
X169658816Y-92134815D01*
X169564312Y-92071669D01*
X169459305Y-92028174D01*
X169347830Y-92006000D01*
X169234170Y-92006000D01*
X169122695Y-92028174D01*
X169017688Y-92071669D01*
X168923184Y-92134815D01*
X168842815Y-92215184D01*
X168779669Y-92309688D01*
X168736174Y-92414695D01*
X168714000Y-92526170D01*
X164046348Y-92526170D01*
X164029226Y-92440095D01*
X163985731Y-92335088D01*
X163922585Y-92240584D01*
X163842216Y-92160215D01*
X163747712Y-92097069D01*
X163642705Y-92053574D01*
X163531230Y-92031400D01*
X163417570Y-92031400D01*
X163306095Y-92053574D01*
X163201088Y-92097069D01*
X163106584Y-92160215D01*
X163026215Y-92240584D01*
X162963069Y-92335088D01*
X162919574Y-92440095D01*
X162897400Y-92551570D01*
X155068274Y-92551570D01*
X155269357Y-92511572D01*
X155460809Y-92432270D01*
X155633111Y-92317142D01*
X155779642Y-92170611D01*
X155894770Y-91998309D01*
X155974072Y-91806857D01*
X156014500Y-91603613D01*
X156014500Y-91574170D01*
X162173000Y-91574170D01*
X162173000Y-91687830D01*
X162195174Y-91799305D01*
X162238669Y-91904312D01*
X162301815Y-91998816D01*
X162382184Y-92079185D01*
X162476688Y-92142331D01*
X162581695Y-92185826D01*
X162693170Y-92208000D01*
X162806830Y-92208000D01*
X162918305Y-92185826D01*
X163023312Y-92142331D01*
X163117816Y-92079185D01*
X163198185Y-91998816D01*
X163261331Y-91904312D01*
X163304826Y-91799305D01*
X163327000Y-91687830D01*
X163327000Y-91577000D01*
X163412430Y-91577000D01*
X163523905Y-91554826D01*
X163628912Y-91511331D01*
X163723416Y-91448185D01*
X163803785Y-91367816D01*
X163866931Y-91273312D01*
X163910426Y-91168305D01*
X163932600Y-91056830D01*
X163932600Y-90943170D01*
X163910426Y-90831695D01*
X163894469Y-90793170D01*
X171423000Y-90793170D01*
X171423000Y-90906830D01*
X171445174Y-91018305D01*
X171488669Y-91123312D01*
X171551815Y-91217816D01*
X171632184Y-91298185D01*
X171726688Y-91361331D01*
X171831695Y-91404826D01*
X171943170Y-91427000D01*
X172056830Y-91427000D01*
X172168305Y-91404826D01*
X172273312Y-91361331D01*
X172367816Y-91298185D01*
X172448185Y-91217816D01*
X172511331Y-91123312D01*
X172554826Y-91018305D01*
X172577000Y-90906830D01*
X172577000Y-90793170D01*
X172554826Y-90681695D01*
X172511331Y-90576688D01*
X172459618Y-90499295D01*
X172510712Y-90478131D01*
X172605216Y-90414985D01*
X172685585Y-90334616D01*
X172748731Y-90240112D01*
X172792226Y-90135105D01*
X172814400Y-90023630D01*
X172814400Y-89909970D01*
X172804296Y-89859170D01*
X174937000Y-89859170D01*
X174937000Y-89972830D01*
X174959174Y-90084305D01*
X175002669Y-90189312D01*
X175065815Y-90283816D01*
X175146184Y-90364185D01*
X175240688Y-90427331D01*
X175345695Y-90470826D01*
X175457170Y-90493000D01*
X175570830Y-90493000D01*
X175682305Y-90470826D01*
X175779250Y-90430670D01*
X177286500Y-90430670D01*
X177286500Y-90544330D01*
X177308674Y-90655805D01*
X177352169Y-90760812D01*
X177415315Y-90855316D01*
X177495684Y-90935685D01*
X177590188Y-90998831D01*
X177695195Y-91042326D01*
X177806670Y-91064500D01*
X177920330Y-91064500D01*
X178031805Y-91042326D01*
X178136812Y-90998831D01*
X178231316Y-90935685D01*
X178311685Y-90855316D01*
X178374831Y-90760812D01*
X178418326Y-90655805D01*
X178440500Y-90544330D01*
X178440500Y-90430670D01*
X178431719Y-90386522D01*
X185130500Y-90386522D01*
X185130500Y-90513478D01*
X185155268Y-90637994D01*
X185203852Y-90755285D01*
X185274385Y-90860845D01*
X185364155Y-90950615D01*
X185469715Y-91021148D01*
X185587006Y-91069732D01*
X185711522Y-91094500D01*
X185838478Y-91094500D01*
X185962994Y-91069732D01*
X186080285Y-91021148D01*
X186185845Y-90950615D01*
X186275615Y-90860845D01*
X186346148Y-90755285D01*
X186394732Y-90637994D01*
X186419500Y-90513478D01*
X186419500Y-90386522D01*
X186394732Y-90262006D01*
X186346148Y-90144715D01*
X186275615Y-90039155D01*
X186185845Y-89949385D01*
X186080285Y-89878852D01*
X185962994Y-89830268D01*
X185838478Y-89805500D01*
X185711522Y-89805500D01*
X185587006Y-89830268D01*
X185469715Y-89878852D01*
X185364155Y-89949385D01*
X185274385Y-90039155D01*
X185203852Y-90144715D01*
X185155268Y-90262006D01*
X185130500Y-90386522D01*
X178431719Y-90386522D01*
X178418326Y-90319195D01*
X178374831Y-90214188D01*
X178311685Y-90119684D01*
X178231316Y-90039315D01*
X178136812Y-89976169D01*
X178031805Y-89932674D01*
X177920330Y-89910500D01*
X177806670Y-89910500D01*
X177695195Y-89932674D01*
X177590188Y-89976169D01*
X177495684Y-90039315D01*
X177415315Y-90119684D01*
X177352169Y-90214188D01*
X177308674Y-90319195D01*
X177286500Y-90430670D01*
X175779250Y-90430670D01*
X175787312Y-90427331D01*
X175881816Y-90364185D01*
X175962185Y-90283816D01*
X176025331Y-90189312D01*
X176068826Y-90084305D01*
X176091000Y-89972830D01*
X176091000Y-89859170D01*
X176068826Y-89747695D01*
X176025331Y-89642688D01*
X175962185Y-89548184D01*
X175881816Y-89467815D01*
X175787312Y-89404669D01*
X175682305Y-89361174D01*
X175570830Y-89339000D01*
X175457170Y-89339000D01*
X175345695Y-89361174D01*
X175240688Y-89404669D01*
X175146184Y-89467815D01*
X175065815Y-89548184D01*
X175002669Y-89642688D01*
X174959174Y-89747695D01*
X174937000Y-89859170D01*
X172804296Y-89859170D01*
X172792226Y-89798495D01*
X172748731Y-89693488D01*
X172685585Y-89598984D01*
X172605216Y-89518615D01*
X172538323Y-89473918D01*
X172634305Y-89454826D01*
X172739312Y-89411331D01*
X172833816Y-89348185D01*
X172914185Y-89267816D01*
X172977331Y-89173312D01*
X173008869Y-89097170D01*
X176842000Y-89097170D01*
X176842000Y-89210830D01*
X176864174Y-89322305D01*
X176907669Y-89427312D01*
X176970815Y-89521816D01*
X177051184Y-89602185D01*
X177145688Y-89665331D01*
X177250695Y-89708826D01*
X177362170Y-89731000D01*
X177475830Y-89731000D01*
X177587305Y-89708826D01*
X177692312Y-89665331D01*
X177786816Y-89602185D01*
X177867185Y-89521816D01*
X177930331Y-89427312D01*
X177973826Y-89322305D01*
X177996000Y-89210830D01*
X177996000Y-89097170D01*
X177983136Y-89032500D01*
X177983830Y-89032500D01*
X178095305Y-89010326D01*
X178200312Y-88966831D01*
X178294816Y-88903685D01*
X178375185Y-88823316D01*
X178438331Y-88728812D01*
X178481826Y-88623805D01*
X178504000Y-88512330D01*
X178504000Y-88398670D01*
X178481826Y-88287195D01*
X178438331Y-88182188D01*
X178375185Y-88087684D01*
X178294816Y-88007315D01*
X178200312Y-87944169D01*
X178095305Y-87900674D01*
X177983830Y-87878500D01*
X177870170Y-87878500D01*
X177758695Y-87900674D01*
X177653688Y-87944169D01*
X177559184Y-88007315D01*
X177478815Y-88087684D01*
X177415669Y-88182188D01*
X177372174Y-88287195D01*
X177350000Y-88398670D01*
X177350000Y-88512330D01*
X177362864Y-88577000D01*
X177362170Y-88577000D01*
X177250695Y-88599174D01*
X177145688Y-88642669D01*
X177051184Y-88705815D01*
X176970815Y-88786184D01*
X176907669Y-88880688D01*
X176864174Y-88985695D01*
X176842000Y-89097170D01*
X173008869Y-89097170D01*
X173020826Y-89068305D01*
X173043000Y-88956830D01*
X173043000Y-88843170D01*
X173020826Y-88731695D01*
X172977331Y-88626688D01*
X172914185Y-88532184D01*
X172833816Y-88451815D01*
X172739312Y-88388669D01*
X172634305Y-88345174D01*
X172606635Y-88339670D01*
X173413000Y-88339670D01*
X173413000Y-88453330D01*
X173435174Y-88564805D01*
X173478669Y-88669812D01*
X173541815Y-88764316D01*
X173622184Y-88844685D01*
X173716688Y-88907831D01*
X173821695Y-88951326D01*
X173933170Y-88973500D01*
X174046830Y-88973500D01*
X174158305Y-88951326D01*
X174263312Y-88907831D01*
X174357816Y-88844685D01*
X174438185Y-88764316D01*
X174501331Y-88669812D01*
X174544826Y-88564805D01*
X174567000Y-88453330D01*
X174567000Y-88339670D01*
X174544826Y-88228195D01*
X174501331Y-88123188D01*
X174438185Y-88028684D01*
X174357816Y-87948315D01*
X174263312Y-87885169D01*
X174158305Y-87841674D01*
X174046830Y-87819500D01*
X173933170Y-87819500D01*
X173821695Y-87841674D01*
X173716688Y-87885169D01*
X173622184Y-87948315D01*
X173541815Y-88028684D01*
X173478669Y-88123188D01*
X173435174Y-88228195D01*
X173413000Y-88339670D01*
X172606635Y-88339670D01*
X172522830Y-88323000D01*
X172409170Y-88323000D01*
X172297695Y-88345174D01*
X172192688Y-88388669D01*
X172098184Y-88451815D01*
X172017815Y-88532184D01*
X171954669Y-88626688D01*
X171911174Y-88731695D01*
X171889000Y-88843170D01*
X171889000Y-88956830D01*
X171911174Y-89068305D01*
X171954669Y-89173312D01*
X172017815Y-89267816D01*
X172098184Y-89348185D01*
X172165077Y-89392882D01*
X172069095Y-89411974D01*
X171964088Y-89455469D01*
X171869584Y-89518615D01*
X171789215Y-89598984D01*
X171726069Y-89693488D01*
X171682574Y-89798495D01*
X171660400Y-89909970D01*
X171660400Y-90023630D01*
X171682574Y-90135105D01*
X171726069Y-90240112D01*
X171777782Y-90317505D01*
X171726688Y-90338669D01*
X171632184Y-90401815D01*
X171551815Y-90482184D01*
X171488669Y-90576688D01*
X171445174Y-90681695D01*
X171423000Y-90793170D01*
X163894469Y-90793170D01*
X163866931Y-90726688D01*
X163803785Y-90632184D01*
X163723416Y-90551815D01*
X163628912Y-90488669D01*
X163523905Y-90445174D01*
X163412430Y-90423000D01*
X163298770Y-90423000D01*
X163187295Y-90445174D01*
X163082288Y-90488669D01*
X162987784Y-90551815D01*
X162907415Y-90632184D01*
X162844269Y-90726688D01*
X162800774Y-90831695D01*
X162778600Y-90943170D01*
X162778600Y-91054000D01*
X162693170Y-91054000D01*
X162581695Y-91076174D01*
X162476688Y-91119669D01*
X162382184Y-91182815D01*
X162301815Y-91263184D01*
X162238669Y-91357688D01*
X162195174Y-91462695D01*
X162173000Y-91574170D01*
X156014500Y-91574170D01*
X156014500Y-91396387D01*
X155974072Y-91193143D01*
X155894770Y-91001691D01*
X155779642Y-90829389D01*
X155633111Y-90682858D01*
X155460809Y-90567730D01*
X155269357Y-90488428D01*
X155066113Y-90448000D01*
X154858887Y-90448000D01*
X154655643Y-90488428D01*
X154464191Y-90567730D01*
X154291889Y-90682858D01*
X154145358Y-90829389D01*
X154030230Y-91001691D01*
X153950928Y-91193143D01*
X153910500Y-91396387D01*
X150854221Y-91396387D01*
X150701631Y-89749683D01*
X150701631Y-89732170D01*
X165285000Y-89732170D01*
X165285000Y-89845830D01*
X165307174Y-89957305D01*
X165350669Y-90062312D01*
X165413815Y-90156816D01*
X165494184Y-90237185D01*
X165588688Y-90300331D01*
X165693695Y-90343826D01*
X165805170Y-90366000D01*
X165918830Y-90366000D01*
X166030305Y-90343826D01*
X166135312Y-90300331D01*
X166229816Y-90237185D01*
X166310185Y-90156816D01*
X166373331Y-90062312D01*
X166416826Y-89957305D01*
X166439000Y-89845830D01*
X166439000Y-89732170D01*
X166416826Y-89620695D01*
X166373331Y-89515688D01*
X166310185Y-89421184D01*
X166229816Y-89340815D01*
X166135312Y-89277669D01*
X166030305Y-89234174D01*
X165918830Y-89212000D01*
X165805170Y-89212000D01*
X165693695Y-89234174D01*
X165588688Y-89277669D01*
X165494184Y-89340815D01*
X165413815Y-89421184D01*
X165350669Y-89515688D01*
X165307174Y-89620695D01*
X165285000Y-89732170D01*
X150701631Y-89732170D01*
X150701631Y-88589170D01*
X162745000Y-88589170D01*
X162745000Y-88702830D01*
X162767174Y-88814305D01*
X162810669Y-88919312D01*
X162873815Y-89013816D01*
X162954184Y-89094185D01*
X163048688Y-89157331D01*
X163153695Y-89200826D01*
X163265170Y-89223000D01*
X163378830Y-89223000D01*
X163490305Y-89200826D01*
X163570335Y-89167677D01*
X163572669Y-89173312D01*
X163635815Y-89267816D01*
X163716184Y-89348185D01*
X163810688Y-89411331D01*
X163915695Y-89454826D01*
X164027170Y-89477000D01*
X164140830Y-89477000D01*
X164252305Y-89454826D01*
X164357312Y-89411331D01*
X164451816Y-89348185D01*
X164532185Y-89267816D01*
X164595331Y-89173312D01*
X164626869Y-89097170D01*
X166301000Y-89097170D01*
X166301000Y-89210830D01*
X166323174Y-89322305D01*
X166366669Y-89427312D01*
X166429815Y-89521816D01*
X166510184Y-89602185D01*
X166604688Y-89665331D01*
X166709695Y-89708826D01*
X166821170Y-89731000D01*
X166934830Y-89731000D01*
X167046305Y-89708826D01*
X167151312Y-89665331D01*
X167245816Y-89602185D01*
X167326185Y-89521816D01*
X167389331Y-89427312D01*
X167432826Y-89322305D01*
X167455000Y-89210830D01*
X167455000Y-89097170D01*
X167432826Y-88985695D01*
X167389331Y-88880688D01*
X167326185Y-88786184D01*
X167245816Y-88705815D01*
X167151312Y-88642669D01*
X167046305Y-88599174D01*
X166934830Y-88577000D01*
X166821170Y-88577000D01*
X166709695Y-88599174D01*
X166604688Y-88642669D01*
X166510184Y-88705815D01*
X166429815Y-88786184D01*
X166366669Y-88880688D01*
X166323174Y-88985695D01*
X166301000Y-89097170D01*
X164626869Y-89097170D01*
X164638826Y-89068305D01*
X164661000Y-88956830D01*
X164661000Y-88843170D01*
X164638826Y-88731695D01*
X164595331Y-88626688D01*
X164532185Y-88532184D01*
X164451816Y-88451815D01*
X164357312Y-88388669D01*
X164252305Y-88345174D01*
X164140830Y-88323000D01*
X164027170Y-88323000D01*
X163915695Y-88345174D01*
X163835665Y-88378323D01*
X163833331Y-88372688D01*
X163770185Y-88278184D01*
X163689816Y-88197815D01*
X163595312Y-88134669D01*
X163490305Y-88091174D01*
X163378830Y-88069000D01*
X163265170Y-88069000D01*
X163153695Y-88091174D01*
X163048688Y-88134669D01*
X162954184Y-88197815D01*
X162873815Y-88278184D01*
X162810669Y-88372688D01*
X162767174Y-88477695D01*
X162745000Y-88589170D01*
X150701631Y-88589170D01*
X150701631Y-88050317D01*
X150858429Y-86358199D01*
X150994072Y-85632573D01*
X150998913Y-85681724D01*
X151051920Y-85856464D01*
X151137999Y-86017505D01*
X151253841Y-86158659D01*
X151394995Y-86274501D01*
X151556036Y-86360580D01*
X151730776Y-86413587D01*
X151866962Y-86427000D01*
X152658038Y-86427000D01*
X152794224Y-86413587D01*
X152850924Y-86396387D01*
X153910500Y-86396387D01*
X153910500Y-86603613D01*
X153950928Y-86806857D01*
X154030230Y-86998309D01*
X154145358Y-87170611D01*
X154291889Y-87317142D01*
X154464191Y-87432270D01*
X154655643Y-87511572D01*
X154858887Y-87552000D01*
X155066113Y-87552000D01*
X155269357Y-87511572D01*
X155460809Y-87432270D01*
X155633111Y-87317142D01*
X155779642Y-87170611D01*
X155894770Y-86998309D01*
X155974072Y-86806857D01*
X156014500Y-86603613D01*
X156014500Y-86396387D01*
X155974072Y-86193143D01*
X155914437Y-86049170D01*
X159697000Y-86049170D01*
X159697000Y-86162830D01*
X159719174Y-86274305D01*
X159762669Y-86379312D01*
X159825815Y-86473816D01*
X159906184Y-86554185D01*
X160000688Y-86617331D01*
X160105695Y-86660826D01*
X160217170Y-86683000D01*
X160330830Y-86683000D01*
X160442305Y-86660826D01*
X160459000Y-86653911D01*
X160459000Y-86670830D01*
X160481174Y-86782305D01*
X160524669Y-86887312D01*
X160587815Y-86981816D01*
X160668184Y-87062185D01*
X160762688Y-87125331D01*
X160867695Y-87168826D01*
X160979170Y-87191000D01*
X161092830Y-87191000D01*
X161204305Y-87168826D01*
X161309312Y-87125331D01*
X161403816Y-87062185D01*
X161484185Y-86981816D01*
X161547331Y-86887312D01*
X161590826Y-86782305D01*
X161613000Y-86670830D01*
X161613000Y-86557170D01*
X161590826Y-86445695D01*
X161547331Y-86340688D01*
X161484185Y-86246184D01*
X161403816Y-86165815D01*
X161309312Y-86102669D01*
X161204305Y-86059174D01*
X161092830Y-86037000D01*
X160979170Y-86037000D01*
X160867695Y-86059174D01*
X160851000Y-86066089D01*
X160851000Y-86049170D01*
X160828826Y-85937695D01*
X160822396Y-85922170D01*
X171254000Y-85922170D01*
X171254000Y-86035830D01*
X171276174Y-86147305D01*
X171319669Y-86252312D01*
X171382815Y-86346816D01*
X171463184Y-86427185D01*
X171557688Y-86490331D01*
X171662695Y-86533826D01*
X171762687Y-86553716D01*
X171762000Y-86557170D01*
X171762000Y-86670830D01*
X171784174Y-86782305D01*
X171827669Y-86887312D01*
X171890815Y-86981816D01*
X171971184Y-87062185D01*
X172065688Y-87125331D01*
X172170695Y-87168826D01*
X172282170Y-87191000D01*
X172395830Y-87191000D01*
X172507305Y-87168826D01*
X172612312Y-87125331D01*
X172706816Y-87062185D01*
X172787185Y-86981816D01*
X172850331Y-86887312D01*
X172893826Y-86782305D01*
X172916000Y-86670830D01*
X172916000Y-86557170D01*
X172893826Y-86445695D01*
X172850331Y-86340688D01*
X172787185Y-86246184D01*
X172706816Y-86165815D01*
X172612312Y-86102669D01*
X172507305Y-86059174D01*
X172407313Y-86039284D01*
X172408000Y-86035830D01*
X172408000Y-85922170D01*
X172386737Y-85815272D01*
X172446688Y-85855331D01*
X172551695Y-85898826D01*
X172663170Y-85921000D01*
X172776830Y-85921000D01*
X172888305Y-85898826D01*
X172985250Y-85858670D01*
X182176000Y-85858670D01*
X182176000Y-85972330D01*
X182198174Y-86083805D01*
X182241669Y-86188812D01*
X182304815Y-86283316D01*
X182385184Y-86363685D01*
X182479688Y-86426831D01*
X182584695Y-86470326D01*
X182696170Y-86492500D01*
X182809830Y-86492500D01*
X182921305Y-86470326D01*
X183026312Y-86426831D01*
X183120816Y-86363685D01*
X183201185Y-86283316D01*
X183264331Y-86188812D01*
X183307826Y-86083805D01*
X183330000Y-85972330D01*
X183330000Y-85858670D01*
X183307826Y-85747195D01*
X183264331Y-85642188D01*
X183201185Y-85547684D01*
X183120816Y-85467315D01*
X183026312Y-85404169D01*
X182921305Y-85360674D01*
X182809830Y-85338500D01*
X182696170Y-85338500D01*
X182584695Y-85360674D01*
X182479688Y-85404169D01*
X182385184Y-85467315D01*
X182304815Y-85547684D01*
X182241669Y-85642188D01*
X182198174Y-85747195D01*
X182176000Y-85858670D01*
X172985250Y-85858670D01*
X172993312Y-85855331D01*
X173087816Y-85792185D01*
X173168185Y-85711816D01*
X173231331Y-85617312D01*
X173274826Y-85512305D01*
X173297000Y-85400830D01*
X173297000Y-85287170D01*
X173274826Y-85175695D01*
X173231331Y-85070688D01*
X173168185Y-84976184D01*
X173087816Y-84895815D01*
X172993312Y-84832669D01*
X172888305Y-84789174D01*
X172776830Y-84767000D01*
X172663170Y-84767000D01*
X172551695Y-84789174D01*
X172446688Y-84832669D01*
X172352184Y-84895815D01*
X172271815Y-84976184D01*
X172208669Y-85070688D01*
X172165174Y-85175695D01*
X172143000Y-85287170D01*
X172143000Y-85400830D01*
X172164263Y-85507728D01*
X172104312Y-85467669D01*
X171999305Y-85424174D01*
X171887830Y-85402000D01*
X171774170Y-85402000D01*
X171662695Y-85424174D01*
X171557688Y-85467669D01*
X171463184Y-85530815D01*
X171382815Y-85611184D01*
X171319669Y-85705688D01*
X171276174Y-85810695D01*
X171254000Y-85922170D01*
X160822396Y-85922170D01*
X160785331Y-85832688D01*
X160722185Y-85738184D01*
X160641816Y-85657815D01*
X160547312Y-85594669D01*
X160442305Y-85551174D01*
X160330830Y-85529000D01*
X160217170Y-85529000D01*
X160105695Y-85551174D01*
X160000688Y-85594669D01*
X159906184Y-85657815D01*
X159825815Y-85738184D01*
X159762669Y-85832688D01*
X159719174Y-85937695D01*
X159697000Y-86049170D01*
X155914437Y-86049170D01*
X155894770Y-86001691D01*
X155779642Y-85829389D01*
X155633111Y-85682858D01*
X155460809Y-85567730D01*
X155269357Y-85488428D01*
X155066113Y-85448000D01*
X154858887Y-85448000D01*
X154655643Y-85488428D01*
X154464191Y-85567730D01*
X154291889Y-85682858D01*
X154145358Y-85829389D01*
X154030230Y-86001691D01*
X153950928Y-86193143D01*
X153910500Y-86396387D01*
X152850924Y-86396387D01*
X152968964Y-86360580D01*
X153130005Y-86274501D01*
X153271159Y-86158659D01*
X153387001Y-86017505D01*
X153473080Y-85856464D01*
X153526087Y-85681724D01*
X153543985Y-85500000D01*
X153526087Y-85318276D01*
X153473080Y-85143536D01*
X153387001Y-84982495D01*
X153271159Y-84841341D01*
X153130005Y-84725499D01*
X152968964Y-84639420D01*
X152794224Y-84586413D01*
X152658038Y-84573000D01*
X151866962Y-84573000D01*
X151730776Y-84586413D01*
X151556036Y-84639420D01*
X151394995Y-84725499D01*
X151253841Y-84841341D01*
X151137999Y-84982495D01*
X151103543Y-85046957D01*
X151170687Y-84687768D01*
X151614208Y-83128948D01*
X152487400Y-83128948D01*
X152487400Y-83291852D01*
X152519182Y-83451627D01*
X152581523Y-83602131D01*
X152672028Y-83737581D01*
X152787219Y-83852772D01*
X152922669Y-83943277D01*
X153073173Y-84005618D01*
X153232948Y-84037400D01*
X153395852Y-84037400D01*
X153555627Y-84005618D01*
X153706131Y-83943277D01*
X153795560Y-83883522D01*
X155768700Y-83883522D01*
X155768700Y-84010478D01*
X155793468Y-84134994D01*
X155842052Y-84252285D01*
X155912585Y-84357845D01*
X156002355Y-84447615D01*
X156107915Y-84518148D01*
X156225206Y-84566732D01*
X156349722Y-84591500D01*
X156476678Y-84591500D01*
X156601194Y-84566732D01*
X156718485Y-84518148D01*
X156824045Y-84447615D01*
X156913815Y-84357845D01*
X156971729Y-84271170D01*
X164015000Y-84271170D01*
X164015000Y-84384830D01*
X164037174Y-84496305D01*
X164080669Y-84601312D01*
X164143815Y-84695816D01*
X164224184Y-84776185D01*
X164318688Y-84839331D01*
X164423695Y-84882826D01*
X164535170Y-84905000D01*
X164648830Y-84905000D01*
X164760305Y-84882826D01*
X164865312Y-84839331D01*
X164959816Y-84776185D01*
X165040185Y-84695816D01*
X165103331Y-84601312D01*
X165146826Y-84496305D01*
X165169000Y-84384830D01*
X165169000Y-84271170D01*
X170619000Y-84271170D01*
X170619000Y-84384830D01*
X170641174Y-84496305D01*
X170684669Y-84601312D01*
X170747815Y-84695816D01*
X170828184Y-84776185D01*
X170922688Y-84839331D01*
X171027695Y-84882826D01*
X171139170Y-84905000D01*
X171252830Y-84905000D01*
X171364305Y-84882826D01*
X171469312Y-84839331D01*
X171563816Y-84776185D01*
X171644185Y-84695816D01*
X171673348Y-84652170D01*
X182176000Y-84652170D01*
X182176000Y-84765830D01*
X182198174Y-84877305D01*
X182241669Y-84982312D01*
X182304815Y-85076816D01*
X182385184Y-85157185D01*
X182479688Y-85220331D01*
X182584695Y-85263826D01*
X182696170Y-85286000D01*
X182809830Y-85286000D01*
X182921305Y-85263826D01*
X183026312Y-85220331D01*
X183120816Y-85157185D01*
X183201185Y-85076816D01*
X183264331Y-84982312D01*
X183307826Y-84877305D01*
X183330000Y-84765830D01*
X183330000Y-84652170D01*
X183307826Y-84540695D01*
X183264331Y-84435688D01*
X183201185Y-84341184D01*
X183120816Y-84260815D01*
X183026312Y-84197669D01*
X182921305Y-84154174D01*
X182809830Y-84132000D01*
X182696170Y-84132000D01*
X182584695Y-84154174D01*
X182479688Y-84197669D01*
X182385184Y-84260815D01*
X182304815Y-84341184D01*
X182241669Y-84435688D01*
X182198174Y-84540695D01*
X182176000Y-84652170D01*
X171673348Y-84652170D01*
X171707331Y-84601312D01*
X171750826Y-84496305D01*
X171773000Y-84384830D01*
X171773000Y-84271170D01*
X171750826Y-84159695D01*
X171707331Y-84054688D01*
X171644185Y-83960184D01*
X171563816Y-83879815D01*
X171469312Y-83816669D01*
X171364305Y-83773174D01*
X171252830Y-83751000D01*
X171139170Y-83751000D01*
X171027695Y-83773174D01*
X170922688Y-83816669D01*
X170828184Y-83879815D01*
X170747815Y-83960184D01*
X170684669Y-84054688D01*
X170641174Y-84159695D01*
X170619000Y-84271170D01*
X165169000Y-84271170D01*
X165146826Y-84159695D01*
X165103331Y-84054688D01*
X165040185Y-83960184D01*
X164959816Y-83879815D01*
X164865312Y-83816669D01*
X164760305Y-83773174D01*
X164648830Y-83751000D01*
X164535170Y-83751000D01*
X164423695Y-83773174D01*
X164318688Y-83816669D01*
X164224184Y-83879815D01*
X164143815Y-83960184D01*
X164080669Y-84054688D01*
X164037174Y-84159695D01*
X164015000Y-84271170D01*
X156971729Y-84271170D01*
X156984348Y-84252285D01*
X157032932Y-84134994D01*
X157057700Y-84010478D01*
X157057700Y-83883522D01*
X157032932Y-83759006D01*
X156984348Y-83641715D01*
X156913815Y-83536155D01*
X156886830Y-83509170D01*
X165031000Y-83509170D01*
X165031000Y-83622830D01*
X165053174Y-83734305D01*
X165096669Y-83839312D01*
X165159815Y-83933816D01*
X165240184Y-84014185D01*
X165334688Y-84077331D01*
X165439695Y-84120826D01*
X165551170Y-84143000D01*
X165664830Y-84143000D01*
X165776305Y-84120826D01*
X165881312Y-84077331D01*
X165975816Y-84014185D01*
X166056185Y-83933816D01*
X166119331Y-83839312D01*
X166162826Y-83734305D01*
X166185000Y-83622830D01*
X166185000Y-83509170D01*
X166162826Y-83397695D01*
X166119331Y-83292688D01*
X166056185Y-83198184D01*
X165975816Y-83117815D01*
X165881312Y-83054669D01*
X165776305Y-83011174D01*
X165664830Y-82989000D01*
X165551170Y-82989000D01*
X165439695Y-83011174D01*
X165334688Y-83054669D01*
X165240184Y-83117815D01*
X165159815Y-83198184D01*
X165096669Y-83292688D01*
X165053174Y-83397695D01*
X165031000Y-83509170D01*
X156886830Y-83509170D01*
X156824045Y-83446385D01*
X156718485Y-83375852D01*
X156601194Y-83327268D01*
X156476678Y-83302500D01*
X156349722Y-83302500D01*
X156225206Y-83327268D01*
X156107915Y-83375852D01*
X156002355Y-83446385D01*
X155912585Y-83536155D01*
X155842052Y-83641715D01*
X155793468Y-83759006D01*
X155768700Y-83883522D01*
X153795560Y-83883522D01*
X153841581Y-83852772D01*
X153956772Y-83737581D01*
X154047277Y-83602131D01*
X154109618Y-83451627D01*
X154141400Y-83291852D01*
X154141400Y-83128948D01*
X154109618Y-82969173D01*
X154047277Y-82818669D01*
X153956772Y-82683219D01*
X153841581Y-82568028D01*
X153706131Y-82477523D01*
X153555627Y-82415182D01*
X153395852Y-82383400D01*
X153232948Y-82383400D01*
X153073173Y-82415182D01*
X152922669Y-82477523D01*
X152787219Y-82568028D01*
X152672028Y-82683219D01*
X152581523Y-82818669D01*
X152519182Y-82969173D01*
X152487400Y-83128948D01*
X151614208Y-83128948D01*
X151635740Y-83053273D01*
X151951125Y-82239170D01*
X175953000Y-82239170D01*
X175953000Y-82352830D01*
X175975174Y-82464305D01*
X176018669Y-82569312D01*
X176081815Y-82663816D01*
X176162184Y-82744185D01*
X176251703Y-82804000D01*
X176162184Y-82863815D01*
X176081815Y-82944184D01*
X176018669Y-83038688D01*
X175975174Y-83143695D01*
X175953000Y-83255170D01*
X175953000Y-83368830D01*
X175975174Y-83480305D01*
X176018669Y-83585312D01*
X176081815Y-83679816D01*
X176162184Y-83760185D01*
X176256688Y-83823331D01*
X176361695Y-83866826D01*
X176473170Y-83889000D01*
X176586830Y-83889000D01*
X176698305Y-83866826D01*
X176803312Y-83823331D01*
X176897816Y-83760185D01*
X176978185Y-83679816D01*
X177041331Y-83585312D01*
X177084826Y-83480305D01*
X177107000Y-83368830D01*
X177107000Y-83255170D01*
X177084826Y-83143695D01*
X177041331Y-83038688D01*
X176978185Y-82944184D01*
X176897816Y-82863815D01*
X176808297Y-82804000D01*
X176897816Y-82744185D01*
X176978185Y-82663816D01*
X177041331Y-82569312D01*
X177084826Y-82464305D01*
X177107000Y-82352830D01*
X177107000Y-82239170D01*
X177084826Y-82127695D01*
X177041331Y-82022688D01*
X176978185Y-81928184D01*
X176897816Y-81847815D01*
X176803312Y-81784669D01*
X176698305Y-81741174D01*
X176586830Y-81719000D01*
X176473170Y-81719000D01*
X176361695Y-81741174D01*
X176256688Y-81784669D01*
X176162184Y-81847815D01*
X176081815Y-81928184D01*
X176018669Y-82022688D01*
X175975174Y-82127695D01*
X175953000Y-82239170D01*
X151951125Y-82239170D01*
X152249622Y-81468661D01*
X152340242Y-81286670D01*
X173794000Y-81286670D01*
X173794000Y-81400330D01*
X173816174Y-81511805D01*
X173859669Y-81616812D01*
X173922815Y-81711316D01*
X174003184Y-81791685D01*
X174097688Y-81854831D01*
X174202695Y-81898326D01*
X174314170Y-81920500D01*
X174427830Y-81920500D01*
X174539305Y-81898326D01*
X174644312Y-81854831D01*
X174738816Y-81791685D01*
X174819185Y-81711316D01*
X174882331Y-81616812D01*
X174925826Y-81511805D01*
X174948000Y-81400330D01*
X174948000Y-81286670D01*
X174925826Y-81175195D01*
X174882331Y-81070188D01*
X174819185Y-80975684D01*
X174738816Y-80895315D01*
X174644312Y-80832169D01*
X174539305Y-80788674D01*
X174427830Y-80766500D01*
X174314170Y-80766500D01*
X174202695Y-80788674D01*
X174097688Y-80832169D01*
X174003184Y-80895315D01*
X173922815Y-80975684D01*
X173859669Y-81070188D01*
X173816174Y-81175195D01*
X173794000Y-81286670D01*
X152340242Y-81286670D01*
X153007095Y-79947451D01*
X153514681Y-79127670D01*
X173540000Y-79127670D01*
X173540000Y-79241330D01*
X173562174Y-79352805D01*
X173605669Y-79457812D01*
X173668815Y-79552316D01*
X173749184Y-79632685D01*
X173843688Y-79695831D01*
X173948695Y-79739326D01*
X174060170Y-79761500D01*
X174173830Y-79761500D01*
X174285305Y-79739326D01*
X174390312Y-79695831D01*
X174484816Y-79632685D01*
X174565185Y-79552316D01*
X174628331Y-79457812D01*
X174671826Y-79352805D01*
X174678715Y-79318170D01*
X175826000Y-79318170D01*
X175826000Y-79431830D01*
X175848174Y-79543305D01*
X175891669Y-79648312D01*
X175954815Y-79742816D01*
X176035184Y-79823185D01*
X176108936Y-79872465D01*
X176098684Y-79879315D01*
X176018315Y-79959684D01*
X175955169Y-80054188D01*
X175911674Y-80159195D01*
X175889500Y-80270670D01*
X175889500Y-80384330D01*
X175911674Y-80495805D01*
X175955169Y-80600812D01*
X176018315Y-80695316D01*
X176098684Y-80775685D01*
X176193188Y-80838831D01*
X176298195Y-80882326D01*
X176409670Y-80904500D01*
X176523330Y-80904500D01*
X176634805Y-80882326D01*
X176739812Y-80838831D01*
X176834316Y-80775685D01*
X176914685Y-80695316D01*
X176977831Y-80600812D01*
X176983067Y-80588170D01*
X177985000Y-80588170D01*
X177985000Y-80701830D01*
X178007174Y-80813305D01*
X178050669Y-80918312D01*
X178113815Y-81012816D01*
X178194184Y-81093185D01*
X178288688Y-81156331D01*
X178393695Y-81199826D01*
X178505170Y-81222000D01*
X178618830Y-81222000D01*
X178730305Y-81199826D01*
X178835312Y-81156331D01*
X178929816Y-81093185D01*
X179010185Y-81012816D01*
X179073331Y-80918312D01*
X179116826Y-80813305D01*
X179139000Y-80701830D01*
X179139000Y-80588170D01*
X179116826Y-80476695D01*
X179073331Y-80371688D01*
X179010185Y-80277184D01*
X178929816Y-80196815D01*
X178835312Y-80133669D01*
X178730305Y-80090174D01*
X178618830Y-80068000D01*
X178505170Y-80068000D01*
X178393695Y-80090174D01*
X178288688Y-80133669D01*
X178194184Y-80196815D01*
X178113815Y-80277184D01*
X178050669Y-80371688D01*
X178007174Y-80476695D01*
X177985000Y-80588170D01*
X176983067Y-80588170D01*
X177021326Y-80495805D01*
X177043500Y-80384330D01*
X177043500Y-80270670D01*
X177021326Y-80159195D01*
X176977831Y-80054188D01*
X176914685Y-79959684D01*
X176834316Y-79879315D01*
X176760564Y-79830035D01*
X176770816Y-79823185D01*
X176851185Y-79742816D01*
X176914331Y-79648312D01*
X176957826Y-79543305D01*
X176980000Y-79431830D01*
X176980000Y-79318170D01*
X176957826Y-79206695D01*
X176914331Y-79101688D01*
X176851185Y-79007184D01*
X176770816Y-78926815D01*
X176676312Y-78863669D01*
X176571305Y-78820174D01*
X176508243Y-78807630D01*
X177609080Y-78807630D01*
X177609080Y-78921290D01*
X177631254Y-79032765D01*
X177674749Y-79137772D01*
X177737895Y-79232276D01*
X177818264Y-79312645D01*
X177912768Y-79375791D01*
X178017775Y-79419286D01*
X178129250Y-79441460D01*
X178242910Y-79441460D01*
X178354385Y-79419286D01*
X178459392Y-79375791D01*
X178553896Y-79312645D01*
X178634265Y-79232276D01*
X178697411Y-79137772D01*
X178740906Y-79032765D01*
X178763080Y-78921290D01*
X178763080Y-78807630D01*
X178740906Y-78696155D01*
X178697411Y-78591148D01*
X178634265Y-78496644D01*
X178553896Y-78416275D01*
X178459392Y-78353129D01*
X178354385Y-78309634D01*
X178242910Y-78287460D01*
X178129250Y-78287460D01*
X178017775Y-78309634D01*
X177912768Y-78353129D01*
X177818264Y-78416275D01*
X177737895Y-78496644D01*
X177674749Y-78591148D01*
X177631254Y-78696155D01*
X177609080Y-78807630D01*
X176508243Y-78807630D01*
X176459830Y-78798000D01*
X176346170Y-78798000D01*
X176234695Y-78820174D01*
X176129688Y-78863669D01*
X176035184Y-78926815D01*
X175954815Y-79007184D01*
X175891669Y-79101688D01*
X175848174Y-79206695D01*
X175826000Y-79318170D01*
X174678715Y-79318170D01*
X174694000Y-79241330D01*
X174694000Y-79127670D01*
X174671826Y-79016195D01*
X174628331Y-78911188D01*
X174565185Y-78816684D01*
X174484816Y-78736315D01*
X174390312Y-78673169D01*
X174285305Y-78629674D01*
X174173830Y-78607500D01*
X174060170Y-78607500D01*
X173948695Y-78629674D01*
X173843688Y-78673169D01*
X173749184Y-78736315D01*
X173668815Y-78816684D01*
X173605669Y-78911188D01*
X173562174Y-79016195D01*
X173540000Y-79127670D01*
X153514681Y-79127670D01*
X153901696Y-78502620D01*
X154289435Y-77989170D01*
X172973000Y-77989170D01*
X172973000Y-78102830D01*
X172995174Y-78214305D01*
X173038669Y-78319312D01*
X173101815Y-78413816D01*
X173182184Y-78494185D01*
X173276688Y-78557331D01*
X173381695Y-78600826D01*
X173493170Y-78623000D01*
X173606830Y-78623000D01*
X173718305Y-78600826D01*
X173823312Y-78557331D01*
X173917816Y-78494185D01*
X173998185Y-78413816D01*
X174061331Y-78319312D01*
X174104826Y-78214305D01*
X174127000Y-78102830D01*
X174127000Y-77989170D01*
X174104826Y-77877695D01*
X174061331Y-77772688D01*
X173998185Y-77678184D01*
X173917816Y-77597815D01*
X173823312Y-77534669D01*
X173718305Y-77491174D01*
X173606830Y-77469000D01*
X173493170Y-77469000D01*
X173381695Y-77491174D01*
X173276688Y-77534669D01*
X173182184Y-77597815D01*
X173101815Y-77678184D01*
X173038669Y-77772688D01*
X172995174Y-77877695D01*
X172973000Y-77989170D01*
X154289435Y-77989170D01*
X154820317Y-77286170D01*
X160713000Y-77286170D01*
X160713000Y-77399830D01*
X160735174Y-77511305D01*
X160778669Y-77616312D01*
X160841815Y-77710816D01*
X160922184Y-77791185D01*
X161016688Y-77854331D01*
X161121695Y-77897826D01*
X161233170Y-77920000D01*
X161346830Y-77920000D01*
X161458305Y-77897826D01*
X161563312Y-77854331D01*
X161657816Y-77791185D01*
X161738185Y-77710816D01*
X161801331Y-77616312D01*
X161844826Y-77511305D01*
X161867000Y-77399830D01*
X161867000Y-77286170D01*
X161844826Y-77174695D01*
X161801331Y-77069688D01*
X161738185Y-76975184D01*
X161657816Y-76894815D01*
X161563312Y-76831669D01*
X161458305Y-76788174D01*
X161346830Y-76766000D01*
X161233170Y-76766000D01*
X161121695Y-76788174D01*
X161016688Y-76831669D01*
X160922184Y-76894815D01*
X160841815Y-76975184D01*
X160778669Y-77069688D01*
X160735174Y-77174695D01*
X160713000Y-77286170D01*
X154820317Y-77286170D01*
X154925794Y-77146496D01*
X156070649Y-75890649D01*
X156079563Y-75882522D01*
X177714300Y-75882522D01*
X177714300Y-76009478D01*
X177739068Y-76133994D01*
X177787652Y-76251285D01*
X177858185Y-76356845D01*
X177947955Y-76446615D01*
X178053515Y-76517148D01*
X178170806Y-76565732D01*
X178295322Y-76590500D01*
X178422278Y-76590500D01*
X178546794Y-76565732D01*
X178664085Y-76517148D01*
X178769645Y-76446615D01*
X178859415Y-76356845D01*
X178929948Y-76251285D01*
X178978532Y-76133994D01*
X179003300Y-76009478D01*
X179003300Y-75882522D01*
X178978532Y-75758006D01*
X178929948Y-75640715D01*
X178859415Y-75535155D01*
X178769645Y-75445385D01*
X178664085Y-75374852D01*
X178546794Y-75326268D01*
X178422278Y-75301500D01*
X178295322Y-75301500D01*
X178170806Y-75326268D01*
X178053515Y-75374852D01*
X177947955Y-75445385D01*
X177858185Y-75535155D01*
X177787652Y-75640715D01*
X177739068Y-75758006D01*
X177714300Y-75882522D01*
X156079563Y-75882522D01*
X157249788Y-74815722D01*
X158156300Y-74815722D01*
X158156300Y-74942678D01*
X158181068Y-75067194D01*
X158229652Y-75184485D01*
X158300185Y-75290045D01*
X158389955Y-75379815D01*
X158495515Y-75450348D01*
X158612806Y-75498932D01*
X158737322Y-75523700D01*
X158864278Y-75523700D01*
X158988794Y-75498932D01*
X159106085Y-75450348D01*
X159211645Y-75379815D01*
X159301415Y-75290045D01*
X159371948Y-75184485D01*
X159420532Y-75067194D01*
X159445300Y-74942678D01*
X159445300Y-74815722D01*
X159420532Y-74691206D01*
X159371948Y-74573915D01*
X159363801Y-74561722D01*
X159858100Y-74561722D01*
X159858100Y-74688678D01*
X159882868Y-74813194D01*
X159931452Y-74930485D01*
X160001985Y-75036045D01*
X160091755Y-75125815D01*
X160197315Y-75196348D01*
X160314606Y-75244932D01*
X160439122Y-75269700D01*
X160566078Y-75269700D01*
X160690594Y-75244932D01*
X160807885Y-75196348D01*
X160913445Y-75125815D01*
X161003215Y-75036045D01*
X161073748Y-74930485D01*
X161122332Y-74813194D01*
X161123928Y-74805170D01*
X172973000Y-74805170D01*
X172973000Y-74918830D01*
X172995174Y-75030305D01*
X173038669Y-75135312D01*
X173101815Y-75229816D01*
X173182184Y-75310185D01*
X173276688Y-75373331D01*
X173381695Y-75416826D01*
X173493170Y-75439000D01*
X173606830Y-75439000D01*
X173718305Y-75416826D01*
X173823312Y-75373331D01*
X173917816Y-75310185D01*
X173998185Y-75229816D01*
X174061331Y-75135312D01*
X174104826Y-75030305D01*
X174127000Y-74918830D01*
X174127000Y-74805170D01*
X174104826Y-74693695D01*
X174061331Y-74588688D01*
X173998185Y-74494184D01*
X173917816Y-74413815D01*
X173823312Y-74350669D01*
X173718305Y-74307174D01*
X173606830Y-74285000D01*
X173493170Y-74285000D01*
X173381695Y-74307174D01*
X173276688Y-74350669D01*
X173182184Y-74413815D01*
X173101815Y-74494184D01*
X173038669Y-74588688D01*
X172995174Y-74693695D01*
X172973000Y-74805170D01*
X161123928Y-74805170D01*
X161147100Y-74688678D01*
X161147100Y-74561722D01*
X161122332Y-74437206D01*
X161073748Y-74319915D01*
X161003215Y-74214355D01*
X160913445Y-74124585D01*
X160807885Y-74054052D01*
X160690594Y-74005468D01*
X160566078Y-73980700D01*
X160439122Y-73980700D01*
X160314606Y-74005468D01*
X160197315Y-74054052D01*
X160091755Y-74124585D01*
X160001985Y-74214355D01*
X159931452Y-74319915D01*
X159882868Y-74437206D01*
X159858100Y-74561722D01*
X159363801Y-74561722D01*
X159301415Y-74468355D01*
X159211645Y-74378585D01*
X159106085Y-74308052D01*
X158988794Y-74259468D01*
X158864278Y-74234700D01*
X158737322Y-74234700D01*
X158612806Y-74259468D01*
X158495515Y-74308052D01*
X158389955Y-74378585D01*
X158300185Y-74468355D01*
X158229652Y-74573915D01*
X158181068Y-74691206D01*
X158156300Y-74815722D01*
X157249788Y-74815722D01*
X157326496Y-74745794D01*
X158682620Y-73721696D01*
X159386826Y-73285670D01*
X173794000Y-73285670D01*
X173794000Y-73399330D01*
X173816174Y-73510805D01*
X173859669Y-73615812D01*
X173922815Y-73710316D01*
X174003184Y-73790685D01*
X174097688Y-73853831D01*
X174202695Y-73897326D01*
X174314170Y-73919500D01*
X174427830Y-73919500D01*
X174539305Y-73897326D01*
X174644312Y-73853831D01*
X174738816Y-73790685D01*
X174819185Y-73710316D01*
X174882331Y-73615812D01*
X174925826Y-73510805D01*
X174948000Y-73399330D01*
X174948000Y-73285670D01*
X174925826Y-73174195D01*
X174882331Y-73069188D01*
X174819185Y-72974684D01*
X174738816Y-72894315D01*
X174644312Y-72831169D01*
X174539305Y-72787674D01*
X174427830Y-72765500D01*
X174314170Y-72765500D01*
X174202695Y-72787674D01*
X174097688Y-72831169D01*
X174003184Y-72894315D01*
X173922815Y-72974684D01*
X173859669Y-73069188D01*
X173816174Y-73174195D01*
X173794000Y-73285670D01*
X159386826Y-73285670D01*
X160127451Y-72827095D01*
X161648661Y-72069622D01*
X162016811Y-71927000D01*
X176143189Y-71927000D01*
X176511339Y-72069622D01*
G04 #@! TA.AperFunction,Conductor*
D16*
G36*
X176511339Y-72069622D02*
G01*
X177824861Y-72723679D01*
X177807385Y-72741155D01*
X177736852Y-72846715D01*
X177688268Y-72964006D01*
X177663500Y-73088522D01*
X177663500Y-73215478D01*
X177688268Y-73339994D01*
X177736852Y-73457285D01*
X177807385Y-73562845D01*
X177897155Y-73652615D01*
X178002715Y-73723148D01*
X178120006Y-73771732D01*
X178244522Y-73796500D01*
X178371478Y-73796500D01*
X178495994Y-73771732D01*
X178613285Y-73723148D01*
X178718845Y-73652615D01*
X178808615Y-73562845D01*
X178879148Y-73457285D01*
X178914092Y-73372923D01*
X179477380Y-73721696D01*
X180833504Y-74745794D01*
X182089351Y-75890649D01*
X183234206Y-77146496D01*
X184258304Y-78502620D01*
X185152905Y-79947451D01*
X185910378Y-81468661D01*
X186524260Y-83053273D01*
X186989313Y-84687768D01*
X187148709Y-85540462D01*
X187070978Y-85525000D01*
X186944022Y-85525000D01*
X186819506Y-85549768D01*
X186702215Y-85598352D01*
X186596655Y-85668885D01*
X186506885Y-85758655D01*
X186436352Y-85864215D01*
X186387768Y-85981506D01*
X186363000Y-86106022D01*
X186363000Y-86232978D01*
X186387768Y-86357494D01*
X186436352Y-86474785D01*
X186506885Y-86580345D01*
X186596655Y-86670115D01*
X186606423Y-86676642D01*
X186562978Y-86668000D01*
X186436022Y-86668000D01*
X186311506Y-86692768D01*
X186194215Y-86741352D01*
X186088655Y-86811885D01*
X185998885Y-86901655D01*
X185928352Y-87007215D01*
X185879768Y-87124506D01*
X185855000Y-87249022D01*
X185855000Y-87375978D01*
X185879768Y-87500494D01*
X185928352Y-87617785D01*
X185998885Y-87723345D01*
X186088655Y-87813115D01*
X186194215Y-87883648D01*
X186311506Y-87932232D01*
X186436022Y-87957000D01*
X186562978Y-87957000D01*
X186687494Y-87932232D01*
X186804785Y-87883648D01*
X186910345Y-87813115D01*
X187000115Y-87723345D01*
X187070648Y-87617785D01*
X187119232Y-87500494D01*
X187144000Y-87375978D01*
X187144000Y-87249022D01*
X187119232Y-87124506D01*
X187070648Y-87007215D01*
X187000115Y-86901655D01*
X186910345Y-86811885D01*
X186900577Y-86805358D01*
X186944022Y-86814000D01*
X187070978Y-86814000D01*
X187195494Y-86789232D01*
X187312785Y-86740648D01*
X187335598Y-86725405D01*
X187458369Y-88050317D01*
X187458369Y-89749683D01*
X187301571Y-91441801D01*
X186989313Y-93112232D01*
X186524260Y-94746727D01*
X185910378Y-96331339D01*
X185152905Y-97852549D01*
X184258304Y-99297380D01*
X183234206Y-100653504D01*
X182089351Y-101909351D01*
X180833504Y-103054206D01*
X179477380Y-104078304D01*
X178032549Y-104972905D01*
X176511339Y-105730378D01*
X174926727Y-106344260D01*
X173292232Y-106809313D01*
X171621801Y-107121571D01*
X169929683Y-107278369D01*
X168230317Y-107278369D01*
X166538199Y-107121571D01*
X164867768Y-106809313D01*
X163233273Y-106344260D01*
X161648661Y-105730378D01*
X160127451Y-104972905D01*
X159225027Y-104414148D01*
X160971000Y-104414148D01*
X160971000Y-104577052D01*
X161002782Y-104736827D01*
X161065123Y-104887331D01*
X161155628Y-105022781D01*
X161270819Y-105137972D01*
X161406269Y-105228477D01*
X161556773Y-105290818D01*
X161716548Y-105322600D01*
X161879452Y-105322600D01*
X162039227Y-105290818D01*
X162189731Y-105228477D01*
X162325181Y-105137972D01*
X162440372Y-105022781D01*
X162530877Y-104887331D01*
X162593218Y-104736827D01*
X162625000Y-104577052D01*
X162625000Y-104414148D01*
X162593218Y-104254373D01*
X162530877Y-104103869D01*
X162440372Y-103968419D01*
X162396075Y-103924122D01*
X166639900Y-103924122D01*
X166639900Y-104051078D01*
X166664668Y-104175594D01*
X166713252Y-104292885D01*
X166783785Y-104398445D01*
X166830140Y-104444800D01*
X166783785Y-104491155D01*
X166713252Y-104596715D01*
X166664668Y-104714006D01*
X166639900Y-104838522D01*
X166639900Y-104965478D01*
X166664668Y-105089994D01*
X166713252Y-105207285D01*
X166783785Y-105312845D01*
X166830140Y-105359200D01*
X166783785Y-105405555D01*
X166713252Y-105511115D01*
X166664668Y-105628406D01*
X166639900Y-105752922D01*
X166639900Y-105879878D01*
X166664668Y-106004394D01*
X166713252Y-106121685D01*
X166783785Y-106227245D01*
X166873555Y-106317015D01*
X166979115Y-106387548D01*
X167096406Y-106436132D01*
X167220922Y-106460900D01*
X167347878Y-106460900D01*
X167472394Y-106436132D01*
X167589685Y-106387548D01*
X167695245Y-106317015D01*
X167785015Y-106227245D01*
X167855548Y-106121685D01*
X167904132Y-106004394D01*
X167928900Y-105879878D01*
X167928900Y-105752922D01*
X167904132Y-105628406D01*
X167855548Y-105511115D01*
X167785015Y-105405555D01*
X167738660Y-105359200D01*
X167785015Y-105312845D01*
X167855548Y-105207285D01*
X167904132Y-105089994D01*
X167926376Y-104978166D01*
X176001439Y-104978166D01*
X176036550Y-105191588D01*
X176240826Y-105282458D01*
X176458905Y-105331731D01*
X176682406Y-105337511D01*
X176902740Y-105299577D01*
X177111440Y-105219387D01*
X177163450Y-105191588D01*
X177198561Y-104978166D01*
X176600000Y-104379605D01*
X176001439Y-104978166D01*
X167926376Y-104978166D01*
X167928900Y-104965478D01*
X167928900Y-104838522D01*
X167904132Y-104714006D01*
X167855548Y-104596715D01*
X167785015Y-104491155D01*
X167738660Y-104444800D01*
X167785015Y-104398445D01*
X167855548Y-104292885D01*
X167859888Y-104282406D01*
X175462489Y-104282406D01*
X175500423Y-104502740D01*
X175580613Y-104711440D01*
X175608412Y-104763450D01*
X175821834Y-104798561D01*
X176420395Y-104200000D01*
X176779605Y-104200000D01*
X177378166Y-104798561D01*
X177591588Y-104763450D01*
X177682458Y-104559174D01*
X177731731Y-104341095D01*
X177737511Y-104117594D01*
X177699577Y-103897260D01*
X177619387Y-103688560D01*
X177591588Y-103636550D01*
X177378166Y-103601439D01*
X176779605Y-104200000D01*
X176420395Y-104200000D01*
X175821834Y-103601439D01*
X175608412Y-103636550D01*
X175517542Y-103840826D01*
X175468269Y-104058905D01*
X175462489Y-104282406D01*
X167859888Y-104282406D01*
X167904132Y-104175594D01*
X167928900Y-104051078D01*
X167928900Y-103924122D01*
X167904132Y-103799606D01*
X167855548Y-103682315D01*
X167785015Y-103576755D01*
X167695245Y-103486985D01*
X167597740Y-103421834D01*
X176001439Y-103421834D01*
X176600000Y-104020395D01*
X177198561Y-103421834D01*
X177163450Y-103208412D01*
X176959174Y-103117542D01*
X176741095Y-103068269D01*
X176517594Y-103062489D01*
X176297260Y-103100423D01*
X176088560Y-103180613D01*
X176036550Y-103208412D01*
X176001439Y-103421834D01*
X167597740Y-103421834D01*
X167589685Y-103416452D01*
X167472394Y-103367868D01*
X167347878Y-103343100D01*
X167220922Y-103343100D01*
X167096406Y-103367868D01*
X166979115Y-103416452D01*
X166873555Y-103486985D01*
X166783785Y-103576755D01*
X166713252Y-103682315D01*
X166664668Y-103799606D01*
X166639900Y-103924122D01*
X162396075Y-103924122D01*
X162325181Y-103853228D01*
X162189731Y-103762723D01*
X162039227Y-103700382D01*
X161879452Y-103668600D01*
X161716548Y-103668600D01*
X161556773Y-103700382D01*
X161406269Y-103762723D01*
X161270819Y-103853228D01*
X161155628Y-103968419D01*
X161065123Y-104103869D01*
X161002782Y-104254373D01*
X160971000Y-104414148D01*
X159225027Y-104414148D01*
X158682620Y-104078304D01*
X157326496Y-103054206D01*
X156070649Y-101909351D01*
X154925794Y-100653504D01*
X154058123Y-99504522D01*
X160391500Y-99504522D01*
X160391500Y-99631478D01*
X160416268Y-99755994D01*
X160464852Y-99873285D01*
X160535385Y-99978845D01*
X160625155Y-100068615D01*
X160730715Y-100139148D01*
X160848006Y-100187732D01*
X160972522Y-100212500D01*
X161099478Y-100212500D01*
X161166914Y-100199086D01*
X161153500Y-100266522D01*
X161153500Y-100393478D01*
X161178268Y-100517994D01*
X161226852Y-100635285D01*
X161297385Y-100740845D01*
X161387155Y-100830615D01*
X161492715Y-100901148D01*
X161610006Y-100949732D01*
X161734522Y-100974500D01*
X161861478Y-100974500D01*
X161985994Y-100949732D01*
X162103285Y-100901148D01*
X162208845Y-100830615D01*
X162298615Y-100740845D01*
X162369148Y-100635285D01*
X162417732Y-100517994D01*
X162442500Y-100393478D01*
X162442500Y-100266522D01*
X162417732Y-100142006D01*
X162369148Y-100024715D01*
X162298615Y-99919155D01*
X162208845Y-99829385D01*
X162103285Y-99758852D01*
X161985994Y-99710268D01*
X161861478Y-99685500D01*
X161734522Y-99685500D01*
X161667086Y-99698914D01*
X161680500Y-99631478D01*
X161680500Y-99504522D01*
X161656561Y-99384170D01*
X166491500Y-99384170D01*
X166491500Y-99497830D01*
X166513674Y-99609305D01*
X166557169Y-99714312D01*
X166620315Y-99808816D01*
X166700684Y-99889185D01*
X166795188Y-99952331D01*
X166900195Y-99995826D01*
X167011670Y-100018000D01*
X167125330Y-100018000D01*
X167236805Y-99995826D01*
X167341812Y-99952331D01*
X167436316Y-99889185D01*
X167516685Y-99808816D01*
X167579831Y-99714312D01*
X167623326Y-99609305D01*
X167645500Y-99497830D01*
X167645500Y-99433800D01*
X167696830Y-99433800D01*
X167808305Y-99411626D01*
X167913312Y-99368131D01*
X168007816Y-99304985D01*
X168088185Y-99224616D01*
X168151331Y-99130112D01*
X168194826Y-99025105D01*
X168217000Y-98913630D01*
X168217000Y-98799970D01*
X168194826Y-98688495D01*
X168151331Y-98583488D01*
X168088185Y-98488984D01*
X168007816Y-98408615D01*
X167913312Y-98345469D01*
X167808305Y-98301974D01*
X167696830Y-98279800D01*
X167583170Y-98279800D01*
X167471695Y-98301974D01*
X167366688Y-98345469D01*
X167272184Y-98408615D01*
X167191815Y-98488984D01*
X167128669Y-98583488D01*
X167085174Y-98688495D01*
X167063000Y-98799970D01*
X167063000Y-98864000D01*
X167011670Y-98864000D01*
X166900195Y-98886174D01*
X166795188Y-98929669D01*
X166700684Y-98992815D01*
X166620315Y-99073184D01*
X166557169Y-99167688D01*
X166513674Y-99272695D01*
X166491500Y-99384170D01*
X161656561Y-99384170D01*
X161655732Y-99380006D01*
X161607148Y-99262715D01*
X161536615Y-99157155D01*
X161446845Y-99067385D01*
X161341285Y-98996852D01*
X161223994Y-98948268D01*
X161099478Y-98923500D01*
X160972522Y-98923500D01*
X160848006Y-98948268D01*
X160730715Y-98996852D01*
X160625155Y-99067385D01*
X160535385Y-99157155D01*
X160464852Y-99262715D01*
X160416268Y-99380006D01*
X160391500Y-99504522D01*
X154058123Y-99504522D01*
X153901696Y-99297380D01*
X153117787Y-98031322D01*
X158918300Y-98031322D01*
X158918300Y-98158278D01*
X158943068Y-98282794D01*
X158991652Y-98400085D01*
X159062185Y-98505645D01*
X159151955Y-98595415D01*
X159257515Y-98665948D01*
X159374806Y-98714532D01*
X159439000Y-98727301D01*
X159439000Y-98742478D01*
X159463768Y-98866994D01*
X159512352Y-98984285D01*
X159582885Y-99089845D01*
X159672655Y-99179615D01*
X159778215Y-99250148D01*
X159895506Y-99298732D01*
X160020022Y-99323500D01*
X160146978Y-99323500D01*
X160271494Y-99298732D01*
X160388785Y-99250148D01*
X160494345Y-99179615D01*
X160584115Y-99089845D01*
X160654648Y-98984285D01*
X160703232Y-98866994D01*
X160728000Y-98742478D01*
X160728000Y-98615522D01*
X160703232Y-98491006D01*
X160654648Y-98373715D01*
X160584115Y-98268155D01*
X160494345Y-98178385D01*
X160388785Y-98107852D01*
X160271494Y-98059268D01*
X160207300Y-98046499D01*
X160207300Y-98031322D01*
X160182532Y-97906806D01*
X160142173Y-97809370D01*
X165843800Y-97809370D01*
X165843800Y-97923030D01*
X165865974Y-98034505D01*
X165909469Y-98139512D01*
X165972615Y-98234016D01*
X166052984Y-98314385D01*
X166147488Y-98377531D01*
X166252495Y-98421026D01*
X166363970Y-98443200D01*
X166477630Y-98443200D01*
X166589105Y-98421026D01*
X166694112Y-98377531D01*
X166788616Y-98314385D01*
X166868985Y-98234016D01*
X166932131Y-98139512D01*
X166975626Y-98034505D01*
X166997800Y-97923030D01*
X166997800Y-97890578D01*
X167104277Y-97869398D01*
X167209284Y-97825903D01*
X167303788Y-97762757D01*
X167384157Y-97682388D01*
X167422554Y-97624922D01*
X169052900Y-97624922D01*
X169052900Y-97751878D01*
X169077668Y-97876394D01*
X169126252Y-97993685D01*
X169196785Y-98099245D01*
X169286555Y-98189015D01*
X169392115Y-98259548D01*
X169509406Y-98308132D01*
X169633922Y-98332900D01*
X169760878Y-98332900D01*
X169885394Y-98308132D01*
X169924412Y-98291970D01*
X173032000Y-98291970D01*
X173032000Y-98405630D01*
X173054174Y-98517105D01*
X173097669Y-98622112D01*
X173160815Y-98716616D01*
X173241184Y-98796985D01*
X173335688Y-98860131D01*
X173440695Y-98903626D01*
X173552170Y-98925800D01*
X173665830Y-98925800D01*
X173777305Y-98903626D01*
X173882312Y-98860131D01*
X173976816Y-98796985D01*
X174057185Y-98716616D01*
X174120331Y-98622112D01*
X174163826Y-98517105D01*
X174186000Y-98405630D01*
X174186000Y-98291970D01*
X174163826Y-98180495D01*
X174120331Y-98075488D01*
X174057185Y-97980984D01*
X173976816Y-97900615D01*
X173882312Y-97837469D01*
X173777305Y-97793974D01*
X173665830Y-97771800D01*
X173552170Y-97771800D01*
X173440695Y-97793974D01*
X173335688Y-97837469D01*
X173241184Y-97900615D01*
X173160815Y-97980984D01*
X173097669Y-98075488D01*
X173054174Y-98180495D01*
X173032000Y-98291970D01*
X169924412Y-98291970D01*
X170002685Y-98259548D01*
X170108245Y-98189015D01*
X170198015Y-98099245D01*
X170268548Y-97993685D01*
X170317132Y-97876394D01*
X170341900Y-97751878D01*
X170341900Y-97624922D01*
X170317132Y-97500406D01*
X170278264Y-97406570D01*
X170463000Y-97406570D01*
X170463000Y-97520230D01*
X170485174Y-97631705D01*
X170528669Y-97736712D01*
X170591815Y-97831216D01*
X170672184Y-97911585D01*
X170766688Y-97974731D01*
X170871695Y-98018226D01*
X170983170Y-98040400D01*
X171096830Y-98040400D01*
X171208305Y-98018226D01*
X171313312Y-97974731D01*
X171407816Y-97911585D01*
X171488185Y-97831216D01*
X171551331Y-97736712D01*
X171552798Y-97733170D01*
X177223000Y-97733170D01*
X177223000Y-97846830D01*
X177245174Y-97958305D01*
X177288669Y-98063312D01*
X177351815Y-98157816D01*
X177432184Y-98238185D01*
X177526688Y-98301331D01*
X177631695Y-98344826D01*
X177743170Y-98367000D01*
X177856830Y-98367000D01*
X177968305Y-98344826D01*
X178073312Y-98301331D01*
X178167816Y-98238185D01*
X178248185Y-98157816D01*
X178311331Y-98063312D01*
X178354826Y-97958305D01*
X178377000Y-97846830D01*
X178377000Y-97733170D01*
X178354826Y-97621695D01*
X178311331Y-97516688D01*
X178248185Y-97422184D01*
X178167816Y-97341815D01*
X178073312Y-97278669D01*
X177968305Y-97235174D01*
X177856830Y-97213000D01*
X177743170Y-97213000D01*
X177631695Y-97235174D01*
X177526688Y-97278669D01*
X177432184Y-97341815D01*
X177351815Y-97422184D01*
X177288669Y-97516688D01*
X177245174Y-97621695D01*
X177223000Y-97733170D01*
X171552798Y-97733170D01*
X171594826Y-97631705D01*
X171617000Y-97520230D01*
X171617000Y-97406570D01*
X171594826Y-97295095D01*
X171551331Y-97190088D01*
X171488185Y-97095584D01*
X171407816Y-97015215D01*
X171313312Y-96952069D01*
X171208305Y-96908574D01*
X171096830Y-96886400D01*
X170983170Y-96886400D01*
X170871695Y-96908574D01*
X170766688Y-96952069D01*
X170672184Y-97015215D01*
X170591815Y-97095584D01*
X170528669Y-97190088D01*
X170485174Y-97295095D01*
X170463000Y-97406570D01*
X170278264Y-97406570D01*
X170268548Y-97383115D01*
X170198015Y-97277555D01*
X170108245Y-97187785D01*
X170002685Y-97117252D01*
X169885394Y-97068668D01*
X169760878Y-97043900D01*
X169633922Y-97043900D01*
X169509406Y-97068668D01*
X169392115Y-97117252D01*
X169286555Y-97187785D01*
X169196785Y-97277555D01*
X169126252Y-97383115D01*
X169077668Y-97500406D01*
X169052900Y-97624922D01*
X167422554Y-97624922D01*
X167447303Y-97587884D01*
X167490798Y-97482877D01*
X167512972Y-97371402D01*
X167512972Y-97257742D01*
X167490798Y-97146267D01*
X167447303Y-97041260D01*
X167384157Y-96946756D01*
X167303788Y-96866387D01*
X167209284Y-96803241D01*
X167104277Y-96759746D01*
X166992802Y-96737572D01*
X166879142Y-96737572D01*
X166767667Y-96759746D01*
X166662660Y-96803241D01*
X166568156Y-96866387D01*
X166487787Y-96946756D01*
X166424641Y-97041260D01*
X166381146Y-97146267D01*
X166358972Y-97257742D01*
X166358972Y-97290194D01*
X166252495Y-97311374D01*
X166147488Y-97354869D01*
X166052984Y-97418015D01*
X165972615Y-97498384D01*
X165909469Y-97592888D01*
X165865974Y-97697895D01*
X165843800Y-97809370D01*
X160142173Y-97809370D01*
X160133948Y-97789515D01*
X160063415Y-97683955D01*
X159973645Y-97594185D01*
X159868085Y-97523652D01*
X159750794Y-97475068D01*
X159626278Y-97450300D01*
X159499322Y-97450300D01*
X159374806Y-97475068D01*
X159257515Y-97523652D01*
X159151955Y-97594185D01*
X159062185Y-97683955D01*
X158991652Y-97789515D01*
X158943068Y-97906806D01*
X158918300Y-98031322D01*
X153117787Y-98031322D01*
X153007095Y-97852549D01*
X152249622Y-96331339D01*
X152114035Y-95981348D01*
X152893800Y-95981348D01*
X152893800Y-96144252D01*
X152925582Y-96304027D01*
X152987923Y-96454531D01*
X153078428Y-96589981D01*
X153193619Y-96705172D01*
X153329069Y-96795677D01*
X153479573Y-96858018D01*
X153639348Y-96889800D01*
X153802252Y-96889800D01*
X153962027Y-96858018D01*
X154112531Y-96795677D01*
X154247981Y-96705172D01*
X154363172Y-96589981D01*
X154453677Y-96454531D01*
X154516018Y-96304027D01*
X154536209Y-96202522D01*
X177155500Y-96202522D01*
X177155500Y-96329478D01*
X177180268Y-96453994D01*
X177228852Y-96571285D01*
X177299385Y-96676845D01*
X177389155Y-96766615D01*
X177494715Y-96837148D01*
X177612006Y-96885732D01*
X177736522Y-96910500D01*
X177863478Y-96910500D01*
X177987994Y-96885732D01*
X178105285Y-96837148D01*
X178210845Y-96766615D01*
X178300615Y-96676845D01*
X178371148Y-96571285D01*
X178419732Y-96453994D01*
X178444500Y-96329478D01*
X178444500Y-96202522D01*
X178419732Y-96078006D01*
X178371148Y-95960715D01*
X178300615Y-95855155D01*
X178210845Y-95765385D01*
X178105285Y-95694852D01*
X177987994Y-95646268D01*
X177863478Y-95621500D01*
X177736522Y-95621500D01*
X177612006Y-95646268D01*
X177494715Y-95694852D01*
X177389155Y-95765385D01*
X177299385Y-95855155D01*
X177228852Y-95960715D01*
X177180268Y-96078006D01*
X177155500Y-96202522D01*
X154536209Y-96202522D01*
X154547800Y-96144252D01*
X154547800Y-95981348D01*
X154516018Y-95821573D01*
X154453677Y-95671069D01*
X154363172Y-95535619D01*
X154247981Y-95420428D01*
X154112531Y-95329923D01*
X153962027Y-95267582D01*
X153802252Y-95235800D01*
X153639348Y-95235800D01*
X153479573Y-95267582D01*
X153329069Y-95329923D01*
X153193619Y-95420428D01*
X153078428Y-95535619D01*
X152987923Y-95671069D01*
X152925582Y-95821573D01*
X152893800Y-95981348D01*
X152114035Y-95981348D01*
X151670933Y-94837570D01*
X165285000Y-94837570D01*
X165285000Y-94951230D01*
X165307174Y-95062705D01*
X165350669Y-95167712D01*
X165413815Y-95262216D01*
X165494184Y-95342585D01*
X165588688Y-95405731D01*
X165693695Y-95449226D01*
X165805170Y-95471400D01*
X165918830Y-95471400D01*
X166030305Y-95449226D01*
X166035268Y-95447170D01*
X175699000Y-95447170D01*
X175699000Y-95560830D01*
X175721174Y-95672305D01*
X175764669Y-95777312D01*
X175827815Y-95871816D01*
X175908184Y-95952185D01*
X176002688Y-96015331D01*
X176107695Y-96058826D01*
X176219170Y-96081000D01*
X176332830Y-96081000D01*
X176444305Y-96058826D01*
X176549312Y-96015331D01*
X176643816Y-95952185D01*
X176724185Y-95871816D01*
X176787331Y-95777312D01*
X176830826Y-95672305D01*
X176853000Y-95560830D01*
X176853000Y-95447170D01*
X176830826Y-95335695D01*
X176787331Y-95230688D01*
X176724185Y-95136184D01*
X176643816Y-95055815D01*
X176549312Y-94992669D01*
X176444305Y-94949174D01*
X176332830Y-94927000D01*
X176219170Y-94927000D01*
X176107695Y-94949174D01*
X176002688Y-94992669D01*
X175908184Y-95055815D01*
X175827815Y-95136184D01*
X175764669Y-95230688D01*
X175721174Y-95335695D01*
X175699000Y-95447170D01*
X166035268Y-95447170D01*
X166135312Y-95405731D01*
X166229816Y-95342585D01*
X166310185Y-95262216D01*
X166373331Y-95167712D01*
X166416826Y-95062705D01*
X166439000Y-94951230D01*
X166439000Y-94837570D01*
X166416826Y-94726095D01*
X166373331Y-94621088D01*
X166310185Y-94526584D01*
X166229816Y-94446215D01*
X166135312Y-94383069D01*
X166030305Y-94339574D01*
X165918830Y-94317400D01*
X165805170Y-94317400D01*
X165693695Y-94339574D01*
X165588688Y-94383069D01*
X165494184Y-94446215D01*
X165413815Y-94526584D01*
X165350669Y-94621088D01*
X165307174Y-94726095D01*
X165285000Y-94837570D01*
X151670933Y-94837570D01*
X151635740Y-94746727D01*
X151293015Y-93542170D01*
X164650000Y-93542170D01*
X164650000Y-93655830D01*
X164672174Y-93767305D01*
X164715669Y-93872312D01*
X164778815Y-93966816D01*
X164859184Y-94047185D01*
X164953688Y-94110331D01*
X165058695Y-94153826D01*
X165170170Y-94176000D01*
X165283830Y-94176000D01*
X165395305Y-94153826D01*
X165500312Y-94110331D01*
X165594816Y-94047185D01*
X165675185Y-93966816D01*
X165738331Y-93872312D01*
X165781826Y-93767305D01*
X165804000Y-93655830D01*
X165804000Y-93542170D01*
X167063000Y-93542170D01*
X167063000Y-93655830D01*
X167085174Y-93767305D01*
X167128669Y-93872312D01*
X167191815Y-93966816D01*
X167272184Y-94047185D01*
X167366688Y-94110331D01*
X167471695Y-94153826D01*
X167583170Y-94176000D01*
X167696830Y-94176000D01*
X167808305Y-94153826D01*
X167913312Y-94110331D01*
X168003348Y-94050170D01*
X176905500Y-94050170D01*
X176905500Y-94163830D01*
X176927674Y-94275305D01*
X176971169Y-94380312D01*
X177034315Y-94474816D01*
X177114684Y-94555185D01*
X177209188Y-94618331D01*
X177314195Y-94661826D01*
X177425670Y-94684000D01*
X177539330Y-94684000D01*
X177650805Y-94661826D01*
X177755812Y-94618331D01*
X177850316Y-94555185D01*
X177930685Y-94474816D01*
X177993831Y-94380312D01*
X178037326Y-94275305D01*
X178059500Y-94163830D01*
X178059500Y-94050170D01*
X178037326Y-93938695D01*
X177993831Y-93833688D01*
X177930685Y-93739184D01*
X177850316Y-93658815D01*
X177755812Y-93595669D01*
X177650805Y-93552174D01*
X177567091Y-93535522D01*
X185220000Y-93535522D01*
X185220000Y-93662478D01*
X185244768Y-93786994D01*
X185293352Y-93904285D01*
X185363885Y-94009845D01*
X185453655Y-94099615D01*
X185559215Y-94170148D01*
X185676506Y-94218732D01*
X185801022Y-94243500D01*
X185927978Y-94243500D01*
X186052494Y-94218732D01*
X186169785Y-94170148D01*
X186275345Y-94099615D01*
X186365115Y-94009845D01*
X186435648Y-93904285D01*
X186484232Y-93786994D01*
X186509000Y-93662478D01*
X186509000Y-93535522D01*
X186484232Y-93411006D01*
X186435648Y-93293715D01*
X186365115Y-93188155D01*
X186275345Y-93098385D01*
X186169785Y-93027852D01*
X186052494Y-92979268D01*
X185927978Y-92954500D01*
X185801022Y-92954500D01*
X185676506Y-92979268D01*
X185559215Y-93027852D01*
X185453655Y-93098385D01*
X185363885Y-93188155D01*
X185293352Y-93293715D01*
X185244768Y-93411006D01*
X185220000Y-93535522D01*
X177567091Y-93535522D01*
X177539330Y-93530000D01*
X177425670Y-93530000D01*
X177314195Y-93552174D01*
X177209188Y-93595669D01*
X177114684Y-93658815D01*
X177034315Y-93739184D01*
X176971169Y-93833688D01*
X176927674Y-93938695D01*
X176905500Y-94050170D01*
X168003348Y-94050170D01*
X168007816Y-94047185D01*
X168088185Y-93966816D01*
X168151331Y-93872312D01*
X168194826Y-93767305D01*
X168217000Y-93655830D01*
X168217000Y-93542170D01*
X168194826Y-93430695D01*
X168151331Y-93325688D01*
X168088185Y-93231184D01*
X168007816Y-93150815D01*
X167913312Y-93087669D01*
X167808305Y-93044174D01*
X167696830Y-93022000D01*
X167583170Y-93022000D01*
X167471695Y-93044174D01*
X167366688Y-93087669D01*
X167272184Y-93150815D01*
X167191815Y-93231184D01*
X167128669Y-93325688D01*
X167085174Y-93430695D01*
X167063000Y-93542170D01*
X165804000Y-93542170D01*
X165781826Y-93430695D01*
X165738331Y-93325688D01*
X165675185Y-93231184D01*
X165594816Y-93150815D01*
X165500312Y-93087669D01*
X165395305Y-93044174D01*
X165283830Y-93022000D01*
X165170170Y-93022000D01*
X165058695Y-93044174D01*
X164953688Y-93087669D01*
X164859184Y-93150815D01*
X164778815Y-93231184D01*
X164715669Y-93325688D01*
X164672174Y-93430695D01*
X164650000Y-93542170D01*
X151293015Y-93542170D01*
X151170687Y-93112232D01*
X151157398Y-93041143D01*
X151253841Y-93158659D01*
X151394995Y-93274501D01*
X151556036Y-93360580D01*
X151730776Y-93413587D01*
X151866962Y-93427000D01*
X152658038Y-93427000D01*
X152794224Y-93413587D01*
X152968964Y-93360580D01*
X153130005Y-93274501D01*
X153271159Y-93158659D01*
X153387001Y-93017505D01*
X153473080Y-92856464D01*
X153526087Y-92681724D01*
X153543985Y-92500000D01*
X153526087Y-92318276D01*
X153473080Y-92143536D01*
X153387001Y-91982495D01*
X153271159Y-91841341D01*
X153130005Y-91725499D01*
X152968964Y-91639420D01*
X152794224Y-91586413D01*
X152658038Y-91573000D01*
X151866962Y-91573000D01*
X151730776Y-91586413D01*
X151556036Y-91639420D01*
X151394995Y-91725499D01*
X151253841Y-91841341D01*
X151137999Y-91982495D01*
X151051920Y-92143536D01*
X151013365Y-92270634D01*
X150858429Y-91441801D01*
X150854221Y-91396387D01*
X153910500Y-91396387D01*
X153910500Y-91603613D01*
X153950928Y-91806857D01*
X154030230Y-91998309D01*
X154145358Y-92170611D01*
X154291889Y-92317142D01*
X154464191Y-92432270D01*
X154655643Y-92511572D01*
X154858887Y-92552000D01*
X155066113Y-92552000D01*
X155068274Y-92551570D01*
X162897400Y-92551570D01*
X162897400Y-92665230D01*
X162919574Y-92776705D01*
X162963069Y-92881712D01*
X163026215Y-92976216D01*
X163106584Y-93056585D01*
X163201088Y-93119731D01*
X163306095Y-93163226D01*
X163417570Y-93185400D01*
X163531230Y-93185400D01*
X163642705Y-93163226D01*
X163747712Y-93119731D01*
X163842216Y-93056585D01*
X163922585Y-92976216D01*
X163985731Y-92881712D01*
X164029226Y-92776705D01*
X164051400Y-92665230D01*
X164051400Y-92551570D01*
X164046348Y-92526170D01*
X168714000Y-92526170D01*
X168714000Y-92639830D01*
X168736174Y-92751305D01*
X168779669Y-92856312D01*
X168842815Y-92950816D01*
X168923184Y-93031185D01*
X169017688Y-93094331D01*
X169122695Y-93137826D01*
X169234170Y-93160000D01*
X169347830Y-93160000D01*
X169459305Y-93137826D01*
X169564312Y-93094331D01*
X169658816Y-93031185D01*
X169739185Y-92950816D01*
X169802331Y-92856312D01*
X169845826Y-92751305D01*
X169868000Y-92639830D01*
X169868000Y-92535970D01*
X175023000Y-92535970D01*
X175023000Y-92649630D01*
X175045174Y-92761105D01*
X175088669Y-92866112D01*
X175151815Y-92960616D01*
X175232184Y-93040985D01*
X175326688Y-93104131D01*
X175431695Y-93147626D01*
X175543170Y-93169800D01*
X175656830Y-93169800D01*
X175768305Y-93147626D01*
X175873312Y-93104131D01*
X175967816Y-93040985D01*
X176048185Y-92960616D01*
X176111331Y-92866112D01*
X176154826Y-92761105D01*
X176177000Y-92649630D01*
X176177000Y-92535970D01*
X176154826Y-92424495D01*
X176111331Y-92319488D01*
X176048185Y-92224984D01*
X175967816Y-92144615D01*
X175873312Y-92081469D01*
X175768305Y-92037974D01*
X175656830Y-92015800D01*
X175543170Y-92015800D01*
X175431695Y-92037974D01*
X175326688Y-92081469D01*
X175232184Y-92144615D01*
X175151815Y-92224984D01*
X175088669Y-92319488D01*
X175045174Y-92424495D01*
X175023000Y-92535970D01*
X169868000Y-92535970D01*
X169868000Y-92526170D01*
X169845826Y-92414695D01*
X169802331Y-92309688D01*
X169739185Y-92215184D01*
X169658816Y-92134815D01*
X169564312Y-92071669D01*
X169459305Y-92028174D01*
X169347830Y-92006000D01*
X169234170Y-92006000D01*
X169122695Y-92028174D01*
X169017688Y-92071669D01*
X168923184Y-92134815D01*
X168842815Y-92215184D01*
X168779669Y-92309688D01*
X168736174Y-92414695D01*
X168714000Y-92526170D01*
X164046348Y-92526170D01*
X164029226Y-92440095D01*
X163985731Y-92335088D01*
X163922585Y-92240584D01*
X163842216Y-92160215D01*
X163747712Y-92097069D01*
X163642705Y-92053574D01*
X163531230Y-92031400D01*
X163417570Y-92031400D01*
X163306095Y-92053574D01*
X163201088Y-92097069D01*
X163106584Y-92160215D01*
X163026215Y-92240584D01*
X162963069Y-92335088D01*
X162919574Y-92440095D01*
X162897400Y-92551570D01*
X155068274Y-92551570D01*
X155269357Y-92511572D01*
X155460809Y-92432270D01*
X155633111Y-92317142D01*
X155779642Y-92170611D01*
X155894770Y-91998309D01*
X155974072Y-91806857D01*
X156014500Y-91603613D01*
X156014500Y-91574170D01*
X162173000Y-91574170D01*
X162173000Y-91687830D01*
X162195174Y-91799305D01*
X162238669Y-91904312D01*
X162301815Y-91998816D01*
X162382184Y-92079185D01*
X162476688Y-92142331D01*
X162581695Y-92185826D01*
X162693170Y-92208000D01*
X162806830Y-92208000D01*
X162918305Y-92185826D01*
X163023312Y-92142331D01*
X163117816Y-92079185D01*
X163198185Y-91998816D01*
X163261331Y-91904312D01*
X163304826Y-91799305D01*
X163327000Y-91687830D01*
X163327000Y-91577000D01*
X163412430Y-91577000D01*
X163523905Y-91554826D01*
X163628912Y-91511331D01*
X163723416Y-91448185D01*
X163803785Y-91367816D01*
X163866931Y-91273312D01*
X163910426Y-91168305D01*
X163932600Y-91056830D01*
X163932600Y-90943170D01*
X163910426Y-90831695D01*
X163894469Y-90793170D01*
X171423000Y-90793170D01*
X171423000Y-90906830D01*
X171445174Y-91018305D01*
X171488669Y-91123312D01*
X171551815Y-91217816D01*
X171632184Y-91298185D01*
X171726688Y-91361331D01*
X171831695Y-91404826D01*
X171943170Y-91427000D01*
X172056830Y-91427000D01*
X172168305Y-91404826D01*
X172273312Y-91361331D01*
X172367816Y-91298185D01*
X172448185Y-91217816D01*
X172511331Y-91123312D01*
X172554826Y-91018305D01*
X172577000Y-90906830D01*
X172577000Y-90793170D01*
X172554826Y-90681695D01*
X172511331Y-90576688D01*
X172459618Y-90499295D01*
X172510712Y-90478131D01*
X172605216Y-90414985D01*
X172685585Y-90334616D01*
X172748731Y-90240112D01*
X172792226Y-90135105D01*
X172814400Y-90023630D01*
X172814400Y-89909970D01*
X172804296Y-89859170D01*
X174937000Y-89859170D01*
X174937000Y-89972830D01*
X174959174Y-90084305D01*
X175002669Y-90189312D01*
X175065815Y-90283816D01*
X175146184Y-90364185D01*
X175240688Y-90427331D01*
X175345695Y-90470826D01*
X175457170Y-90493000D01*
X175570830Y-90493000D01*
X175682305Y-90470826D01*
X175779250Y-90430670D01*
X177286500Y-90430670D01*
X177286500Y-90544330D01*
X177308674Y-90655805D01*
X177352169Y-90760812D01*
X177415315Y-90855316D01*
X177495684Y-90935685D01*
X177590188Y-90998831D01*
X177695195Y-91042326D01*
X177806670Y-91064500D01*
X177920330Y-91064500D01*
X178031805Y-91042326D01*
X178136812Y-90998831D01*
X178231316Y-90935685D01*
X178311685Y-90855316D01*
X178374831Y-90760812D01*
X178418326Y-90655805D01*
X178440500Y-90544330D01*
X178440500Y-90430670D01*
X178431719Y-90386522D01*
X185130500Y-90386522D01*
X185130500Y-90513478D01*
X185155268Y-90637994D01*
X185203852Y-90755285D01*
X185274385Y-90860845D01*
X185364155Y-90950615D01*
X185469715Y-91021148D01*
X185587006Y-91069732D01*
X185711522Y-91094500D01*
X185838478Y-91094500D01*
X185962994Y-91069732D01*
X186080285Y-91021148D01*
X186185845Y-90950615D01*
X186275615Y-90860845D01*
X186346148Y-90755285D01*
X186394732Y-90637994D01*
X186419500Y-90513478D01*
X186419500Y-90386522D01*
X186394732Y-90262006D01*
X186346148Y-90144715D01*
X186275615Y-90039155D01*
X186185845Y-89949385D01*
X186080285Y-89878852D01*
X185962994Y-89830268D01*
X185838478Y-89805500D01*
X185711522Y-89805500D01*
X185587006Y-89830268D01*
X185469715Y-89878852D01*
X185364155Y-89949385D01*
X185274385Y-90039155D01*
X185203852Y-90144715D01*
X185155268Y-90262006D01*
X185130500Y-90386522D01*
X178431719Y-90386522D01*
X178418326Y-90319195D01*
X178374831Y-90214188D01*
X178311685Y-90119684D01*
X178231316Y-90039315D01*
X178136812Y-89976169D01*
X178031805Y-89932674D01*
X177920330Y-89910500D01*
X177806670Y-89910500D01*
X177695195Y-89932674D01*
X177590188Y-89976169D01*
X177495684Y-90039315D01*
X177415315Y-90119684D01*
X177352169Y-90214188D01*
X177308674Y-90319195D01*
X177286500Y-90430670D01*
X175779250Y-90430670D01*
X175787312Y-90427331D01*
X175881816Y-90364185D01*
X175962185Y-90283816D01*
X176025331Y-90189312D01*
X176068826Y-90084305D01*
X176091000Y-89972830D01*
X176091000Y-89859170D01*
X176068826Y-89747695D01*
X176025331Y-89642688D01*
X175962185Y-89548184D01*
X175881816Y-89467815D01*
X175787312Y-89404669D01*
X175682305Y-89361174D01*
X175570830Y-89339000D01*
X175457170Y-89339000D01*
X175345695Y-89361174D01*
X175240688Y-89404669D01*
X175146184Y-89467815D01*
X175065815Y-89548184D01*
X175002669Y-89642688D01*
X174959174Y-89747695D01*
X174937000Y-89859170D01*
X172804296Y-89859170D01*
X172792226Y-89798495D01*
X172748731Y-89693488D01*
X172685585Y-89598984D01*
X172605216Y-89518615D01*
X172538323Y-89473918D01*
X172634305Y-89454826D01*
X172739312Y-89411331D01*
X172833816Y-89348185D01*
X172914185Y-89267816D01*
X172977331Y-89173312D01*
X173008869Y-89097170D01*
X176842000Y-89097170D01*
X176842000Y-89210830D01*
X176864174Y-89322305D01*
X176907669Y-89427312D01*
X176970815Y-89521816D01*
X177051184Y-89602185D01*
X177145688Y-89665331D01*
X177250695Y-89708826D01*
X177362170Y-89731000D01*
X177475830Y-89731000D01*
X177587305Y-89708826D01*
X177692312Y-89665331D01*
X177786816Y-89602185D01*
X177867185Y-89521816D01*
X177930331Y-89427312D01*
X177973826Y-89322305D01*
X177996000Y-89210830D01*
X177996000Y-89097170D01*
X177983136Y-89032500D01*
X177983830Y-89032500D01*
X178095305Y-89010326D01*
X178200312Y-88966831D01*
X178294816Y-88903685D01*
X178375185Y-88823316D01*
X178438331Y-88728812D01*
X178481826Y-88623805D01*
X178504000Y-88512330D01*
X178504000Y-88398670D01*
X178481826Y-88287195D01*
X178438331Y-88182188D01*
X178375185Y-88087684D01*
X178294816Y-88007315D01*
X178200312Y-87944169D01*
X178095305Y-87900674D01*
X177983830Y-87878500D01*
X177870170Y-87878500D01*
X177758695Y-87900674D01*
X177653688Y-87944169D01*
X177559184Y-88007315D01*
X177478815Y-88087684D01*
X177415669Y-88182188D01*
X177372174Y-88287195D01*
X177350000Y-88398670D01*
X177350000Y-88512330D01*
X177362864Y-88577000D01*
X177362170Y-88577000D01*
X177250695Y-88599174D01*
X177145688Y-88642669D01*
X177051184Y-88705815D01*
X176970815Y-88786184D01*
X176907669Y-88880688D01*
X176864174Y-88985695D01*
X176842000Y-89097170D01*
X173008869Y-89097170D01*
X173020826Y-89068305D01*
X173043000Y-88956830D01*
X173043000Y-88843170D01*
X173020826Y-88731695D01*
X172977331Y-88626688D01*
X172914185Y-88532184D01*
X172833816Y-88451815D01*
X172739312Y-88388669D01*
X172634305Y-88345174D01*
X172606635Y-88339670D01*
X173413000Y-88339670D01*
X173413000Y-88453330D01*
X173435174Y-88564805D01*
X173478669Y-88669812D01*
X173541815Y-88764316D01*
X173622184Y-88844685D01*
X173716688Y-88907831D01*
X173821695Y-88951326D01*
X173933170Y-88973500D01*
X174046830Y-88973500D01*
X174158305Y-88951326D01*
X174263312Y-88907831D01*
X174357816Y-88844685D01*
X174438185Y-88764316D01*
X174501331Y-88669812D01*
X174544826Y-88564805D01*
X174567000Y-88453330D01*
X174567000Y-88339670D01*
X174544826Y-88228195D01*
X174501331Y-88123188D01*
X174438185Y-88028684D01*
X174357816Y-87948315D01*
X174263312Y-87885169D01*
X174158305Y-87841674D01*
X174046830Y-87819500D01*
X173933170Y-87819500D01*
X173821695Y-87841674D01*
X173716688Y-87885169D01*
X173622184Y-87948315D01*
X173541815Y-88028684D01*
X173478669Y-88123188D01*
X173435174Y-88228195D01*
X173413000Y-88339670D01*
X172606635Y-88339670D01*
X172522830Y-88323000D01*
X172409170Y-88323000D01*
X172297695Y-88345174D01*
X172192688Y-88388669D01*
X172098184Y-88451815D01*
X172017815Y-88532184D01*
X171954669Y-88626688D01*
X171911174Y-88731695D01*
X171889000Y-88843170D01*
X171889000Y-88956830D01*
X171911174Y-89068305D01*
X171954669Y-89173312D01*
X172017815Y-89267816D01*
X172098184Y-89348185D01*
X172165077Y-89392882D01*
X172069095Y-89411974D01*
X171964088Y-89455469D01*
X171869584Y-89518615D01*
X171789215Y-89598984D01*
X171726069Y-89693488D01*
X171682574Y-89798495D01*
X171660400Y-89909970D01*
X171660400Y-90023630D01*
X171682574Y-90135105D01*
X171726069Y-90240112D01*
X171777782Y-90317505D01*
X171726688Y-90338669D01*
X171632184Y-90401815D01*
X171551815Y-90482184D01*
X171488669Y-90576688D01*
X171445174Y-90681695D01*
X171423000Y-90793170D01*
X163894469Y-90793170D01*
X163866931Y-90726688D01*
X163803785Y-90632184D01*
X163723416Y-90551815D01*
X163628912Y-90488669D01*
X163523905Y-90445174D01*
X163412430Y-90423000D01*
X163298770Y-90423000D01*
X163187295Y-90445174D01*
X163082288Y-90488669D01*
X162987784Y-90551815D01*
X162907415Y-90632184D01*
X162844269Y-90726688D01*
X162800774Y-90831695D01*
X162778600Y-90943170D01*
X162778600Y-91054000D01*
X162693170Y-91054000D01*
X162581695Y-91076174D01*
X162476688Y-91119669D01*
X162382184Y-91182815D01*
X162301815Y-91263184D01*
X162238669Y-91357688D01*
X162195174Y-91462695D01*
X162173000Y-91574170D01*
X156014500Y-91574170D01*
X156014500Y-91396387D01*
X155974072Y-91193143D01*
X155894770Y-91001691D01*
X155779642Y-90829389D01*
X155633111Y-90682858D01*
X155460809Y-90567730D01*
X155269357Y-90488428D01*
X155066113Y-90448000D01*
X154858887Y-90448000D01*
X154655643Y-90488428D01*
X154464191Y-90567730D01*
X154291889Y-90682858D01*
X154145358Y-90829389D01*
X154030230Y-91001691D01*
X153950928Y-91193143D01*
X153910500Y-91396387D01*
X150854221Y-91396387D01*
X150701631Y-89749683D01*
X150701631Y-89732170D01*
X165285000Y-89732170D01*
X165285000Y-89845830D01*
X165307174Y-89957305D01*
X165350669Y-90062312D01*
X165413815Y-90156816D01*
X165494184Y-90237185D01*
X165588688Y-90300331D01*
X165693695Y-90343826D01*
X165805170Y-90366000D01*
X165918830Y-90366000D01*
X166030305Y-90343826D01*
X166135312Y-90300331D01*
X166229816Y-90237185D01*
X166310185Y-90156816D01*
X166373331Y-90062312D01*
X166416826Y-89957305D01*
X166439000Y-89845830D01*
X166439000Y-89732170D01*
X166416826Y-89620695D01*
X166373331Y-89515688D01*
X166310185Y-89421184D01*
X166229816Y-89340815D01*
X166135312Y-89277669D01*
X166030305Y-89234174D01*
X165918830Y-89212000D01*
X165805170Y-89212000D01*
X165693695Y-89234174D01*
X165588688Y-89277669D01*
X165494184Y-89340815D01*
X165413815Y-89421184D01*
X165350669Y-89515688D01*
X165307174Y-89620695D01*
X165285000Y-89732170D01*
X150701631Y-89732170D01*
X150701631Y-88589170D01*
X162745000Y-88589170D01*
X162745000Y-88702830D01*
X162767174Y-88814305D01*
X162810669Y-88919312D01*
X162873815Y-89013816D01*
X162954184Y-89094185D01*
X163048688Y-89157331D01*
X163153695Y-89200826D01*
X163265170Y-89223000D01*
X163378830Y-89223000D01*
X163490305Y-89200826D01*
X163570335Y-89167677D01*
X163572669Y-89173312D01*
X163635815Y-89267816D01*
X163716184Y-89348185D01*
X163810688Y-89411331D01*
X163915695Y-89454826D01*
X164027170Y-89477000D01*
X164140830Y-89477000D01*
X164252305Y-89454826D01*
X164357312Y-89411331D01*
X164451816Y-89348185D01*
X164532185Y-89267816D01*
X164595331Y-89173312D01*
X164626869Y-89097170D01*
X166301000Y-89097170D01*
X166301000Y-89210830D01*
X166323174Y-89322305D01*
X166366669Y-89427312D01*
X166429815Y-89521816D01*
X166510184Y-89602185D01*
X166604688Y-89665331D01*
X166709695Y-89708826D01*
X166821170Y-89731000D01*
X166934830Y-89731000D01*
X167046305Y-89708826D01*
X167151312Y-89665331D01*
X167245816Y-89602185D01*
X167326185Y-89521816D01*
X167389331Y-89427312D01*
X167432826Y-89322305D01*
X167455000Y-89210830D01*
X167455000Y-89097170D01*
X167432826Y-88985695D01*
X167389331Y-88880688D01*
X167326185Y-88786184D01*
X167245816Y-88705815D01*
X167151312Y-88642669D01*
X167046305Y-88599174D01*
X166934830Y-88577000D01*
X166821170Y-88577000D01*
X166709695Y-88599174D01*
X166604688Y-88642669D01*
X166510184Y-88705815D01*
X166429815Y-88786184D01*
X166366669Y-88880688D01*
X166323174Y-88985695D01*
X166301000Y-89097170D01*
X164626869Y-89097170D01*
X164638826Y-89068305D01*
X164661000Y-88956830D01*
X164661000Y-88843170D01*
X164638826Y-88731695D01*
X164595331Y-88626688D01*
X164532185Y-88532184D01*
X164451816Y-88451815D01*
X164357312Y-88388669D01*
X164252305Y-88345174D01*
X164140830Y-88323000D01*
X164027170Y-88323000D01*
X163915695Y-88345174D01*
X163835665Y-88378323D01*
X163833331Y-88372688D01*
X163770185Y-88278184D01*
X163689816Y-88197815D01*
X163595312Y-88134669D01*
X163490305Y-88091174D01*
X163378830Y-88069000D01*
X163265170Y-88069000D01*
X163153695Y-88091174D01*
X163048688Y-88134669D01*
X162954184Y-88197815D01*
X162873815Y-88278184D01*
X162810669Y-88372688D01*
X162767174Y-88477695D01*
X162745000Y-88589170D01*
X150701631Y-88589170D01*
X150701631Y-88050317D01*
X150858429Y-86358199D01*
X150994072Y-85632573D01*
X150998913Y-85681724D01*
X151051920Y-85856464D01*
X151137999Y-86017505D01*
X151253841Y-86158659D01*
X151394995Y-86274501D01*
X151556036Y-86360580D01*
X151730776Y-86413587D01*
X151866962Y-86427000D01*
X152658038Y-86427000D01*
X152794224Y-86413587D01*
X152850924Y-86396387D01*
X153910500Y-86396387D01*
X153910500Y-86603613D01*
X153950928Y-86806857D01*
X154030230Y-86998309D01*
X154145358Y-87170611D01*
X154291889Y-87317142D01*
X154464191Y-87432270D01*
X154655643Y-87511572D01*
X154858887Y-87552000D01*
X155066113Y-87552000D01*
X155269357Y-87511572D01*
X155460809Y-87432270D01*
X155633111Y-87317142D01*
X155779642Y-87170611D01*
X155894770Y-86998309D01*
X155974072Y-86806857D01*
X156014500Y-86603613D01*
X156014500Y-86396387D01*
X155974072Y-86193143D01*
X155914437Y-86049170D01*
X159697000Y-86049170D01*
X159697000Y-86162830D01*
X159719174Y-86274305D01*
X159762669Y-86379312D01*
X159825815Y-86473816D01*
X159906184Y-86554185D01*
X160000688Y-86617331D01*
X160105695Y-86660826D01*
X160217170Y-86683000D01*
X160330830Y-86683000D01*
X160442305Y-86660826D01*
X160459000Y-86653911D01*
X160459000Y-86670830D01*
X160481174Y-86782305D01*
X160524669Y-86887312D01*
X160587815Y-86981816D01*
X160668184Y-87062185D01*
X160762688Y-87125331D01*
X160867695Y-87168826D01*
X160979170Y-87191000D01*
X161092830Y-87191000D01*
X161204305Y-87168826D01*
X161309312Y-87125331D01*
X161403816Y-87062185D01*
X161484185Y-86981816D01*
X161547331Y-86887312D01*
X161590826Y-86782305D01*
X161613000Y-86670830D01*
X161613000Y-86557170D01*
X161590826Y-86445695D01*
X161547331Y-86340688D01*
X161484185Y-86246184D01*
X161403816Y-86165815D01*
X161309312Y-86102669D01*
X161204305Y-86059174D01*
X161092830Y-86037000D01*
X160979170Y-86037000D01*
X160867695Y-86059174D01*
X160851000Y-86066089D01*
X160851000Y-86049170D01*
X160828826Y-85937695D01*
X160822396Y-85922170D01*
X171254000Y-85922170D01*
X171254000Y-86035830D01*
X171276174Y-86147305D01*
X171319669Y-86252312D01*
X171382815Y-86346816D01*
X171463184Y-86427185D01*
X171557688Y-86490331D01*
X171662695Y-86533826D01*
X171762687Y-86553716D01*
X171762000Y-86557170D01*
X171762000Y-86670830D01*
X171784174Y-86782305D01*
X171827669Y-86887312D01*
X171890815Y-86981816D01*
X171971184Y-87062185D01*
X172065688Y-87125331D01*
X172170695Y-87168826D01*
X172282170Y-87191000D01*
X172395830Y-87191000D01*
X172507305Y-87168826D01*
X172612312Y-87125331D01*
X172706816Y-87062185D01*
X172787185Y-86981816D01*
X172850331Y-86887312D01*
X172893826Y-86782305D01*
X172916000Y-86670830D01*
X172916000Y-86557170D01*
X172893826Y-86445695D01*
X172850331Y-86340688D01*
X172787185Y-86246184D01*
X172706816Y-86165815D01*
X172612312Y-86102669D01*
X172507305Y-86059174D01*
X172407313Y-86039284D01*
X172408000Y-86035830D01*
X172408000Y-85922170D01*
X172386737Y-85815272D01*
X172446688Y-85855331D01*
X172551695Y-85898826D01*
X172663170Y-85921000D01*
X172776830Y-85921000D01*
X172888305Y-85898826D01*
X172985250Y-85858670D01*
X182176000Y-85858670D01*
X182176000Y-85972330D01*
X182198174Y-86083805D01*
X182241669Y-86188812D01*
X182304815Y-86283316D01*
X182385184Y-86363685D01*
X182479688Y-86426831D01*
X182584695Y-86470326D01*
X182696170Y-86492500D01*
X182809830Y-86492500D01*
X182921305Y-86470326D01*
X183026312Y-86426831D01*
X183120816Y-86363685D01*
X183201185Y-86283316D01*
X183264331Y-86188812D01*
X183307826Y-86083805D01*
X183330000Y-85972330D01*
X183330000Y-85858670D01*
X183307826Y-85747195D01*
X183264331Y-85642188D01*
X183201185Y-85547684D01*
X183120816Y-85467315D01*
X183026312Y-85404169D01*
X182921305Y-85360674D01*
X182809830Y-85338500D01*
X182696170Y-85338500D01*
X182584695Y-85360674D01*
X182479688Y-85404169D01*
X182385184Y-85467315D01*
X182304815Y-85547684D01*
X182241669Y-85642188D01*
X182198174Y-85747195D01*
X182176000Y-85858670D01*
X172985250Y-85858670D01*
X172993312Y-85855331D01*
X173087816Y-85792185D01*
X173168185Y-85711816D01*
X173231331Y-85617312D01*
X173274826Y-85512305D01*
X173297000Y-85400830D01*
X173297000Y-85287170D01*
X173274826Y-85175695D01*
X173231331Y-85070688D01*
X173168185Y-84976184D01*
X173087816Y-84895815D01*
X172993312Y-84832669D01*
X172888305Y-84789174D01*
X172776830Y-84767000D01*
X172663170Y-84767000D01*
X172551695Y-84789174D01*
X172446688Y-84832669D01*
X172352184Y-84895815D01*
X172271815Y-84976184D01*
X172208669Y-85070688D01*
X172165174Y-85175695D01*
X172143000Y-85287170D01*
X172143000Y-85400830D01*
X172164263Y-85507728D01*
X172104312Y-85467669D01*
X171999305Y-85424174D01*
X171887830Y-85402000D01*
X171774170Y-85402000D01*
X171662695Y-85424174D01*
X171557688Y-85467669D01*
X171463184Y-85530815D01*
X171382815Y-85611184D01*
X171319669Y-85705688D01*
X171276174Y-85810695D01*
X171254000Y-85922170D01*
X160822396Y-85922170D01*
X160785331Y-85832688D01*
X160722185Y-85738184D01*
X160641816Y-85657815D01*
X160547312Y-85594669D01*
X160442305Y-85551174D01*
X160330830Y-85529000D01*
X160217170Y-85529000D01*
X160105695Y-85551174D01*
X160000688Y-85594669D01*
X159906184Y-85657815D01*
X159825815Y-85738184D01*
X159762669Y-85832688D01*
X159719174Y-85937695D01*
X159697000Y-86049170D01*
X155914437Y-86049170D01*
X155894770Y-86001691D01*
X155779642Y-85829389D01*
X155633111Y-85682858D01*
X155460809Y-85567730D01*
X155269357Y-85488428D01*
X155066113Y-85448000D01*
X154858887Y-85448000D01*
X154655643Y-85488428D01*
X154464191Y-85567730D01*
X154291889Y-85682858D01*
X154145358Y-85829389D01*
X154030230Y-86001691D01*
X153950928Y-86193143D01*
X153910500Y-86396387D01*
X152850924Y-86396387D01*
X152968964Y-86360580D01*
X153130005Y-86274501D01*
X153271159Y-86158659D01*
X153387001Y-86017505D01*
X153473080Y-85856464D01*
X153526087Y-85681724D01*
X153543985Y-85500000D01*
X153526087Y-85318276D01*
X153473080Y-85143536D01*
X153387001Y-84982495D01*
X153271159Y-84841341D01*
X153130005Y-84725499D01*
X152968964Y-84639420D01*
X152794224Y-84586413D01*
X152658038Y-84573000D01*
X151866962Y-84573000D01*
X151730776Y-84586413D01*
X151556036Y-84639420D01*
X151394995Y-84725499D01*
X151253841Y-84841341D01*
X151137999Y-84982495D01*
X151103543Y-85046957D01*
X151170687Y-84687768D01*
X151614208Y-83128948D01*
X152487400Y-83128948D01*
X152487400Y-83291852D01*
X152519182Y-83451627D01*
X152581523Y-83602131D01*
X152672028Y-83737581D01*
X152787219Y-83852772D01*
X152922669Y-83943277D01*
X153073173Y-84005618D01*
X153232948Y-84037400D01*
X153395852Y-84037400D01*
X153555627Y-84005618D01*
X153706131Y-83943277D01*
X153795560Y-83883522D01*
X155768700Y-83883522D01*
X155768700Y-84010478D01*
X155793468Y-84134994D01*
X155842052Y-84252285D01*
X155912585Y-84357845D01*
X156002355Y-84447615D01*
X156107915Y-84518148D01*
X156225206Y-84566732D01*
X156349722Y-84591500D01*
X156476678Y-84591500D01*
X156601194Y-84566732D01*
X156718485Y-84518148D01*
X156824045Y-84447615D01*
X156913815Y-84357845D01*
X156971729Y-84271170D01*
X164015000Y-84271170D01*
X164015000Y-84384830D01*
X164037174Y-84496305D01*
X164080669Y-84601312D01*
X164143815Y-84695816D01*
X164224184Y-84776185D01*
X164318688Y-84839331D01*
X164423695Y-84882826D01*
X164535170Y-84905000D01*
X164648830Y-84905000D01*
X164760305Y-84882826D01*
X164865312Y-84839331D01*
X164959816Y-84776185D01*
X165040185Y-84695816D01*
X165103331Y-84601312D01*
X165146826Y-84496305D01*
X165169000Y-84384830D01*
X165169000Y-84271170D01*
X170619000Y-84271170D01*
X170619000Y-84384830D01*
X170641174Y-84496305D01*
X170684669Y-84601312D01*
X170747815Y-84695816D01*
X170828184Y-84776185D01*
X170922688Y-84839331D01*
X171027695Y-84882826D01*
X171139170Y-84905000D01*
X171252830Y-84905000D01*
X171364305Y-84882826D01*
X171469312Y-84839331D01*
X171563816Y-84776185D01*
X171644185Y-84695816D01*
X171673348Y-84652170D01*
X182176000Y-84652170D01*
X182176000Y-84765830D01*
X182198174Y-84877305D01*
X182241669Y-84982312D01*
X182304815Y-85076816D01*
X182385184Y-85157185D01*
X182479688Y-85220331D01*
X182584695Y-85263826D01*
X182696170Y-85286000D01*
X182809830Y-85286000D01*
X182921305Y-85263826D01*
X183026312Y-85220331D01*
X183120816Y-85157185D01*
X183201185Y-85076816D01*
X183264331Y-84982312D01*
X183307826Y-84877305D01*
X183330000Y-84765830D01*
X183330000Y-84652170D01*
X183307826Y-84540695D01*
X183264331Y-84435688D01*
X183201185Y-84341184D01*
X183120816Y-84260815D01*
X183026312Y-84197669D01*
X182921305Y-84154174D01*
X182809830Y-84132000D01*
X182696170Y-84132000D01*
X182584695Y-84154174D01*
X182479688Y-84197669D01*
X182385184Y-84260815D01*
X182304815Y-84341184D01*
X182241669Y-84435688D01*
X182198174Y-84540695D01*
X182176000Y-84652170D01*
X171673348Y-84652170D01*
X171707331Y-84601312D01*
X171750826Y-84496305D01*
X171773000Y-84384830D01*
X171773000Y-84271170D01*
X171750826Y-84159695D01*
X171707331Y-84054688D01*
X171644185Y-83960184D01*
X171563816Y-83879815D01*
X171469312Y-83816669D01*
X171364305Y-83773174D01*
X171252830Y-83751000D01*
X171139170Y-83751000D01*
X171027695Y-83773174D01*
X170922688Y-83816669D01*
X170828184Y-83879815D01*
X170747815Y-83960184D01*
X170684669Y-84054688D01*
X170641174Y-84159695D01*
X170619000Y-84271170D01*
X165169000Y-84271170D01*
X165146826Y-84159695D01*
X165103331Y-84054688D01*
X165040185Y-83960184D01*
X164959816Y-83879815D01*
X164865312Y-83816669D01*
X164760305Y-83773174D01*
X164648830Y-83751000D01*
X164535170Y-83751000D01*
X164423695Y-83773174D01*
X164318688Y-83816669D01*
X164224184Y-83879815D01*
X164143815Y-83960184D01*
X164080669Y-84054688D01*
X164037174Y-84159695D01*
X164015000Y-84271170D01*
X156971729Y-84271170D01*
X156984348Y-84252285D01*
X157032932Y-84134994D01*
X157057700Y-84010478D01*
X157057700Y-83883522D01*
X157032932Y-83759006D01*
X156984348Y-83641715D01*
X156913815Y-83536155D01*
X156886830Y-83509170D01*
X165031000Y-83509170D01*
X165031000Y-83622830D01*
X165053174Y-83734305D01*
X165096669Y-83839312D01*
X165159815Y-83933816D01*
X165240184Y-84014185D01*
X165334688Y-84077331D01*
X165439695Y-84120826D01*
X165551170Y-84143000D01*
X165664830Y-84143000D01*
X165776305Y-84120826D01*
X165881312Y-84077331D01*
X165975816Y-84014185D01*
X166056185Y-83933816D01*
X166119331Y-83839312D01*
X166162826Y-83734305D01*
X166185000Y-83622830D01*
X166185000Y-83509170D01*
X166162826Y-83397695D01*
X166119331Y-83292688D01*
X166056185Y-83198184D01*
X165975816Y-83117815D01*
X165881312Y-83054669D01*
X165776305Y-83011174D01*
X165664830Y-82989000D01*
X165551170Y-82989000D01*
X165439695Y-83011174D01*
X165334688Y-83054669D01*
X165240184Y-83117815D01*
X165159815Y-83198184D01*
X165096669Y-83292688D01*
X165053174Y-83397695D01*
X165031000Y-83509170D01*
X156886830Y-83509170D01*
X156824045Y-83446385D01*
X156718485Y-83375852D01*
X156601194Y-83327268D01*
X156476678Y-83302500D01*
X156349722Y-83302500D01*
X156225206Y-83327268D01*
X156107915Y-83375852D01*
X156002355Y-83446385D01*
X155912585Y-83536155D01*
X155842052Y-83641715D01*
X155793468Y-83759006D01*
X155768700Y-83883522D01*
X153795560Y-83883522D01*
X153841581Y-83852772D01*
X153956772Y-83737581D01*
X154047277Y-83602131D01*
X154109618Y-83451627D01*
X154141400Y-83291852D01*
X154141400Y-83128948D01*
X154109618Y-82969173D01*
X154047277Y-82818669D01*
X153956772Y-82683219D01*
X153841581Y-82568028D01*
X153706131Y-82477523D01*
X153555627Y-82415182D01*
X153395852Y-82383400D01*
X153232948Y-82383400D01*
X153073173Y-82415182D01*
X152922669Y-82477523D01*
X152787219Y-82568028D01*
X152672028Y-82683219D01*
X152581523Y-82818669D01*
X152519182Y-82969173D01*
X152487400Y-83128948D01*
X151614208Y-83128948D01*
X151635740Y-83053273D01*
X151951125Y-82239170D01*
X175953000Y-82239170D01*
X175953000Y-82352830D01*
X175975174Y-82464305D01*
X176018669Y-82569312D01*
X176081815Y-82663816D01*
X176162184Y-82744185D01*
X176251703Y-82804000D01*
X176162184Y-82863815D01*
X176081815Y-82944184D01*
X176018669Y-83038688D01*
X175975174Y-83143695D01*
X175953000Y-83255170D01*
X175953000Y-83368830D01*
X175975174Y-83480305D01*
X176018669Y-83585312D01*
X176081815Y-83679816D01*
X176162184Y-83760185D01*
X176256688Y-83823331D01*
X176361695Y-83866826D01*
X176473170Y-83889000D01*
X176586830Y-83889000D01*
X176698305Y-83866826D01*
X176803312Y-83823331D01*
X176897816Y-83760185D01*
X176978185Y-83679816D01*
X177041331Y-83585312D01*
X177084826Y-83480305D01*
X177107000Y-83368830D01*
X177107000Y-83255170D01*
X177084826Y-83143695D01*
X177041331Y-83038688D01*
X176978185Y-82944184D01*
X176897816Y-82863815D01*
X176808297Y-82804000D01*
X176897816Y-82744185D01*
X176978185Y-82663816D01*
X177041331Y-82569312D01*
X177084826Y-82464305D01*
X177107000Y-82352830D01*
X177107000Y-82239170D01*
X177084826Y-82127695D01*
X177041331Y-82022688D01*
X176978185Y-81928184D01*
X176897816Y-81847815D01*
X176803312Y-81784669D01*
X176698305Y-81741174D01*
X176586830Y-81719000D01*
X176473170Y-81719000D01*
X176361695Y-81741174D01*
X176256688Y-81784669D01*
X176162184Y-81847815D01*
X176081815Y-81928184D01*
X176018669Y-82022688D01*
X175975174Y-82127695D01*
X175953000Y-82239170D01*
X151951125Y-82239170D01*
X152249622Y-81468661D01*
X152340242Y-81286670D01*
X173794000Y-81286670D01*
X173794000Y-81400330D01*
X173816174Y-81511805D01*
X173859669Y-81616812D01*
X173922815Y-81711316D01*
X174003184Y-81791685D01*
X174097688Y-81854831D01*
X174202695Y-81898326D01*
X174314170Y-81920500D01*
X174427830Y-81920500D01*
X174539305Y-81898326D01*
X174644312Y-81854831D01*
X174738816Y-81791685D01*
X174819185Y-81711316D01*
X174882331Y-81616812D01*
X174925826Y-81511805D01*
X174948000Y-81400330D01*
X174948000Y-81286670D01*
X174925826Y-81175195D01*
X174882331Y-81070188D01*
X174819185Y-80975684D01*
X174738816Y-80895315D01*
X174644312Y-80832169D01*
X174539305Y-80788674D01*
X174427830Y-80766500D01*
X174314170Y-80766500D01*
X174202695Y-80788674D01*
X174097688Y-80832169D01*
X174003184Y-80895315D01*
X173922815Y-80975684D01*
X173859669Y-81070188D01*
X173816174Y-81175195D01*
X173794000Y-81286670D01*
X152340242Y-81286670D01*
X153007095Y-79947451D01*
X153514681Y-79127670D01*
X173540000Y-79127670D01*
X173540000Y-79241330D01*
X173562174Y-79352805D01*
X173605669Y-79457812D01*
X173668815Y-79552316D01*
X173749184Y-79632685D01*
X173843688Y-79695831D01*
X173948695Y-79739326D01*
X174060170Y-79761500D01*
X174173830Y-79761500D01*
X174285305Y-79739326D01*
X174390312Y-79695831D01*
X174484816Y-79632685D01*
X174565185Y-79552316D01*
X174628331Y-79457812D01*
X174671826Y-79352805D01*
X174678715Y-79318170D01*
X175826000Y-79318170D01*
X175826000Y-79431830D01*
X175848174Y-79543305D01*
X175891669Y-79648312D01*
X175954815Y-79742816D01*
X176035184Y-79823185D01*
X176108936Y-79872465D01*
X176098684Y-79879315D01*
X176018315Y-79959684D01*
X175955169Y-80054188D01*
X175911674Y-80159195D01*
X175889500Y-80270670D01*
X175889500Y-80384330D01*
X175911674Y-80495805D01*
X175955169Y-80600812D01*
X176018315Y-80695316D01*
X176098684Y-80775685D01*
X176193188Y-80838831D01*
X176298195Y-80882326D01*
X176409670Y-80904500D01*
X176523330Y-80904500D01*
X176634805Y-80882326D01*
X176739812Y-80838831D01*
X176834316Y-80775685D01*
X176914685Y-80695316D01*
X176977831Y-80600812D01*
X176983067Y-80588170D01*
X177985000Y-80588170D01*
X177985000Y-80701830D01*
X178007174Y-80813305D01*
X178050669Y-80918312D01*
X178113815Y-81012816D01*
X178194184Y-81093185D01*
X178288688Y-81156331D01*
X178393695Y-81199826D01*
X178505170Y-81222000D01*
X178618830Y-81222000D01*
X178730305Y-81199826D01*
X178835312Y-81156331D01*
X178929816Y-81093185D01*
X179010185Y-81012816D01*
X179073331Y-80918312D01*
X179116826Y-80813305D01*
X179139000Y-80701830D01*
X179139000Y-80588170D01*
X179116826Y-80476695D01*
X179073331Y-80371688D01*
X179010185Y-80277184D01*
X178929816Y-80196815D01*
X178835312Y-80133669D01*
X178730305Y-80090174D01*
X178618830Y-80068000D01*
X178505170Y-80068000D01*
X178393695Y-80090174D01*
X178288688Y-80133669D01*
X178194184Y-80196815D01*
X178113815Y-80277184D01*
X178050669Y-80371688D01*
X178007174Y-80476695D01*
X177985000Y-80588170D01*
X176983067Y-80588170D01*
X177021326Y-80495805D01*
X177043500Y-80384330D01*
X177043500Y-80270670D01*
X177021326Y-80159195D01*
X176977831Y-80054188D01*
X176914685Y-79959684D01*
X176834316Y-79879315D01*
X176760564Y-79830035D01*
X176770816Y-79823185D01*
X176851185Y-79742816D01*
X176914331Y-79648312D01*
X176957826Y-79543305D01*
X176980000Y-79431830D01*
X176980000Y-79318170D01*
X176957826Y-79206695D01*
X176914331Y-79101688D01*
X176851185Y-79007184D01*
X176770816Y-78926815D01*
X176676312Y-78863669D01*
X176571305Y-78820174D01*
X176508243Y-78807630D01*
X177609080Y-78807630D01*
X177609080Y-78921290D01*
X177631254Y-79032765D01*
X177674749Y-79137772D01*
X177737895Y-79232276D01*
X177818264Y-79312645D01*
X177912768Y-79375791D01*
X178017775Y-79419286D01*
X178129250Y-79441460D01*
X178242910Y-79441460D01*
X178354385Y-79419286D01*
X178459392Y-79375791D01*
X178553896Y-79312645D01*
X178634265Y-79232276D01*
X178697411Y-79137772D01*
X178740906Y-79032765D01*
X178763080Y-78921290D01*
X178763080Y-78807630D01*
X178740906Y-78696155D01*
X178697411Y-78591148D01*
X178634265Y-78496644D01*
X178553896Y-78416275D01*
X178459392Y-78353129D01*
X178354385Y-78309634D01*
X178242910Y-78287460D01*
X178129250Y-78287460D01*
X178017775Y-78309634D01*
X177912768Y-78353129D01*
X177818264Y-78416275D01*
X177737895Y-78496644D01*
X177674749Y-78591148D01*
X177631254Y-78696155D01*
X177609080Y-78807630D01*
X176508243Y-78807630D01*
X176459830Y-78798000D01*
X176346170Y-78798000D01*
X176234695Y-78820174D01*
X176129688Y-78863669D01*
X176035184Y-78926815D01*
X175954815Y-79007184D01*
X175891669Y-79101688D01*
X175848174Y-79206695D01*
X175826000Y-79318170D01*
X174678715Y-79318170D01*
X174694000Y-79241330D01*
X174694000Y-79127670D01*
X174671826Y-79016195D01*
X174628331Y-78911188D01*
X174565185Y-78816684D01*
X174484816Y-78736315D01*
X174390312Y-78673169D01*
X174285305Y-78629674D01*
X174173830Y-78607500D01*
X174060170Y-78607500D01*
X173948695Y-78629674D01*
X173843688Y-78673169D01*
X173749184Y-78736315D01*
X173668815Y-78816684D01*
X173605669Y-78911188D01*
X173562174Y-79016195D01*
X173540000Y-79127670D01*
X153514681Y-79127670D01*
X153901696Y-78502620D01*
X154289435Y-77989170D01*
X172973000Y-77989170D01*
X172973000Y-78102830D01*
X172995174Y-78214305D01*
X173038669Y-78319312D01*
X173101815Y-78413816D01*
X173182184Y-78494185D01*
X173276688Y-78557331D01*
X173381695Y-78600826D01*
X173493170Y-78623000D01*
X173606830Y-78623000D01*
X173718305Y-78600826D01*
X173823312Y-78557331D01*
X173917816Y-78494185D01*
X173998185Y-78413816D01*
X174061331Y-78319312D01*
X174104826Y-78214305D01*
X174127000Y-78102830D01*
X174127000Y-77989170D01*
X174104826Y-77877695D01*
X174061331Y-77772688D01*
X173998185Y-77678184D01*
X173917816Y-77597815D01*
X173823312Y-77534669D01*
X173718305Y-77491174D01*
X173606830Y-77469000D01*
X173493170Y-77469000D01*
X173381695Y-77491174D01*
X173276688Y-77534669D01*
X173182184Y-77597815D01*
X173101815Y-77678184D01*
X173038669Y-77772688D01*
X172995174Y-77877695D01*
X172973000Y-77989170D01*
X154289435Y-77989170D01*
X154820317Y-77286170D01*
X160713000Y-77286170D01*
X160713000Y-77399830D01*
X160735174Y-77511305D01*
X160778669Y-77616312D01*
X160841815Y-77710816D01*
X160922184Y-77791185D01*
X161016688Y-77854331D01*
X161121695Y-77897826D01*
X161233170Y-77920000D01*
X161346830Y-77920000D01*
X161458305Y-77897826D01*
X161563312Y-77854331D01*
X161657816Y-77791185D01*
X161738185Y-77710816D01*
X161801331Y-77616312D01*
X161844826Y-77511305D01*
X161867000Y-77399830D01*
X161867000Y-77286170D01*
X161844826Y-77174695D01*
X161801331Y-77069688D01*
X161738185Y-76975184D01*
X161657816Y-76894815D01*
X161563312Y-76831669D01*
X161458305Y-76788174D01*
X161346830Y-76766000D01*
X161233170Y-76766000D01*
X161121695Y-76788174D01*
X161016688Y-76831669D01*
X160922184Y-76894815D01*
X160841815Y-76975184D01*
X160778669Y-77069688D01*
X160735174Y-77174695D01*
X160713000Y-77286170D01*
X154820317Y-77286170D01*
X154925794Y-77146496D01*
X156070649Y-75890649D01*
X156079563Y-75882522D01*
X177714300Y-75882522D01*
X177714300Y-76009478D01*
X177739068Y-76133994D01*
X177787652Y-76251285D01*
X177858185Y-76356845D01*
X177947955Y-76446615D01*
X178053515Y-76517148D01*
X178170806Y-76565732D01*
X178295322Y-76590500D01*
X178422278Y-76590500D01*
X178546794Y-76565732D01*
X178664085Y-76517148D01*
X178769645Y-76446615D01*
X178859415Y-76356845D01*
X178929948Y-76251285D01*
X178978532Y-76133994D01*
X179003300Y-76009478D01*
X179003300Y-75882522D01*
X178978532Y-75758006D01*
X178929948Y-75640715D01*
X178859415Y-75535155D01*
X178769645Y-75445385D01*
X178664085Y-75374852D01*
X178546794Y-75326268D01*
X178422278Y-75301500D01*
X178295322Y-75301500D01*
X178170806Y-75326268D01*
X178053515Y-75374852D01*
X177947955Y-75445385D01*
X177858185Y-75535155D01*
X177787652Y-75640715D01*
X177739068Y-75758006D01*
X177714300Y-75882522D01*
X156079563Y-75882522D01*
X157249788Y-74815722D01*
X158156300Y-74815722D01*
X158156300Y-74942678D01*
X158181068Y-75067194D01*
X158229652Y-75184485D01*
X158300185Y-75290045D01*
X158389955Y-75379815D01*
X158495515Y-75450348D01*
X158612806Y-75498932D01*
X158737322Y-75523700D01*
X158864278Y-75523700D01*
X158988794Y-75498932D01*
X159106085Y-75450348D01*
X159211645Y-75379815D01*
X159301415Y-75290045D01*
X159371948Y-75184485D01*
X159420532Y-75067194D01*
X159445300Y-74942678D01*
X159445300Y-74815722D01*
X159420532Y-74691206D01*
X159371948Y-74573915D01*
X159363801Y-74561722D01*
X159858100Y-74561722D01*
X159858100Y-74688678D01*
X159882868Y-74813194D01*
X159931452Y-74930485D01*
X160001985Y-75036045D01*
X160091755Y-75125815D01*
X160197315Y-75196348D01*
X160314606Y-75244932D01*
X160439122Y-75269700D01*
X160566078Y-75269700D01*
X160690594Y-75244932D01*
X160807885Y-75196348D01*
X160913445Y-75125815D01*
X161003215Y-75036045D01*
X161073748Y-74930485D01*
X161122332Y-74813194D01*
X161123928Y-74805170D01*
X172973000Y-74805170D01*
X172973000Y-74918830D01*
X172995174Y-75030305D01*
X173038669Y-75135312D01*
X173101815Y-75229816D01*
X173182184Y-75310185D01*
X173276688Y-75373331D01*
X173381695Y-75416826D01*
X173493170Y-75439000D01*
X173606830Y-75439000D01*
X173718305Y-75416826D01*
X173823312Y-75373331D01*
X173917816Y-75310185D01*
X173998185Y-75229816D01*
X174061331Y-75135312D01*
X174104826Y-75030305D01*
X174127000Y-74918830D01*
X174127000Y-74805170D01*
X174104826Y-74693695D01*
X174061331Y-74588688D01*
X173998185Y-74494184D01*
X173917816Y-74413815D01*
X173823312Y-74350669D01*
X173718305Y-74307174D01*
X173606830Y-74285000D01*
X173493170Y-74285000D01*
X173381695Y-74307174D01*
X173276688Y-74350669D01*
X173182184Y-74413815D01*
X173101815Y-74494184D01*
X173038669Y-74588688D01*
X172995174Y-74693695D01*
X172973000Y-74805170D01*
X161123928Y-74805170D01*
X161147100Y-74688678D01*
X161147100Y-74561722D01*
X161122332Y-74437206D01*
X161073748Y-74319915D01*
X161003215Y-74214355D01*
X160913445Y-74124585D01*
X160807885Y-74054052D01*
X160690594Y-74005468D01*
X160566078Y-73980700D01*
X160439122Y-73980700D01*
X160314606Y-74005468D01*
X160197315Y-74054052D01*
X160091755Y-74124585D01*
X160001985Y-74214355D01*
X159931452Y-74319915D01*
X159882868Y-74437206D01*
X159858100Y-74561722D01*
X159363801Y-74561722D01*
X159301415Y-74468355D01*
X159211645Y-74378585D01*
X159106085Y-74308052D01*
X158988794Y-74259468D01*
X158864278Y-74234700D01*
X158737322Y-74234700D01*
X158612806Y-74259468D01*
X158495515Y-74308052D01*
X158389955Y-74378585D01*
X158300185Y-74468355D01*
X158229652Y-74573915D01*
X158181068Y-74691206D01*
X158156300Y-74815722D01*
X157249788Y-74815722D01*
X157326496Y-74745794D01*
X158682620Y-73721696D01*
X159386826Y-73285670D01*
X173794000Y-73285670D01*
X173794000Y-73399330D01*
X173816174Y-73510805D01*
X173859669Y-73615812D01*
X173922815Y-73710316D01*
X174003184Y-73790685D01*
X174097688Y-73853831D01*
X174202695Y-73897326D01*
X174314170Y-73919500D01*
X174427830Y-73919500D01*
X174539305Y-73897326D01*
X174644312Y-73853831D01*
X174738816Y-73790685D01*
X174819185Y-73710316D01*
X174882331Y-73615812D01*
X174925826Y-73510805D01*
X174948000Y-73399330D01*
X174948000Y-73285670D01*
X174925826Y-73174195D01*
X174882331Y-73069188D01*
X174819185Y-72974684D01*
X174738816Y-72894315D01*
X174644312Y-72831169D01*
X174539305Y-72787674D01*
X174427830Y-72765500D01*
X174314170Y-72765500D01*
X174202695Y-72787674D01*
X174097688Y-72831169D01*
X174003184Y-72894315D01*
X173922815Y-72974684D01*
X173859669Y-73069188D01*
X173816174Y-73174195D01*
X173794000Y-73285670D01*
X159386826Y-73285670D01*
X160127451Y-72827095D01*
X161648661Y-72069622D01*
X162016811Y-71927000D01*
X176143189Y-71927000D01*
X176511339Y-72069622D01*
G37*
G04 #@! TD.AperFunction*
M02*
