G04 #@! TF.GenerationSoftware,KiCad,Pcbnew,(5.1.10)-1*
G04 #@! TF.CreationDate,2021-07-30T17:06:45-07:00*
G04 #@! TF.ProjectId,esp32-smartwatch,65737033-322d-4736-9d61-727477617463,rev?*
G04 #@! TF.SameCoordinates,PX8f56560PY66b5f20*
G04 #@! TF.FileFunction,Legend,Bot*
G04 #@! TF.FilePolarity,Positive*
%FSLAX46Y46*%
G04 Gerber Fmt 4.6, Leading zero omitted, Abs format (unit mm)*
G04 Created by KiCad (PCBNEW (5.1.10)-1) date 2021-07-30 17:06:45*
%MOMM*%
%LPD*%
G01*
G04 APERTURE LIST*
%ADD10C,0.200000*%
G04 #@! TA.AperFunction,Profile*
%ADD11C,0.050000*%
G04 #@! TD*
%ADD12C,0.150000*%
%ADD13O,1.300000X2.000000*%
%ADD14C,1.550000*%
%ADD15C,0.900000*%
G04 APERTURE END LIST*
D10*
X9771428Y20135715D02*
X9642857Y20092858D01*
X9428571Y20092858D01*
X9342857Y20135715D01*
X9300000Y20178572D01*
X9257142Y20264286D01*
X9257142Y20350000D01*
X9300000Y20435715D01*
X9342857Y20478572D01*
X9428571Y20521429D01*
X9600000Y20564286D01*
X9685714Y20607143D01*
X9728571Y20650000D01*
X9771428Y20735715D01*
X9771428Y20821429D01*
X9728571Y20907143D01*
X9685714Y20950000D01*
X9600000Y20992858D01*
X9385714Y20992858D01*
X9257142Y20950000D01*
X8871428Y20092858D02*
X8871428Y20692858D01*
X8871428Y20607143D02*
X8828571Y20650000D01*
X8742857Y20692858D01*
X8614285Y20692858D01*
X8528571Y20650000D01*
X8485714Y20564286D01*
X8485714Y20092858D01*
X8485714Y20564286D02*
X8442857Y20650000D01*
X8357142Y20692858D01*
X8228571Y20692858D01*
X8142857Y20650000D01*
X8100000Y20564286D01*
X8100000Y20092858D01*
X7285714Y20092858D02*
X7285714Y20564286D01*
X7328571Y20650000D01*
X7414285Y20692858D01*
X7585714Y20692858D01*
X7671428Y20650000D01*
X7285714Y20135715D02*
X7371428Y20092858D01*
X7585714Y20092858D01*
X7671428Y20135715D01*
X7714285Y20221429D01*
X7714285Y20307143D01*
X7671428Y20392858D01*
X7585714Y20435715D01*
X7371428Y20435715D01*
X7285714Y20478572D01*
X6857142Y20092858D02*
X6857142Y20692858D01*
X6857142Y20521429D02*
X6814285Y20607143D01*
X6771428Y20650000D01*
X6685714Y20692858D01*
X6600000Y20692858D01*
X6428571Y20692858D02*
X6085714Y20692858D01*
X6300000Y20992858D02*
X6300000Y20221429D01*
X6257142Y20135715D01*
X6171428Y20092858D01*
X6085714Y20092858D01*
X5871428Y20692858D02*
X5700000Y20092858D01*
X5528571Y20521429D01*
X5357142Y20092858D01*
X5185714Y20692858D01*
X4457142Y20092858D02*
X4457142Y20564286D01*
X4500000Y20650000D01*
X4585714Y20692858D01*
X4757142Y20692858D01*
X4842857Y20650000D01*
X4457142Y20135715D02*
X4542857Y20092858D01*
X4757142Y20092858D01*
X4842857Y20135715D01*
X4885714Y20221429D01*
X4885714Y20307143D01*
X4842857Y20392858D01*
X4757142Y20435715D01*
X4542857Y20435715D01*
X4457142Y20478572D01*
X4157142Y20692858D02*
X3814285Y20692858D01*
X4028571Y20992858D02*
X4028571Y20221429D01*
X3985714Y20135715D01*
X3900000Y20092858D01*
X3814285Y20092858D01*
X3128571Y20135715D02*
X3214285Y20092858D01*
X3385714Y20092858D01*
X3471428Y20135715D01*
X3514285Y20178572D01*
X3557142Y20264286D01*
X3557142Y20521429D01*
X3514285Y20607143D01*
X3471428Y20650000D01*
X3385714Y20692858D01*
X3214285Y20692858D01*
X3128571Y20650000D01*
X2742857Y20092858D02*
X2742857Y20992858D01*
X2357142Y20092858D02*
X2357142Y20564286D01*
X2400000Y20650000D01*
X2485714Y20692858D01*
X2614285Y20692858D01*
X2700000Y20650000D01*
X2742857Y20607143D01*
X10950000Y19442858D02*
X10435714Y19442858D01*
X10692857Y18542858D02*
X10692857Y19442858D01*
X10135714Y18542858D02*
X10135714Y19142858D01*
X10135714Y19442858D02*
X10178571Y19400000D01*
X10135714Y19357143D01*
X10092857Y19400000D01*
X10135714Y19442858D01*
X10135714Y19357143D01*
X9707142Y18542858D02*
X9707142Y19142858D01*
X9707142Y19057143D02*
X9664285Y19100000D01*
X9578571Y19142858D01*
X9450000Y19142858D01*
X9364285Y19100000D01*
X9321428Y19014286D01*
X9321428Y18542858D01*
X9321428Y19014286D02*
X9278571Y19100000D01*
X9192857Y19142858D01*
X9064285Y19142858D01*
X8978571Y19100000D01*
X8935714Y19014286D01*
X8935714Y18542858D01*
X8378571Y18542858D02*
X8464285Y18585715D01*
X8507142Y18628572D01*
X8550000Y18714286D01*
X8550000Y18971429D01*
X8507142Y19057143D01*
X8464285Y19100000D01*
X8378571Y19142858D01*
X8250000Y19142858D01*
X8164285Y19100000D01*
X8121428Y19057143D01*
X8078571Y18971429D01*
X8078571Y18714286D01*
X8121428Y18628572D01*
X8164285Y18585715D01*
X8250000Y18542858D01*
X8378571Y18542858D01*
X7821428Y19142858D02*
X7478571Y19142858D01*
X7692857Y19442858D02*
X7692857Y18671429D01*
X7650000Y18585715D01*
X7564285Y18542858D01*
X7478571Y18542858D01*
X7178571Y18542858D02*
X7178571Y19442858D01*
X6792857Y18542858D02*
X6792857Y19014286D01*
X6835714Y19100000D01*
X6921428Y19142858D01*
X7050000Y19142858D01*
X7135714Y19100000D01*
X7178571Y19057143D01*
X6450000Y19142858D02*
X6235714Y18542858D01*
X6021428Y19142858D02*
X6235714Y18542858D01*
X6321428Y18328572D01*
X6364285Y18285715D01*
X6450000Y18242858D01*
X4992857Y18542858D02*
X4992857Y19442858D01*
X4478571Y18542858D01*
X4478571Y19442858D01*
X3664285Y19142858D02*
X3664285Y18414286D01*
X3707142Y18328572D01*
X3750000Y18285715D01*
X3835714Y18242858D01*
X3964285Y18242858D01*
X4050000Y18285715D01*
X3664285Y18585715D02*
X3750000Y18542858D01*
X3921428Y18542858D01*
X4007142Y18585715D01*
X4050000Y18628572D01*
X4092857Y18714286D01*
X4092857Y18971429D01*
X4050000Y19057143D01*
X4007142Y19100000D01*
X3921428Y19142858D01*
X3750000Y19142858D01*
X3664285Y19100000D01*
X2850000Y19142858D02*
X2850000Y18542858D01*
X3235714Y19142858D02*
X3235714Y18671429D01*
X3192857Y18585715D01*
X3107142Y18542858D01*
X2978571Y18542858D01*
X2892857Y18585715D01*
X2850000Y18628572D01*
X2507142Y19142858D02*
X2292857Y18542858D01*
X2078571Y19142858D02*
X2292857Y18542858D01*
X2378571Y18328572D01*
X2421428Y18285715D01*
X2507142Y18242858D01*
X1392857Y18585715D02*
X1478571Y18542858D01*
X1650000Y18542858D01*
X1735714Y18585715D01*
X1778571Y18671429D01*
X1778571Y19014286D01*
X1735714Y19100000D01*
X1650000Y19142858D01*
X1478571Y19142858D01*
X1392857Y19100000D01*
X1350000Y19014286D01*
X1350000Y18928572D01*
X1778571Y18842858D01*
X964285Y19142858D02*
X964285Y18542858D01*
X964285Y19057143D02*
X921428Y19100000D01*
X835714Y19142858D01*
X707142Y19142858D01*
X621428Y19100000D01*
X578571Y19014286D01*
X578571Y18542858D01*
X6942857Y16992858D02*
X7242857Y17421429D01*
X7457142Y16992858D02*
X7457142Y17892858D01*
X7114285Y17892858D01*
X7028571Y17850000D01*
X6985714Y17807143D01*
X6942857Y17721429D01*
X6942857Y17592858D01*
X6985714Y17507143D01*
X7028571Y17464286D01*
X7114285Y17421429D01*
X7457142Y17421429D01*
X6214285Y17035715D02*
X6300000Y16992858D01*
X6471428Y16992858D01*
X6557142Y17035715D01*
X6600000Y17121429D01*
X6600000Y17464286D01*
X6557142Y17550000D01*
X6471428Y17592858D01*
X6300000Y17592858D01*
X6214285Y17550000D01*
X6171428Y17464286D01*
X6171428Y17378572D01*
X6600000Y17292858D01*
X5871428Y17592858D02*
X5657142Y16992858D01*
X5442857Y17592858D01*
X4114285Y17464286D02*
X3985714Y17421429D01*
X3942857Y17378572D01*
X3900000Y17292858D01*
X3900000Y17164286D01*
X3942857Y17078572D01*
X3985714Y17035715D01*
X4071428Y16992858D01*
X4414285Y16992858D01*
X4414285Y17892858D01*
X4114285Y17892858D01*
X4028571Y17850000D01*
X3985714Y17807143D01*
X3942857Y17721429D01*
X3942857Y17635715D01*
X3985714Y17550000D01*
X4028571Y17507143D01*
X4114285Y17464286D01*
X4414285Y17464286D01*
D11*
X37530000Y18800000D02*
G75*
G03*
X37530000Y18800000I-18750000J0D01*
G01*
D12*
X14437000Y8891500D02*
X13437000Y8891500D01*
X12637000Y-1508500D02*
X24037000Y-1508500D01*
X12237000Y-1108500D02*
X12237000Y5141500D01*
X24037000Y8891500D02*
X23037000Y8891500D01*
X13937000Y4641500D02*
G75*
G03*
X13937000Y4641500I-500000J0D01*
G01*
X23937000Y4641500D02*
G75*
G03*
X23937000Y4641500I-500000J0D01*
G01*
X24437000Y-1108500D02*
X24437000Y8491500D01*
X13037000Y5941500D02*
X13037000Y8541500D01*
X12637000Y-1508500D02*
G75*
G02*
X12237000Y-1108500I0J400000D01*
G01*
X24437000Y-1108500D02*
G75*
G02*
X24037000Y-1508500I-400000J0D01*
G01*
X12237000Y5141500D02*
G75*
G02*
X12637000Y5541500I400000J0D01*
G01*
X13037000Y5941500D02*
G75*
G02*
X12637000Y5541500I-400000J0D01*
G01*
X24037000Y8891500D02*
G75*
G02*
X24437000Y8491500I0J-400000D01*
G01*
X13037000Y8491500D02*
G75*
G02*
X13437000Y8891500I400000J0D01*
G01*
X26661904Y6347620D02*
X26661904Y5538096D01*
X26614285Y5442858D01*
X26566666Y5395239D01*
X26471428Y5347620D01*
X26280952Y5347620D01*
X26185714Y5395239D01*
X26138095Y5442858D01*
X26090476Y5538096D01*
X26090476Y6347620D01*
X25566666Y5347620D02*
X25376190Y5347620D01*
X25280952Y5395239D01*
X25233333Y5442858D01*
X25138095Y5585715D01*
X25090476Y5776191D01*
X25090476Y6157143D01*
X25138095Y6252381D01*
X25185714Y6300000D01*
X25280952Y6347620D01*
X25471428Y6347620D01*
X25566666Y6300000D01*
X25614285Y6252381D01*
X25661904Y6157143D01*
X25661904Y5919048D01*
X25614285Y5823810D01*
X25566666Y5776191D01*
X25471428Y5728572D01*
X25280952Y5728572D01*
X25185714Y5776191D01*
X25138095Y5823810D01*
X25090476Y5919048D01*
X22990476Y9447620D02*
X23561904Y9447620D01*
X23276190Y9447620D02*
X23276190Y10447620D01*
X23371428Y10304762D01*
X23466666Y10209524D01*
X23561904Y10161905D01*
X22609523Y10352381D02*
X22561904Y10400000D01*
X22466666Y10447620D01*
X22228571Y10447620D01*
X22133333Y10400000D01*
X22085714Y10352381D01*
X22038095Y10257143D01*
X22038095Y10161905D01*
X22085714Y10019048D01*
X22657142Y9447620D01*
X22038095Y9447620D01*
X14614285Y9447620D02*
X15185714Y9447620D01*
X14900000Y9447620D02*
X14900000Y10447620D01*
X14995238Y10304762D01*
X15090476Y10209524D01*
X15185714Y10161905D01*
%LPC*%
D13*
X22618000Y2036000D03*
X15618000Y2036000D03*
D14*
X21618000Y4736000D03*
X16618000Y4736000D03*
G36*
G01*
X18162000Y6691500D02*
X18162000Y9191500D01*
G75*
G02*
X18212000Y9241500I50000J0D01*
G01*
X18562000Y9241500D01*
G75*
G02*
X18612000Y9191500I0J-50000D01*
G01*
X18612000Y6691500D01*
G75*
G02*
X18562000Y6641500I-50000J0D01*
G01*
X18212000Y6641500D01*
G75*
G02*
X18162000Y6691500I0J50000D01*
G01*
G37*
G36*
G01*
X17462000Y6691500D02*
X17462000Y9191500D01*
G75*
G02*
X17512000Y9241500I50000J0D01*
G01*
X17862000Y9241500D01*
G75*
G02*
X17912000Y9191500I0J-50000D01*
G01*
X17912000Y6691500D01*
G75*
G02*
X17862000Y6641500I-50000J0D01*
G01*
X17512000Y6641500D01*
G75*
G02*
X17462000Y6691500I0J50000D01*
G01*
G37*
G36*
G01*
X16762000Y6691500D02*
X16762000Y9191500D01*
G75*
G02*
X16812000Y9241500I50000J0D01*
G01*
X17162000Y9241500D01*
G75*
G02*
X17212000Y9191500I0J-50000D01*
G01*
X17212000Y6691500D01*
G75*
G02*
X17162000Y6641500I-50000J0D01*
G01*
X16812000Y6641500D01*
G75*
G02*
X16762000Y6691500I0J50000D01*
G01*
G37*
G36*
G01*
X16062000Y6691500D02*
X16062000Y9191500D01*
G75*
G02*
X16112000Y9241500I50000J0D01*
G01*
X16462000Y9241500D01*
G75*
G02*
X16512000Y9191500I0J-50000D01*
G01*
X16512000Y6691500D01*
G75*
G02*
X16462000Y6641500I-50000J0D01*
G01*
X16112000Y6641500D01*
G75*
G02*
X16062000Y6691500I0J50000D01*
G01*
G37*
G36*
G01*
X15362000Y6691500D02*
X15362000Y9191500D01*
G75*
G02*
X15412000Y9241500I50000J0D01*
G01*
X15762000Y9241500D01*
G75*
G02*
X15812000Y9191500I0J-50000D01*
G01*
X15812000Y6691500D01*
G75*
G02*
X15762000Y6641500I-50000J0D01*
G01*
X15412000Y6641500D01*
G75*
G02*
X15362000Y6691500I0J50000D01*
G01*
G37*
G36*
G01*
X14662000Y6691500D02*
X14662000Y9191500D01*
G75*
G02*
X14712000Y9241500I50000J0D01*
G01*
X15062000Y9241500D01*
G75*
G02*
X15112000Y9191500I0J-50000D01*
G01*
X15112000Y6691500D01*
G75*
G02*
X15062000Y6641500I-50000J0D01*
G01*
X14712000Y6641500D01*
G75*
G02*
X14662000Y6691500I0J50000D01*
G01*
G37*
G36*
G01*
X18862000Y6691500D02*
X18862000Y9191500D01*
G75*
G02*
X18912000Y9241500I50000J0D01*
G01*
X19262000Y9241500D01*
G75*
G02*
X19312000Y9191500I0J-50000D01*
G01*
X19312000Y6691500D01*
G75*
G02*
X19262000Y6641500I-50000J0D01*
G01*
X18912000Y6641500D01*
G75*
G02*
X18862000Y6691500I0J50000D01*
G01*
G37*
G36*
G01*
X19562000Y6691500D02*
X19562000Y9191500D01*
G75*
G02*
X19612000Y9241500I50000J0D01*
G01*
X19962000Y9241500D01*
G75*
G02*
X20012000Y9191500I0J-50000D01*
G01*
X20012000Y6691500D01*
G75*
G02*
X19962000Y6641500I-50000J0D01*
G01*
X19612000Y6641500D01*
G75*
G02*
X19562000Y6691500I0J50000D01*
G01*
G37*
G36*
G01*
X20262000Y6691500D02*
X20262000Y9191500D01*
G75*
G02*
X20312000Y9241500I50000J0D01*
G01*
X20662000Y9241500D01*
G75*
G02*
X20712000Y9191500I0J-50000D01*
G01*
X20712000Y6691500D01*
G75*
G02*
X20662000Y6641500I-50000J0D01*
G01*
X20312000Y6641500D01*
G75*
G02*
X20262000Y6691500I0J50000D01*
G01*
G37*
G36*
G01*
X20962000Y6691500D02*
X20962000Y9191500D01*
G75*
G02*
X21012000Y9241500I50000J0D01*
G01*
X21362000Y9241500D01*
G75*
G02*
X21412000Y9191500I0J-50000D01*
G01*
X21412000Y6691500D01*
G75*
G02*
X21362000Y6641500I-50000J0D01*
G01*
X21012000Y6641500D01*
G75*
G02*
X20962000Y6691500I0J50000D01*
G01*
G37*
G36*
G01*
X21662000Y6691500D02*
X21662000Y9191500D01*
G75*
G02*
X21712000Y9241500I50000J0D01*
G01*
X22062000Y9241500D01*
G75*
G02*
X22112000Y9191500I0J-50000D01*
G01*
X22112000Y6691500D01*
G75*
G02*
X22062000Y6641500I-50000J0D01*
G01*
X21712000Y6641500D01*
G75*
G02*
X21662000Y6691500I0J50000D01*
G01*
G37*
G36*
G01*
X22362000Y6691500D02*
X22362000Y9191500D01*
G75*
G02*
X22412000Y9241500I50000J0D01*
G01*
X22762000Y9241500D01*
G75*
G02*
X22812000Y9191500I0J-50000D01*
G01*
X22812000Y6691500D01*
G75*
G02*
X22762000Y6641500I-50000J0D01*
G01*
X22412000Y6641500D01*
G75*
G02*
X22362000Y6691500I0J50000D01*
G01*
G37*
D15*
X1655500Y14545500D03*
X28008000Y4068000D03*
X2450000Y12450000D03*
X25087000Y2671000D03*
M02*
