G04 #@! TF.GenerationSoftware,KiCad,Pcbnew,(5.1.10)-1*
G04 #@! TF.CreationDate,2021-08-15T15:57:37-07:00*
G04 #@! TF.ProjectId,esp32-smartwatch,65737033-322d-4736-9d61-727477617463,rev?*
G04 #@! TF.SameCoordinates,Original*
G04 #@! TF.FileFunction,Legend,Top*
G04 #@! TF.FilePolarity,Positive*
%FSLAX46Y46*%
G04 Gerber Fmt 4.6, Leading zero omitted, Abs format (unit mm)*
G04 Created by KiCad (PCBNEW (5.1.10)-1) date 2021-08-15 15:57:37*
%MOMM*%
%LPD*%
G01*
G04 APERTURE LIST*
%ADD10C,0.150000*%
%ADD11C,0.127000*%
%ADD12C,0.120000*%
%ADD13C,0.200000*%
%ADD14C,0.152400*%
%ADD15C,0.153000*%
%ADD16C,0.010000*%
%ADD17C,1.100000*%
%ADD18O,2.000000X1.300000*%
%ADD19C,1.550000*%
G04 APERTURE END LIST*
D10*
X165004761Y-76061904D02*
X165004761Y-76633333D01*
X164966666Y-76747619D01*
X164890476Y-76823809D01*
X164776190Y-76861904D01*
X164700000Y-76861904D01*
X165766666Y-76861904D02*
X165385714Y-76861904D01*
X165385714Y-76061904D01*
X166490476Y-76785714D02*
X166452380Y-76823809D01*
X166338095Y-76861904D01*
X166261904Y-76861904D01*
X166147619Y-76823809D01*
X166071428Y-76747619D01*
X166033333Y-76671428D01*
X165995238Y-76519047D01*
X165995238Y-76404761D01*
X166033333Y-76252380D01*
X166071428Y-76176190D01*
X166147619Y-76100000D01*
X166261904Y-76061904D01*
X166338095Y-76061904D01*
X166452380Y-76100000D01*
X166490476Y-76138095D01*
X167061904Y-76061904D02*
X167061904Y-76633333D01*
X167023809Y-76747619D01*
X166947619Y-76823809D01*
X166833333Y-76861904D01*
X166757142Y-76861904D01*
X167823809Y-76861904D02*
X167442857Y-76861904D01*
X167442857Y-76061904D01*
X168547619Y-76785714D02*
X168509523Y-76823809D01*
X168395238Y-76861904D01*
X168319047Y-76861904D01*
X168204761Y-76823809D01*
X168128571Y-76747619D01*
X168090476Y-76671428D01*
X168052380Y-76519047D01*
X168052380Y-76404761D01*
X168090476Y-76252380D01*
X168128571Y-76176190D01*
X168204761Y-76100000D01*
X168319047Y-76061904D01*
X168395238Y-76061904D01*
X168509523Y-76100000D01*
X168547619Y-76138095D01*
X169119047Y-76061904D02*
X169119047Y-76633333D01*
X169080952Y-76747619D01*
X169004761Y-76823809D01*
X168890476Y-76861904D01*
X168814285Y-76861904D01*
X169880952Y-76861904D02*
X169500000Y-76861904D01*
X169500000Y-76061904D01*
X170604761Y-76785714D02*
X170566666Y-76823809D01*
X170452380Y-76861904D01*
X170376190Y-76861904D01*
X170261904Y-76823809D01*
X170185714Y-76747619D01*
X170147619Y-76671428D01*
X170109523Y-76519047D01*
X170109523Y-76404761D01*
X170147619Y-76252380D01*
X170185714Y-76176190D01*
X170261904Y-76100000D01*
X170376190Y-76061904D01*
X170452380Y-76061904D01*
X170566666Y-76100000D01*
X170604761Y-76138095D01*
X171176190Y-76061904D02*
X171176190Y-76633333D01*
X171138095Y-76747619D01*
X171061904Y-76823809D01*
X170947619Y-76861904D01*
X170871428Y-76861904D01*
X171938095Y-76861904D02*
X171557142Y-76861904D01*
X171557142Y-76061904D01*
X172661904Y-76785714D02*
X172623809Y-76823809D01*
X172509523Y-76861904D01*
X172433333Y-76861904D01*
X172319047Y-76823809D01*
X172242857Y-76747619D01*
X172204761Y-76671428D01*
X172166666Y-76519047D01*
X172166666Y-76404761D01*
X172204761Y-76252380D01*
X172242857Y-76176190D01*
X172319047Y-76100000D01*
X172433333Y-76061904D01*
X172509523Y-76061904D01*
X172623809Y-76100000D01*
X172661904Y-76138095D01*
X163571428Y-105607142D02*
X162428571Y-105607142D01*
X163000000Y-106178571D02*
X163000000Y-105035714D01*
X172375000Y-90440000D02*
G75*
G03*
X172375000Y-90440000I-75000J0D01*
G01*
D11*
X175070000Y-92420000D02*
X175070000Y-91950000D01*
X175070000Y-92420000D02*
X174600000Y-92420000D01*
X175070000Y-89880000D02*
X175070000Y-90350000D01*
X175070000Y-89880000D02*
X174600000Y-89880000D01*
X172530000Y-92420000D02*
X172530000Y-91950000D01*
X172530000Y-89880000D02*
X172530000Y-90350000D01*
X172530000Y-92420000D02*
X173000000Y-92420000D01*
X172530000Y-89880000D02*
X173000000Y-89880000D01*
D12*
X154014400Y-83210400D02*
G75*
G03*
X154014400Y-83210400I-700000J0D01*
G01*
X171640000Y-92007836D02*
X171640000Y-91792164D01*
X172360000Y-92007836D02*
X172360000Y-91792164D01*
D10*
X162025000Y-88775000D02*
X161800000Y-88775000D01*
X162025000Y-92125000D02*
X161725000Y-92125000D01*
X158675000Y-92125000D02*
X158975000Y-92125000D01*
X158675000Y-88775000D02*
X158975000Y-88775000D01*
X162025000Y-88775000D02*
X162025000Y-92125000D01*
X158675000Y-88775000D02*
X158675000Y-92125000D01*
X161800000Y-88775000D02*
X161800000Y-87550000D01*
X163231000Y-70325000D02*
X163231000Y-71525000D01*
X163231000Y-71525000D02*
X169962000Y-71525000D01*
X169962000Y-71525000D02*
X169962000Y-70325000D01*
X169962000Y-70325000D02*
X163231000Y-70325000D01*
X174103000Y-70870000D02*
G75*
G03*
X174103000Y-70870000I-635000J0D01*
G01*
X172706000Y-70108000D02*
X174230000Y-70108000D01*
X174230000Y-70108000D02*
X174230000Y-71632000D01*
X174230000Y-71632000D02*
X172706000Y-71632000D01*
X172706000Y-71632000D02*
X172706000Y-70108000D01*
X163630000Y-73229000D02*
X174170000Y-73229000D01*
X174170000Y-73229000D02*
X174170000Y-86373500D01*
X174170000Y-86373500D02*
X163630000Y-86373500D01*
X163630000Y-86373500D02*
X163630000Y-73229000D01*
X175400000Y-87125000D02*
X175400000Y-87825000D01*
X174700000Y-87825000D02*
X175400000Y-87825000D01*
X162400000Y-87125000D02*
X162400000Y-87825000D01*
X163100000Y-87825000D02*
X162400000Y-87825000D01*
X162400000Y-71575000D02*
X162400000Y-69875000D01*
X175400000Y-71575000D02*
X175400000Y-69875000D01*
X162400000Y-69875000D02*
X175400000Y-69875000D01*
D12*
X170740000Y-94950000D02*
X170740000Y-96750000D01*
X173960000Y-96750000D02*
X173960000Y-94300000D01*
X181650000Y-83990000D02*
X179700000Y-83990000D01*
X181650000Y-83990000D02*
X183600000Y-83990000D01*
X181650000Y-89110000D02*
X179700000Y-89110000D01*
X181650000Y-89110000D02*
X185100000Y-89110000D01*
X162490000Y-94900000D02*
X162490000Y-96700000D01*
X165710000Y-96700000D02*
X165710000Y-94250000D01*
X157850000Y-89800000D02*
X156550000Y-89800000D01*
X156300000Y-88000000D02*
X157850000Y-88000000D01*
X177300000Y-104200000D02*
G75*
G03*
X177300000Y-104200000I-700000J0D01*
G01*
X162498000Y-104495600D02*
G75*
G03*
X162498000Y-104495600I-700000J0D01*
G01*
X154420800Y-96062800D02*
G75*
G03*
X154420800Y-96062800I-700000J0D01*
G01*
D13*
X159271493Y-77574670D02*
X159377559Y-77680736D01*
X159377559Y-77680736D02*
X155912736Y-81145559D01*
X155912736Y-81145559D02*
X155806670Y-81039493D01*
X156867330Y-75170507D02*
X156761264Y-75064441D01*
X156761264Y-75064441D02*
X153296441Y-78529264D01*
X153296441Y-78529264D02*
X153402507Y-78635330D01*
X156224868Y-80297031D02*
G75*
G03*
X156224868Y-80297031I-100000J0D01*
G01*
D12*
X179162742Y-95777500D02*
X179637258Y-95777500D01*
X179162742Y-96822500D02*
X179637258Y-96822500D01*
X164762742Y-92077500D02*
X165237258Y-92077500D01*
X164762742Y-93122500D02*
X165237258Y-93122500D01*
X185627500Y-85587258D02*
X185627500Y-85112742D01*
X186672500Y-85587258D02*
X186672500Y-85112742D01*
X157819742Y-81953000D02*
X158294258Y-81953000D01*
X157819742Y-82998000D02*
X158294258Y-82998000D01*
X179162742Y-89927500D02*
X179637258Y-89927500D01*
X179162742Y-90972500D02*
X179637258Y-90972500D01*
X164164742Y-98029500D02*
X164639258Y-98029500D01*
X164164742Y-99074500D02*
X164639258Y-99074500D01*
X164762742Y-90477500D02*
X165237258Y-90477500D01*
X164762742Y-91522500D02*
X165237258Y-91522500D01*
X179637258Y-83522500D02*
X179162742Y-83522500D01*
X179637258Y-82477500D02*
X179162742Y-82477500D01*
X168622500Y-95837742D02*
X168622500Y-96312258D01*
X167577500Y-95837742D02*
X167577500Y-96312258D01*
X169177500Y-96312258D02*
X169177500Y-95837742D01*
X170222500Y-96312258D02*
X170222500Y-95837742D01*
X174377500Y-96462258D02*
X174377500Y-95987742D01*
X175422500Y-96462258D02*
X175422500Y-95987742D01*
X157819742Y-83453000D02*
X158294258Y-83453000D01*
X157819742Y-84498000D02*
X158294258Y-84498000D01*
X157819742Y-84953000D02*
X158294258Y-84953000D01*
X157819742Y-85998000D02*
X158294258Y-85998000D01*
X177922500Y-73762742D02*
X177922500Y-74237258D01*
X176877500Y-73762742D02*
X176877500Y-74237258D01*
X177922500Y-76762742D02*
X177922500Y-77237258D01*
X176877500Y-76762742D02*
X176877500Y-77237258D01*
X180310000Y-95030000D02*
X180310000Y-94100000D01*
X180310000Y-91870000D02*
X180310000Y-92800000D01*
X180310000Y-91870000D02*
X178150000Y-91870000D01*
X180310000Y-95030000D02*
X178850000Y-95030000D01*
X169060000Y-93180000D02*
X169060000Y-92250000D01*
X169060000Y-90020000D02*
X169060000Y-90950000D01*
X169060000Y-90020000D02*
X166900000Y-90020000D01*
X169060000Y-93180000D02*
X167600000Y-93180000D01*
D14*
X160096200Y-96901000D02*
X160553400Y-96901000D01*
X158572200Y-96113600D02*
X158572200Y-96901000D01*
X158572200Y-96901000D02*
X159029400Y-96901000D01*
X160553400Y-96901000D02*
X160553400Y-96570800D01*
X160553400Y-96570800D02*
X160553400Y-96113600D01*
X159664400Y-95631000D02*
X159461200Y-95631000D01*
D12*
X185310700Y-91872800D02*
X181856300Y-91872800D01*
X181856300Y-91872800D02*
X181856300Y-92886260D01*
X181856300Y-95327200D02*
X185310700Y-95327200D01*
X185310700Y-95327200D02*
X185310700Y-94313740D01*
X185310700Y-92886260D02*
X185310700Y-91872800D01*
X181856300Y-94313740D02*
X181856300Y-95327200D01*
X155262500Y-85100000D02*
X155262500Y-85550000D01*
X153412500Y-85100000D02*
X155262500Y-85100000D01*
X150862500Y-92900000D02*
X151112500Y-92900000D01*
X150862500Y-85100000D02*
X151112500Y-85100000D01*
X153412500Y-92900000D02*
X155262500Y-92900000D01*
X155262500Y-92900000D02*
X155262500Y-92450000D01*
X155812500Y-87300000D02*
X155812500Y-87750000D01*
X155812500Y-87300000D02*
X155362500Y-87300000D01*
X185550000Y-91450000D02*
X181650000Y-91450000D01*
X185550000Y-89450000D02*
X181650000Y-89450000D01*
X185550000Y-91450000D02*
X185550000Y-89450000D01*
X178600000Y-82135000D02*
X180885000Y-82135000D01*
X180885000Y-82135000D02*
X180885000Y-80665000D01*
X180885000Y-80665000D02*
X178600000Y-80665000D01*
X156200000Y-96950000D02*
X158200000Y-96950000D01*
X158200000Y-96950000D02*
X158200000Y-93050000D01*
X156200000Y-96950000D02*
X156200000Y-93050000D01*
X171372164Y-93040000D02*
X171587836Y-93040000D01*
X171372164Y-93760000D02*
X171587836Y-93760000D01*
X171412164Y-97940000D02*
X171627836Y-97940000D01*
X171412164Y-98660000D02*
X171627836Y-98660000D01*
X158758836Y-81585500D02*
X158543164Y-81585500D01*
X158758836Y-80865500D02*
X158543164Y-80865500D01*
X160549000Y-73259836D02*
X160549000Y-73044164D01*
X161269000Y-73259836D02*
X161269000Y-73044164D01*
X159129000Y-74562580D02*
X159129000Y-74281420D01*
X160149000Y-74562580D02*
X160149000Y-74281420D01*
X175240000Y-91687836D02*
X175240000Y-91472164D01*
X175960000Y-91687836D02*
X175960000Y-91472164D01*
X162390000Y-92807836D02*
X162390000Y-92592164D01*
X163110000Y-92807836D02*
X163110000Y-92592164D01*
X166073500Y-96927836D02*
X166073500Y-96712164D01*
X166793500Y-96927836D02*
X166793500Y-96712164D01*
X186210000Y-87672164D02*
X186210000Y-87887836D01*
X185490000Y-87672164D02*
X185490000Y-87887836D01*
X161910000Y-96059420D02*
X161910000Y-96340580D01*
X160890000Y-96059420D02*
X160890000Y-96340580D01*
X157557836Y-87610000D02*
X157342164Y-87610000D01*
X157557836Y-86890000D02*
X157342164Y-86890000D01*
D13*
X178265507Y-100930330D02*
X178159441Y-100824264D01*
X178159441Y-100824264D02*
X181624264Y-97359441D01*
X181624264Y-97359441D02*
X181730330Y-97465507D01*
X180669670Y-103334493D02*
X180775736Y-103440559D01*
X180775736Y-103440559D02*
X184240559Y-99975736D01*
X184240559Y-99975736D02*
X184134493Y-99869670D01*
X181512132Y-98207969D02*
G75*
G03*
X181512132Y-98207969I-100000J0D01*
G01*
X179771969Y-77892868D02*
G75*
G03*
X179771969Y-77892868I-100000J0D01*
G01*
X181439736Y-75064441D02*
X181333670Y-75170507D01*
X184904559Y-78529264D02*
X181439736Y-75064441D01*
X184798493Y-78635330D02*
X184904559Y-78529264D01*
X178823441Y-77680736D02*
X178929507Y-77574670D01*
X182288264Y-81145559D02*
X178823441Y-77680736D01*
X182394330Y-81039493D02*
X182288264Y-81145559D01*
X156669670Y-97665507D02*
X156775736Y-97559441D01*
X156775736Y-97559441D02*
X160240559Y-101024264D01*
X160240559Y-101024264D02*
X160134493Y-101130330D01*
X154265507Y-100069670D02*
X154159441Y-100175736D01*
X154159441Y-100175736D02*
X157624264Y-103640559D01*
X157624264Y-103640559D02*
X157730330Y-103534493D01*
X159492031Y-100812132D02*
G75*
G03*
X159492031Y-100812132I-100000J0D01*
G01*
D10*
X173776716Y-88875924D02*
X173776716Y-89523543D01*
X173814811Y-89599734D01*
X173852906Y-89637829D01*
X173929097Y-89675924D01*
X174081478Y-89675924D01*
X174157668Y-89637829D01*
X174195763Y-89599734D01*
X174233859Y-89523543D01*
X174233859Y-88875924D01*
X175033859Y-89675924D02*
X174576716Y-89675924D01*
X174805287Y-89675924D02*
X174805287Y-88875924D01*
X174729097Y-88990210D01*
X174652906Y-89066400D01*
X174576716Y-89104496D01*
X152323923Y-81299104D02*
X152819161Y-81299104D01*
X152552495Y-81603866D01*
X152666780Y-81603866D01*
X152742971Y-81641961D01*
X152781066Y-81680057D01*
X152819161Y-81756247D01*
X152819161Y-81946723D01*
X152781066Y-82022914D01*
X152742971Y-82061009D01*
X152666780Y-82099104D01*
X152438209Y-82099104D01*
X152362019Y-82061009D01*
X152323923Y-82022914D01*
X153047733Y-81299104D02*
X153314400Y-82099104D01*
X153581066Y-81299104D01*
X153771542Y-81299104D02*
X154266780Y-81299104D01*
X154000114Y-81603866D01*
X154114400Y-81603866D01*
X154190590Y-81641961D01*
X154228685Y-81680057D01*
X154266780Y-81756247D01*
X154266780Y-81946723D01*
X154228685Y-82022914D01*
X154190590Y-82061009D01*
X154114400Y-82099104D01*
X153885828Y-82099104D01*
X153809638Y-82061009D01*
X153771542Y-82022914D01*
X162265436Y-89830964D02*
X162265436Y-90478583D01*
X162303531Y-90554774D01*
X162341626Y-90592869D01*
X162417817Y-90630964D01*
X162570198Y-90630964D01*
X162646388Y-90592869D01*
X162684483Y-90554774D01*
X162722579Y-90478583D01*
X162722579Y-89830964D01*
X163446388Y-90097631D02*
X163446388Y-90630964D01*
X163255912Y-89792869D02*
X163065436Y-90364298D01*
X163560674Y-90364298D01*
X174113866Y-99172780D02*
X174113866Y-99887066D01*
X174066247Y-100029923D01*
X173971009Y-100125161D01*
X173828152Y-100172780D01*
X173732914Y-100172780D01*
X174542438Y-99268019D02*
X174590057Y-99220400D01*
X174685295Y-99172780D01*
X174923390Y-99172780D01*
X175018628Y-99220400D01*
X175066247Y-99268019D01*
X175113866Y-99363257D01*
X175113866Y-99458495D01*
X175066247Y-99601352D01*
X174494819Y-100172780D01*
X175113866Y-100172780D01*
X173162036Y-87085224D02*
X173162036Y-87732843D01*
X173200131Y-87809034D01*
X173238226Y-87847129D01*
X173314417Y-87885224D01*
X173466798Y-87885224D01*
X173542988Y-87847129D01*
X173581083Y-87809034D01*
X173619179Y-87732843D01*
X173619179Y-87085224D01*
X173923940Y-87085224D02*
X174457274Y-87085224D01*
X174114417Y-87885224D01*
X169405376Y-93818764D02*
X169405376Y-94466383D01*
X169443471Y-94542574D01*
X169481566Y-94580669D01*
X169557757Y-94618764D01*
X169710138Y-94618764D01*
X169786328Y-94580669D01*
X169824423Y-94542574D01*
X169862519Y-94466383D01*
X169862519Y-93818764D01*
X170586328Y-93818764D02*
X170433947Y-93818764D01*
X170357757Y-93856860D01*
X170319661Y-93894955D01*
X170243471Y-94009240D01*
X170205376Y-94161621D01*
X170205376Y-94466383D01*
X170243471Y-94542574D01*
X170281566Y-94580669D01*
X170357757Y-94618764D01*
X170510138Y-94618764D01*
X170586328Y-94580669D01*
X170624423Y-94542574D01*
X170662519Y-94466383D01*
X170662519Y-94275907D01*
X170624423Y-94199717D01*
X170586328Y-94161621D01*
X170510138Y-94123526D01*
X170357757Y-94123526D01*
X170281566Y-94161621D01*
X170243471Y-94199717D01*
X170205376Y-94275907D01*
X183855436Y-82853584D02*
X183855436Y-83501203D01*
X183893531Y-83577394D01*
X183931626Y-83615489D01*
X184007817Y-83653584D01*
X184160198Y-83653584D01*
X184236388Y-83615489D01*
X184274483Y-83577394D01*
X184312579Y-83501203D01*
X184312579Y-82853584D01*
X185074483Y-82853584D02*
X184693531Y-82853584D01*
X184655436Y-83234537D01*
X184693531Y-83196441D01*
X184769721Y-83158346D01*
X184960198Y-83158346D01*
X185036388Y-83196441D01*
X185074483Y-83234537D01*
X185112579Y-83310727D01*
X185112579Y-83501203D01*
X185074483Y-83577394D01*
X185036388Y-83615489D01*
X184960198Y-83653584D01*
X184769721Y-83653584D01*
X184693531Y-83615489D01*
X184655436Y-83577394D01*
X161097036Y-93930524D02*
X161097036Y-94578143D01*
X161135131Y-94654334D01*
X161173226Y-94692429D01*
X161249417Y-94730524D01*
X161401798Y-94730524D01*
X161477988Y-94692429D01*
X161516083Y-94654334D01*
X161554179Y-94578143D01*
X161554179Y-93930524D01*
X161858940Y-93930524D02*
X162354179Y-93930524D01*
X162087512Y-94235286D01*
X162201798Y-94235286D01*
X162277988Y-94273381D01*
X162316083Y-94311477D01*
X162354179Y-94387667D01*
X162354179Y-94578143D01*
X162316083Y-94654334D01*
X162277988Y-94692429D01*
X162201798Y-94730524D01*
X161973226Y-94730524D01*
X161897036Y-94692429D01*
X161858940Y-94654334D01*
X156969536Y-90229744D02*
X156969536Y-90877363D01*
X157007631Y-90953554D01*
X157045726Y-90991649D01*
X157121917Y-91029744D01*
X157274298Y-91029744D01*
X157350488Y-90991649D01*
X157388583Y-90953554D01*
X157426679Y-90877363D01*
X157426679Y-90229744D01*
X157769536Y-90305935D02*
X157807631Y-90267840D01*
X157883821Y-90229744D01*
X158074298Y-90229744D01*
X158150488Y-90267840D01*
X158188583Y-90305935D01*
X158226679Y-90382125D01*
X158226679Y-90458316D01*
X158188583Y-90572601D01*
X157731440Y-91029744D01*
X158226679Y-91029744D01*
X175971276Y-102368400D02*
X175895085Y-102330304D01*
X175780800Y-102330304D01*
X175666514Y-102368400D01*
X175590323Y-102444590D01*
X175552228Y-102520780D01*
X175514133Y-102673161D01*
X175514133Y-102787447D01*
X175552228Y-102939828D01*
X175590323Y-103016019D01*
X175666514Y-103092209D01*
X175780800Y-103130304D01*
X175856990Y-103130304D01*
X175971276Y-103092209D01*
X176009371Y-103054114D01*
X176009371Y-102787447D01*
X175856990Y-102787447D01*
X176352228Y-103130304D02*
X176352228Y-102330304D01*
X176809371Y-103130304D01*
X176809371Y-102330304D01*
X177190323Y-103130304D02*
X177190323Y-102330304D01*
X177380800Y-102330304D01*
X177495085Y-102368400D01*
X177571276Y-102444590D01*
X177609371Y-102520780D01*
X177647466Y-102673161D01*
X177647466Y-102787447D01*
X177609371Y-102939828D01*
X177571276Y-103016019D01*
X177495085Y-103092209D01*
X177380800Y-103130304D01*
X177190323Y-103130304D01*
X160534514Y-102635104D02*
X160801180Y-103435104D01*
X161067847Y-102635104D01*
X161601180Y-103016057D02*
X161715466Y-103054152D01*
X161753561Y-103092247D01*
X161791657Y-103168438D01*
X161791657Y-103282723D01*
X161753561Y-103358914D01*
X161715466Y-103397009D01*
X161639276Y-103435104D01*
X161334514Y-103435104D01*
X161334514Y-102635104D01*
X161601180Y-102635104D01*
X161677371Y-102673200D01*
X161715466Y-102711295D01*
X161753561Y-102787485D01*
X161753561Y-102863676D01*
X161715466Y-102939866D01*
X161677371Y-102977961D01*
X161601180Y-103016057D01*
X161334514Y-103016057D01*
X162096419Y-103206533D02*
X162477371Y-103206533D01*
X162020228Y-103435104D02*
X162286895Y-102635104D01*
X162553561Y-103435104D01*
X162705942Y-102635104D02*
X163163085Y-102635104D01*
X162934514Y-103435104D02*
X162934514Y-102635104D01*
X152203333Y-93897504D02*
X152470000Y-94697504D01*
X152736666Y-93897504D01*
X153270000Y-94278457D02*
X153384285Y-94316552D01*
X153422380Y-94354647D01*
X153460476Y-94430838D01*
X153460476Y-94545123D01*
X153422380Y-94621314D01*
X153384285Y-94659409D01*
X153308095Y-94697504D01*
X153003333Y-94697504D01*
X153003333Y-93897504D01*
X153270000Y-93897504D01*
X153346190Y-93935600D01*
X153384285Y-93973695D01*
X153422380Y-94049885D01*
X153422380Y-94126076D01*
X153384285Y-94202266D01*
X153346190Y-94240361D01*
X153270000Y-94278457D01*
X153003333Y-94278457D01*
X153803333Y-93897504D02*
X153803333Y-94545123D01*
X153841428Y-94621314D01*
X153879523Y-94659409D01*
X153955714Y-94697504D01*
X154108095Y-94697504D01*
X154184285Y-94659409D01*
X154222380Y-94621314D01*
X154260476Y-94545123D01*
X154260476Y-93897504D01*
X154603333Y-94659409D02*
X154717619Y-94697504D01*
X154908095Y-94697504D01*
X154984285Y-94659409D01*
X155022380Y-94621314D01*
X155060476Y-94545123D01*
X155060476Y-94468933D01*
X155022380Y-94392742D01*
X154984285Y-94354647D01*
X154908095Y-94316552D01*
X154755714Y-94278457D01*
X154679523Y-94240361D01*
X154641428Y-94202266D01*
X154603333Y-94126076D01*
X154603333Y-94049885D01*
X154641428Y-93973695D01*
X154679523Y-93935600D01*
X154755714Y-93897504D01*
X154946190Y-93897504D01*
X155060476Y-93935600D01*
D15*
X158378625Y-80321685D02*
X157920689Y-80240873D01*
X158055376Y-80644934D02*
X157489690Y-80079248D01*
X157705190Y-79863749D01*
X157786002Y-79836812D01*
X157839877Y-79836812D01*
X157920689Y-79863749D01*
X158001501Y-79944561D01*
X158028438Y-80025374D01*
X158028438Y-80079248D01*
X158001501Y-80160061D01*
X157786002Y-80375560D01*
X158567187Y-80079248D02*
X158674936Y-80025374D01*
X158809623Y-79890687D01*
X158836561Y-79809874D01*
X158836561Y-79756000D01*
X158809623Y-79675187D01*
X158755748Y-79621312D01*
X158674936Y-79594375D01*
X158621061Y-79594375D01*
X158540249Y-79621312D01*
X158405562Y-79702125D01*
X158324750Y-79729062D01*
X158270875Y-79729062D01*
X158190063Y-79702125D01*
X158136188Y-79648250D01*
X158109251Y-79567438D01*
X158109251Y-79513563D01*
X158136188Y-79432751D01*
X158270875Y-79298064D01*
X158378625Y-79244189D01*
X158513312Y-79055627D02*
X158836561Y-78732378D01*
X159240622Y-79459688D02*
X158674936Y-78894003D01*
D10*
X174753286Y-94748304D02*
X174486620Y-94367352D01*
X174296143Y-94748304D02*
X174296143Y-93948304D01*
X174600905Y-93948304D01*
X174677096Y-93986400D01*
X174715191Y-94024495D01*
X174753286Y-94100685D01*
X174753286Y-94214971D01*
X174715191Y-94291161D01*
X174677096Y-94329257D01*
X174600905Y-94367352D01*
X174296143Y-94367352D01*
X175477096Y-93948304D02*
X175096143Y-93948304D01*
X175058048Y-94329257D01*
X175096143Y-94291161D01*
X175172334Y-94253066D01*
X175362810Y-94253066D01*
X175439000Y-94291161D01*
X175477096Y-94329257D01*
X175515191Y-94405447D01*
X175515191Y-94595923D01*
X175477096Y-94672114D01*
X175439000Y-94710209D01*
X175362810Y-94748304D01*
X175172334Y-94748304D01*
X175096143Y-94710209D01*
X175058048Y-94672114D01*
X160259733Y-84424780D02*
X159926400Y-83948590D01*
X159688304Y-84424780D02*
X159688304Y-83424780D01*
X160069257Y-83424780D01*
X160164495Y-83472400D01*
X160212114Y-83520019D01*
X160259733Y-83615257D01*
X160259733Y-83758114D01*
X160212114Y-83853352D01*
X160164495Y-83900971D01*
X160069257Y-83948590D01*
X159688304Y-83948590D01*
X161116876Y-83758114D02*
X161116876Y-84424780D01*
X160878780Y-83377161D02*
X160640685Y-84091447D01*
X161259733Y-84091447D01*
X160234333Y-85745580D02*
X159901000Y-85269390D01*
X159662904Y-85745580D02*
X159662904Y-84745580D01*
X160043857Y-84745580D01*
X160139095Y-84793200D01*
X160186714Y-84840819D01*
X160234333Y-84936057D01*
X160234333Y-85078914D01*
X160186714Y-85174152D01*
X160139095Y-85221771D01*
X160043857Y-85269390D01*
X159662904Y-85269390D01*
X160567666Y-84745580D02*
X161186714Y-84745580D01*
X160853380Y-85126533D01*
X160996238Y-85126533D01*
X161091476Y-85174152D01*
X161139095Y-85221771D01*
X161186714Y-85317009D01*
X161186714Y-85555104D01*
X161139095Y-85650342D01*
X161091476Y-85697961D01*
X160996238Y-85745580D01*
X160710523Y-85745580D01*
X160615285Y-85697961D01*
X160567666Y-85650342D01*
X176923809Y-93651015D02*
X176847619Y-93612920D01*
X176771428Y-93536729D01*
X176657142Y-93422443D01*
X176580952Y-93384348D01*
X176504761Y-93384348D01*
X176542857Y-93574824D02*
X176466666Y-93536729D01*
X176390476Y-93460539D01*
X176352380Y-93308158D01*
X176352380Y-93041491D01*
X176390476Y-92889110D01*
X176466666Y-92812920D01*
X176542857Y-92774824D01*
X176695238Y-92774824D01*
X176771428Y-92812920D01*
X176847619Y-92889110D01*
X176885714Y-93041491D01*
X176885714Y-93308158D01*
X176847619Y-93460539D01*
X176771428Y-93536729D01*
X176695238Y-93574824D01*
X176542857Y-93574824D01*
X177152380Y-92774824D02*
X177647619Y-92774824D01*
X177380952Y-93079586D01*
X177495238Y-93079586D01*
X177571428Y-93117681D01*
X177609523Y-93155777D01*
X177647619Y-93231967D01*
X177647619Y-93422443D01*
X177609523Y-93498634D01*
X177571428Y-93536729D01*
X177495238Y-93574824D01*
X177266666Y-93574824D01*
X177190476Y-93536729D01*
X177152380Y-93498634D01*
X167906709Y-89874035D02*
X167830519Y-89835940D01*
X167754328Y-89759749D01*
X167640042Y-89645463D01*
X167563852Y-89607368D01*
X167487661Y-89607368D01*
X167525757Y-89797844D02*
X167449566Y-89759749D01*
X167373376Y-89683559D01*
X167335280Y-89531178D01*
X167335280Y-89264511D01*
X167373376Y-89112130D01*
X167449566Y-89035940D01*
X167525757Y-88997844D01*
X167678138Y-88997844D01*
X167754328Y-89035940D01*
X167830519Y-89112130D01*
X167868614Y-89264511D01*
X167868614Y-89531178D01*
X167830519Y-89683559D01*
X167754328Y-89759749D01*
X167678138Y-89797844D01*
X167525757Y-89797844D01*
X168173376Y-89074035D02*
X168211471Y-89035940D01*
X168287661Y-88997844D01*
X168478138Y-88997844D01*
X168554328Y-89035940D01*
X168592423Y-89074035D01*
X168630519Y-89150225D01*
X168630519Y-89226416D01*
X168592423Y-89340701D01*
X168135280Y-89797844D01*
X168630519Y-89797844D01*
X184097994Y-96465344D02*
X183717041Y-96465344D01*
X183717041Y-95665344D01*
X184326565Y-96427249D02*
X184440851Y-96465344D01*
X184631327Y-96465344D01*
X184707518Y-96427249D01*
X184745613Y-96389154D01*
X184783708Y-96312963D01*
X184783708Y-96236773D01*
X184745613Y-96160582D01*
X184707518Y-96122487D01*
X184631327Y-96084392D01*
X184478946Y-96046297D01*
X184402756Y-96008201D01*
X184364660Y-95970106D01*
X184326565Y-95893916D01*
X184326565Y-95817725D01*
X184364660Y-95741535D01*
X184402756Y-95703440D01*
X184478946Y-95665344D01*
X184669422Y-95665344D01*
X184783708Y-95703440D01*
X185545613Y-96465344D02*
X185088470Y-96465344D01*
X185317041Y-96465344D02*
X185317041Y-95665344D01*
X185240851Y-95779630D01*
X185164660Y-95855820D01*
X185088470Y-95893916D01*
X184183500Y-93502380D02*
X184183500Y-93740476D01*
X183945404Y-93645238D02*
X184183500Y-93740476D01*
X184421595Y-93645238D01*
X184040642Y-93930952D02*
X184183500Y-93740476D01*
X184326357Y-93930952D01*
X154809866Y-83424780D02*
X154809866Y-84139066D01*
X154762247Y-84281923D01*
X154667009Y-84377161D01*
X154524152Y-84424780D01*
X154428914Y-84424780D01*
X155809866Y-84424780D02*
X155238438Y-84424780D01*
X155524152Y-84424780D02*
X155524152Y-83424780D01*
X155428914Y-83567638D01*
X155333676Y-83662876D01*
X155238438Y-83710495D01*
X179284694Y-80473504D02*
X178903741Y-80473504D01*
X178903741Y-79673504D01*
X179551360Y-80054457D02*
X179818027Y-80054457D01*
X179932313Y-80473504D02*
X179551360Y-80473504D01*
X179551360Y-79673504D01*
X179932313Y-79673504D01*
X180275170Y-80473504D02*
X180275170Y-79673504D01*
X180465646Y-79673504D01*
X180579932Y-79711600D01*
X180656122Y-79787790D01*
X180694218Y-79863980D01*
X180732313Y-80016361D01*
X180732313Y-80130647D01*
X180694218Y-80283028D01*
X180656122Y-80359219D01*
X180579932Y-80435409D01*
X180465646Y-80473504D01*
X180275170Y-80473504D01*
X176838626Y-91855254D02*
X176800531Y-91893349D01*
X176686245Y-91931444D01*
X176610055Y-91931444D01*
X176495769Y-91893349D01*
X176419579Y-91817159D01*
X176381483Y-91740968D01*
X176343388Y-91588587D01*
X176343388Y-91474301D01*
X176381483Y-91321920D01*
X176419579Y-91245730D01*
X176495769Y-91169540D01*
X176610055Y-91131444D01*
X176686245Y-91131444D01*
X176800531Y-91169540D01*
X176838626Y-91207635D01*
X177105293Y-91131444D02*
X177638626Y-91131444D01*
X177295769Y-91931444D01*
X161270966Y-98416074D02*
X161232871Y-98454169D01*
X161118585Y-98492264D01*
X161042395Y-98492264D01*
X160928109Y-98454169D01*
X160851919Y-98377979D01*
X160813823Y-98301788D01*
X160775728Y-98149407D01*
X160775728Y-98035121D01*
X160813823Y-97882740D01*
X160851919Y-97806550D01*
X160928109Y-97730360D01*
X161042395Y-97692264D01*
X161118585Y-97692264D01*
X161232871Y-97730360D01*
X161270966Y-97768455D01*
X161537633Y-97692264D02*
X162032871Y-97692264D01*
X161766204Y-97997026D01*
X161880490Y-97997026D01*
X161956680Y-98035121D01*
X161994776Y-98073217D01*
X162032871Y-98149407D01*
X162032871Y-98339883D01*
X161994776Y-98416074D01*
X161956680Y-98454169D01*
X161880490Y-98492264D01*
X161651919Y-98492264D01*
X161575728Y-98454169D01*
X161537633Y-98416074D01*
D15*
X178441215Y-99557172D02*
X178548964Y-99503297D01*
X178602839Y-99503297D01*
X178683651Y-99530235D01*
X178764464Y-99611047D01*
X178791401Y-99691859D01*
X178791401Y-99745734D01*
X178764464Y-99826546D01*
X178548964Y-100042045D01*
X177983279Y-99476360D01*
X178171841Y-99287798D01*
X178252653Y-99260861D01*
X178306528Y-99260861D01*
X178387340Y-99287798D01*
X178441215Y-99341673D01*
X178468152Y-99422485D01*
X178468152Y-99476360D01*
X178441215Y-99557172D01*
X178252653Y-99745734D01*
X178468152Y-98991487D02*
X178791401Y-98668238D01*
X179195462Y-99395548D02*
X178629777Y-98829862D01*
X179545648Y-99045361D02*
X178979963Y-98479676D01*
X179868897Y-98722112D01*
X179303212Y-98156427D01*
X179599523Y-97967865D02*
X179599523Y-97913990D01*
X179626461Y-97833178D01*
X179761148Y-97698491D01*
X179841960Y-97671554D01*
X179895835Y-97671554D01*
X179976647Y-97698491D01*
X180030522Y-97752366D01*
X180084396Y-97860116D01*
X180084396Y-98506613D01*
X180434583Y-98156427D01*
X181575107Y-81649435D02*
X181628982Y-81757184D01*
X181628982Y-81811059D01*
X181602044Y-81891871D01*
X181521232Y-81972684D01*
X181440420Y-81999621D01*
X181386545Y-81999621D01*
X181305733Y-81972684D01*
X181090234Y-81757184D01*
X181655919Y-81191499D01*
X181844481Y-81380061D01*
X181871418Y-81460873D01*
X181871418Y-81514748D01*
X181844481Y-81595560D01*
X181790606Y-81649435D01*
X181709794Y-81676372D01*
X181655919Y-81676372D01*
X181575107Y-81649435D01*
X181386545Y-81460873D01*
X182140792Y-81676372D02*
X182464041Y-81999621D01*
X181736731Y-82403682D02*
X182302417Y-81837997D01*
X182086918Y-82753868D02*
X182652603Y-82188183D01*
X182410167Y-83077117D01*
X182975852Y-82511432D01*
X182975852Y-83642803D02*
X182652603Y-83319554D01*
X182814228Y-83481178D02*
X183379913Y-82915493D01*
X183245226Y-82942430D01*
X183137476Y-82942430D01*
X183056664Y-82915493D01*
X158327490Y-98150277D02*
X158381364Y-98258027D01*
X158381364Y-98311902D01*
X158354427Y-98392714D01*
X158273615Y-98473526D01*
X158192803Y-98500464D01*
X158138928Y-98500464D01*
X158058116Y-98473526D01*
X157842616Y-98258027D01*
X158408302Y-97692342D01*
X158596864Y-97880903D01*
X158623801Y-97961716D01*
X158623801Y-98015590D01*
X158596864Y-98096403D01*
X158542989Y-98150277D01*
X158462177Y-98177215D01*
X158408302Y-98177215D01*
X158327490Y-98150277D01*
X158138928Y-97961716D01*
X159081737Y-98365777D02*
X159189487Y-98473526D01*
X159216424Y-98554338D01*
X159216424Y-98662088D01*
X159135612Y-98796775D01*
X158947050Y-98985337D01*
X158812363Y-99066149D01*
X158704613Y-99066149D01*
X158623801Y-99039212D01*
X158516051Y-98931462D01*
X158489114Y-98850650D01*
X158489114Y-98742900D01*
X158569926Y-98608213D01*
X158758488Y-98419651D01*
X158893175Y-98338839D01*
X159000925Y-98338839D01*
X159081737Y-98365777D01*
X159674360Y-98958400D02*
X159782109Y-99066149D01*
X159809047Y-99146961D01*
X159809047Y-99254711D01*
X159728235Y-99389398D01*
X159539673Y-99577960D01*
X159404986Y-99658772D01*
X159297236Y-99658772D01*
X159216424Y-99631835D01*
X159108674Y-99524085D01*
X159081737Y-99443273D01*
X159081737Y-99335523D01*
X159162549Y-99200836D01*
X159351111Y-99012274D01*
X159485798Y-98931462D01*
X159593548Y-98931462D01*
X159674360Y-98958400D01*
X160078421Y-99362461D02*
X160401670Y-99685709D01*
X159674360Y-100089770D02*
X160240045Y-99524085D01*
%LPC*%
D16*
G36*
X174375000Y-90675000D02*
G01*
X174775000Y-90675000D01*
X174775000Y-91125000D01*
X174375000Y-91125000D01*
X174375000Y-90675000D01*
G37*
X174375000Y-90675000D02*
X174775000Y-90675000D01*
X174775000Y-91125000D01*
X174375000Y-91125000D01*
X174375000Y-90675000D01*
G36*
X174375000Y-91175000D02*
G01*
X174775000Y-91175000D01*
X174775000Y-91625000D01*
X174375000Y-91625000D01*
X174375000Y-91175000D01*
G37*
X174375000Y-91175000D02*
X174775000Y-91175000D01*
X174775000Y-91625000D01*
X174375000Y-91625000D01*
X174375000Y-91175000D01*
G36*
X173825000Y-91725000D02*
G01*
X174275000Y-91725000D01*
X174275000Y-92125000D01*
X173825000Y-92125000D01*
X173825000Y-91725000D01*
G37*
X173825000Y-91725000D02*
X174275000Y-91725000D01*
X174275000Y-92125000D01*
X173825000Y-92125000D01*
X173825000Y-91725000D01*
G36*
X173325000Y-91725000D02*
G01*
X173775000Y-91725000D01*
X173775000Y-92125000D01*
X173325000Y-92125000D01*
X173325000Y-91725000D01*
G37*
X173325000Y-91725000D02*
X173775000Y-91725000D01*
X173775000Y-92125000D01*
X173325000Y-92125000D01*
X173325000Y-91725000D01*
G36*
X172825000Y-91175000D02*
G01*
X173225000Y-91175000D01*
X173225000Y-91625000D01*
X172825000Y-91625000D01*
X172825000Y-91175000D01*
G37*
X172825000Y-91175000D02*
X173225000Y-91175000D01*
X173225000Y-91625000D01*
X172825000Y-91625000D01*
X172825000Y-91175000D01*
G36*
X172825000Y-90675000D02*
G01*
X173225000Y-90675000D01*
X173225000Y-91125000D01*
X172825000Y-91125000D01*
X172825000Y-90675000D01*
G37*
X172825000Y-90675000D02*
X173225000Y-90675000D01*
X173225000Y-91125000D01*
X172825000Y-91125000D01*
X172825000Y-90675000D01*
G36*
X173325000Y-90175000D02*
G01*
X173775000Y-90175000D01*
X173775000Y-90575000D01*
X173325000Y-90575000D01*
X173325000Y-90175000D01*
G37*
X173325000Y-90175000D02*
X173775000Y-90175000D01*
X173775000Y-90575000D01*
X173325000Y-90575000D01*
X173325000Y-90175000D01*
G36*
X173825000Y-90175000D02*
G01*
X174275000Y-90175000D01*
X174275000Y-90575000D01*
X173825000Y-90575000D01*
X173825000Y-90175000D01*
G37*
X173825000Y-90175000D02*
X174275000Y-90175000D01*
X174275000Y-90575000D01*
X173825000Y-90575000D01*
X173825000Y-90175000D01*
G36*
X172825000Y-91675000D02*
G01*
X173225000Y-91675000D01*
X173225000Y-92125000D01*
X172825000Y-92125000D01*
X172825000Y-91675000D01*
G37*
X172825000Y-91675000D02*
X173225000Y-91675000D01*
X173225000Y-92125000D01*
X172825000Y-92125000D01*
X172825000Y-91675000D01*
G36*
X172825000Y-90175000D02*
G01*
X173225000Y-90175000D01*
X173225000Y-90625000D01*
X172825000Y-90625000D01*
X172825000Y-90175000D01*
G37*
X172825000Y-90175000D02*
X173225000Y-90175000D01*
X173225000Y-90625000D01*
X172825000Y-90625000D01*
X172825000Y-90175000D01*
G36*
X174375000Y-91675000D02*
G01*
X174775000Y-91675000D01*
X174775000Y-92125000D01*
X174375000Y-92125000D01*
X174375000Y-91675000D01*
G37*
X174375000Y-91675000D02*
X174775000Y-91675000D01*
X174775000Y-92125000D01*
X174375000Y-92125000D01*
X174375000Y-91675000D01*
G36*
X174375000Y-90175000D02*
G01*
X174775000Y-90175000D01*
X174775000Y-90625000D01*
X174375000Y-90625000D01*
X174375000Y-90175000D01*
G37*
X174375000Y-90175000D02*
X174775000Y-90175000D01*
X174775000Y-90625000D01*
X174375000Y-90625000D01*
X174375000Y-90175000D01*
D17*
X153314400Y-83210400D03*
G36*
G01*
X172195000Y-91750000D02*
X171805000Y-91750000D01*
G75*
G02*
X171640000Y-91585000I0J165000D01*
G01*
X171640000Y-91255000D01*
G75*
G02*
X171805000Y-91090000I165000J0D01*
G01*
X172195000Y-91090000D01*
G75*
G02*
X172360000Y-91255000I0J-165000D01*
G01*
X172360000Y-91585000D01*
G75*
G02*
X172195000Y-91750000I-165000J0D01*
G01*
G37*
G36*
G01*
X172195000Y-92710000D02*
X171805000Y-92710000D01*
G75*
G02*
X171640000Y-92545000I0J165000D01*
G01*
X171640000Y-92215000D01*
G75*
G02*
X171805000Y-92050000I165000J0D01*
G01*
X172195000Y-92050000D01*
G75*
G02*
X172360000Y-92215000I0J-165000D01*
G01*
X172360000Y-92545000D01*
G75*
G02*
X172195000Y-92710000I-165000J0D01*
G01*
G37*
G36*
G01*
X161200000Y-91900000D02*
X161500000Y-91900000D01*
G75*
G02*
X161550000Y-91950000I0J-50000D01*
G01*
X161550000Y-93350000D01*
G75*
G02*
X161500000Y-93400000I-50000J0D01*
G01*
X161200000Y-93400000D01*
G75*
G02*
X161150000Y-93350000I0J50000D01*
G01*
X161150000Y-91950000D01*
G75*
G02*
X161200000Y-91900000I50000J0D01*
G01*
G37*
G36*
G01*
X160700000Y-91900000D02*
X161000000Y-91900000D01*
G75*
G02*
X161050000Y-91950000I0J-50000D01*
G01*
X161050000Y-93350000D01*
G75*
G02*
X161000000Y-93400000I-50000J0D01*
G01*
X160700000Y-93400000D01*
G75*
G02*
X160650000Y-93350000I0J50000D01*
G01*
X160650000Y-91950000D01*
G75*
G02*
X160700000Y-91900000I50000J0D01*
G01*
G37*
G36*
G01*
X160200000Y-91900000D02*
X160500000Y-91900000D01*
G75*
G02*
X160550000Y-91950000I0J-50000D01*
G01*
X160550000Y-93350000D01*
G75*
G02*
X160500000Y-93400000I-50000J0D01*
G01*
X160200000Y-93400000D01*
G75*
G02*
X160150000Y-93350000I0J50000D01*
G01*
X160150000Y-91950000D01*
G75*
G02*
X160200000Y-91900000I50000J0D01*
G01*
G37*
G36*
G01*
X159700000Y-91900000D02*
X160000000Y-91900000D01*
G75*
G02*
X160050000Y-91950000I0J-50000D01*
G01*
X160050000Y-93350000D01*
G75*
G02*
X160000000Y-93400000I-50000J0D01*
G01*
X159700000Y-93400000D01*
G75*
G02*
X159650000Y-93350000I0J50000D01*
G01*
X159650000Y-91950000D01*
G75*
G02*
X159700000Y-91900000I50000J0D01*
G01*
G37*
G36*
G01*
X159200000Y-91900000D02*
X159500000Y-91900000D01*
G75*
G02*
X159550000Y-91950000I0J-50000D01*
G01*
X159550000Y-93350000D01*
G75*
G02*
X159500000Y-93400000I-50000J0D01*
G01*
X159200000Y-93400000D01*
G75*
G02*
X159150000Y-93350000I0J50000D01*
G01*
X159150000Y-91950000D01*
G75*
G02*
X159200000Y-91900000I50000J0D01*
G01*
G37*
G36*
G01*
X159200000Y-87500000D02*
X159500000Y-87500000D01*
G75*
G02*
X159550000Y-87550000I0J-50000D01*
G01*
X159550000Y-88950000D01*
G75*
G02*
X159500000Y-89000000I-50000J0D01*
G01*
X159200000Y-89000000D01*
G75*
G02*
X159150000Y-88950000I0J50000D01*
G01*
X159150000Y-87550000D01*
G75*
G02*
X159200000Y-87500000I50000J0D01*
G01*
G37*
G36*
G01*
X159700000Y-87500000D02*
X160000000Y-87500000D01*
G75*
G02*
X160050000Y-87550000I0J-50000D01*
G01*
X160050000Y-88950000D01*
G75*
G02*
X160000000Y-89000000I-50000J0D01*
G01*
X159700000Y-89000000D01*
G75*
G02*
X159650000Y-88950000I0J50000D01*
G01*
X159650000Y-87550000D01*
G75*
G02*
X159700000Y-87500000I50000J0D01*
G01*
G37*
G36*
G01*
X160200000Y-87500000D02*
X160500000Y-87500000D01*
G75*
G02*
X160550000Y-87550000I0J-50000D01*
G01*
X160550000Y-88950000D01*
G75*
G02*
X160500000Y-89000000I-50000J0D01*
G01*
X160200000Y-89000000D01*
G75*
G02*
X160150000Y-88950000I0J50000D01*
G01*
X160150000Y-87550000D01*
G75*
G02*
X160200000Y-87500000I50000J0D01*
G01*
G37*
G36*
G01*
X160700000Y-87500000D02*
X161000000Y-87500000D01*
G75*
G02*
X161050000Y-87550000I0J-50000D01*
G01*
X161050000Y-88950000D01*
G75*
G02*
X161000000Y-89000000I-50000J0D01*
G01*
X160700000Y-89000000D01*
G75*
G02*
X160650000Y-88950000I0J50000D01*
G01*
X160650000Y-87550000D01*
G75*
G02*
X160700000Y-87500000I50000J0D01*
G01*
G37*
G36*
G01*
X161200000Y-87500000D02*
X161500000Y-87500000D01*
G75*
G02*
X161550000Y-87550000I0J-50000D01*
G01*
X161550000Y-88950000D01*
G75*
G02*
X161500000Y-89000000I-50000J0D01*
G01*
X161200000Y-89000000D01*
G75*
G02*
X161150000Y-88950000I0J50000D01*
G01*
X161150000Y-87550000D01*
G75*
G02*
X161200000Y-87500000I50000J0D01*
G01*
G37*
G36*
G01*
X171495000Y-106500000D02*
X171495000Y-100500000D01*
G75*
G02*
X171545000Y-100450000I50000J0D01*
G01*
X174545000Y-100450000D01*
G75*
G02*
X174595000Y-100500000I0J-50000D01*
G01*
X174595000Y-106500000D01*
G75*
G02*
X174545000Y-106550000I-50000J0D01*
G01*
X171545000Y-106550000D01*
G75*
G02*
X171495000Y-106500000I0J50000D01*
G01*
G37*
G36*
G01*
X163875000Y-106500000D02*
X163875000Y-100500000D01*
G75*
G02*
X163925000Y-100450000I50000J0D01*
G01*
X166925000Y-100450000D01*
G75*
G02*
X166975000Y-100500000I0J-50000D01*
G01*
X166975000Y-106500000D01*
G75*
G02*
X166925000Y-106550000I-50000J0D01*
G01*
X163925000Y-106550000D01*
G75*
G02*
X163875000Y-106500000I0J50000D01*
G01*
G37*
G36*
G01*
X172756000Y-88637000D02*
X172156000Y-88637000D01*
G75*
G02*
X172106000Y-88587000I0J50000D01*
G01*
X172106000Y-87063000D01*
G75*
G02*
X172156000Y-87013000I50000J0D01*
G01*
X172756000Y-87013000D01*
G75*
G02*
X172806000Y-87063000I0J-50000D01*
G01*
X172806000Y-88587000D01*
G75*
G02*
X172756000Y-88637000I-50000J0D01*
G01*
G37*
G36*
G01*
X171740000Y-88637000D02*
X171140000Y-88637000D01*
G75*
G02*
X171090000Y-88587000I0J50000D01*
G01*
X171090000Y-87063000D01*
G75*
G02*
X171140000Y-87013000I50000J0D01*
G01*
X171740000Y-87013000D01*
G75*
G02*
X171790000Y-87063000I0J-50000D01*
G01*
X171790000Y-88587000D01*
G75*
G02*
X171740000Y-88637000I-50000J0D01*
G01*
G37*
G36*
G01*
X170724000Y-88637000D02*
X170124000Y-88637000D01*
G75*
G02*
X170074000Y-88587000I0J50000D01*
G01*
X170074000Y-87063000D01*
G75*
G02*
X170124000Y-87013000I50000J0D01*
G01*
X170724000Y-87013000D01*
G75*
G02*
X170774000Y-87063000I0J-50000D01*
G01*
X170774000Y-88587000D01*
G75*
G02*
X170724000Y-88637000I-50000J0D01*
G01*
G37*
G36*
G01*
X169708000Y-88637000D02*
X169108000Y-88637000D01*
G75*
G02*
X169058000Y-88587000I0J50000D01*
G01*
X169058000Y-87063000D01*
G75*
G02*
X169108000Y-87013000I50000J0D01*
G01*
X169708000Y-87013000D01*
G75*
G02*
X169758000Y-87063000I0J-50000D01*
G01*
X169758000Y-88587000D01*
G75*
G02*
X169708000Y-88637000I-50000J0D01*
G01*
G37*
G36*
G01*
X168692000Y-88637000D02*
X168092000Y-88637000D01*
G75*
G02*
X168042000Y-88587000I0J50000D01*
G01*
X168042000Y-87063000D01*
G75*
G02*
X168092000Y-87013000I50000J0D01*
G01*
X168692000Y-87013000D01*
G75*
G02*
X168742000Y-87063000I0J-50000D01*
G01*
X168742000Y-88587000D01*
G75*
G02*
X168692000Y-88637000I-50000J0D01*
G01*
G37*
G36*
G01*
X167676000Y-88637000D02*
X167076000Y-88637000D01*
G75*
G02*
X167026000Y-88587000I0J50000D01*
G01*
X167026000Y-87063000D01*
G75*
G02*
X167076000Y-87013000I50000J0D01*
G01*
X167676000Y-87013000D01*
G75*
G02*
X167726000Y-87063000I0J-50000D01*
G01*
X167726000Y-88587000D01*
G75*
G02*
X167676000Y-88637000I-50000J0D01*
G01*
G37*
G36*
G01*
X166660000Y-88637000D02*
X166060000Y-88637000D01*
G75*
G02*
X166010000Y-88587000I0J50000D01*
G01*
X166010000Y-87063000D01*
G75*
G02*
X166060000Y-87013000I50000J0D01*
G01*
X166660000Y-87013000D01*
G75*
G02*
X166710000Y-87063000I0J-50000D01*
G01*
X166710000Y-88587000D01*
G75*
G02*
X166660000Y-88637000I-50000J0D01*
G01*
G37*
G36*
G01*
X165644000Y-88637000D02*
X165044000Y-88637000D01*
G75*
G02*
X164994000Y-88587000I0J50000D01*
G01*
X164994000Y-87063000D01*
G75*
G02*
X165044000Y-87013000I50000J0D01*
G01*
X165644000Y-87013000D01*
G75*
G02*
X165694000Y-87063000I0J-50000D01*
G01*
X165694000Y-88587000D01*
G75*
G02*
X165644000Y-88637000I-50000J0D01*
G01*
G37*
G36*
G01*
X174588000Y-78625000D02*
X174588000Y-78025000D01*
G75*
G02*
X174638000Y-77975000I50000J0D01*
G01*
X176162000Y-77975000D01*
G75*
G02*
X176212000Y-78025000I0J-50000D01*
G01*
X176212000Y-78625000D01*
G75*
G02*
X176162000Y-78675000I-50000J0D01*
G01*
X174638000Y-78675000D01*
G75*
G02*
X174588000Y-78625000I0J50000D01*
G01*
G37*
G36*
G01*
X174588000Y-72625000D02*
X174588000Y-72025000D01*
G75*
G02*
X174638000Y-71975000I50000J0D01*
G01*
X176162000Y-71975000D01*
G75*
G02*
X176212000Y-72025000I0J-50000D01*
G01*
X176212000Y-72625000D01*
G75*
G02*
X176162000Y-72675000I-50000J0D01*
G01*
X174638000Y-72675000D01*
G75*
G02*
X174588000Y-72625000I0J50000D01*
G01*
G37*
G36*
G01*
X174588000Y-81625000D02*
X174588000Y-81025000D01*
G75*
G02*
X174638000Y-80975000I50000J0D01*
G01*
X176162000Y-80975000D01*
G75*
G02*
X176212000Y-81025000I0J-50000D01*
G01*
X176212000Y-81625000D01*
G75*
G02*
X176162000Y-81675000I-50000J0D01*
G01*
X174638000Y-81675000D01*
G75*
G02*
X174588000Y-81625000I0J50000D01*
G01*
G37*
G36*
G01*
X174588000Y-80625000D02*
X174588000Y-80025000D01*
G75*
G02*
X174638000Y-79975000I50000J0D01*
G01*
X176162000Y-79975000D01*
G75*
G02*
X176212000Y-80025000I0J-50000D01*
G01*
X176212000Y-80625000D01*
G75*
G02*
X176162000Y-80675000I-50000J0D01*
G01*
X174638000Y-80675000D01*
G75*
G02*
X174588000Y-80625000I0J50000D01*
G01*
G37*
G36*
G01*
X174588000Y-73625000D02*
X174588000Y-73025000D01*
G75*
G02*
X174638000Y-72975000I50000J0D01*
G01*
X176162000Y-72975000D01*
G75*
G02*
X176212000Y-73025000I0J-50000D01*
G01*
X176212000Y-73625000D01*
G75*
G02*
X176162000Y-73675000I-50000J0D01*
G01*
X174638000Y-73675000D01*
G75*
G02*
X174588000Y-73625000I0J50000D01*
G01*
G37*
G36*
G01*
X174588000Y-74625000D02*
X174588000Y-74025000D01*
G75*
G02*
X174638000Y-73975000I50000J0D01*
G01*
X176162000Y-73975000D01*
G75*
G02*
X176212000Y-74025000I0J-50000D01*
G01*
X176212000Y-74625000D01*
G75*
G02*
X176162000Y-74675000I-50000J0D01*
G01*
X174638000Y-74675000D01*
G75*
G02*
X174588000Y-74625000I0J50000D01*
G01*
G37*
G36*
G01*
X174588000Y-75625000D02*
X174588000Y-75025000D01*
G75*
G02*
X174638000Y-74975000I50000J0D01*
G01*
X176162000Y-74975000D01*
G75*
G02*
X176212000Y-75025000I0J-50000D01*
G01*
X176212000Y-75625000D01*
G75*
G02*
X176162000Y-75675000I-50000J0D01*
G01*
X174638000Y-75675000D01*
G75*
G02*
X174588000Y-75625000I0J50000D01*
G01*
G37*
G36*
G01*
X174588000Y-76625000D02*
X174588000Y-76025000D01*
G75*
G02*
X174638000Y-75975000I50000J0D01*
G01*
X176162000Y-75975000D01*
G75*
G02*
X176212000Y-76025000I0J-50000D01*
G01*
X176212000Y-76625000D01*
G75*
G02*
X176162000Y-76675000I-50000J0D01*
G01*
X174638000Y-76675000D01*
G75*
G02*
X174588000Y-76625000I0J50000D01*
G01*
G37*
G36*
G01*
X174588000Y-86625000D02*
X174588000Y-86025000D01*
G75*
G02*
X174638000Y-85975000I50000J0D01*
G01*
X176162000Y-85975000D01*
G75*
G02*
X176212000Y-86025000I0J-50000D01*
G01*
X176212000Y-86625000D01*
G75*
G02*
X176162000Y-86675000I-50000J0D01*
G01*
X174638000Y-86675000D01*
G75*
G02*
X174588000Y-86625000I0J50000D01*
G01*
G37*
G36*
G01*
X174588000Y-85625000D02*
X174588000Y-85025000D01*
G75*
G02*
X174638000Y-84975000I50000J0D01*
G01*
X176162000Y-84975000D01*
G75*
G02*
X176212000Y-85025000I0J-50000D01*
G01*
X176212000Y-85625000D01*
G75*
G02*
X176162000Y-85675000I-50000J0D01*
G01*
X174638000Y-85675000D01*
G75*
G02*
X174588000Y-85625000I0J50000D01*
G01*
G37*
G36*
G01*
X174588000Y-79625000D02*
X174588000Y-79025000D01*
G75*
G02*
X174638000Y-78975000I50000J0D01*
G01*
X176162000Y-78975000D01*
G75*
G02*
X176212000Y-79025000I0J-50000D01*
G01*
X176212000Y-79625000D01*
G75*
G02*
X176162000Y-79675000I-50000J0D01*
G01*
X174638000Y-79675000D01*
G75*
G02*
X174588000Y-79625000I0J50000D01*
G01*
G37*
G36*
G01*
X174588000Y-83625000D02*
X174588000Y-83025000D01*
G75*
G02*
X174638000Y-82975000I50000J0D01*
G01*
X176162000Y-82975000D01*
G75*
G02*
X176212000Y-83025000I0J-50000D01*
G01*
X176212000Y-83625000D01*
G75*
G02*
X176162000Y-83675000I-50000J0D01*
G01*
X174638000Y-83675000D01*
G75*
G02*
X174588000Y-83625000I0J50000D01*
G01*
G37*
G36*
G01*
X174588000Y-77625000D02*
X174588000Y-77025000D01*
G75*
G02*
X174638000Y-76975000I50000J0D01*
G01*
X176162000Y-76975000D01*
G75*
G02*
X176212000Y-77025000I0J-50000D01*
G01*
X176212000Y-77625000D01*
G75*
G02*
X176162000Y-77675000I-50000J0D01*
G01*
X174638000Y-77675000D01*
G75*
G02*
X174588000Y-77625000I0J50000D01*
G01*
G37*
G36*
G01*
X174588000Y-82625000D02*
X174588000Y-82025000D01*
G75*
G02*
X174638000Y-81975000I50000J0D01*
G01*
X176162000Y-81975000D01*
G75*
G02*
X176212000Y-82025000I0J-50000D01*
G01*
X176212000Y-82625000D01*
G75*
G02*
X176162000Y-82675000I-50000J0D01*
G01*
X174638000Y-82675000D01*
G75*
G02*
X174588000Y-82625000I0J50000D01*
G01*
G37*
G36*
G01*
X174588000Y-84625000D02*
X174588000Y-84025000D01*
G75*
G02*
X174638000Y-83975000I50000J0D01*
G01*
X176162000Y-83975000D01*
G75*
G02*
X176212000Y-84025000I0J-50000D01*
G01*
X176212000Y-84625000D01*
G75*
G02*
X176162000Y-84675000I-50000J0D01*
G01*
X174638000Y-84675000D01*
G75*
G02*
X174588000Y-84625000I0J50000D01*
G01*
G37*
G36*
G01*
X161588000Y-72625000D02*
X161588000Y-72025000D01*
G75*
G02*
X161638000Y-71975000I50000J0D01*
G01*
X163162000Y-71975000D01*
G75*
G02*
X163212000Y-72025000I0J-50000D01*
G01*
X163212000Y-72625000D01*
G75*
G02*
X163162000Y-72675000I-50000J0D01*
G01*
X161638000Y-72675000D01*
G75*
G02*
X161588000Y-72625000I0J50000D01*
G01*
G37*
G36*
G01*
X161588000Y-73625000D02*
X161588000Y-73025000D01*
G75*
G02*
X161638000Y-72975000I50000J0D01*
G01*
X163162000Y-72975000D01*
G75*
G02*
X163212000Y-73025000I0J-50000D01*
G01*
X163212000Y-73625000D01*
G75*
G02*
X163162000Y-73675000I-50000J0D01*
G01*
X161638000Y-73675000D01*
G75*
G02*
X161588000Y-73625000I0J50000D01*
G01*
G37*
G36*
G01*
X161588000Y-74625000D02*
X161588000Y-74025000D01*
G75*
G02*
X161638000Y-73975000I50000J0D01*
G01*
X163162000Y-73975000D01*
G75*
G02*
X163212000Y-74025000I0J-50000D01*
G01*
X163212000Y-74625000D01*
G75*
G02*
X163162000Y-74675000I-50000J0D01*
G01*
X161638000Y-74675000D01*
G75*
G02*
X161588000Y-74625000I0J50000D01*
G01*
G37*
G36*
G01*
X161588000Y-75625000D02*
X161588000Y-75025000D01*
G75*
G02*
X161638000Y-74975000I50000J0D01*
G01*
X163162000Y-74975000D01*
G75*
G02*
X163212000Y-75025000I0J-50000D01*
G01*
X163212000Y-75625000D01*
G75*
G02*
X163162000Y-75675000I-50000J0D01*
G01*
X161638000Y-75675000D01*
G75*
G02*
X161588000Y-75625000I0J50000D01*
G01*
G37*
G36*
G01*
X161588000Y-76625000D02*
X161588000Y-76025000D01*
G75*
G02*
X161638000Y-75975000I50000J0D01*
G01*
X163162000Y-75975000D01*
G75*
G02*
X163212000Y-76025000I0J-50000D01*
G01*
X163212000Y-76625000D01*
G75*
G02*
X163162000Y-76675000I-50000J0D01*
G01*
X161638000Y-76675000D01*
G75*
G02*
X161588000Y-76625000I0J50000D01*
G01*
G37*
G36*
G01*
X161588000Y-77625000D02*
X161588000Y-77025000D01*
G75*
G02*
X161638000Y-76975000I50000J0D01*
G01*
X163162000Y-76975000D01*
G75*
G02*
X163212000Y-77025000I0J-50000D01*
G01*
X163212000Y-77625000D01*
G75*
G02*
X163162000Y-77675000I-50000J0D01*
G01*
X161638000Y-77675000D01*
G75*
G02*
X161588000Y-77625000I0J50000D01*
G01*
G37*
G36*
G01*
X161588000Y-78625000D02*
X161588000Y-78025000D01*
G75*
G02*
X161638000Y-77975000I50000J0D01*
G01*
X163162000Y-77975000D01*
G75*
G02*
X163212000Y-78025000I0J-50000D01*
G01*
X163212000Y-78625000D01*
G75*
G02*
X163162000Y-78675000I-50000J0D01*
G01*
X161638000Y-78675000D01*
G75*
G02*
X161588000Y-78625000I0J50000D01*
G01*
G37*
G36*
G01*
X161588000Y-79625000D02*
X161588000Y-79025000D01*
G75*
G02*
X161638000Y-78975000I50000J0D01*
G01*
X163162000Y-78975000D01*
G75*
G02*
X163212000Y-79025000I0J-50000D01*
G01*
X163212000Y-79625000D01*
G75*
G02*
X163162000Y-79675000I-50000J0D01*
G01*
X161638000Y-79675000D01*
G75*
G02*
X161588000Y-79625000I0J50000D01*
G01*
G37*
G36*
G01*
X161588000Y-80625000D02*
X161588000Y-80025000D01*
G75*
G02*
X161638000Y-79975000I50000J0D01*
G01*
X163162000Y-79975000D01*
G75*
G02*
X163212000Y-80025000I0J-50000D01*
G01*
X163212000Y-80625000D01*
G75*
G02*
X163162000Y-80675000I-50000J0D01*
G01*
X161638000Y-80675000D01*
G75*
G02*
X161588000Y-80625000I0J50000D01*
G01*
G37*
G36*
G01*
X161588000Y-81625000D02*
X161588000Y-81025000D01*
G75*
G02*
X161638000Y-80975000I50000J0D01*
G01*
X163162000Y-80975000D01*
G75*
G02*
X163212000Y-81025000I0J-50000D01*
G01*
X163212000Y-81625000D01*
G75*
G02*
X163162000Y-81675000I-50000J0D01*
G01*
X161638000Y-81675000D01*
G75*
G02*
X161588000Y-81625000I0J50000D01*
G01*
G37*
G36*
G01*
X161588000Y-82625000D02*
X161588000Y-82025000D01*
G75*
G02*
X161638000Y-81975000I50000J0D01*
G01*
X163162000Y-81975000D01*
G75*
G02*
X163212000Y-82025000I0J-50000D01*
G01*
X163212000Y-82625000D01*
G75*
G02*
X163162000Y-82675000I-50000J0D01*
G01*
X161638000Y-82675000D01*
G75*
G02*
X161588000Y-82625000I0J50000D01*
G01*
G37*
G36*
G01*
X161588000Y-83625000D02*
X161588000Y-83025000D01*
G75*
G02*
X161638000Y-82975000I50000J0D01*
G01*
X163162000Y-82975000D01*
G75*
G02*
X163212000Y-83025000I0J-50000D01*
G01*
X163212000Y-83625000D01*
G75*
G02*
X163162000Y-83675000I-50000J0D01*
G01*
X161638000Y-83675000D01*
G75*
G02*
X161588000Y-83625000I0J50000D01*
G01*
G37*
G36*
G01*
X161588000Y-84625000D02*
X161588000Y-84025000D01*
G75*
G02*
X161638000Y-83975000I50000J0D01*
G01*
X163162000Y-83975000D01*
G75*
G02*
X163212000Y-84025000I0J-50000D01*
G01*
X163212000Y-84625000D01*
G75*
G02*
X163162000Y-84675000I-50000J0D01*
G01*
X161638000Y-84675000D01*
G75*
G02*
X161588000Y-84625000I0J50000D01*
G01*
G37*
G36*
G01*
X161588000Y-85625000D02*
X161588000Y-85025000D01*
G75*
G02*
X161638000Y-84975000I50000J0D01*
G01*
X163162000Y-84975000D01*
G75*
G02*
X163212000Y-85025000I0J-50000D01*
G01*
X163212000Y-85625000D01*
G75*
G02*
X163162000Y-85675000I-50000J0D01*
G01*
X161638000Y-85675000D01*
G75*
G02*
X161588000Y-85625000I0J50000D01*
G01*
G37*
G36*
G01*
X161588000Y-86625000D02*
X161588000Y-86025000D01*
G75*
G02*
X161638000Y-85975000I50000J0D01*
G01*
X163162000Y-85975000D01*
G75*
G02*
X163212000Y-86025000I0J-50000D01*
G01*
X163212000Y-86625000D01*
G75*
G02*
X163162000Y-86675000I-50000J0D01*
G01*
X161638000Y-86675000D01*
G75*
G02*
X161588000Y-86625000I0J50000D01*
G01*
G37*
G36*
G01*
X166350000Y-83825000D02*
X166350000Y-78825000D01*
G75*
G02*
X166400000Y-78775000I50000J0D01*
G01*
X171400000Y-78775000D01*
G75*
G02*
X171450000Y-78825000I0J-50000D01*
G01*
X171450000Y-83825000D01*
G75*
G02*
X171400000Y-83875000I-50000J0D01*
G01*
X166400000Y-83875000D01*
G75*
G02*
X166350000Y-83825000I0J50000D01*
G01*
G37*
G36*
G01*
X172975000Y-96370000D02*
X173625000Y-96370000D01*
G75*
G02*
X173675000Y-96420000I0J-50000D01*
G01*
X173675000Y-97480000D01*
G75*
G02*
X173625000Y-97530000I-50000J0D01*
G01*
X172975000Y-97530000D01*
G75*
G02*
X172925000Y-97480000I0J50000D01*
G01*
X172925000Y-96420000D01*
G75*
G02*
X172975000Y-96370000I50000J0D01*
G01*
G37*
G36*
G01*
X171075000Y-96370000D02*
X171725000Y-96370000D01*
G75*
G02*
X171775000Y-96420000I0J-50000D01*
G01*
X171775000Y-97480000D01*
G75*
G02*
X171725000Y-97530000I-50000J0D01*
G01*
X171075000Y-97530000D01*
G75*
G02*
X171025000Y-97480000I0J50000D01*
G01*
X171025000Y-96420000D01*
G75*
G02*
X171075000Y-96370000I50000J0D01*
G01*
G37*
G36*
G01*
X171075000Y-94170000D02*
X171725000Y-94170000D01*
G75*
G02*
X171775000Y-94220000I0J-50000D01*
G01*
X171775000Y-95280000D01*
G75*
G02*
X171725000Y-95330000I-50000J0D01*
G01*
X171075000Y-95330000D01*
G75*
G02*
X171025000Y-95280000I0J50000D01*
G01*
X171025000Y-94220000D01*
G75*
G02*
X171075000Y-94170000I50000J0D01*
G01*
G37*
G36*
G01*
X172025000Y-94170000D02*
X172675000Y-94170000D01*
G75*
G02*
X172725000Y-94220000I0J-50000D01*
G01*
X172725000Y-95280000D01*
G75*
G02*
X172675000Y-95330000I-50000J0D01*
G01*
X172025000Y-95330000D01*
G75*
G02*
X171975000Y-95280000I0J50000D01*
G01*
X171975000Y-94220000D01*
G75*
G02*
X172025000Y-94170000I50000J0D01*
G01*
G37*
G36*
G01*
X172975000Y-94170000D02*
X173625000Y-94170000D01*
G75*
G02*
X173675000Y-94220000I0J-50000D01*
G01*
X173675000Y-95280000D01*
G75*
G02*
X173625000Y-95330000I-50000J0D01*
G01*
X172975000Y-95330000D01*
G75*
G02*
X172925000Y-95280000I0J50000D01*
G01*
X172925000Y-94220000D01*
G75*
G02*
X172975000Y-94170000I50000J0D01*
G01*
G37*
G36*
G01*
X180200000Y-88280000D02*
X180200000Y-88630000D01*
G75*
G02*
X180025000Y-88805000I-175000J0D01*
G01*
X178325000Y-88805000D01*
G75*
G02*
X178150000Y-88630000I0J175000D01*
G01*
X178150000Y-88280000D01*
G75*
G02*
X178325000Y-88105000I175000J0D01*
G01*
X180025000Y-88105000D01*
G75*
G02*
X180200000Y-88280000I0J-175000D01*
G01*
G37*
G36*
G01*
X180200000Y-87010000D02*
X180200000Y-87360000D01*
G75*
G02*
X180025000Y-87535000I-175000J0D01*
G01*
X178325000Y-87535000D01*
G75*
G02*
X178150000Y-87360000I0J175000D01*
G01*
X178150000Y-87010000D01*
G75*
G02*
X178325000Y-86835000I175000J0D01*
G01*
X180025000Y-86835000D01*
G75*
G02*
X180200000Y-87010000I0J-175000D01*
G01*
G37*
G36*
G01*
X180200000Y-85740000D02*
X180200000Y-86090000D01*
G75*
G02*
X180025000Y-86265000I-175000J0D01*
G01*
X178325000Y-86265000D01*
G75*
G02*
X178150000Y-86090000I0J175000D01*
G01*
X178150000Y-85740000D01*
G75*
G02*
X178325000Y-85565000I175000J0D01*
G01*
X180025000Y-85565000D01*
G75*
G02*
X180200000Y-85740000I0J-175000D01*
G01*
G37*
G36*
G01*
X180200000Y-84470000D02*
X180200000Y-84820000D01*
G75*
G02*
X180025000Y-84995000I-175000J0D01*
G01*
X178325000Y-84995000D01*
G75*
G02*
X178150000Y-84820000I0J175000D01*
G01*
X178150000Y-84470000D01*
G75*
G02*
X178325000Y-84295000I175000J0D01*
G01*
X180025000Y-84295000D01*
G75*
G02*
X180200000Y-84470000I0J-175000D01*
G01*
G37*
G36*
G01*
X185150000Y-84470000D02*
X185150000Y-84820000D01*
G75*
G02*
X184975000Y-84995000I-175000J0D01*
G01*
X183275000Y-84995000D01*
G75*
G02*
X183100000Y-84820000I0J175000D01*
G01*
X183100000Y-84470000D01*
G75*
G02*
X183275000Y-84295000I175000J0D01*
G01*
X184975000Y-84295000D01*
G75*
G02*
X185150000Y-84470000I0J-175000D01*
G01*
G37*
G36*
G01*
X185150000Y-85740000D02*
X185150000Y-86090000D01*
G75*
G02*
X184975000Y-86265000I-175000J0D01*
G01*
X183275000Y-86265000D01*
G75*
G02*
X183100000Y-86090000I0J175000D01*
G01*
X183100000Y-85740000D01*
G75*
G02*
X183275000Y-85565000I175000J0D01*
G01*
X184975000Y-85565000D01*
G75*
G02*
X185150000Y-85740000I0J-175000D01*
G01*
G37*
G36*
G01*
X185150000Y-87010000D02*
X185150000Y-87360000D01*
G75*
G02*
X184975000Y-87535000I-175000J0D01*
G01*
X183275000Y-87535000D01*
G75*
G02*
X183100000Y-87360000I0J175000D01*
G01*
X183100000Y-87010000D01*
G75*
G02*
X183275000Y-86835000I175000J0D01*
G01*
X184975000Y-86835000D01*
G75*
G02*
X185150000Y-87010000I0J-175000D01*
G01*
G37*
G36*
G01*
X185150000Y-88280000D02*
X185150000Y-88630000D01*
G75*
G02*
X184975000Y-88805000I-175000J0D01*
G01*
X183275000Y-88805000D01*
G75*
G02*
X183100000Y-88630000I0J175000D01*
G01*
X183100000Y-88280000D01*
G75*
G02*
X183275000Y-88105000I175000J0D01*
G01*
X184975000Y-88105000D01*
G75*
G02*
X185150000Y-88280000I0J-175000D01*
G01*
G37*
G36*
G01*
X164725000Y-96320000D02*
X165375000Y-96320000D01*
G75*
G02*
X165425000Y-96370000I0J-50000D01*
G01*
X165425000Y-97430000D01*
G75*
G02*
X165375000Y-97480000I-50000J0D01*
G01*
X164725000Y-97480000D01*
G75*
G02*
X164675000Y-97430000I0J50000D01*
G01*
X164675000Y-96370000D01*
G75*
G02*
X164725000Y-96320000I50000J0D01*
G01*
G37*
G36*
G01*
X162825000Y-96320000D02*
X163475000Y-96320000D01*
G75*
G02*
X163525000Y-96370000I0J-50000D01*
G01*
X163525000Y-97430000D01*
G75*
G02*
X163475000Y-97480000I-50000J0D01*
G01*
X162825000Y-97480000D01*
G75*
G02*
X162775000Y-97430000I0J50000D01*
G01*
X162775000Y-96370000D01*
G75*
G02*
X162825000Y-96320000I50000J0D01*
G01*
G37*
G36*
G01*
X162825000Y-94120000D02*
X163475000Y-94120000D01*
G75*
G02*
X163525000Y-94170000I0J-50000D01*
G01*
X163525000Y-95230000D01*
G75*
G02*
X163475000Y-95280000I-50000J0D01*
G01*
X162825000Y-95280000D01*
G75*
G02*
X162775000Y-95230000I0J50000D01*
G01*
X162775000Y-94170000D01*
G75*
G02*
X162825000Y-94120000I50000J0D01*
G01*
G37*
G36*
G01*
X163775000Y-94120000D02*
X164425000Y-94120000D01*
G75*
G02*
X164475000Y-94170000I0J-50000D01*
G01*
X164475000Y-95230000D01*
G75*
G02*
X164425000Y-95280000I-50000J0D01*
G01*
X163775000Y-95280000D01*
G75*
G02*
X163725000Y-95230000I0J50000D01*
G01*
X163725000Y-94170000D01*
G75*
G02*
X163775000Y-94120000I50000J0D01*
G01*
G37*
G36*
G01*
X164725000Y-94120000D02*
X165375000Y-94120000D01*
G75*
G02*
X165425000Y-94170000I0J-50000D01*
G01*
X165425000Y-95230000D01*
G75*
G02*
X165375000Y-95280000I-50000J0D01*
G01*
X164725000Y-95280000D01*
G75*
G02*
X164675000Y-95230000I0J50000D01*
G01*
X164675000Y-94170000D01*
G75*
G02*
X164725000Y-94120000I50000J0D01*
G01*
G37*
G36*
G01*
X157625000Y-89550000D02*
X157625000Y-89250000D01*
G75*
G02*
X157675000Y-89200000I50000J0D01*
G01*
X158125000Y-89200000D01*
G75*
G02*
X158175000Y-89250000I0J-50000D01*
G01*
X158175000Y-89550000D01*
G75*
G02*
X158125000Y-89600000I-50000J0D01*
G01*
X157675000Y-89600000D01*
G75*
G02*
X157625000Y-89550000I0J50000D01*
G01*
G37*
G36*
G01*
X156225000Y-89050000D02*
X156225000Y-88750000D01*
G75*
G02*
X156275000Y-88700000I50000J0D01*
G01*
X156725000Y-88700000D01*
G75*
G02*
X156775000Y-88750000I0J-50000D01*
G01*
X156775000Y-89050000D01*
G75*
G02*
X156725000Y-89100000I-50000J0D01*
G01*
X156275000Y-89100000D01*
G75*
G02*
X156225000Y-89050000I0J50000D01*
G01*
G37*
G36*
G01*
X157625000Y-88550000D02*
X157625000Y-88250000D01*
G75*
G02*
X157675000Y-88200000I50000J0D01*
G01*
X158125000Y-88200000D01*
G75*
G02*
X158175000Y-88250000I0J-50000D01*
G01*
X158175000Y-88550000D01*
G75*
G02*
X158125000Y-88600000I-50000J0D01*
G01*
X157675000Y-88600000D01*
G75*
G02*
X157625000Y-88550000I0J50000D01*
G01*
G37*
G36*
G01*
X156225000Y-89550000D02*
X156225000Y-89250000D01*
G75*
G02*
X156275000Y-89200000I50000J0D01*
G01*
X156725000Y-89200000D01*
G75*
G02*
X156775000Y-89250000I0J-50000D01*
G01*
X156775000Y-89550000D01*
G75*
G02*
X156725000Y-89600000I-50000J0D01*
G01*
X156275000Y-89600000D01*
G75*
G02*
X156225000Y-89550000I0J50000D01*
G01*
G37*
G36*
G01*
X156225000Y-88550000D02*
X156225000Y-88250000D01*
G75*
G02*
X156275000Y-88200000I50000J0D01*
G01*
X156725000Y-88200000D01*
G75*
G02*
X156775000Y-88250000I0J-50000D01*
G01*
X156775000Y-88550000D01*
G75*
G02*
X156725000Y-88600000I-50000J0D01*
G01*
X156275000Y-88600000D01*
G75*
G02*
X156225000Y-88550000I0J50000D01*
G01*
G37*
X176600000Y-104200000D03*
X161798000Y-104495600D03*
X153720800Y-96062800D03*
G36*
G01*
X153862126Y-78670686D02*
X154569232Y-79377792D01*
G75*
G02*
X154569232Y-79448502I-35355J-35355D01*
G01*
X153720704Y-80297030D01*
G75*
G02*
X153649994Y-80297030I-35355J35355D01*
G01*
X152942888Y-79589924D01*
G75*
G02*
X152942888Y-79519214I35355J35355D01*
G01*
X153791416Y-78670686D01*
G75*
G02*
X153862126Y-78670686I35355J-35355D01*
G01*
G37*
G36*
G01*
X155064208Y-79872768D02*
X155771314Y-80579874D01*
G75*
G02*
X155771314Y-80650584I-35355J-35355D01*
G01*
X154922786Y-81499112D01*
G75*
G02*
X154852076Y-81499112I-35355J35355D01*
G01*
X154144970Y-80792006D01*
G75*
G02*
X154144970Y-80721296I35355J35355D01*
G01*
X154993498Y-79872768D01*
G75*
G02*
X155064208Y-79872768I35355J-35355D01*
G01*
G37*
G36*
G01*
X159024006Y-75912970D02*
X159731112Y-76620076D01*
G75*
G02*
X159731112Y-76690786I-35355J-35355D01*
G01*
X158882584Y-77539314D01*
G75*
G02*
X158811874Y-77539314I-35355J35355D01*
G01*
X158104768Y-76832208D01*
G75*
G02*
X158104768Y-76761498I35355J35355D01*
G01*
X158953296Y-75912970D01*
G75*
G02*
X159024006Y-75912970I35355J-35355D01*
G01*
G37*
G36*
G01*
X157821924Y-74710888D02*
X158529030Y-75417994D01*
G75*
G02*
X158529030Y-75488704I-35355J-35355D01*
G01*
X157680502Y-76337232D01*
G75*
G02*
X157609792Y-76337232I-35355J35355D01*
G01*
X156902686Y-75630126D01*
G75*
G02*
X156902686Y-75559416I35355J35355D01*
G01*
X157751214Y-74710888D01*
G75*
G02*
X157821924Y-74710888I35355J-35355D01*
G01*
G37*
G36*
G01*
X179775000Y-96600000D02*
X179775000Y-96000000D01*
G75*
G02*
X180000000Y-95775000I225000J0D01*
G01*
X180450000Y-95775000D01*
G75*
G02*
X180675000Y-96000000I0J-225000D01*
G01*
X180675000Y-96600000D01*
G75*
G02*
X180450000Y-96825000I-225000J0D01*
G01*
X180000000Y-96825000D01*
G75*
G02*
X179775000Y-96600000I0J225000D01*
G01*
G37*
G36*
G01*
X178125000Y-96600000D02*
X178125000Y-96000000D01*
G75*
G02*
X178350000Y-95775000I225000J0D01*
G01*
X178800000Y-95775000D01*
G75*
G02*
X179025000Y-96000000I0J-225000D01*
G01*
X179025000Y-96600000D01*
G75*
G02*
X178800000Y-96825000I-225000J0D01*
G01*
X178350000Y-96825000D01*
G75*
G02*
X178125000Y-96600000I0J225000D01*
G01*
G37*
G36*
G01*
X165375000Y-92900000D02*
X165375000Y-92300000D01*
G75*
G02*
X165600000Y-92075000I225000J0D01*
G01*
X166050000Y-92075000D01*
G75*
G02*
X166275000Y-92300000I0J-225000D01*
G01*
X166275000Y-92900000D01*
G75*
G02*
X166050000Y-93125000I-225000J0D01*
G01*
X165600000Y-93125000D01*
G75*
G02*
X165375000Y-92900000I0J225000D01*
G01*
G37*
G36*
G01*
X163725000Y-92900000D02*
X163725000Y-92300000D01*
G75*
G02*
X163950000Y-92075000I225000J0D01*
G01*
X164400000Y-92075000D01*
G75*
G02*
X164625000Y-92300000I0J-225000D01*
G01*
X164625000Y-92900000D01*
G75*
G02*
X164400000Y-93125000I-225000J0D01*
G01*
X163950000Y-93125000D01*
G75*
G02*
X163725000Y-92900000I0J225000D01*
G01*
G37*
G36*
G01*
X186450000Y-84975000D02*
X185850000Y-84975000D01*
G75*
G02*
X185625000Y-84750000I0J225000D01*
G01*
X185625000Y-84300000D01*
G75*
G02*
X185850000Y-84075000I225000J0D01*
G01*
X186450000Y-84075000D01*
G75*
G02*
X186675000Y-84300000I0J-225000D01*
G01*
X186675000Y-84750000D01*
G75*
G02*
X186450000Y-84975000I-225000J0D01*
G01*
G37*
G36*
G01*
X186450000Y-86625000D02*
X185850000Y-86625000D01*
G75*
G02*
X185625000Y-86400000I0J225000D01*
G01*
X185625000Y-85950000D01*
G75*
G02*
X185850000Y-85725000I225000J0D01*
G01*
X186450000Y-85725000D01*
G75*
G02*
X186675000Y-85950000I0J-225000D01*
G01*
X186675000Y-86400000D01*
G75*
G02*
X186450000Y-86625000I-225000J0D01*
G01*
G37*
G36*
G01*
X158432000Y-82775500D02*
X158432000Y-82175500D01*
G75*
G02*
X158657000Y-81950500I225000J0D01*
G01*
X159107000Y-81950500D01*
G75*
G02*
X159332000Y-82175500I0J-225000D01*
G01*
X159332000Y-82775500D01*
G75*
G02*
X159107000Y-83000500I-225000J0D01*
G01*
X158657000Y-83000500D01*
G75*
G02*
X158432000Y-82775500I0J225000D01*
G01*
G37*
G36*
G01*
X156782000Y-82775500D02*
X156782000Y-82175500D01*
G75*
G02*
X157007000Y-81950500I225000J0D01*
G01*
X157457000Y-81950500D01*
G75*
G02*
X157682000Y-82175500I0J-225000D01*
G01*
X157682000Y-82775500D01*
G75*
G02*
X157457000Y-83000500I-225000J0D01*
G01*
X157007000Y-83000500D01*
G75*
G02*
X156782000Y-82775500I0J225000D01*
G01*
G37*
G36*
G01*
X179775000Y-90750000D02*
X179775000Y-90150000D01*
G75*
G02*
X180000000Y-89925000I225000J0D01*
G01*
X180450000Y-89925000D01*
G75*
G02*
X180675000Y-90150000I0J-225000D01*
G01*
X180675000Y-90750000D01*
G75*
G02*
X180450000Y-90975000I-225000J0D01*
G01*
X180000000Y-90975000D01*
G75*
G02*
X179775000Y-90750000I0J225000D01*
G01*
G37*
G36*
G01*
X178125000Y-90750000D02*
X178125000Y-90150000D01*
G75*
G02*
X178350000Y-89925000I225000J0D01*
G01*
X178800000Y-89925000D01*
G75*
G02*
X179025000Y-90150000I0J-225000D01*
G01*
X179025000Y-90750000D01*
G75*
G02*
X178800000Y-90975000I-225000J0D01*
G01*
X178350000Y-90975000D01*
G75*
G02*
X178125000Y-90750000I0J225000D01*
G01*
G37*
G36*
G01*
X164777000Y-98852000D02*
X164777000Y-98252000D01*
G75*
G02*
X165002000Y-98027000I225000J0D01*
G01*
X165452000Y-98027000D01*
G75*
G02*
X165677000Y-98252000I0J-225000D01*
G01*
X165677000Y-98852000D01*
G75*
G02*
X165452000Y-99077000I-225000J0D01*
G01*
X165002000Y-99077000D01*
G75*
G02*
X164777000Y-98852000I0J225000D01*
G01*
G37*
G36*
G01*
X163127000Y-98852000D02*
X163127000Y-98252000D01*
G75*
G02*
X163352000Y-98027000I225000J0D01*
G01*
X163802000Y-98027000D01*
G75*
G02*
X164027000Y-98252000I0J-225000D01*
G01*
X164027000Y-98852000D01*
G75*
G02*
X163802000Y-99077000I-225000J0D01*
G01*
X163352000Y-99077000D01*
G75*
G02*
X163127000Y-98852000I0J225000D01*
G01*
G37*
G36*
G01*
X165375000Y-91300000D02*
X165375000Y-90700000D01*
G75*
G02*
X165600000Y-90475000I225000J0D01*
G01*
X166050000Y-90475000D01*
G75*
G02*
X166275000Y-90700000I0J-225000D01*
G01*
X166275000Y-91300000D01*
G75*
G02*
X166050000Y-91525000I-225000J0D01*
G01*
X165600000Y-91525000D01*
G75*
G02*
X165375000Y-91300000I0J225000D01*
G01*
G37*
G36*
G01*
X163725000Y-91300000D02*
X163725000Y-90700000D01*
G75*
G02*
X163950000Y-90475000I225000J0D01*
G01*
X164400000Y-90475000D01*
G75*
G02*
X164625000Y-90700000I0J-225000D01*
G01*
X164625000Y-91300000D01*
G75*
G02*
X164400000Y-91525000I-225000J0D01*
G01*
X163950000Y-91525000D01*
G75*
G02*
X163725000Y-91300000I0J225000D01*
G01*
G37*
G36*
G01*
X179025000Y-82700000D02*
X179025000Y-83300000D01*
G75*
G02*
X178800000Y-83525000I-225000J0D01*
G01*
X178350000Y-83525000D01*
G75*
G02*
X178125000Y-83300000I0J225000D01*
G01*
X178125000Y-82700000D01*
G75*
G02*
X178350000Y-82475000I225000J0D01*
G01*
X178800000Y-82475000D01*
G75*
G02*
X179025000Y-82700000I0J-225000D01*
G01*
G37*
G36*
G01*
X180675000Y-82700000D02*
X180675000Y-83300000D01*
G75*
G02*
X180450000Y-83525000I-225000J0D01*
G01*
X180000000Y-83525000D01*
G75*
G02*
X179775000Y-83300000I0J225000D01*
G01*
X179775000Y-82700000D01*
G75*
G02*
X180000000Y-82475000I225000J0D01*
G01*
X180450000Y-82475000D01*
G75*
G02*
X180675000Y-82700000I0J-225000D01*
G01*
G37*
G36*
G01*
X167800000Y-96450000D02*
X168400000Y-96450000D01*
G75*
G02*
X168625000Y-96675000I0J-225000D01*
G01*
X168625000Y-97125000D01*
G75*
G02*
X168400000Y-97350000I-225000J0D01*
G01*
X167800000Y-97350000D01*
G75*
G02*
X167575000Y-97125000I0J225000D01*
G01*
X167575000Y-96675000D01*
G75*
G02*
X167800000Y-96450000I225000J0D01*
G01*
G37*
G36*
G01*
X167800000Y-94800000D02*
X168400000Y-94800000D01*
G75*
G02*
X168625000Y-95025000I0J-225000D01*
G01*
X168625000Y-95475000D01*
G75*
G02*
X168400000Y-95700000I-225000J0D01*
G01*
X167800000Y-95700000D01*
G75*
G02*
X167575000Y-95475000I0J225000D01*
G01*
X167575000Y-95025000D01*
G75*
G02*
X167800000Y-94800000I225000J0D01*
G01*
G37*
G36*
G01*
X170000000Y-95700000D02*
X169400000Y-95700000D01*
G75*
G02*
X169175000Y-95475000I0J225000D01*
G01*
X169175000Y-95025000D01*
G75*
G02*
X169400000Y-94800000I225000J0D01*
G01*
X170000000Y-94800000D01*
G75*
G02*
X170225000Y-95025000I0J-225000D01*
G01*
X170225000Y-95475000D01*
G75*
G02*
X170000000Y-95700000I-225000J0D01*
G01*
G37*
G36*
G01*
X170000000Y-97350000D02*
X169400000Y-97350000D01*
G75*
G02*
X169175000Y-97125000I0J225000D01*
G01*
X169175000Y-96675000D01*
G75*
G02*
X169400000Y-96450000I225000J0D01*
G01*
X170000000Y-96450000D01*
G75*
G02*
X170225000Y-96675000I0J-225000D01*
G01*
X170225000Y-97125000D01*
G75*
G02*
X170000000Y-97350000I-225000J0D01*
G01*
G37*
G36*
G01*
X175200000Y-95850000D02*
X174600000Y-95850000D01*
G75*
G02*
X174375000Y-95625000I0J225000D01*
G01*
X174375000Y-95175000D01*
G75*
G02*
X174600000Y-94950000I225000J0D01*
G01*
X175200000Y-94950000D01*
G75*
G02*
X175425000Y-95175000I0J-225000D01*
G01*
X175425000Y-95625000D01*
G75*
G02*
X175200000Y-95850000I-225000J0D01*
G01*
G37*
G36*
G01*
X175200000Y-97500000D02*
X174600000Y-97500000D01*
G75*
G02*
X174375000Y-97275000I0J225000D01*
G01*
X174375000Y-96825000D01*
G75*
G02*
X174600000Y-96600000I225000J0D01*
G01*
X175200000Y-96600000D01*
G75*
G02*
X175425000Y-96825000I0J-225000D01*
G01*
X175425000Y-97275000D01*
G75*
G02*
X175200000Y-97500000I-225000J0D01*
G01*
G37*
G36*
G01*
X158432000Y-84275500D02*
X158432000Y-83675500D01*
G75*
G02*
X158657000Y-83450500I225000J0D01*
G01*
X159107000Y-83450500D01*
G75*
G02*
X159332000Y-83675500I0J-225000D01*
G01*
X159332000Y-84275500D01*
G75*
G02*
X159107000Y-84500500I-225000J0D01*
G01*
X158657000Y-84500500D01*
G75*
G02*
X158432000Y-84275500I0J225000D01*
G01*
G37*
G36*
G01*
X156782000Y-84275500D02*
X156782000Y-83675500D01*
G75*
G02*
X157007000Y-83450500I225000J0D01*
G01*
X157457000Y-83450500D01*
G75*
G02*
X157682000Y-83675500I0J-225000D01*
G01*
X157682000Y-84275500D01*
G75*
G02*
X157457000Y-84500500I-225000J0D01*
G01*
X157007000Y-84500500D01*
G75*
G02*
X156782000Y-84275500I0J225000D01*
G01*
G37*
G36*
G01*
X158432000Y-85775500D02*
X158432000Y-85175500D01*
G75*
G02*
X158657000Y-84950500I225000J0D01*
G01*
X159107000Y-84950500D01*
G75*
G02*
X159332000Y-85175500I0J-225000D01*
G01*
X159332000Y-85775500D01*
G75*
G02*
X159107000Y-86000500I-225000J0D01*
G01*
X158657000Y-86000500D01*
G75*
G02*
X158432000Y-85775500I0J225000D01*
G01*
G37*
G36*
G01*
X156782000Y-85775500D02*
X156782000Y-85175500D01*
G75*
G02*
X157007000Y-84950500I225000J0D01*
G01*
X157457000Y-84950500D01*
G75*
G02*
X157682000Y-85175500I0J-225000D01*
G01*
X157682000Y-85775500D01*
G75*
G02*
X157457000Y-86000500I-225000J0D01*
G01*
X157007000Y-86000500D01*
G75*
G02*
X156782000Y-85775500I0J225000D01*
G01*
G37*
G36*
G01*
X177100000Y-74375000D02*
X177700000Y-74375000D01*
G75*
G02*
X177925000Y-74600000I0J-225000D01*
G01*
X177925000Y-75050000D01*
G75*
G02*
X177700000Y-75275000I-225000J0D01*
G01*
X177100000Y-75275000D01*
G75*
G02*
X176875000Y-75050000I0J225000D01*
G01*
X176875000Y-74600000D01*
G75*
G02*
X177100000Y-74375000I225000J0D01*
G01*
G37*
G36*
G01*
X177100000Y-72725000D02*
X177700000Y-72725000D01*
G75*
G02*
X177925000Y-72950000I0J-225000D01*
G01*
X177925000Y-73400000D01*
G75*
G02*
X177700000Y-73625000I-225000J0D01*
G01*
X177100000Y-73625000D01*
G75*
G02*
X176875000Y-73400000I0J225000D01*
G01*
X176875000Y-72950000D01*
G75*
G02*
X177100000Y-72725000I225000J0D01*
G01*
G37*
G36*
G01*
X177100000Y-77375000D02*
X177700000Y-77375000D01*
G75*
G02*
X177925000Y-77600000I0J-225000D01*
G01*
X177925000Y-78050000D01*
G75*
G02*
X177700000Y-78275000I-225000J0D01*
G01*
X177100000Y-78275000D01*
G75*
G02*
X176875000Y-78050000I0J225000D01*
G01*
X176875000Y-77600000D01*
G75*
G02*
X177100000Y-77375000I225000J0D01*
G01*
G37*
G36*
G01*
X177100000Y-75725000D02*
X177700000Y-75725000D01*
G75*
G02*
X177925000Y-75950000I0J-225000D01*
G01*
X177925000Y-76400000D01*
G75*
G02*
X177700000Y-76625000I-225000J0D01*
G01*
X177100000Y-76625000D01*
G75*
G02*
X176875000Y-76400000I0J225000D01*
G01*
X176875000Y-75950000D01*
G75*
G02*
X177100000Y-75725000I225000J0D01*
G01*
G37*
G36*
G01*
X180050000Y-93850000D02*
X180050000Y-93050000D01*
G75*
G02*
X180100000Y-93000000I50000J0D01*
G01*
X181000000Y-93000000D01*
G75*
G02*
X181050000Y-93050000I0J-50000D01*
G01*
X181050000Y-93850000D01*
G75*
G02*
X181000000Y-93900000I-50000J0D01*
G01*
X180100000Y-93900000D01*
G75*
G02*
X180050000Y-93850000I0J50000D01*
G01*
G37*
G36*
G01*
X178050000Y-94800000D02*
X178050000Y-94000000D01*
G75*
G02*
X178100000Y-93950000I50000J0D01*
G01*
X179000000Y-93950000D01*
G75*
G02*
X179050000Y-94000000I0J-50000D01*
G01*
X179050000Y-94800000D01*
G75*
G02*
X179000000Y-94850000I-50000J0D01*
G01*
X178100000Y-94850000D01*
G75*
G02*
X178050000Y-94800000I0J50000D01*
G01*
G37*
G36*
G01*
X178050000Y-92900000D02*
X178050000Y-92100000D01*
G75*
G02*
X178100000Y-92050000I50000J0D01*
G01*
X179000000Y-92050000D01*
G75*
G02*
X179050000Y-92100000I0J-50000D01*
G01*
X179050000Y-92900000D01*
G75*
G02*
X179000000Y-92950000I-50000J0D01*
G01*
X178100000Y-92950000D01*
G75*
G02*
X178050000Y-92900000I0J50000D01*
G01*
G37*
G36*
G01*
X168800000Y-92000000D02*
X168800000Y-91200000D01*
G75*
G02*
X168850000Y-91150000I50000J0D01*
G01*
X169750000Y-91150000D01*
G75*
G02*
X169800000Y-91200000I0J-50000D01*
G01*
X169800000Y-92000000D01*
G75*
G02*
X169750000Y-92050000I-50000J0D01*
G01*
X168850000Y-92050000D01*
G75*
G02*
X168800000Y-92000000I0J50000D01*
G01*
G37*
G36*
G01*
X166800000Y-92950000D02*
X166800000Y-92150000D01*
G75*
G02*
X166850000Y-92100000I50000J0D01*
G01*
X167750000Y-92100000D01*
G75*
G02*
X167800000Y-92150000I0J-50000D01*
G01*
X167800000Y-92950000D01*
G75*
G02*
X167750000Y-93000000I-50000J0D01*
G01*
X166850000Y-93000000D01*
G75*
G02*
X166800000Y-92950000I0J50000D01*
G01*
G37*
G36*
G01*
X166800000Y-91050000D02*
X166800000Y-90250000D01*
G75*
G02*
X166850000Y-90200000I50000J0D01*
G01*
X167750000Y-90200000D01*
G75*
G02*
X167800000Y-90250000I0J-50000D01*
G01*
X167800000Y-91050000D01*
G75*
G02*
X167750000Y-91100000I-50000J0D01*
G01*
X166850000Y-91100000D01*
G75*
G02*
X166800000Y-91050000I0J50000D01*
G01*
G37*
G36*
G01*
X159944600Y-95808800D02*
X159944600Y-94792800D01*
G75*
G02*
X159994600Y-94742800I50000J0D01*
G01*
X160451800Y-94742800D01*
G75*
G02*
X160501800Y-94792800I0J-50000D01*
G01*
X160501800Y-95808800D01*
G75*
G02*
X160451800Y-95858800I-50000J0D01*
G01*
X159994600Y-95858800D01*
G75*
G02*
X159944600Y-95808800I0J50000D01*
G01*
G37*
G36*
G01*
X158623800Y-95808800D02*
X158623800Y-94792800D01*
G75*
G02*
X158673800Y-94742800I50000J0D01*
G01*
X159131000Y-94742800D01*
G75*
G02*
X159181000Y-94792800I0J-50000D01*
G01*
X159181000Y-95808800D01*
G75*
G02*
X159131000Y-95858800I-50000J0D01*
G01*
X158673800Y-95858800D01*
G75*
G02*
X158623800Y-95808800I0J50000D01*
G01*
G37*
G36*
G01*
X159309600Y-97739200D02*
X159309600Y-96723200D01*
G75*
G02*
X159359600Y-96673200I50000J0D01*
G01*
X159766000Y-96673200D01*
G75*
G02*
X159816000Y-96723200I0J-50000D01*
G01*
X159816000Y-97739200D01*
G75*
G02*
X159766000Y-97789200I-50000J0D01*
G01*
X159359600Y-97789200D01*
G75*
G02*
X159309600Y-97739200I0J50000D01*
G01*
G37*
G36*
G01*
X185538500Y-93219000D02*
X185538500Y-93981000D01*
G75*
G02*
X185488500Y-94031000I-50000J0D01*
G01*
X184345500Y-94031000D01*
G75*
G02*
X184295500Y-93981000I0J50000D01*
G01*
X184295500Y-93219000D01*
G75*
G02*
X184345500Y-93169000I50000J0D01*
G01*
X185488500Y-93169000D01*
G75*
G02*
X185538500Y-93219000I0J-50000D01*
G01*
G37*
G36*
G01*
X182871500Y-93219000D02*
X182871500Y-93981000D01*
G75*
G02*
X182821500Y-94031000I-50000J0D01*
G01*
X181678500Y-94031000D01*
G75*
G02*
X181628500Y-93981000I0J50000D01*
G01*
X181628500Y-93219000D01*
G75*
G02*
X181678500Y-93169000I50000J0D01*
G01*
X182821500Y-93169000D01*
G75*
G02*
X182871500Y-93219000I0J-50000D01*
G01*
G37*
G36*
G01*
X151312500Y-85450000D02*
X153212500Y-85450000D01*
G75*
G02*
X153262500Y-85500000I0J-50000D01*
G01*
X153262500Y-86700000D01*
G75*
G02*
X153212500Y-86750000I-50000J0D01*
G01*
X151312500Y-86750000D01*
G75*
G02*
X151262500Y-86700000I0J50000D01*
G01*
X151262500Y-85500000D01*
G75*
G02*
X151312500Y-85450000I50000J0D01*
G01*
G37*
G36*
G01*
X151312500Y-91250000D02*
X153212500Y-91250000D01*
G75*
G02*
X153262500Y-91300000I0J-50000D01*
G01*
X153262500Y-92500000D01*
G75*
G02*
X153212500Y-92550000I-50000J0D01*
G01*
X151312500Y-92550000D01*
G75*
G02*
X151262500Y-92500000I0J50000D01*
G01*
X151262500Y-91300000D01*
G75*
G02*
X151312500Y-91250000I50000J0D01*
G01*
G37*
D18*
X152262500Y-92500000D03*
X152262500Y-85500000D03*
G36*
G01*
X151312500Y-87200000D02*
X153212500Y-87200000D01*
G75*
G02*
X153262500Y-87250000I0J-50000D01*
G01*
X153262500Y-88750000D01*
G75*
G02*
X153212500Y-88800000I-50000J0D01*
G01*
X151312500Y-88800000D01*
G75*
G02*
X151262500Y-88750000I0J50000D01*
G01*
X151262500Y-87250000D01*
G75*
G02*
X151312500Y-87200000I50000J0D01*
G01*
G37*
D19*
X154962500Y-91500000D03*
G36*
G01*
X154287500Y-88750000D02*
X155637500Y-88750000D01*
G75*
G02*
X155687500Y-88800000I0J-50000D01*
G01*
X155687500Y-89200000D01*
G75*
G02*
X155637500Y-89250000I-50000J0D01*
G01*
X154287500Y-89250000D01*
G75*
G02*
X154237500Y-89200000I0J50000D01*
G01*
X154237500Y-88800000D01*
G75*
G02*
X154287500Y-88750000I50000J0D01*
G01*
G37*
G36*
G01*
X154287500Y-89400000D02*
X155637500Y-89400000D01*
G75*
G02*
X155687500Y-89450000I0J-50000D01*
G01*
X155687500Y-89850000D01*
G75*
G02*
X155637500Y-89900000I-50000J0D01*
G01*
X154287500Y-89900000D01*
G75*
G02*
X154237500Y-89850000I0J50000D01*
G01*
X154237500Y-89450000D01*
G75*
G02*
X154287500Y-89400000I50000J0D01*
G01*
G37*
G36*
G01*
X154287500Y-90050000D02*
X155637500Y-90050000D01*
G75*
G02*
X155687500Y-90100000I0J-50000D01*
G01*
X155687500Y-90500000D01*
G75*
G02*
X155637500Y-90550000I-50000J0D01*
G01*
X154287500Y-90550000D01*
G75*
G02*
X154237500Y-90500000I0J50000D01*
G01*
X154237500Y-90100000D01*
G75*
G02*
X154287500Y-90050000I50000J0D01*
G01*
G37*
G36*
G01*
X154287500Y-87450000D02*
X155637500Y-87450000D01*
G75*
G02*
X155687500Y-87500000I0J-50000D01*
G01*
X155687500Y-87900000D01*
G75*
G02*
X155637500Y-87950000I-50000J0D01*
G01*
X154287500Y-87950000D01*
G75*
G02*
X154237500Y-87900000I0J50000D01*
G01*
X154237500Y-87500000D01*
G75*
G02*
X154287500Y-87450000I50000J0D01*
G01*
G37*
G36*
G01*
X154287500Y-88100000D02*
X155637500Y-88100000D01*
G75*
G02*
X155687500Y-88150000I0J-50000D01*
G01*
X155687500Y-88550000D01*
G75*
G02*
X155637500Y-88600000I-50000J0D01*
G01*
X154287500Y-88600000D01*
G75*
G02*
X154237500Y-88550000I0J50000D01*
G01*
X154237500Y-88150000D01*
G75*
G02*
X154287500Y-88100000I50000J0D01*
G01*
G37*
X154962500Y-86500000D03*
G36*
G01*
X151312500Y-89200000D02*
X153212500Y-89200000D01*
G75*
G02*
X153262500Y-89250000I0J-50000D01*
G01*
X153262500Y-90750000D01*
G75*
G02*
X153212500Y-90800000I-50000J0D01*
G01*
X151312500Y-90800000D01*
G75*
G02*
X151262500Y-90750000I0J50000D01*
G01*
X151262500Y-89250000D01*
G75*
G02*
X151312500Y-89200000I50000J0D01*
G01*
G37*
G36*
G01*
X185450000Y-89850000D02*
X185450000Y-91050000D01*
G75*
G02*
X185400000Y-91100000I-50000J0D01*
G01*
X184500000Y-91100000D01*
G75*
G02*
X184450000Y-91050000I0J50000D01*
G01*
X184450000Y-89850000D01*
G75*
G02*
X184500000Y-89800000I50000J0D01*
G01*
X185400000Y-89800000D01*
G75*
G02*
X185450000Y-89850000I0J-50000D01*
G01*
G37*
G36*
G01*
X182150000Y-89850000D02*
X182150000Y-91050000D01*
G75*
G02*
X182100000Y-91100000I-50000J0D01*
G01*
X181200000Y-91100000D01*
G75*
G02*
X181150000Y-91050000I0J50000D01*
G01*
X181150000Y-89850000D01*
G75*
G02*
X181200000Y-89800000I50000J0D01*
G01*
X182100000Y-89800000D01*
G75*
G02*
X182150000Y-89850000I0J-50000D01*
G01*
G37*
G36*
G01*
X179100000Y-81118750D02*
X179100000Y-81681250D01*
G75*
G02*
X178856250Y-81925000I-243750J0D01*
G01*
X178368750Y-81925000D01*
G75*
G02*
X178125000Y-81681250I0J243750D01*
G01*
X178125000Y-81118750D01*
G75*
G02*
X178368750Y-80875000I243750J0D01*
G01*
X178856250Y-80875000D01*
G75*
G02*
X179100000Y-81118750I0J-243750D01*
G01*
G37*
G36*
G01*
X180675000Y-81118750D02*
X180675000Y-81681250D01*
G75*
G02*
X180431250Y-81925000I-243750J0D01*
G01*
X179943750Y-81925000D01*
G75*
G02*
X179700000Y-81681250I0J243750D01*
G01*
X179700000Y-81118750D01*
G75*
G02*
X179943750Y-80875000I243750J0D01*
G01*
X180431250Y-80875000D01*
G75*
G02*
X180675000Y-81118750I0J-243750D01*
G01*
G37*
G36*
G01*
X157800000Y-93550000D02*
X156600000Y-93550000D01*
G75*
G02*
X156550000Y-93500000I0J50000D01*
G01*
X156550000Y-92600000D01*
G75*
G02*
X156600000Y-92550000I50000J0D01*
G01*
X157800000Y-92550000D01*
G75*
G02*
X157850000Y-92600000I0J-50000D01*
G01*
X157850000Y-93500000D01*
G75*
G02*
X157800000Y-93550000I-50000J0D01*
G01*
G37*
G36*
G01*
X157800000Y-96850000D02*
X156600000Y-96850000D01*
G75*
G02*
X156550000Y-96800000I0J50000D01*
G01*
X156550000Y-95900000D01*
G75*
G02*
X156600000Y-95850000I50000J0D01*
G01*
X157800000Y-95850000D01*
G75*
G02*
X157850000Y-95900000I0J-50000D01*
G01*
X157850000Y-96800000D01*
G75*
G02*
X157800000Y-96850000I-50000J0D01*
G01*
G37*
G36*
G01*
X171630000Y-93595000D02*
X171630000Y-93205000D01*
G75*
G02*
X171795000Y-93040000I165000J0D01*
G01*
X172125000Y-93040000D01*
G75*
G02*
X172290000Y-93205000I0J-165000D01*
G01*
X172290000Y-93595000D01*
G75*
G02*
X172125000Y-93760000I-165000J0D01*
G01*
X171795000Y-93760000D01*
G75*
G02*
X171630000Y-93595000I0J165000D01*
G01*
G37*
G36*
G01*
X170670000Y-93595000D02*
X170670000Y-93205000D01*
G75*
G02*
X170835000Y-93040000I165000J0D01*
G01*
X171165000Y-93040000D01*
G75*
G02*
X171330000Y-93205000I0J-165000D01*
G01*
X171330000Y-93595000D01*
G75*
G02*
X171165000Y-93760000I-165000J0D01*
G01*
X170835000Y-93760000D01*
G75*
G02*
X170670000Y-93595000I0J165000D01*
G01*
G37*
G36*
G01*
X171670000Y-98495000D02*
X171670000Y-98105000D01*
G75*
G02*
X171835000Y-97940000I165000J0D01*
G01*
X172165000Y-97940000D01*
G75*
G02*
X172330000Y-98105000I0J-165000D01*
G01*
X172330000Y-98495000D01*
G75*
G02*
X172165000Y-98660000I-165000J0D01*
G01*
X171835000Y-98660000D01*
G75*
G02*
X171670000Y-98495000I0J165000D01*
G01*
G37*
G36*
G01*
X170710000Y-98495000D02*
X170710000Y-98105000D01*
G75*
G02*
X170875000Y-97940000I165000J0D01*
G01*
X171205000Y-97940000D01*
G75*
G02*
X171370000Y-98105000I0J-165000D01*
G01*
X171370000Y-98495000D01*
G75*
G02*
X171205000Y-98660000I-165000J0D01*
G01*
X170875000Y-98660000D01*
G75*
G02*
X170710000Y-98495000I0J165000D01*
G01*
G37*
G36*
G01*
X158501000Y-81030500D02*
X158501000Y-81420500D01*
G75*
G02*
X158336000Y-81585500I-165000J0D01*
G01*
X158006000Y-81585500D01*
G75*
G02*
X157841000Y-81420500I0J165000D01*
G01*
X157841000Y-81030500D01*
G75*
G02*
X158006000Y-80865500I165000J0D01*
G01*
X158336000Y-80865500D01*
G75*
G02*
X158501000Y-81030500I0J-165000D01*
G01*
G37*
G36*
G01*
X159461000Y-81030500D02*
X159461000Y-81420500D01*
G75*
G02*
X159296000Y-81585500I-165000J0D01*
G01*
X158966000Y-81585500D01*
G75*
G02*
X158801000Y-81420500I0J165000D01*
G01*
X158801000Y-81030500D01*
G75*
G02*
X158966000Y-80865500I165000J0D01*
G01*
X159296000Y-80865500D01*
G75*
G02*
X159461000Y-81030500I0J-165000D01*
G01*
G37*
G36*
G01*
X161104000Y-73002000D02*
X160714000Y-73002000D01*
G75*
G02*
X160549000Y-72837000I0J165000D01*
G01*
X160549000Y-72507000D01*
G75*
G02*
X160714000Y-72342000I165000J0D01*
G01*
X161104000Y-72342000D01*
G75*
G02*
X161269000Y-72507000I0J-165000D01*
G01*
X161269000Y-72837000D01*
G75*
G02*
X161104000Y-73002000I-165000J0D01*
G01*
G37*
G36*
G01*
X161104000Y-73962000D02*
X160714000Y-73962000D01*
G75*
G02*
X160549000Y-73797000I0J165000D01*
G01*
X160549000Y-73467000D01*
G75*
G02*
X160714000Y-73302000I165000J0D01*
G01*
X161104000Y-73302000D01*
G75*
G02*
X161269000Y-73467000I0J-165000D01*
G01*
X161269000Y-73797000D01*
G75*
G02*
X161104000Y-73962000I-165000J0D01*
G01*
G37*
G36*
G01*
X159914000Y-74147000D02*
X159364000Y-74147000D01*
G75*
G02*
X159114000Y-73897000I0J250000D01*
G01*
X159114000Y-73397000D01*
G75*
G02*
X159364000Y-73147000I250000J0D01*
G01*
X159914000Y-73147000D01*
G75*
G02*
X160164000Y-73397000I0J-250000D01*
G01*
X160164000Y-73897000D01*
G75*
G02*
X159914000Y-74147000I-250000J0D01*
G01*
G37*
G36*
G01*
X159914000Y-75697000D02*
X159364000Y-75697000D01*
G75*
G02*
X159114000Y-75447000I0J250000D01*
G01*
X159114000Y-74947000D01*
G75*
G02*
X159364000Y-74697000I250000J0D01*
G01*
X159914000Y-74697000D01*
G75*
G02*
X160164000Y-74947000I0J-250000D01*
G01*
X160164000Y-75447000D01*
G75*
G02*
X159914000Y-75697000I-250000J0D01*
G01*
G37*
G36*
G01*
X175795000Y-91430000D02*
X175405000Y-91430000D01*
G75*
G02*
X175240000Y-91265000I0J165000D01*
G01*
X175240000Y-90935000D01*
G75*
G02*
X175405000Y-90770000I165000J0D01*
G01*
X175795000Y-90770000D01*
G75*
G02*
X175960000Y-90935000I0J-165000D01*
G01*
X175960000Y-91265000D01*
G75*
G02*
X175795000Y-91430000I-165000J0D01*
G01*
G37*
G36*
G01*
X175795000Y-92390000D02*
X175405000Y-92390000D01*
G75*
G02*
X175240000Y-92225000I0J165000D01*
G01*
X175240000Y-91895000D01*
G75*
G02*
X175405000Y-91730000I165000J0D01*
G01*
X175795000Y-91730000D01*
G75*
G02*
X175960000Y-91895000I0J-165000D01*
G01*
X175960000Y-92225000D01*
G75*
G02*
X175795000Y-92390000I-165000J0D01*
G01*
G37*
G36*
G01*
X162945000Y-92550000D02*
X162555000Y-92550000D01*
G75*
G02*
X162390000Y-92385000I0J165000D01*
G01*
X162390000Y-92055000D01*
G75*
G02*
X162555000Y-91890000I165000J0D01*
G01*
X162945000Y-91890000D01*
G75*
G02*
X163110000Y-92055000I0J-165000D01*
G01*
X163110000Y-92385000D01*
G75*
G02*
X162945000Y-92550000I-165000J0D01*
G01*
G37*
G36*
G01*
X162945000Y-93510000D02*
X162555000Y-93510000D01*
G75*
G02*
X162390000Y-93345000I0J165000D01*
G01*
X162390000Y-93015000D01*
G75*
G02*
X162555000Y-92850000I165000J0D01*
G01*
X162945000Y-92850000D01*
G75*
G02*
X163110000Y-93015000I0J-165000D01*
G01*
X163110000Y-93345000D01*
G75*
G02*
X162945000Y-93510000I-165000J0D01*
G01*
G37*
G36*
G01*
X166628500Y-96670000D02*
X166238500Y-96670000D01*
G75*
G02*
X166073500Y-96505000I0J165000D01*
G01*
X166073500Y-96175000D01*
G75*
G02*
X166238500Y-96010000I165000J0D01*
G01*
X166628500Y-96010000D01*
G75*
G02*
X166793500Y-96175000I0J-165000D01*
G01*
X166793500Y-96505000D01*
G75*
G02*
X166628500Y-96670000I-165000J0D01*
G01*
G37*
G36*
G01*
X166628500Y-97630000D02*
X166238500Y-97630000D01*
G75*
G02*
X166073500Y-97465000I0J165000D01*
G01*
X166073500Y-97135000D01*
G75*
G02*
X166238500Y-96970000I165000J0D01*
G01*
X166628500Y-96970000D01*
G75*
G02*
X166793500Y-97135000I0J-165000D01*
G01*
X166793500Y-97465000D01*
G75*
G02*
X166628500Y-97630000I-165000J0D01*
G01*
G37*
G36*
G01*
X185655000Y-87930000D02*
X186045000Y-87930000D01*
G75*
G02*
X186210000Y-88095000I0J-165000D01*
G01*
X186210000Y-88425000D01*
G75*
G02*
X186045000Y-88590000I-165000J0D01*
G01*
X185655000Y-88590000D01*
G75*
G02*
X185490000Y-88425000I0J165000D01*
G01*
X185490000Y-88095000D01*
G75*
G02*
X185655000Y-87930000I165000J0D01*
G01*
G37*
G36*
G01*
X185655000Y-86970000D02*
X186045000Y-86970000D01*
G75*
G02*
X186210000Y-87135000I0J-165000D01*
G01*
X186210000Y-87465000D01*
G75*
G02*
X186045000Y-87630000I-165000J0D01*
G01*
X185655000Y-87630000D01*
G75*
G02*
X185490000Y-87465000I0J165000D01*
G01*
X185490000Y-87135000D01*
G75*
G02*
X185655000Y-86970000I165000J0D01*
G01*
G37*
G36*
G01*
X161125000Y-96475000D02*
X161675000Y-96475000D01*
G75*
G02*
X161925000Y-96725000I0J-250000D01*
G01*
X161925000Y-97225000D01*
G75*
G02*
X161675000Y-97475000I-250000J0D01*
G01*
X161125000Y-97475000D01*
G75*
G02*
X160875000Y-97225000I0J250000D01*
G01*
X160875000Y-96725000D01*
G75*
G02*
X161125000Y-96475000I250000J0D01*
G01*
G37*
G36*
G01*
X161125000Y-94925000D02*
X161675000Y-94925000D01*
G75*
G02*
X161925000Y-95175000I0J-250000D01*
G01*
X161925000Y-95675000D01*
G75*
G02*
X161675000Y-95925000I-250000J0D01*
G01*
X161125000Y-95925000D01*
G75*
G02*
X160875000Y-95675000I0J250000D01*
G01*
X160875000Y-95175000D01*
G75*
G02*
X161125000Y-94925000I250000J0D01*
G01*
G37*
G36*
G01*
X157300000Y-87055000D02*
X157300000Y-87445000D01*
G75*
G02*
X157135000Y-87610000I-165000J0D01*
G01*
X156805000Y-87610000D01*
G75*
G02*
X156640000Y-87445000I0J165000D01*
G01*
X156640000Y-87055000D01*
G75*
G02*
X156805000Y-86890000I165000J0D01*
G01*
X157135000Y-86890000D01*
G75*
G02*
X157300000Y-87055000I0J-165000D01*
G01*
G37*
G36*
G01*
X158260000Y-87055000D02*
X158260000Y-87445000D01*
G75*
G02*
X158095000Y-87610000I-165000J0D01*
G01*
X157765000Y-87610000D01*
G75*
G02*
X157600000Y-87445000I0J165000D01*
G01*
X157600000Y-87055000D01*
G75*
G02*
X157765000Y-86890000I165000J0D01*
G01*
X158095000Y-86890000D01*
G75*
G02*
X158260000Y-87055000I0J-165000D01*
G01*
G37*
G36*
G01*
X183674874Y-99834314D02*
X182967768Y-99127208D01*
G75*
G02*
X182967768Y-99056498I35355J35355D01*
G01*
X183816296Y-98207970D01*
G75*
G02*
X183887006Y-98207970I35355J-35355D01*
G01*
X184594112Y-98915076D01*
G75*
G02*
X184594112Y-98985786I-35355J-35355D01*
G01*
X183745584Y-99834314D01*
G75*
G02*
X183674874Y-99834314I-35355J35355D01*
G01*
G37*
G36*
G01*
X182472792Y-98632232D02*
X181765686Y-97925126D01*
G75*
G02*
X181765686Y-97854416I35355J35355D01*
G01*
X182614214Y-97005888D01*
G75*
G02*
X182684924Y-97005888I35355J-35355D01*
G01*
X183392030Y-97712994D01*
G75*
G02*
X183392030Y-97783704I-35355J-35355D01*
G01*
X182543502Y-98632232D01*
G75*
G02*
X182472792Y-98632232I-35355J35355D01*
G01*
G37*
G36*
G01*
X178512994Y-102592030D02*
X177805888Y-101884924D01*
G75*
G02*
X177805888Y-101814214I35355J35355D01*
G01*
X178654416Y-100965686D01*
G75*
G02*
X178725126Y-100965686I35355J-35355D01*
G01*
X179432232Y-101672792D01*
G75*
G02*
X179432232Y-101743502I-35355J-35355D01*
G01*
X178583704Y-102592030D01*
G75*
G02*
X178512994Y-102592030I-35355J35355D01*
G01*
G37*
G36*
G01*
X179715076Y-103794112D02*
X179007970Y-103087006D01*
G75*
G02*
X179007970Y-103016296I35355J35355D01*
G01*
X179856498Y-102167768D01*
G75*
G02*
X179927208Y-102167768I35355J-35355D01*
G01*
X180634314Y-102874874D01*
G75*
G02*
X180634314Y-102945584I-35355J-35355D01*
G01*
X179785786Y-103794112D01*
G75*
G02*
X179715076Y-103794112I-35355J35355D01*
G01*
G37*
G36*
G01*
X185258112Y-79589924D02*
X184551006Y-80297030D01*
G75*
G02*
X184480296Y-80297030I-35355J35355D01*
G01*
X183631768Y-79448502D01*
G75*
G02*
X183631768Y-79377792I35355J35355D01*
G01*
X184338874Y-78670686D01*
G75*
G02*
X184409584Y-78670686I35355J-35355D01*
G01*
X185258112Y-79519214D01*
G75*
G02*
X185258112Y-79589924I-35355J-35355D01*
G01*
G37*
G36*
G01*
X184056030Y-80792006D02*
X183348924Y-81499112D01*
G75*
G02*
X183278214Y-81499112I-35355J35355D01*
G01*
X182429686Y-80650584D01*
G75*
G02*
X182429686Y-80579874I35355J35355D01*
G01*
X183136792Y-79872768D01*
G75*
G02*
X183207502Y-79872768I35355J-35355D01*
G01*
X184056030Y-80721296D01*
G75*
G02*
X184056030Y-80792006I-35355J-35355D01*
G01*
G37*
G36*
G01*
X180096232Y-76832208D02*
X179389126Y-77539314D01*
G75*
G02*
X179318416Y-77539314I-35355J35355D01*
G01*
X178469888Y-76690786D01*
G75*
G02*
X178469888Y-76620076I35355J35355D01*
G01*
X179176994Y-75912970D01*
G75*
G02*
X179247704Y-75912970I35355J-35355D01*
G01*
X180096232Y-76761498D01*
G75*
G02*
X180096232Y-76832208I-35355J-35355D01*
G01*
G37*
G36*
G01*
X181298314Y-75630126D02*
X180591208Y-76337232D01*
G75*
G02*
X180520498Y-76337232I-35355J35355D01*
G01*
X179671970Y-75488704D01*
G75*
G02*
X179671970Y-75417994I35355J35355D01*
G01*
X180379076Y-74710888D01*
G75*
G02*
X180449786Y-74710888I35355J-35355D01*
G01*
X181298314Y-75559416D01*
G75*
G02*
X181298314Y-75630126I-35355J-35355D01*
G01*
G37*
G36*
G01*
X157765686Y-103074874D02*
X158472792Y-102367768D01*
G75*
G02*
X158543502Y-102367768I35355J-35355D01*
G01*
X159392030Y-103216296D01*
G75*
G02*
X159392030Y-103287006I-35355J-35355D01*
G01*
X158684924Y-103994112D01*
G75*
G02*
X158614214Y-103994112I-35355J35355D01*
G01*
X157765686Y-103145584D01*
G75*
G02*
X157765686Y-103074874I35355J35355D01*
G01*
G37*
G36*
G01*
X158967768Y-101872792D02*
X159674874Y-101165686D01*
G75*
G02*
X159745584Y-101165686I35355J-35355D01*
G01*
X160594112Y-102014214D01*
G75*
G02*
X160594112Y-102084924I-35355J-35355D01*
G01*
X159887006Y-102792030D01*
G75*
G02*
X159816296Y-102792030I-35355J35355D01*
G01*
X158967768Y-101943502D01*
G75*
G02*
X158967768Y-101872792I35355J35355D01*
G01*
G37*
G36*
G01*
X155007970Y-97912994D02*
X155715076Y-97205888D01*
G75*
G02*
X155785786Y-97205888I35355J-35355D01*
G01*
X156634314Y-98054416D01*
G75*
G02*
X156634314Y-98125126I-35355J-35355D01*
G01*
X155927208Y-98832232D01*
G75*
G02*
X155856498Y-98832232I-35355J35355D01*
G01*
X155007970Y-97983704D01*
G75*
G02*
X155007970Y-97912994I35355J35355D01*
G01*
G37*
G36*
G01*
X153805888Y-99115076D02*
X154512994Y-98407970D01*
G75*
G02*
X154583704Y-98407970I35355J-35355D01*
G01*
X155432232Y-99256498D01*
G75*
G02*
X155432232Y-99327208I-35355J-35355D01*
G01*
X154725126Y-100034314D01*
G75*
G02*
X154654416Y-100034314I-35355J35355D01*
G01*
X153805888Y-99185786D01*
G75*
G02*
X153805888Y-99115076I35355J35355D01*
G01*
G37*
M02*
