G04 #@! TF.GenerationSoftware,KiCad,Pcbnew,(5.1.10)-1*
G04 #@! TF.CreationDate,2021-07-30T17:06:44-07:00*
G04 #@! TF.ProjectId,esp32-smartwatch,65737033-322d-4736-9d61-727477617463,rev?*
G04 #@! TF.SameCoordinates,PX8f56560PY66b5f20*
G04 #@! TF.FileFunction,Copper,L2,Inr*
G04 #@! TF.FilePolarity,Positive*
%FSLAX46Y46*%
G04 Gerber Fmt 4.6, Leading zero omitted, Abs format (unit mm)*
G04 Created by KiCad (PCBNEW (5.1.10)-1) date 2021-07-30 17:06:44*
%MOMM*%
%LPD*%
G01*
G04 APERTURE LIST*
G04 #@! TA.AperFunction,Profile*
%ADD10C,0.050000*%
G04 #@! TD*
G04 #@! TA.AperFunction,ComponentPad*
%ADD11O,1.200000X1.900000*%
G04 #@! TD*
G04 #@! TA.AperFunction,ComponentPad*
%ADD12C,1.450000*%
G04 #@! TD*
G04 #@! TA.AperFunction,ComponentPad*
%ADD13C,0.800000*%
G04 #@! TD*
G04 #@! TA.AperFunction,ViaPad*
%ADD14C,0.500000*%
G04 #@! TD*
G04 #@! TA.AperFunction,ViaPad*
%ADD15C,0.635000*%
G04 #@! TD*
G04 #@! TA.AperFunction,Conductor*
%ADD16C,0.254000*%
G04 #@! TD*
G04 #@! TA.AperFunction,Conductor*
%ADD17C,2.000000*%
G04 #@! TD*
G04 APERTURE END LIST*
D10*
X37530000Y18800000D02*
G75*
G03*
X37530000Y18800000I-18750000J0D01*
G01*
D11*
X22618000Y2036000D03*
X15618000Y2036000D03*
D12*
X21618000Y4736000D03*
X16618000Y4736000D03*
D13*
X1655500Y14545500D03*
X28008000Y4068000D03*
X2450000Y12450000D03*
X25087000Y2671000D03*
D14*
X27100000Y10000000D03*
X25700000Y10200000D03*
X16959000Y28007500D03*
X20324500Y28007500D03*
X20300000Y24300000D03*
X16959000Y24300000D03*
X33500000Y22250000D03*
X29800000Y28500000D03*
X16100000Y11000000D03*
X12600000Y20500000D03*
D15*
X6875000Y32450000D03*
X6875000Y31525000D03*
X8100000Y33425000D03*
X23950000Y35200000D03*
X26250000Y35200000D03*
X13250000Y35200000D03*
X10950000Y35200000D03*
X8000000Y27950000D03*
X8000000Y10100000D03*
X8000000Y12300000D03*
X8900000Y15400000D03*
X8000000Y14200000D03*
X5400000Y13500000D03*
X8100000Y4700000D03*
X31350000Y7250000D03*
D14*
X29050000Y18950000D03*
D15*
X32350000Y18050000D03*
X32200000Y8100000D03*
X23300000Y7700000D03*
X24850000Y7750000D03*
D14*
X21200000Y15900000D03*
X24050000Y17000000D03*
X27600000Y15400000D03*
X27600000Y14800000D03*
X17848000Y6350000D03*
X14300000Y8300000D03*
X14300000Y7600000D03*
X19500000Y6200000D03*
X10736000Y3500000D03*
X10736000Y2600000D03*
X11700000Y4700000D03*
X12400000Y4700000D03*
X7560000Y22560000D03*
X13150000Y13050000D03*
X13800000Y13050000D03*
X15275000Y15975000D03*
D15*
X6900000Y13500000D03*
D14*
X22800000Y12600000D03*
X20425000Y3775000D03*
D15*
X9150000Y30900000D03*
X9900000Y30900000D03*
X10125000Y34700000D03*
D14*
X10050000Y27150000D03*
X4600000Y9600000D03*
X25600000Y14250000D03*
X22500000Y15900000D03*
X17000000Y6400000D03*
D15*
X27750000Y16650000D03*
X30800000Y18050000D03*
X32250000Y18950000D03*
X32400000Y22000000D03*
X29400000Y33200000D03*
X29400000Y30200000D03*
X29800000Y7250000D03*
D14*
X16300000Y6400000D03*
X10300000Y16400000D03*
X11200000Y16400000D03*
X12200000Y16400000D03*
X13000000Y16400000D03*
X10300000Y15700000D03*
X11200000Y15700000D03*
X12200000Y15700000D03*
X13000000Y15700000D03*
D15*
X29000000Y8000000D03*
D14*
X6425000Y7250000D03*
X1550000Y23150000D03*
X26450000Y22700000D03*
X20700000Y29200000D03*
X26200000Y28200000D03*
D15*
X29900000Y24700000D03*
D14*
X18200000Y15700000D03*
X29800000Y16500000D03*
X26929000Y27229000D03*
X11050000Y30200000D03*
X5450000Y27950000D03*
X13710000Y28200000D03*
X11550000Y19370000D03*
X28650000Y31650000D03*
X20900000Y33500000D03*
X28400000Y19800000D03*
X21200000Y23200000D03*
X26400000Y14150000D03*
X26200000Y21000000D03*
X23700000Y20200000D03*
X23900000Y14100000D03*
X22700000Y27700000D03*
X23100000Y25900000D03*
X24700000Y12700000D03*
X23450000Y30700000D03*
X24950000Y11950000D03*
X18700000Y13700000D03*
X11050000Y29200000D03*
X4700000Y26200000D03*
X13300000Y19250000D03*
X13700000Y25900000D03*
X22900000Y33500000D03*
X19700000Y21700000D03*
X26250000Y26000000D03*
X20450000Y6200000D03*
X26950000Y11200000D03*
D16*
X27732549Y34872905D02*
X29177380Y33978304D01*
X29354565Y33844500D01*
X29336522Y33844500D01*
X29212006Y33819732D01*
X29094715Y33771148D01*
X28989155Y33700615D01*
X28899385Y33610845D01*
X28828852Y33505285D01*
X28780268Y33387994D01*
X28755500Y33263478D01*
X28755500Y33136522D01*
X28780268Y33012006D01*
X28828852Y32894715D01*
X28899385Y32789155D01*
X28989155Y32699385D01*
X29094715Y32628852D01*
X29212006Y32580268D01*
X29336522Y32555500D01*
X29463478Y32555500D01*
X29587994Y32580268D01*
X29705285Y32628852D01*
X29810845Y32699385D01*
X29900615Y32789155D01*
X29971148Y32894715D01*
X30019732Y33012006D01*
X30044500Y33136522D01*
X30044500Y33263478D01*
X30030454Y33334092D01*
X30533504Y32954206D01*
X31789351Y31809351D01*
X32934206Y30553504D01*
X33958304Y29197380D01*
X34852905Y27752549D01*
X35610378Y26231339D01*
X36224260Y24646727D01*
X36689313Y23012232D01*
X37001571Y21341801D01*
X37158369Y19649683D01*
X37158369Y17950317D01*
X37001571Y16258199D01*
X36689313Y14587768D01*
X36224260Y12953273D01*
X35610378Y11368661D01*
X34852905Y9847451D01*
X33958304Y8402620D01*
X32934206Y7046496D01*
X31789351Y5790649D01*
X30533504Y4645794D01*
X29177380Y3621696D01*
X27732549Y2727095D01*
X26211339Y1969622D01*
X24626727Y1355740D01*
X23172719Y942040D01*
X23276659Y1027341D01*
X23392501Y1168495D01*
X23478580Y1329536D01*
X23531587Y1504276D01*
X23545000Y1640462D01*
X23545000Y2431538D01*
X23531587Y2567724D01*
X23478580Y2742464D01*
X23478506Y2742603D01*
X24360000Y2742603D01*
X24360000Y2599397D01*
X24387938Y2458942D01*
X24442741Y2326636D01*
X24522302Y2207564D01*
X24623564Y2106302D01*
X24742636Y2026741D01*
X24874942Y1971938D01*
X25015397Y1944000D01*
X25158603Y1944000D01*
X25299058Y1971938D01*
X25431364Y2026741D01*
X25550436Y2106302D01*
X25651698Y2207564D01*
X25731259Y2326636D01*
X25786062Y2458942D01*
X25814000Y2599397D01*
X25814000Y2742603D01*
X25786062Y2883058D01*
X25731259Y3015364D01*
X25651698Y3134436D01*
X25550436Y3235698D01*
X25431364Y3315259D01*
X25299058Y3370062D01*
X25158603Y3398000D01*
X25015397Y3398000D01*
X24874942Y3370062D01*
X24742636Y3315259D01*
X24623564Y3235698D01*
X24522302Y3134436D01*
X24442741Y3015364D01*
X24387938Y2883058D01*
X24360000Y2742603D01*
X23478506Y2742603D01*
X23392501Y2903505D01*
X23276659Y3044659D01*
X23135504Y3160501D01*
X22974463Y3246580D01*
X22799723Y3299587D01*
X22618000Y3317485D01*
X22436276Y3299587D01*
X22261536Y3246580D01*
X22100495Y3160501D01*
X21959341Y3044659D01*
X21843499Y2903504D01*
X21757420Y2742463D01*
X21704413Y2567723D01*
X21691000Y2431537D01*
X21691000Y1640462D01*
X21704413Y1504276D01*
X21757421Y1329536D01*
X21843500Y1168495D01*
X21959342Y1027341D01*
X22100496Y911499D01*
X22261537Y825420D01*
X22407012Y781290D01*
X21321801Y578429D01*
X19629683Y421631D01*
X17930317Y421631D01*
X16238199Y578429D01*
X14567768Y890687D01*
X12933273Y1355740D01*
X11348661Y1969622D01*
X10421010Y2431538D01*
X14691000Y2431538D01*
X14691000Y1640463D01*
X14704413Y1504277D01*
X14757420Y1329537D01*
X14843499Y1168496D01*
X14959341Y1027341D01*
X15100495Y911499D01*
X15261536Y825420D01*
X15436276Y772413D01*
X15618000Y754515D01*
X15799723Y772413D01*
X15974463Y825420D01*
X16135504Y911499D01*
X16276659Y1027341D01*
X16392501Y1168495D01*
X16478580Y1329536D01*
X16531587Y1504276D01*
X16545000Y1640462D01*
X16545000Y2431538D01*
X16531587Y2567724D01*
X16478580Y2742464D01*
X16392501Y2903505D01*
X16276659Y3044659D01*
X16135505Y3160501D01*
X15974464Y3246580D01*
X15799724Y3299587D01*
X15618000Y3317485D01*
X15436277Y3299587D01*
X15261537Y3246580D01*
X15100496Y3160501D01*
X14959342Y3044659D01*
X14843500Y2903505D01*
X14757421Y2742464D01*
X14704413Y2567724D01*
X14691000Y2431538D01*
X10421010Y2431538D01*
X9827451Y2727095D01*
X8382620Y3621696D01*
X7026496Y4645794D01*
X6813887Y4839613D01*
X15566000Y4839613D01*
X15566000Y4632387D01*
X15606428Y4429143D01*
X15685730Y4237691D01*
X15800858Y4065389D01*
X15947389Y3918858D01*
X16119691Y3803730D01*
X16311143Y3724428D01*
X16514387Y3684000D01*
X16721613Y3684000D01*
X16924857Y3724428D01*
X17116309Y3803730D01*
X17288611Y3918858D01*
X17435142Y4065389D01*
X17550270Y4237691D01*
X17629572Y4429143D01*
X17670000Y4632387D01*
X17670000Y4839613D01*
X20566000Y4839613D01*
X20566000Y4632387D01*
X20606428Y4429143D01*
X20685730Y4237691D01*
X20800858Y4065389D01*
X20947389Y3918858D01*
X21119691Y3803730D01*
X21311143Y3724428D01*
X21514387Y3684000D01*
X21721613Y3684000D01*
X21924857Y3724428D01*
X22116309Y3803730D01*
X22288611Y3918858D01*
X22435142Y4065389D01*
X22484729Y4139603D01*
X27281000Y4139603D01*
X27281000Y3996397D01*
X27308938Y3855942D01*
X27363741Y3723636D01*
X27443302Y3604564D01*
X27544564Y3503302D01*
X27663636Y3423741D01*
X27795942Y3368938D01*
X27936397Y3341000D01*
X28079603Y3341000D01*
X28220058Y3368938D01*
X28352364Y3423741D01*
X28471436Y3503302D01*
X28572698Y3604564D01*
X28652259Y3723636D01*
X28707062Y3855942D01*
X28735000Y3996397D01*
X28735000Y4139603D01*
X28707062Y4280058D01*
X28652259Y4412364D01*
X28572698Y4531436D01*
X28471436Y4632698D01*
X28352364Y4712259D01*
X28220058Y4767062D01*
X28079603Y4795000D01*
X27936397Y4795000D01*
X27795942Y4767062D01*
X27663636Y4712259D01*
X27544564Y4632698D01*
X27443302Y4531436D01*
X27363741Y4412364D01*
X27308938Y4280058D01*
X27281000Y4139603D01*
X22484729Y4139603D01*
X22550270Y4237691D01*
X22629572Y4429143D01*
X22670000Y4632387D01*
X22670000Y4839613D01*
X22629572Y5042857D01*
X22550270Y5234309D01*
X22435142Y5406611D01*
X22288611Y5553142D01*
X22116309Y5668270D01*
X21924857Y5747572D01*
X21721613Y5788000D01*
X21514387Y5788000D01*
X21311143Y5747572D01*
X21119691Y5668270D01*
X20947389Y5553142D01*
X20800858Y5406611D01*
X20685730Y5234309D01*
X20606428Y5042857D01*
X20566000Y4839613D01*
X17670000Y4839613D01*
X17629572Y5042857D01*
X17550270Y5234309D01*
X17435142Y5406611D01*
X17288611Y5553142D01*
X17116309Y5668270D01*
X16924857Y5747572D01*
X16721613Y5788000D01*
X16514387Y5788000D01*
X16311143Y5747572D01*
X16119691Y5668270D01*
X15947389Y5553142D01*
X15800858Y5406611D01*
X15685730Y5234309D01*
X15606428Y5042857D01*
X15566000Y4839613D01*
X6813887Y4839613D01*
X5770649Y5790649D01*
X5163346Y6456830D01*
X15723000Y6456830D01*
X15723000Y6343170D01*
X15745174Y6231695D01*
X15788669Y6126688D01*
X15851815Y6032184D01*
X15932184Y5951815D01*
X16026688Y5888669D01*
X16131695Y5845174D01*
X16243170Y5823000D01*
X16356830Y5823000D01*
X16468305Y5845174D01*
X16573312Y5888669D01*
X16650000Y5939911D01*
X16726688Y5888669D01*
X16831695Y5845174D01*
X16943170Y5823000D01*
X17056830Y5823000D01*
X17168305Y5845174D01*
X17273312Y5888669D01*
X17367816Y5951815D01*
X17448185Y6032184D01*
X17511331Y6126688D01*
X17554826Y6231695D01*
X17559825Y6256830D01*
X19873000Y6256830D01*
X19873000Y6143170D01*
X19895174Y6031695D01*
X19938669Y5926688D01*
X20001815Y5832184D01*
X20082184Y5751815D01*
X20176688Y5688669D01*
X20281695Y5645174D01*
X20393170Y5623000D01*
X20506830Y5623000D01*
X20618305Y5645174D01*
X20723312Y5688669D01*
X20817816Y5751815D01*
X20898185Y5832184D01*
X20961331Y5926688D01*
X21004826Y6031695D01*
X21027000Y6143170D01*
X21027000Y6256830D01*
X21004826Y6368305D01*
X20961331Y6473312D01*
X20898185Y6567816D01*
X20817816Y6648185D01*
X20723312Y6711331D01*
X20618305Y6754826D01*
X20506830Y6777000D01*
X20393170Y6777000D01*
X20281695Y6754826D01*
X20176688Y6711331D01*
X20082184Y6648185D01*
X20001815Y6567816D01*
X19938669Y6473312D01*
X19895174Y6368305D01*
X19873000Y6256830D01*
X17559825Y6256830D01*
X17577000Y6343170D01*
X17577000Y6456830D01*
X17554826Y6568305D01*
X17511331Y6673312D01*
X17448185Y6767816D01*
X17367816Y6848185D01*
X17273312Y6911331D01*
X17168305Y6954826D01*
X17056830Y6977000D01*
X16943170Y6977000D01*
X16831695Y6954826D01*
X16726688Y6911331D01*
X16650000Y6860089D01*
X16573312Y6911331D01*
X16468305Y6954826D01*
X16356830Y6977000D01*
X16243170Y6977000D01*
X16131695Y6954826D01*
X16026688Y6911331D01*
X15932184Y6848185D01*
X15851815Y6767816D01*
X15788669Y6673312D01*
X15745174Y6568305D01*
X15723000Y6456830D01*
X5163346Y6456830D01*
X4625794Y7046496D01*
X4429199Y7306830D01*
X5848000Y7306830D01*
X5848000Y7193170D01*
X5870174Y7081695D01*
X5913669Y6976688D01*
X5976815Y6882184D01*
X6057184Y6801815D01*
X6151688Y6738669D01*
X6256695Y6695174D01*
X6368170Y6673000D01*
X6481830Y6673000D01*
X6593305Y6695174D01*
X6698312Y6738669D01*
X6792816Y6801815D01*
X6873185Y6882184D01*
X6936331Y6976688D01*
X6979826Y7081695D01*
X7002000Y7193170D01*
X7002000Y7306830D01*
X6979826Y7418305D01*
X6936331Y7523312D01*
X6873185Y7617816D01*
X6792816Y7698185D01*
X6698312Y7761331D01*
X6593305Y7804826D01*
X6481830Y7827000D01*
X6368170Y7827000D01*
X6256695Y7804826D01*
X6151688Y7761331D01*
X6057184Y7698185D01*
X5976815Y7617816D01*
X5913669Y7523312D01*
X5870174Y7418305D01*
X5848000Y7306830D01*
X4429199Y7306830D01*
X3857805Y8063478D01*
X28355500Y8063478D01*
X28355500Y7936522D01*
X28380268Y7812006D01*
X28428852Y7694715D01*
X28499385Y7589155D01*
X28589155Y7499385D01*
X28694715Y7428852D01*
X28812006Y7380268D01*
X28936522Y7355500D01*
X29063478Y7355500D01*
X29167994Y7376290D01*
X29155500Y7313478D01*
X29155500Y7186522D01*
X29180268Y7062006D01*
X29228852Y6944715D01*
X29299385Y6839155D01*
X29389155Y6749385D01*
X29494715Y6678852D01*
X29612006Y6630268D01*
X29736522Y6605500D01*
X29863478Y6605500D01*
X29987994Y6630268D01*
X30105285Y6678852D01*
X30210845Y6749385D01*
X30300615Y6839155D01*
X30371148Y6944715D01*
X30419732Y7062006D01*
X30444500Y7186522D01*
X30444500Y7313478D01*
X30419732Y7437994D01*
X30371148Y7555285D01*
X30300615Y7660845D01*
X30210845Y7750615D01*
X30105285Y7821148D01*
X29987994Y7869732D01*
X29863478Y7894500D01*
X29736522Y7894500D01*
X29632006Y7873710D01*
X29644500Y7936522D01*
X29644500Y8063478D01*
X29619732Y8187994D01*
X29571148Y8305285D01*
X29500615Y8410845D01*
X29410845Y8500615D01*
X29305285Y8571148D01*
X29187994Y8619732D01*
X29063478Y8644500D01*
X28936522Y8644500D01*
X28812006Y8619732D01*
X28694715Y8571148D01*
X28589155Y8500615D01*
X28499385Y8410845D01*
X28428852Y8305285D01*
X28380268Y8187994D01*
X28355500Y8063478D01*
X3857805Y8063478D01*
X3601696Y8402620D01*
X2825123Y9656830D01*
X4023000Y9656830D01*
X4023000Y9543170D01*
X4045174Y9431695D01*
X4088669Y9326688D01*
X4151815Y9232184D01*
X4232184Y9151815D01*
X4326688Y9088669D01*
X4431695Y9045174D01*
X4543170Y9023000D01*
X4656830Y9023000D01*
X4768305Y9045174D01*
X4873312Y9088669D01*
X4967816Y9151815D01*
X5048185Y9232184D01*
X5111331Y9326688D01*
X5154826Y9431695D01*
X5177000Y9543170D01*
X5177000Y9656830D01*
X5154826Y9768305D01*
X5111331Y9873312D01*
X5048185Y9967816D01*
X4967816Y10048185D01*
X4873312Y10111331D01*
X4768305Y10154826D01*
X4656830Y10177000D01*
X4543170Y10177000D01*
X4431695Y10154826D01*
X4326688Y10111331D01*
X4232184Y10048185D01*
X4151815Y9967816D01*
X4088669Y9873312D01*
X4045174Y9768305D01*
X4023000Y9656830D01*
X2825123Y9656830D01*
X2707095Y9847451D01*
X2503249Y10256830D01*
X25123000Y10256830D01*
X25123000Y10143170D01*
X25145174Y10031695D01*
X25188669Y9926688D01*
X25251815Y9832184D01*
X25332184Y9751815D01*
X25426688Y9688669D01*
X25531695Y9645174D01*
X25643170Y9623000D01*
X25756830Y9623000D01*
X25868305Y9645174D01*
X25973312Y9688669D01*
X26067816Y9751815D01*
X26148185Y9832184D01*
X26211331Y9926688D01*
X26254826Y10031695D01*
X26259825Y10056830D01*
X26523000Y10056830D01*
X26523000Y9943170D01*
X26545174Y9831695D01*
X26588669Y9726688D01*
X26651815Y9632184D01*
X26732184Y9551815D01*
X26826688Y9488669D01*
X26931695Y9445174D01*
X27043170Y9423000D01*
X27156830Y9423000D01*
X27268305Y9445174D01*
X27373312Y9488669D01*
X27467816Y9551815D01*
X27548185Y9632184D01*
X27611331Y9726688D01*
X27654826Y9831695D01*
X27677000Y9943170D01*
X27677000Y10056830D01*
X27654826Y10168305D01*
X27611331Y10273312D01*
X27548185Y10367816D01*
X27467816Y10448185D01*
X27373312Y10511331D01*
X27268305Y10554826D01*
X27156830Y10577000D01*
X27043170Y10577000D01*
X26931695Y10554826D01*
X26826688Y10511331D01*
X26732184Y10448185D01*
X26651815Y10367816D01*
X26588669Y10273312D01*
X26545174Y10168305D01*
X26523000Y10056830D01*
X26259825Y10056830D01*
X26277000Y10143170D01*
X26277000Y10256830D01*
X26254826Y10368305D01*
X26211331Y10473312D01*
X26148185Y10567816D01*
X26067816Y10648185D01*
X25973312Y10711331D01*
X25868305Y10754826D01*
X25756830Y10777000D01*
X25643170Y10777000D01*
X25531695Y10754826D01*
X25426688Y10711331D01*
X25332184Y10648185D01*
X25251815Y10567816D01*
X25188669Y10473312D01*
X25145174Y10368305D01*
X25123000Y10256830D01*
X2503249Y10256830D01*
X2005308Y11256830D01*
X26373000Y11256830D01*
X26373000Y11143170D01*
X26395174Y11031695D01*
X26438669Y10926688D01*
X26501815Y10832184D01*
X26582184Y10751815D01*
X26676688Y10688669D01*
X26781695Y10645174D01*
X26893170Y10623000D01*
X27006830Y10623000D01*
X27118305Y10645174D01*
X27223312Y10688669D01*
X27317816Y10751815D01*
X27398185Y10832184D01*
X27461331Y10926688D01*
X27504826Y11031695D01*
X27527000Y11143170D01*
X27527000Y11256830D01*
X27504826Y11368305D01*
X27461331Y11473312D01*
X27398185Y11567816D01*
X27317816Y11648185D01*
X27223312Y11711331D01*
X27118305Y11754826D01*
X27006830Y11777000D01*
X26893170Y11777000D01*
X26781695Y11754826D01*
X26676688Y11711331D01*
X26582184Y11648185D01*
X26501815Y11567816D01*
X26438669Y11473312D01*
X26395174Y11368305D01*
X26373000Y11256830D01*
X2005308Y11256830D01*
X1949622Y11368661D01*
X1502970Y12521603D01*
X1723000Y12521603D01*
X1723000Y12378397D01*
X1750938Y12237942D01*
X1805741Y12105636D01*
X1885302Y11986564D01*
X1986564Y11885302D01*
X2105636Y11805741D01*
X2237942Y11750938D01*
X2378397Y11723000D01*
X2521603Y11723000D01*
X2662058Y11750938D01*
X2794364Y11805741D01*
X2913436Y11885302D01*
X3014698Y11986564D01*
X3094259Y12105636D01*
X3149062Y12237942D01*
X3177000Y12378397D01*
X3177000Y12521603D01*
X3149062Y12662058D01*
X3109807Y12756830D01*
X24123000Y12756830D01*
X24123000Y12643170D01*
X24145174Y12531695D01*
X24188669Y12426688D01*
X24251815Y12332184D01*
X24332184Y12251815D01*
X24424833Y12189909D01*
X24395174Y12118305D01*
X24373000Y12006830D01*
X24373000Y11893170D01*
X24395174Y11781695D01*
X24438669Y11676688D01*
X24501815Y11582184D01*
X24582184Y11501815D01*
X24676688Y11438669D01*
X24781695Y11395174D01*
X24893170Y11373000D01*
X25006830Y11373000D01*
X25118305Y11395174D01*
X25223312Y11438669D01*
X25317816Y11501815D01*
X25398185Y11582184D01*
X25461331Y11676688D01*
X25504826Y11781695D01*
X25527000Y11893170D01*
X25527000Y12006830D01*
X25504826Y12118305D01*
X25461331Y12223312D01*
X25398185Y12317816D01*
X25317816Y12398185D01*
X25225167Y12460091D01*
X25254826Y12531695D01*
X25277000Y12643170D01*
X25277000Y12756830D01*
X25254826Y12868305D01*
X25211331Y12973312D01*
X25148185Y13067816D01*
X25067816Y13148185D01*
X24973312Y13211331D01*
X24868305Y13254826D01*
X24756830Y13277000D01*
X24643170Y13277000D01*
X24531695Y13254826D01*
X24426688Y13211331D01*
X24332184Y13148185D01*
X24251815Y13067816D01*
X24188669Y12973312D01*
X24145174Y12868305D01*
X24123000Y12756830D01*
X3109807Y12756830D01*
X3094259Y12794364D01*
X3014698Y12913436D01*
X2913436Y13014698D01*
X2794364Y13094259D01*
X2662058Y13149062D01*
X2521603Y13177000D01*
X2378397Y13177000D01*
X2237942Y13149062D01*
X2105636Y13094259D01*
X1986564Y13014698D01*
X1885302Y12913436D01*
X1805741Y12794364D01*
X1750938Y12662058D01*
X1723000Y12521603D01*
X1502970Y12521603D01*
X1335740Y12953273D01*
X1093670Y13804062D01*
X1128664Y13839056D01*
X1151519Y13635764D01*
X1338684Y13554923D01*
X1538023Y13512149D01*
X1741877Y13509087D01*
X1942412Y13545853D01*
X2131920Y13621034D01*
X2159481Y13635764D01*
X2173091Y13756830D01*
X18123000Y13756830D01*
X18123000Y13643170D01*
X18145174Y13531695D01*
X18188669Y13426688D01*
X18251815Y13332184D01*
X18332184Y13251815D01*
X18426688Y13188669D01*
X18531695Y13145174D01*
X18643170Y13123000D01*
X18756830Y13123000D01*
X18868305Y13145174D01*
X18973312Y13188669D01*
X19067816Y13251815D01*
X19148185Y13332184D01*
X19211331Y13426688D01*
X19254826Y13531695D01*
X19277000Y13643170D01*
X19277000Y13756830D01*
X19254826Y13868305D01*
X19211331Y13973312D01*
X19148185Y14067816D01*
X19067816Y14148185D01*
X19054878Y14156830D01*
X23323000Y14156830D01*
X23323000Y14043170D01*
X23345174Y13931695D01*
X23388669Y13826688D01*
X23451815Y13732184D01*
X23532184Y13651815D01*
X23626688Y13588669D01*
X23731695Y13545174D01*
X23843170Y13523000D01*
X23956830Y13523000D01*
X24068305Y13545174D01*
X24173312Y13588669D01*
X24267816Y13651815D01*
X24348185Y13732184D01*
X24411331Y13826688D01*
X24454826Y13931695D01*
X24477000Y14043170D01*
X24477000Y14156830D01*
X24454826Y14268305D01*
X24438869Y14306830D01*
X25023000Y14306830D01*
X25023000Y14193170D01*
X25045174Y14081695D01*
X25088669Y13976688D01*
X25151815Y13882184D01*
X25232184Y13801815D01*
X25326688Y13738669D01*
X25431695Y13695174D01*
X25543170Y13673000D01*
X25656830Y13673000D01*
X25768305Y13695174D01*
X25873312Y13738669D01*
X25947686Y13788364D01*
X25951815Y13782184D01*
X26032184Y13701815D01*
X26126688Y13638669D01*
X26231695Y13595174D01*
X26343170Y13573000D01*
X26456830Y13573000D01*
X26568305Y13595174D01*
X26673312Y13638669D01*
X26767816Y13701815D01*
X26848185Y13782184D01*
X26911331Y13876688D01*
X26954826Y13981695D01*
X26977000Y14093170D01*
X26977000Y14206830D01*
X26954826Y14318305D01*
X26911331Y14423312D01*
X26848185Y14517816D01*
X26767816Y14598185D01*
X26673312Y14661331D01*
X26568305Y14704826D01*
X26456830Y14727000D01*
X26343170Y14727000D01*
X26231695Y14704826D01*
X26126688Y14661331D01*
X26052314Y14611636D01*
X26048185Y14617816D01*
X25967816Y14698185D01*
X25873312Y14761331D01*
X25768305Y14804826D01*
X25656830Y14827000D01*
X25543170Y14827000D01*
X25431695Y14804826D01*
X25326688Y14761331D01*
X25232184Y14698185D01*
X25151815Y14617816D01*
X25088669Y14523312D01*
X25045174Y14418305D01*
X25023000Y14306830D01*
X24438869Y14306830D01*
X24411331Y14373312D01*
X24348185Y14467816D01*
X24267816Y14548185D01*
X24173312Y14611331D01*
X24068305Y14654826D01*
X23956830Y14677000D01*
X23843170Y14677000D01*
X23731695Y14654826D01*
X23626688Y14611331D01*
X23532184Y14548185D01*
X23451815Y14467816D01*
X23388669Y14373312D01*
X23345174Y14268305D01*
X23323000Y14156830D01*
X19054878Y14156830D01*
X18973312Y14211331D01*
X18868305Y14254826D01*
X18756830Y14277000D01*
X18643170Y14277000D01*
X18531695Y14254826D01*
X18426688Y14211331D01*
X18332184Y14148185D01*
X18251815Y14067816D01*
X18188669Y13973312D01*
X18145174Y13868305D01*
X18123000Y13756830D01*
X2173091Y13756830D01*
X2182336Y13839059D01*
X1655500Y14365895D01*
X1641358Y14351752D01*
X1461753Y14531357D01*
X1475895Y14545500D01*
X1835105Y14545500D01*
X2361941Y14018664D01*
X2565236Y14041519D01*
X2646077Y14228684D01*
X2688851Y14428023D01*
X2691913Y14631877D01*
X2655147Y14832412D01*
X2579966Y15021920D01*
X2565236Y15049481D01*
X2361941Y15072336D01*
X1835105Y14545500D01*
X1475895Y14545500D01*
X949059Y15072336D01*
X783583Y15053733D01*
X746532Y15251941D01*
X1128664Y15251941D01*
X1655500Y14725105D01*
X2182336Y15251941D01*
X2159481Y15455236D01*
X1972316Y15536077D01*
X1772977Y15578851D01*
X1569123Y15581913D01*
X1368588Y15545147D01*
X1179080Y15469966D01*
X1151519Y15455236D01*
X1128664Y15251941D01*
X746532Y15251941D01*
X558429Y16258199D01*
X540024Y16456830D01*
X9723000Y16456830D01*
X9723000Y16343170D01*
X9745174Y16231695D01*
X9788669Y16126688D01*
X9839911Y16050000D01*
X9788669Y15973312D01*
X9745174Y15868305D01*
X9723000Y15756830D01*
X9723000Y15643170D01*
X9745174Y15531695D01*
X9788669Y15426688D01*
X9851815Y15332184D01*
X9932184Y15251815D01*
X10026688Y15188669D01*
X10131695Y15145174D01*
X10243170Y15123000D01*
X10356830Y15123000D01*
X10468305Y15145174D01*
X10573312Y15188669D01*
X10667816Y15251815D01*
X10748185Y15332184D01*
X10750000Y15334900D01*
X10751815Y15332184D01*
X10832184Y15251815D01*
X10926688Y15188669D01*
X11031695Y15145174D01*
X11143170Y15123000D01*
X11256830Y15123000D01*
X11368305Y15145174D01*
X11473312Y15188669D01*
X11567816Y15251815D01*
X11648185Y15332184D01*
X11700000Y15409730D01*
X11751815Y15332184D01*
X11832184Y15251815D01*
X11926688Y15188669D01*
X12031695Y15145174D01*
X12143170Y15123000D01*
X12256830Y15123000D01*
X12368305Y15145174D01*
X12473312Y15188669D01*
X12567816Y15251815D01*
X12600000Y15283999D01*
X12632184Y15251815D01*
X12726688Y15188669D01*
X12831695Y15145174D01*
X12943170Y15123000D01*
X13056830Y15123000D01*
X13168305Y15145174D01*
X13273312Y15188669D01*
X13367816Y15251815D01*
X13448185Y15332184D01*
X13511331Y15426688D01*
X13554826Y15531695D01*
X13577000Y15643170D01*
X13577000Y15756830D01*
X17623000Y15756830D01*
X17623000Y15643170D01*
X17645174Y15531695D01*
X17688669Y15426688D01*
X17751815Y15332184D01*
X17832184Y15251815D01*
X17926688Y15188669D01*
X18031695Y15145174D01*
X18143170Y15123000D01*
X18256830Y15123000D01*
X18368305Y15145174D01*
X18473312Y15188669D01*
X18567816Y15251815D01*
X18648185Y15332184D01*
X18711331Y15426688D01*
X18754826Y15531695D01*
X18777000Y15643170D01*
X18777000Y15756830D01*
X18754826Y15868305D01*
X18718159Y15956830D01*
X21923000Y15956830D01*
X21923000Y15843170D01*
X21945174Y15731695D01*
X21988669Y15626688D01*
X22051815Y15532184D01*
X22132184Y15451815D01*
X22226688Y15388669D01*
X22331695Y15345174D01*
X22443170Y15323000D01*
X22556830Y15323000D01*
X22668305Y15345174D01*
X22773312Y15388669D01*
X22867816Y15451815D01*
X22948185Y15532184D01*
X23011331Y15626688D01*
X23054826Y15731695D01*
X23077000Y15843170D01*
X23077000Y15956830D01*
X23054826Y16068305D01*
X23011331Y16173312D01*
X22948185Y16267816D01*
X22867816Y16348185D01*
X22773312Y16411331D01*
X22668305Y16454826D01*
X22556830Y16477000D01*
X22443170Y16477000D01*
X22331695Y16454826D01*
X22226688Y16411331D01*
X22132184Y16348185D01*
X22051815Y16267816D01*
X21988669Y16173312D01*
X21945174Y16068305D01*
X21923000Y15956830D01*
X18718159Y15956830D01*
X18711331Y15973312D01*
X18648185Y16067816D01*
X18567816Y16148185D01*
X18473312Y16211331D01*
X18368305Y16254826D01*
X18256830Y16277000D01*
X18143170Y16277000D01*
X18031695Y16254826D01*
X17926688Y16211331D01*
X17832184Y16148185D01*
X17751815Y16067816D01*
X17688669Y15973312D01*
X17645174Y15868305D01*
X17623000Y15756830D01*
X13577000Y15756830D01*
X13554826Y15868305D01*
X13511331Y15973312D01*
X13460089Y16050000D01*
X13511331Y16126688D01*
X13554826Y16231695D01*
X13577000Y16343170D01*
X13577000Y16456830D01*
X13554826Y16568305D01*
X13511331Y16673312D01*
X13484493Y16713478D01*
X27105500Y16713478D01*
X27105500Y16586522D01*
X27130268Y16462006D01*
X27178852Y16344715D01*
X27249385Y16239155D01*
X27339155Y16149385D01*
X27444715Y16078852D01*
X27562006Y16030268D01*
X27686522Y16005500D01*
X27813478Y16005500D01*
X27937994Y16030268D01*
X28055285Y16078852D01*
X28160845Y16149385D01*
X28250615Y16239155D01*
X28321148Y16344715D01*
X28369732Y16462006D01*
X28388593Y16556830D01*
X29223000Y16556830D01*
X29223000Y16443170D01*
X29245174Y16331695D01*
X29288669Y16226688D01*
X29351815Y16132184D01*
X29432184Y16051815D01*
X29526688Y15988669D01*
X29631695Y15945174D01*
X29743170Y15923000D01*
X29856830Y15923000D01*
X29968305Y15945174D01*
X30073312Y15988669D01*
X30167816Y16051815D01*
X30248185Y16132184D01*
X30311331Y16226688D01*
X30354826Y16331695D01*
X30377000Y16443170D01*
X30377000Y16556830D01*
X30354826Y16668305D01*
X30311331Y16773312D01*
X30248185Y16867816D01*
X30167816Y16948185D01*
X30073312Y17011331D01*
X29968305Y17054826D01*
X29856830Y17077000D01*
X29743170Y17077000D01*
X29631695Y17054826D01*
X29526688Y17011331D01*
X29432184Y16948185D01*
X29351815Y16867816D01*
X29288669Y16773312D01*
X29245174Y16668305D01*
X29223000Y16556830D01*
X28388593Y16556830D01*
X28394500Y16586522D01*
X28394500Y16713478D01*
X28369732Y16837994D01*
X28321148Y16955285D01*
X28250615Y17060845D01*
X28160845Y17150615D01*
X28055285Y17221148D01*
X27937994Y17269732D01*
X27813478Y17294500D01*
X27686522Y17294500D01*
X27562006Y17269732D01*
X27444715Y17221148D01*
X27339155Y17150615D01*
X27249385Y17060845D01*
X27178852Y16955285D01*
X27130268Y16837994D01*
X27105500Y16713478D01*
X13484493Y16713478D01*
X13448185Y16767816D01*
X13367816Y16848185D01*
X13273312Y16911331D01*
X13168305Y16954826D01*
X13056830Y16977000D01*
X12943170Y16977000D01*
X12831695Y16954826D01*
X12726688Y16911331D01*
X12632184Y16848185D01*
X12600000Y16816001D01*
X12567816Y16848185D01*
X12473312Y16911331D01*
X12368305Y16954826D01*
X12256830Y16977000D01*
X12143170Y16977000D01*
X12031695Y16954826D01*
X11926688Y16911331D01*
X11832184Y16848185D01*
X11751815Y16767816D01*
X11700000Y16690270D01*
X11648185Y16767816D01*
X11567816Y16848185D01*
X11473312Y16911331D01*
X11368305Y16954826D01*
X11256830Y16977000D01*
X11143170Y16977000D01*
X11031695Y16954826D01*
X10926688Y16911331D01*
X10832184Y16848185D01*
X10751815Y16767816D01*
X10750000Y16765100D01*
X10748185Y16767816D01*
X10667816Y16848185D01*
X10573312Y16911331D01*
X10468305Y16954826D01*
X10356830Y16977000D01*
X10243170Y16977000D01*
X10131695Y16954826D01*
X10026688Y16911331D01*
X9932184Y16848185D01*
X9851815Y16767816D01*
X9788669Y16673312D01*
X9745174Y16568305D01*
X9723000Y16456830D01*
X540024Y16456830D01*
X401631Y17950317D01*
X401631Y18113478D01*
X30155500Y18113478D01*
X30155500Y17986522D01*
X30180268Y17862006D01*
X30228852Y17744715D01*
X30299385Y17639155D01*
X30389155Y17549385D01*
X30494715Y17478852D01*
X30612006Y17430268D01*
X30736522Y17405500D01*
X30863478Y17405500D01*
X30987994Y17430268D01*
X31105285Y17478852D01*
X31210845Y17549385D01*
X31300615Y17639155D01*
X31371148Y17744715D01*
X31419732Y17862006D01*
X31444500Y17986522D01*
X31444500Y18113478D01*
X31419732Y18237994D01*
X31371148Y18355285D01*
X31300615Y18460845D01*
X31210845Y18550615D01*
X31105285Y18621148D01*
X30987994Y18669732D01*
X30863478Y18694500D01*
X30736522Y18694500D01*
X30612006Y18669732D01*
X30494715Y18621148D01*
X30389155Y18550615D01*
X30299385Y18460845D01*
X30228852Y18355285D01*
X30180268Y18237994D01*
X30155500Y18113478D01*
X401631Y18113478D01*
X401631Y19426830D01*
X10973000Y19426830D01*
X10973000Y19313170D01*
X10995174Y19201695D01*
X11038669Y19096688D01*
X11101815Y19002184D01*
X11182184Y18921815D01*
X11276688Y18858669D01*
X11381695Y18815174D01*
X11493170Y18793000D01*
X11606830Y18793000D01*
X11718305Y18815174D01*
X11823312Y18858669D01*
X11917816Y18921815D01*
X11998185Y19002184D01*
X12061331Y19096688D01*
X12104826Y19201695D01*
X12125738Y19306830D01*
X12723000Y19306830D01*
X12723000Y19193170D01*
X12745174Y19081695D01*
X12788669Y18976688D01*
X12851815Y18882184D01*
X12932184Y18801815D01*
X13026688Y18738669D01*
X13131695Y18695174D01*
X13243170Y18673000D01*
X13356830Y18673000D01*
X13468305Y18695174D01*
X13573312Y18738669D01*
X13667816Y18801815D01*
X13748185Y18882184D01*
X13811331Y18976688D01*
X13826569Y19013478D01*
X31605500Y19013478D01*
X31605500Y18886522D01*
X31630268Y18762006D01*
X31678852Y18644715D01*
X31749385Y18539155D01*
X31839155Y18449385D01*
X31944715Y18378852D01*
X32062006Y18330268D01*
X32186522Y18305500D01*
X32313478Y18305500D01*
X32437994Y18330268D01*
X32555285Y18378852D01*
X32660845Y18449385D01*
X32750615Y18539155D01*
X32821148Y18644715D01*
X32869732Y18762006D01*
X32894500Y18886522D01*
X32894500Y19013478D01*
X32869732Y19137994D01*
X32821148Y19255285D01*
X32750615Y19360845D01*
X32660845Y19450615D01*
X32555285Y19521148D01*
X32437994Y19569732D01*
X32313478Y19594500D01*
X32186522Y19594500D01*
X32062006Y19569732D01*
X31944715Y19521148D01*
X31839155Y19450615D01*
X31749385Y19360845D01*
X31678852Y19255285D01*
X31630268Y19137994D01*
X31605500Y19013478D01*
X13826569Y19013478D01*
X13854826Y19081695D01*
X13877000Y19193170D01*
X13877000Y19306830D01*
X13854826Y19418305D01*
X13811331Y19523312D01*
X13748185Y19617816D01*
X13667816Y19698185D01*
X13573312Y19761331D01*
X13468305Y19804826D01*
X13356830Y19827000D01*
X13243170Y19827000D01*
X13131695Y19804826D01*
X13026688Y19761331D01*
X12932184Y19698185D01*
X12851815Y19617816D01*
X12788669Y19523312D01*
X12745174Y19418305D01*
X12723000Y19306830D01*
X12125738Y19306830D01*
X12127000Y19313170D01*
X12127000Y19426830D01*
X12104826Y19538305D01*
X12061331Y19643312D01*
X11998185Y19737816D01*
X11917816Y19818185D01*
X11823312Y19881331D01*
X11718305Y19924826D01*
X11606830Y19947000D01*
X11493170Y19947000D01*
X11381695Y19924826D01*
X11276688Y19881331D01*
X11182184Y19818185D01*
X11101815Y19737816D01*
X11038669Y19643312D01*
X10995174Y19538305D01*
X10973000Y19426830D01*
X401631Y19426830D01*
X401631Y19649683D01*
X457891Y20256830D01*
X23123000Y20256830D01*
X23123000Y20143170D01*
X23145174Y20031695D01*
X23188669Y19926688D01*
X23251815Y19832184D01*
X23332184Y19751815D01*
X23426688Y19688669D01*
X23531695Y19645174D01*
X23643170Y19623000D01*
X23756830Y19623000D01*
X23868305Y19645174D01*
X23973312Y19688669D01*
X24067816Y19751815D01*
X24148185Y19832184D01*
X24164653Y19856830D01*
X27823000Y19856830D01*
X27823000Y19743170D01*
X27845174Y19631695D01*
X27888669Y19526688D01*
X27951815Y19432184D01*
X28032184Y19351815D01*
X28126688Y19288669D01*
X28231695Y19245174D01*
X28343170Y19223000D01*
X28456830Y19223000D01*
X28568305Y19245174D01*
X28673312Y19288669D01*
X28767816Y19351815D01*
X28848185Y19432184D01*
X28911331Y19526688D01*
X28954826Y19631695D01*
X28977000Y19743170D01*
X28977000Y19856830D01*
X28954826Y19968305D01*
X28911331Y20073312D01*
X28848185Y20167816D01*
X28767816Y20248185D01*
X28673312Y20311331D01*
X28568305Y20354826D01*
X28456830Y20377000D01*
X28343170Y20377000D01*
X28231695Y20354826D01*
X28126688Y20311331D01*
X28032184Y20248185D01*
X27951815Y20167816D01*
X27888669Y20073312D01*
X27845174Y19968305D01*
X27823000Y19856830D01*
X24164653Y19856830D01*
X24211331Y19926688D01*
X24254826Y20031695D01*
X24277000Y20143170D01*
X24277000Y20256830D01*
X24254826Y20368305D01*
X24211331Y20473312D01*
X24148185Y20567816D01*
X24067816Y20648185D01*
X23973312Y20711331D01*
X23868305Y20754826D01*
X23756830Y20777000D01*
X23643170Y20777000D01*
X23531695Y20754826D01*
X23426688Y20711331D01*
X23332184Y20648185D01*
X23251815Y20567816D01*
X23188669Y20473312D01*
X23145174Y20368305D01*
X23123000Y20256830D01*
X457891Y20256830D01*
X532022Y21056830D01*
X25623000Y21056830D01*
X25623000Y20943170D01*
X25645174Y20831695D01*
X25688669Y20726688D01*
X25751815Y20632184D01*
X25832184Y20551815D01*
X25926688Y20488669D01*
X26031695Y20445174D01*
X26143170Y20423000D01*
X26256830Y20423000D01*
X26368305Y20445174D01*
X26473312Y20488669D01*
X26567816Y20551815D01*
X26648185Y20632184D01*
X26711331Y20726688D01*
X26754826Y20831695D01*
X26777000Y20943170D01*
X26777000Y21056830D01*
X26754826Y21168305D01*
X26711331Y21273312D01*
X26648185Y21367816D01*
X26567816Y21448185D01*
X26473312Y21511331D01*
X26368305Y21554826D01*
X26256830Y21577000D01*
X26143170Y21577000D01*
X26031695Y21554826D01*
X25926688Y21511331D01*
X25832184Y21448185D01*
X25751815Y21367816D01*
X25688669Y21273312D01*
X25645174Y21168305D01*
X25623000Y21056830D01*
X532022Y21056830D01*
X558429Y21341801D01*
X636011Y21756830D01*
X19123000Y21756830D01*
X19123000Y21643170D01*
X19145174Y21531695D01*
X19188669Y21426688D01*
X19251815Y21332184D01*
X19332184Y21251815D01*
X19426688Y21188669D01*
X19531695Y21145174D01*
X19643170Y21123000D01*
X19756830Y21123000D01*
X19868305Y21145174D01*
X19973312Y21188669D01*
X20067816Y21251815D01*
X20148185Y21332184D01*
X20211331Y21426688D01*
X20254826Y21531695D01*
X20277000Y21643170D01*
X20277000Y21756830D01*
X20254826Y21868305D01*
X20211331Y21973312D01*
X20151084Y22063478D01*
X31755500Y22063478D01*
X31755500Y21936522D01*
X31780268Y21812006D01*
X31828852Y21694715D01*
X31899385Y21589155D01*
X31989155Y21499385D01*
X32094715Y21428852D01*
X32212006Y21380268D01*
X32336522Y21355500D01*
X32463478Y21355500D01*
X32587994Y21380268D01*
X32705285Y21428852D01*
X32810845Y21499385D01*
X32900615Y21589155D01*
X32971148Y21694715D01*
X33019732Y21812006D01*
X33044500Y21936522D01*
X33044500Y22063478D01*
X33019732Y22187994D01*
X32971148Y22305285D01*
X32900615Y22410845D01*
X32810845Y22500615D01*
X32705285Y22571148D01*
X32587994Y22619732D01*
X32463478Y22644500D01*
X32336522Y22644500D01*
X32212006Y22619732D01*
X32094715Y22571148D01*
X31989155Y22500615D01*
X31899385Y22410845D01*
X31828852Y22305285D01*
X31780268Y22187994D01*
X31755500Y22063478D01*
X20151084Y22063478D01*
X20148185Y22067816D01*
X20067816Y22148185D01*
X19973312Y22211331D01*
X19868305Y22254826D01*
X19756830Y22277000D01*
X19643170Y22277000D01*
X19531695Y22254826D01*
X19426688Y22211331D01*
X19332184Y22148185D01*
X19251815Y22067816D01*
X19188669Y21973312D01*
X19145174Y21868305D01*
X19123000Y21756830D01*
X636011Y21756830D01*
X870687Y23012232D01*
X926054Y23206830D01*
X973000Y23206830D01*
X973000Y23093170D01*
X995174Y22981695D01*
X1038669Y22876688D01*
X1101815Y22782184D01*
X1182184Y22701815D01*
X1276688Y22638669D01*
X1381695Y22595174D01*
X1493170Y22573000D01*
X1606830Y22573000D01*
X1718305Y22595174D01*
X1823312Y22638669D01*
X1917816Y22701815D01*
X1998185Y22782184D01*
X2061331Y22876688D01*
X2104826Y22981695D01*
X2127000Y23093170D01*
X2127000Y23206830D01*
X2117055Y23256830D01*
X20623000Y23256830D01*
X20623000Y23143170D01*
X20645174Y23031695D01*
X20688669Y22926688D01*
X20751815Y22832184D01*
X20832184Y22751815D01*
X20926688Y22688669D01*
X21031695Y22645174D01*
X21143170Y22623000D01*
X21256830Y22623000D01*
X21368305Y22645174D01*
X21473312Y22688669D01*
X21567816Y22751815D01*
X21572831Y22756830D01*
X25873000Y22756830D01*
X25873000Y22643170D01*
X25895174Y22531695D01*
X25938669Y22426688D01*
X26001815Y22332184D01*
X26082184Y22251815D01*
X26176688Y22188669D01*
X26281695Y22145174D01*
X26393170Y22123000D01*
X26506830Y22123000D01*
X26618305Y22145174D01*
X26723312Y22188669D01*
X26817816Y22251815D01*
X26898185Y22332184D01*
X26961331Y22426688D01*
X27004826Y22531695D01*
X27027000Y22643170D01*
X27027000Y22756830D01*
X27004826Y22868305D01*
X26961331Y22973312D01*
X26898185Y23067816D01*
X26817816Y23148185D01*
X26723312Y23211331D01*
X26618305Y23254826D01*
X26506830Y23277000D01*
X26393170Y23277000D01*
X26281695Y23254826D01*
X26176688Y23211331D01*
X26082184Y23148185D01*
X26001815Y23067816D01*
X25938669Y22973312D01*
X25895174Y22868305D01*
X25873000Y22756830D01*
X21572831Y22756830D01*
X21648185Y22832184D01*
X21711331Y22926688D01*
X21754826Y23031695D01*
X21777000Y23143170D01*
X21777000Y23256830D01*
X21754826Y23368305D01*
X21711331Y23473312D01*
X21648185Y23567816D01*
X21567816Y23648185D01*
X21473312Y23711331D01*
X21368305Y23754826D01*
X21256830Y23777000D01*
X21143170Y23777000D01*
X21031695Y23754826D01*
X20926688Y23711331D01*
X20832184Y23648185D01*
X20751815Y23567816D01*
X20688669Y23473312D01*
X20645174Y23368305D01*
X20623000Y23256830D01*
X2117055Y23256830D01*
X2104826Y23318305D01*
X2061331Y23423312D01*
X1998185Y23517816D01*
X1917816Y23598185D01*
X1823312Y23661331D01*
X1718305Y23704826D01*
X1606830Y23727000D01*
X1493170Y23727000D01*
X1381695Y23704826D01*
X1276688Y23661331D01*
X1182184Y23598185D01*
X1101815Y23517816D01*
X1038669Y23423312D01*
X995174Y23318305D01*
X973000Y23206830D01*
X926054Y23206830D01*
X1335740Y24646727D01*
X1380969Y24763478D01*
X29255500Y24763478D01*
X29255500Y24636522D01*
X29280268Y24512006D01*
X29328852Y24394715D01*
X29399385Y24289155D01*
X29489155Y24199385D01*
X29594715Y24128852D01*
X29712006Y24080268D01*
X29836522Y24055500D01*
X29963478Y24055500D01*
X30087994Y24080268D01*
X30205285Y24128852D01*
X30310845Y24199385D01*
X30400615Y24289155D01*
X30471148Y24394715D01*
X30519732Y24512006D01*
X30544500Y24636522D01*
X30544500Y24763478D01*
X30519732Y24887994D01*
X30471148Y25005285D01*
X30400615Y25110845D01*
X30310845Y25200615D01*
X30205285Y25271148D01*
X30087994Y25319732D01*
X29963478Y25344500D01*
X29836522Y25344500D01*
X29712006Y25319732D01*
X29594715Y25271148D01*
X29489155Y25200615D01*
X29399385Y25110845D01*
X29328852Y25005285D01*
X29280268Y24887994D01*
X29255500Y24763478D01*
X1380969Y24763478D01*
X1949622Y26231339D01*
X1962315Y26256830D01*
X4123000Y26256830D01*
X4123000Y26143170D01*
X4145174Y26031695D01*
X4188669Y25926688D01*
X4251815Y25832184D01*
X4332184Y25751815D01*
X4426688Y25688669D01*
X4531695Y25645174D01*
X4643170Y25623000D01*
X4756830Y25623000D01*
X4868305Y25645174D01*
X4973312Y25688669D01*
X5067816Y25751815D01*
X5148185Y25832184D01*
X5211331Y25926688D01*
X5223816Y25956830D01*
X13123000Y25956830D01*
X13123000Y25843170D01*
X13145174Y25731695D01*
X13188669Y25626688D01*
X13251815Y25532184D01*
X13332184Y25451815D01*
X13426688Y25388669D01*
X13531695Y25345174D01*
X13643170Y25323000D01*
X13756830Y25323000D01*
X13868305Y25345174D01*
X13973312Y25388669D01*
X14067816Y25451815D01*
X14148185Y25532184D01*
X14211331Y25626688D01*
X14254826Y25731695D01*
X14277000Y25843170D01*
X14277000Y25956830D01*
X22523000Y25956830D01*
X22523000Y25843170D01*
X22545174Y25731695D01*
X22588669Y25626688D01*
X22651815Y25532184D01*
X22732184Y25451815D01*
X22826688Y25388669D01*
X22931695Y25345174D01*
X23043170Y25323000D01*
X23156830Y25323000D01*
X23268305Y25345174D01*
X23373312Y25388669D01*
X23467816Y25451815D01*
X23548185Y25532184D01*
X23611331Y25626688D01*
X23654826Y25731695D01*
X23677000Y25843170D01*
X23677000Y25956830D01*
X23657109Y26056830D01*
X25673000Y26056830D01*
X25673000Y25943170D01*
X25695174Y25831695D01*
X25738669Y25726688D01*
X25801815Y25632184D01*
X25882184Y25551815D01*
X25976688Y25488669D01*
X26081695Y25445174D01*
X26193170Y25423000D01*
X26306830Y25423000D01*
X26418305Y25445174D01*
X26523312Y25488669D01*
X26617816Y25551815D01*
X26698185Y25632184D01*
X26761331Y25726688D01*
X26804826Y25831695D01*
X26827000Y25943170D01*
X26827000Y26056830D01*
X26804826Y26168305D01*
X26761331Y26273312D01*
X26698185Y26367816D01*
X26617816Y26448185D01*
X26523312Y26511331D01*
X26418305Y26554826D01*
X26306830Y26577000D01*
X26193170Y26577000D01*
X26081695Y26554826D01*
X25976688Y26511331D01*
X25882184Y26448185D01*
X25801815Y26367816D01*
X25738669Y26273312D01*
X25695174Y26168305D01*
X25673000Y26056830D01*
X23657109Y26056830D01*
X23654826Y26068305D01*
X23611331Y26173312D01*
X23548185Y26267816D01*
X23467816Y26348185D01*
X23373312Y26411331D01*
X23268305Y26454826D01*
X23156830Y26477000D01*
X23043170Y26477000D01*
X22931695Y26454826D01*
X22826688Y26411331D01*
X22732184Y26348185D01*
X22651815Y26267816D01*
X22588669Y26173312D01*
X22545174Y26068305D01*
X22523000Y25956830D01*
X14277000Y25956830D01*
X14254826Y26068305D01*
X14211331Y26173312D01*
X14148185Y26267816D01*
X14067816Y26348185D01*
X13973312Y26411331D01*
X13868305Y26454826D01*
X13756830Y26477000D01*
X13643170Y26477000D01*
X13531695Y26454826D01*
X13426688Y26411331D01*
X13332184Y26348185D01*
X13251815Y26267816D01*
X13188669Y26173312D01*
X13145174Y26068305D01*
X13123000Y25956830D01*
X5223816Y25956830D01*
X5254826Y26031695D01*
X5277000Y26143170D01*
X5277000Y26256830D01*
X5254826Y26368305D01*
X5211331Y26473312D01*
X5148185Y26567816D01*
X5067816Y26648185D01*
X4973312Y26711331D01*
X4868305Y26754826D01*
X4756830Y26777000D01*
X4643170Y26777000D01*
X4531695Y26754826D01*
X4426688Y26711331D01*
X4332184Y26648185D01*
X4251815Y26567816D01*
X4188669Y26473312D01*
X4145174Y26368305D01*
X4123000Y26256830D01*
X1962315Y26256830D01*
X2435359Y27206830D01*
X9473000Y27206830D01*
X9473000Y27093170D01*
X9495174Y26981695D01*
X9538669Y26876688D01*
X9601815Y26782184D01*
X9682184Y26701815D01*
X9776688Y26638669D01*
X9881695Y26595174D01*
X9993170Y26573000D01*
X10106830Y26573000D01*
X10218305Y26595174D01*
X10323312Y26638669D01*
X10417816Y26701815D01*
X10498185Y26782184D01*
X10561331Y26876688D01*
X10604826Y26981695D01*
X10627000Y27093170D01*
X10627000Y27206830D01*
X10604826Y27318305D01*
X10561331Y27423312D01*
X10498185Y27517816D01*
X10417816Y27598185D01*
X10323312Y27661331D01*
X10218305Y27704826D01*
X10106830Y27727000D01*
X9993170Y27727000D01*
X9881695Y27704826D01*
X9776688Y27661331D01*
X9682184Y27598185D01*
X9601815Y27517816D01*
X9538669Y27423312D01*
X9495174Y27318305D01*
X9473000Y27206830D01*
X2435359Y27206830D01*
X2707095Y27752549D01*
X2864539Y28006830D01*
X4873000Y28006830D01*
X4873000Y27893170D01*
X4895174Y27781695D01*
X4938669Y27676688D01*
X5001815Y27582184D01*
X5082184Y27501815D01*
X5176688Y27438669D01*
X5281695Y27395174D01*
X5393170Y27373000D01*
X5506830Y27373000D01*
X5618305Y27395174D01*
X5723312Y27438669D01*
X5817816Y27501815D01*
X5898185Y27582184D01*
X5961331Y27676688D01*
X6004826Y27781695D01*
X6027000Y27893170D01*
X6027000Y28006830D01*
X6004826Y28118305D01*
X5961331Y28223312D01*
X5938935Y28256830D01*
X13133000Y28256830D01*
X13133000Y28143170D01*
X13155174Y28031695D01*
X13198669Y27926688D01*
X13261815Y27832184D01*
X13342184Y27751815D01*
X13436688Y27688669D01*
X13541695Y27645174D01*
X13653170Y27623000D01*
X13766830Y27623000D01*
X13878305Y27645174D01*
X13983312Y27688669D01*
X14077816Y27751815D01*
X14082831Y27756830D01*
X22123000Y27756830D01*
X22123000Y27643170D01*
X22145174Y27531695D01*
X22188669Y27426688D01*
X22251815Y27332184D01*
X22332184Y27251815D01*
X22426688Y27188669D01*
X22531695Y27145174D01*
X22643170Y27123000D01*
X22756830Y27123000D01*
X22868305Y27145174D01*
X22973312Y27188669D01*
X23067816Y27251815D01*
X23101831Y27285830D01*
X26352000Y27285830D01*
X26352000Y27172170D01*
X26374174Y27060695D01*
X26417669Y26955688D01*
X26480815Y26861184D01*
X26561184Y26780815D01*
X26655688Y26717669D01*
X26760695Y26674174D01*
X26872170Y26652000D01*
X26985830Y26652000D01*
X27097305Y26674174D01*
X27202312Y26717669D01*
X27296816Y26780815D01*
X27377185Y26861184D01*
X27440331Y26955688D01*
X27483826Y27060695D01*
X27506000Y27172170D01*
X27506000Y27285830D01*
X27483826Y27397305D01*
X27440331Y27502312D01*
X27377185Y27596816D01*
X27296816Y27677185D01*
X27202312Y27740331D01*
X27097305Y27783826D01*
X26985830Y27806000D01*
X26872170Y27806000D01*
X26760695Y27783826D01*
X26655688Y27740331D01*
X26561184Y27677185D01*
X26480815Y27596816D01*
X26417669Y27502312D01*
X26374174Y27397305D01*
X26352000Y27285830D01*
X23101831Y27285830D01*
X23148185Y27332184D01*
X23211331Y27426688D01*
X23254826Y27531695D01*
X23277000Y27643170D01*
X23277000Y27756830D01*
X23254826Y27868305D01*
X23211331Y27973312D01*
X23148185Y28067816D01*
X23067816Y28148185D01*
X22973312Y28211331D01*
X22868305Y28254826D01*
X22858231Y28256830D01*
X25623000Y28256830D01*
X25623000Y28143170D01*
X25645174Y28031695D01*
X25688669Y27926688D01*
X25751815Y27832184D01*
X25832184Y27751815D01*
X25926688Y27688669D01*
X26031695Y27645174D01*
X26143170Y27623000D01*
X26256830Y27623000D01*
X26368305Y27645174D01*
X26473312Y27688669D01*
X26567816Y27751815D01*
X26648185Y27832184D01*
X26711331Y27926688D01*
X26754826Y28031695D01*
X26777000Y28143170D01*
X26777000Y28256830D01*
X26754826Y28368305D01*
X26711331Y28473312D01*
X26648185Y28567816D01*
X26567816Y28648185D01*
X26473312Y28711331D01*
X26368305Y28754826D01*
X26256830Y28777000D01*
X26143170Y28777000D01*
X26031695Y28754826D01*
X25926688Y28711331D01*
X25832184Y28648185D01*
X25751815Y28567816D01*
X25688669Y28473312D01*
X25645174Y28368305D01*
X25623000Y28256830D01*
X22858231Y28256830D01*
X22756830Y28277000D01*
X22643170Y28277000D01*
X22531695Y28254826D01*
X22426688Y28211331D01*
X22332184Y28148185D01*
X22251815Y28067816D01*
X22188669Y27973312D01*
X22145174Y27868305D01*
X22123000Y27756830D01*
X14082831Y27756830D01*
X14158185Y27832184D01*
X14221331Y27926688D01*
X14264826Y28031695D01*
X14287000Y28143170D01*
X14287000Y28256830D01*
X14264826Y28368305D01*
X14221331Y28473312D01*
X14158185Y28567816D01*
X14077816Y28648185D01*
X13983312Y28711331D01*
X13878305Y28754826D01*
X13766830Y28777000D01*
X13653170Y28777000D01*
X13541695Y28754826D01*
X13436688Y28711331D01*
X13342184Y28648185D01*
X13261815Y28567816D01*
X13198669Y28473312D01*
X13155174Y28368305D01*
X13133000Y28256830D01*
X5938935Y28256830D01*
X5898185Y28317816D01*
X5817816Y28398185D01*
X5723312Y28461331D01*
X5618305Y28504826D01*
X5506830Y28527000D01*
X5393170Y28527000D01*
X5281695Y28504826D01*
X5176688Y28461331D01*
X5082184Y28398185D01*
X5001815Y28317816D01*
X4938669Y28223312D01*
X4895174Y28118305D01*
X4873000Y28006830D01*
X2864539Y28006830D01*
X3601696Y29197380D01*
X4625794Y30553504D01*
X4999534Y30963478D01*
X8505500Y30963478D01*
X8505500Y30836522D01*
X8530268Y30712006D01*
X8578852Y30594715D01*
X8649385Y30489155D01*
X8739155Y30399385D01*
X8844715Y30328852D01*
X8962006Y30280268D01*
X9086522Y30255500D01*
X9213478Y30255500D01*
X9337994Y30280268D01*
X9455285Y30328852D01*
X9525000Y30375434D01*
X9594715Y30328852D01*
X9712006Y30280268D01*
X9836522Y30255500D01*
X9963478Y30255500D01*
X9970164Y30256830D01*
X10473000Y30256830D01*
X10473000Y30143170D01*
X10495174Y30031695D01*
X10538669Y29926688D01*
X10601815Y29832184D01*
X10682184Y29751815D01*
X10759730Y29700000D01*
X10682184Y29648185D01*
X10601815Y29567816D01*
X10538669Y29473312D01*
X10495174Y29368305D01*
X10473000Y29256830D01*
X10473000Y29143170D01*
X10495174Y29031695D01*
X10538669Y28926688D01*
X10601815Y28832184D01*
X10682184Y28751815D01*
X10776688Y28688669D01*
X10881695Y28645174D01*
X10993170Y28623000D01*
X11106830Y28623000D01*
X11218305Y28645174D01*
X11323312Y28688669D01*
X11417816Y28751815D01*
X11498185Y28832184D01*
X11561331Y28926688D01*
X11604826Y29031695D01*
X11627000Y29143170D01*
X11627000Y29256830D01*
X20123000Y29256830D01*
X20123000Y29143170D01*
X20145174Y29031695D01*
X20188669Y28926688D01*
X20251815Y28832184D01*
X20332184Y28751815D01*
X20426688Y28688669D01*
X20531695Y28645174D01*
X20643170Y28623000D01*
X20756830Y28623000D01*
X20868305Y28645174D01*
X20973312Y28688669D01*
X21067816Y28751815D01*
X21148185Y28832184D01*
X21211331Y28926688D01*
X21254826Y29031695D01*
X21277000Y29143170D01*
X21277000Y29256830D01*
X21254826Y29368305D01*
X21211331Y29473312D01*
X21148185Y29567816D01*
X21067816Y29648185D01*
X20973312Y29711331D01*
X20868305Y29754826D01*
X20756830Y29777000D01*
X20643170Y29777000D01*
X20531695Y29754826D01*
X20426688Y29711331D01*
X20332184Y29648185D01*
X20251815Y29567816D01*
X20188669Y29473312D01*
X20145174Y29368305D01*
X20123000Y29256830D01*
X11627000Y29256830D01*
X11604826Y29368305D01*
X11561331Y29473312D01*
X11498185Y29567816D01*
X11417816Y29648185D01*
X11340270Y29700000D01*
X11417816Y29751815D01*
X11498185Y29832184D01*
X11561331Y29926688D01*
X11604826Y30031695D01*
X11627000Y30143170D01*
X11627000Y30256830D01*
X11604826Y30368305D01*
X11561331Y30473312D01*
X11498185Y30567816D01*
X11417816Y30648185D01*
X11323312Y30711331D01*
X11218305Y30754826D01*
X11208231Y30756830D01*
X22873000Y30756830D01*
X22873000Y30643170D01*
X22895174Y30531695D01*
X22938669Y30426688D01*
X23001815Y30332184D01*
X23082184Y30251815D01*
X23176688Y30188669D01*
X23281695Y30145174D01*
X23393170Y30123000D01*
X23506830Y30123000D01*
X23618305Y30145174D01*
X23723312Y30188669D01*
X23817816Y30251815D01*
X23829479Y30263478D01*
X28755500Y30263478D01*
X28755500Y30136522D01*
X28780268Y30012006D01*
X28828852Y29894715D01*
X28899385Y29789155D01*
X28989155Y29699385D01*
X29094715Y29628852D01*
X29212006Y29580268D01*
X29336522Y29555500D01*
X29463478Y29555500D01*
X29587994Y29580268D01*
X29705285Y29628852D01*
X29810845Y29699385D01*
X29900615Y29789155D01*
X29971148Y29894715D01*
X30019732Y30012006D01*
X30044500Y30136522D01*
X30044500Y30263478D01*
X30019732Y30387994D01*
X29971148Y30505285D01*
X29900615Y30610845D01*
X29810845Y30700615D01*
X29705285Y30771148D01*
X29587994Y30819732D01*
X29463478Y30844500D01*
X29336522Y30844500D01*
X29212006Y30819732D01*
X29094715Y30771148D01*
X28989155Y30700615D01*
X28899385Y30610845D01*
X28828852Y30505285D01*
X28780268Y30387994D01*
X28755500Y30263478D01*
X23829479Y30263478D01*
X23898185Y30332184D01*
X23961331Y30426688D01*
X24004826Y30531695D01*
X24027000Y30643170D01*
X24027000Y30756830D01*
X24004826Y30868305D01*
X23961331Y30973312D01*
X23898185Y31067816D01*
X23817816Y31148185D01*
X23723312Y31211331D01*
X23618305Y31254826D01*
X23506830Y31277000D01*
X23393170Y31277000D01*
X23281695Y31254826D01*
X23176688Y31211331D01*
X23082184Y31148185D01*
X23001815Y31067816D01*
X22938669Y30973312D01*
X22895174Y30868305D01*
X22873000Y30756830D01*
X11208231Y30756830D01*
X11106830Y30777000D01*
X10993170Y30777000D01*
X10881695Y30754826D01*
X10776688Y30711331D01*
X10682184Y30648185D01*
X10601815Y30567816D01*
X10538669Y30473312D01*
X10495174Y30368305D01*
X10473000Y30256830D01*
X9970164Y30256830D01*
X10087994Y30280268D01*
X10205285Y30328852D01*
X10310845Y30399385D01*
X10400615Y30489155D01*
X10471148Y30594715D01*
X10519732Y30712006D01*
X10544500Y30836522D01*
X10544500Y30963478D01*
X10519732Y31087994D01*
X10471148Y31205285D01*
X10400615Y31310845D01*
X10310845Y31400615D01*
X10205285Y31471148D01*
X10087994Y31519732D01*
X9963478Y31544500D01*
X9836522Y31544500D01*
X9712006Y31519732D01*
X9594715Y31471148D01*
X9525000Y31424566D01*
X9455285Y31471148D01*
X9337994Y31519732D01*
X9213478Y31544500D01*
X9086522Y31544500D01*
X8962006Y31519732D01*
X8844715Y31471148D01*
X8739155Y31400615D01*
X8649385Y31310845D01*
X8578852Y31205285D01*
X8530268Y31087994D01*
X8505500Y30963478D01*
X4999534Y30963478D01*
X5677188Y31706830D01*
X28073000Y31706830D01*
X28073000Y31593170D01*
X28095174Y31481695D01*
X28138669Y31376688D01*
X28201815Y31282184D01*
X28282184Y31201815D01*
X28376688Y31138669D01*
X28481695Y31095174D01*
X28593170Y31073000D01*
X28706830Y31073000D01*
X28818305Y31095174D01*
X28923312Y31138669D01*
X29017816Y31201815D01*
X29098185Y31282184D01*
X29161331Y31376688D01*
X29204826Y31481695D01*
X29227000Y31593170D01*
X29227000Y31706830D01*
X29204826Y31818305D01*
X29161331Y31923312D01*
X29098185Y32017816D01*
X29017816Y32098185D01*
X28923312Y32161331D01*
X28818305Y32204826D01*
X28706830Y32227000D01*
X28593170Y32227000D01*
X28481695Y32204826D01*
X28376688Y32161331D01*
X28282184Y32098185D01*
X28201815Y32017816D01*
X28138669Y31923312D01*
X28095174Y31818305D01*
X28073000Y31706830D01*
X5677188Y31706830D01*
X5770649Y31809351D01*
X7026496Y32954206D01*
X7824498Y33556830D01*
X20323000Y33556830D01*
X20323000Y33443170D01*
X20345174Y33331695D01*
X20388669Y33226688D01*
X20451815Y33132184D01*
X20532184Y33051815D01*
X20626688Y32988669D01*
X20731695Y32945174D01*
X20843170Y32923000D01*
X20956830Y32923000D01*
X21068305Y32945174D01*
X21173312Y32988669D01*
X21267816Y33051815D01*
X21348185Y33132184D01*
X21411331Y33226688D01*
X21454826Y33331695D01*
X21477000Y33443170D01*
X21477000Y33556830D01*
X22323000Y33556830D01*
X22323000Y33443170D01*
X22345174Y33331695D01*
X22388669Y33226688D01*
X22451815Y33132184D01*
X22532184Y33051815D01*
X22626688Y32988669D01*
X22731695Y32945174D01*
X22843170Y32923000D01*
X22956830Y32923000D01*
X23068305Y32945174D01*
X23173312Y32988669D01*
X23267816Y33051815D01*
X23348185Y33132184D01*
X23411331Y33226688D01*
X23454826Y33331695D01*
X23477000Y33443170D01*
X23477000Y33556830D01*
X23454826Y33668305D01*
X23411331Y33773312D01*
X23348185Y33867816D01*
X23267816Y33948185D01*
X23173312Y34011331D01*
X23068305Y34054826D01*
X22956830Y34077000D01*
X22843170Y34077000D01*
X22731695Y34054826D01*
X22626688Y34011331D01*
X22532184Y33948185D01*
X22451815Y33867816D01*
X22388669Y33773312D01*
X22345174Y33668305D01*
X22323000Y33556830D01*
X21477000Y33556830D01*
X21454826Y33668305D01*
X21411331Y33773312D01*
X21348185Y33867816D01*
X21267816Y33948185D01*
X21173312Y34011331D01*
X21068305Y34054826D01*
X20956830Y34077000D01*
X20843170Y34077000D01*
X20731695Y34054826D01*
X20626688Y34011331D01*
X20532184Y33948185D01*
X20451815Y33867816D01*
X20388669Y33773312D01*
X20345174Y33668305D01*
X20323000Y33556830D01*
X7824498Y33556830D01*
X8382620Y33978304D01*
X9480500Y34658082D01*
X9480500Y34636522D01*
X9505268Y34512006D01*
X9553852Y34394715D01*
X9624385Y34289155D01*
X9714155Y34199385D01*
X9819715Y34128852D01*
X9937006Y34080268D01*
X10061522Y34055500D01*
X10188478Y34055500D01*
X10312994Y34080268D01*
X10430285Y34128852D01*
X10535845Y34199385D01*
X10625615Y34289155D01*
X10696148Y34394715D01*
X10744732Y34512006D01*
X10769500Y34636522D01*
X10769500Y34763478D01*
X10744732Y34887994D01*
X10696148Y35005285D01*
X10625615Y35110845D01*
X10535845Y35200615D01*
X10514382Y35214956D01*
X11192119Y35552429D01*
X11752963Y35563993D01*
X11753637Y35564000D01*
X26344643Y35564000D01*
X27732549Y34872905D01*
G04 #@! TA.AperFunction,Conductor*
D17*
G36*
X27732549Y34872905D02*
G01*
X29177380Y33978304D01*
X29354565Y33844500D01*
X29336522Y33844500D01*
X29212006Y33819732D01*
X29094715Y33771148D01*
X28989155Y33700615D01*
X28899385Y33610845D01*
X28828852Y33505285D01*
X28780268Y33387994D01*
X28755500Y33263478D01*
X28755500Y33136522D01*
X28780268Y33012006D01*
X28828852Y32894715D01*
X28899385Y32789155D01*
X28989155Y32699385D01*
X29094715Y32628852D01*
X29212006Y32580268D01*
X29336522Y32555500D01*
X29463478Y32555500D01*
X29587994Y32580268D01*
X29705285Y32628852D01*
X29810845Y32699385D01*
X29900615Y32789155D01*
X29971148Y32894715D01*
X30019732Y33012006D01*
X30044500Y33136522D01*
X30044500Y33263478D01*
X30030454Y33334092D01*
X30533504Y32954206D01*
X31789351Y31809351D01*
X32934206Y30553504D01*
X33958304Y29197380D01*
X34852905Y27752549D01*
X35610378Y26231339D01*
X36224260Y24646727D01*
X36689313Y23012232D01*
X37001571Y21341801D01*
X37158369Y19649683D01*
X37158369Y17950317D01*
X37001571Y16258199D01*
X36689313Y14587768D01*
X36224260Y12953273D01*
X35610378Y11368661D01*
X34852905Y9847451D01*
X33958304Y8402620D01*
X32934206Y7046496D01*
X31789351Y5790649D01*
X30533504Y4645794D01*
X29177380Y3621696D01*
X27732549Y2727095D01*
X26211339Y1969622D01*
X24626727Y1355740D01*
X23172719Y942040D01*
X23276659Y1027341D01*
X23392501Y1168495D01*
X23478580Y1329536D01*
X23531587Y1504276D01*
X23545000Y1640462D01*
X23545000Y2431538D01*
X23531587Y2567724D01*
X23478580Y2742464D01*
X23478506Y2742603D01*
X24360000Y2742603D01*
X24360000Y2599397D01*
X24387938Y2458942D01*
X24442741Y2326636D01*
X24522302Y2207564D01*
X24623564Y2106302D01*
X24742636Y2026741D01*
X24874942Y1971938D01*
X25015397Y1944000D01*
X25158603Y1944000D01*
X25299058Y1971938D01*
X25431364Y2026741D01*
X25550436Y2106302D01*
X25651698Y2207564D01*
X25731259Y2326636D01*
X25786062Y2458942D01*
X25814000Y2599397D01*
X25814000Y2742603D01*
X25786062Y2883058D01*
X25731259Y3015364D01*
X25651698Y3134436D01*
X25550436Y3235698D01*
X25431364Y3315259D01*
X25299058Y3370062D01*
X25158603Y3398000D01*
X25015397Y3398000D01*
X24874942Y3370062D01*
X24742636Y3315259D01*
X24623564Y3235698D01*
X24522302Y3134436D01*
X24442741Y3015364D01*
X24387938Y2883058D01*
X24360000Y2742603D01*
X23478506Y2742603D01*
X23392501Y2903505D01*
X23276659Y3044659D01*
X23135504Y3160501D01*
X22974463Y3246580D01*
X22799723Y3299587D01*
X22618000Y3317485D01*
X22436276Y3299587D01*
X22261536Y3246580D01*
X22100495Y3160501D01*
X21959341Y3044659D01*
X21843499Y2903504D01*
X21757420Y2742463D01*
X21704413Y2567723D01*
X21691000Y2431537D01*
X21691000Y1640462D01*
X21704413Y1504276D01*
X21757421Y1329536D01*
X21843500Y1168495D01*
X21959342Y1027341D01*
X22100496Y911499D01*
X22261537Y825420D01*
X22407012Y781290D01*
X21321801Y578429D01*
X19629683Y421631D01*
X17930317Y421631D01*
X16238199Y578429D01*
X14567768Y890687D01*
X12933273Y1355740D01*
X11348661Y1969622D01*
X10421010Y2431538D01*
X14691000Y2431538D01*
X14691000Y1640463D01*
X14704413Y1504277D01*
X14757420Y1329537D01*
X14843499Y1168496D01*
X14959341Y1027341D01*
X15100495Y911499D01*
X15261536Y825420D01*
X15436276Y772413D01*
X15618000Y754515D01*
X15799723Y772413D01*
X15974463Y825420D01*
X16135504Y911499D01*
X16276659Y1027341D01*
X16392501Y1168495D01*
X16478580Y1329536D01*
X16531587Y1504276D01*
X16545000Y1640462D01*
X16545000Y2431538D01*
X16531587Y2567724D01*
X16478580Y2742464D01*
X16392501Y2903505D01*
X16276659Y3044659D01*
X16135505Y3160501D01*
X15974464Y3246580D01*
X15799724Y3299587D01*
X15618000Y3317485D01*
X15436277Y3299587D01*
X15261537Y3246580D01*
X15100496Y3160501D01*
X14959342Y3044659D01*
X14843500Y2903505D01*
X14757421Y2742464D01*
X14704413Y2567724D01*
X14691000Y2431538D01*
X10421010Y2431538D01*
X9827451Y2727095D01*
X8382620Y3621696D01*
X7026496Y4645794D01*
X6813887Y4839613D01*
X15566000Y4839613D01*
X15566000Y4632387D01*
X15606428Y4429143D01*
X15685730Y4237691D01*
X15800858Y4065389D01*
X15947389Y3918858D01*
X16119691Y3803730D01*
X16311143Y3724428D01*
X16514387Y3684000D01*
X16721613Y3684000D01*
X16924857Y3724428D01*
X17116309Y3803730D01*
X17288611Y3918858D01*
X17435142Y4065389D01*
X17550270Y4237691D01*
X17629572Y4429143D01*
X17670000Y4632387D01*
X17670000Y4839613D01*
X20566000Y4839613D01*
X20566000Y4632387D01*
X20606428Y4429143D01*
X20685730Y4237691D01*
X20800858Y4065389D01*
X20947389Y3918858D01*
X21119691Y3803730D01*
X21311143Y3724428D01*
X21514387Y3684000D01*
X21721613Y3684000D01*
X21924857Y3724428D01*
X22116309Y3803730D01*
X22288611Y3918858D01*
X22435142Y4065389D01*
X22484729Y4139603D01*
X27281000Y4139603D01*
X27281000Y3996397D01*
X27308938Y3855942D01*
X27363741Y3723636D01*
X27443302Y3604564D01*
X27544564Y3503302D01*
X27663636Y3423741D01*
X27795942Y3368938D01*
X27936397Y3341000D01*
X28079603Y3341000D01*
X28220058Y3368938D01*
X28352364Y3423741D01*
X28471436Y3503302D01*
X28572698Y3604564D01*
X28652259Y3723636D01*
X28707062Y3855942D01*
X28735000Y3996397D01*
X28735000Y4139603D01*
X28707062Y4280058D01*
X28652259Y4412364D01*
X28572698Y4531436D01*
X28471436Y4632698D01*
X28352364Y4712259D01*
X28220058Y4767062D01*
X28079603Y4795000D01*
X27936397Y4795000D01*
X27795942Y4767062D01*
X27663636Y4712259D01*
X27544564Y4632698D01*
X27443302Y4531436D01*
X27363741Y4412364D01*
X27308938Y4280058D01*
X27281000Y4139603D01*
X22484729Y4139603D01*
X22550270Y4237691D01*
X22629572Y4429143D01*
X22670000Y4632387D01*
X22670000Y4839613D01*
X22629572Y5042857D01*
X22550270Y5234309D01*
X22435142Y5406611D01*
X22288611Y5553142D01*
X22116309Y5668270D01*
X21924857Y5747572D01*
X21721613Y5788000D01*
X21514387Y5788000D01*
X21311143Y5747572D01*
X21119691Y5668270D01*
X20947389Y5553142D01*
X20800858Y5406611D01*
X20685730Y5234309D01*
X20606428Y5042857D01*
X20566000Y4839613D01*
X17670000Y4839613D01*
X17629572Y5042857D01*
X17550270Y5234309D01*
X17435142Y5406611D01*
X17288611Y5553142D01*
X17116309Y5668270D01*
X16924857Y5747572D01*
X16721613Y5788000D01*
X16514387Y5788000D01*
X16311143Y5747572D01*
X16119691Y5668270D01*
X15947389Y5553142D01*
X15800858Y5406611D01*
X15685730Y5234309D01*
X15606428Y5042857D01*
X15566000Y4839613D01*
X6813887Y4839613D01*
X5770649Y5790649D01*
X5163346Y6456830D01*
X15723000Y6456830D01*
X15723000Y6343170D01*
X15745174Y6231695D01*
X15788669Y6126688D01*
X15851815Y6032184D01*
X15932184Y5951815D01*
X16026688Y5888669D01*
X16131695Y5845174D01*
X16243170Y5823000D01*
X16356830Y5823000D01*
X16468305Y5845174D01*
X16573312Y5888669D01*
X16650000Y5939911D01*
X16726688Y5888669D01*
X16831695Y5845174D01*
X16943170Y5823000D01*
X17056830Y5823000D01*
X17168305Y5845174D01*
X17273312Y5888669D01*
X17367816Y5951815D01*
X17448185Y6032184D01*
X17511331Y6126688D01*
X17554826Y6231695D01*
X17559825Y6256830D01*
X19873000Y6256830D01*
X19873000Y6143170D01*
X19895174Y6031695D01*
X19938669Y5926688D01*
X20001815Y5832184D01*
X20082184Y5751815D01*
X20176688Y5688669D01*
X20281695Y5645174D01*
X20393170Y5623000D01*
X20506830Y5623000D01*
X20618305Y5645174D01*
X20723312Y5688669D01*
X20817816Y5751815D01*
X20898185Y5832184D01*
X20961331Y5926688D01*
X21004826Y6031695D01*
X21027000Y6143170D01*
X21027000Y6256830D01*
X21004826Y6368305D01*
X20961331Y6473312D01*
X20898185Y6567816D01*
X20817816Y6648185D01*
X20723312Y6711331D01*
X20618305Y6754826D01*
X20506830Y6777000D01*
X20393170Y6777000D01*
X20281695Y6754826D01*
X20176688Y6711331D01*
X20082184Y6648185D01*
X20001815Y6567816D01*
X19938669Y6473312D01*
X19895174Y6368305D01*
X19873000Y6256830D01*
X17559825Y6256830D01*
X17577000Y6343170D01*
X17577000Y6456830D01*
X17554826Y6568305D01*
X17511331Y6673312D01*
X17448185Y6767816D01*
X17367816Y6848185D01*
X17273312Y6911331D01*
X17168305Y6954826D01*
X17056830Y6977000D01*
X16943170Y6977000D01*
X16831695Y6954826D01*
X16726688Y6911331D01*
X16650000Y6860089D01*
X16573312Y6911331D01*
X16468305Y6954826D01*
X16356830Y6977000D01*
X16243170Y6977000D01*
X16131695Y6954826D01*
X16026688Y6911331D01*
X15932184Y6848185D01*
X15851815Y6767816D01*
X15788669Y6673312D01*
X15745174Y6568305D01*
X15723000Y6456830D01*
X5163346Y6456830D01*
X4625794Y7046496D01*
X4429199Y7306830D01*
X5848000Y7306830D01*
X5848000Y7193170D01*
X5870174Y7081695D01*
X5913669Y6976688D01*
X5976815Y6882184D01*
X6057184Y6801815D01*
X6151688Y6738669D01*
X6256695Y6695174D01*
X6368170Y6673000D01*
X6481830Y6673000D01*
X6593305Y6695174D01*
X6698312Y6738669D01*
X6792816Y6801815D01*
X6873185Y6882184D01*
X6936331Y6976688D01*
X6979826Y7081695D01*
X7002000Y7193170D01*
X7002000Y7306830D01*
X6979826Y7418305D01*
X6936331Y7523312D01*
X6873185Y7617816D01*
X6792816Y7698185D01*
X6698312Y7761331D01*
X6593305Y7804826D01*
X6481830Y7827000D01*
X6368170Y7827000D01*
X6256695Y7804826D01*
X6151688Y7761331D01*
X6057184Y7698185D01*
X5976815Y7617816D01*
X5913669Y7523312D01*
X5870174Y7418305D01*
X5848000Y7306830D01*
X4429199Y7306830D01*
X3857805Y8063478D01*
X28355500Y8063478D01*
X28355500Y7936522D01*
X28380268Y7812006D01*
X28428852Y7694715D01*
X28499385Y7589155D01*
X28589155Y7499385D01*
X28694715Y7428852D01*
X28812006Y7380268D01*
X28936522Y7355500D01*
X29063478Y7355500D01*
X29167994Y7376290D01*
X29155500Y7313478D01*
X29155500Y7186522D01*
X29180268Y7062006D01*
X29228852Y6944715D01*
X29299385Y6839155D01*
X29389155Y6749385D01*
X29494715Y6678852D01*
X29612006Y6630268D01*
X29736522Y6605500D01*
X29863478Y6605500D01*
X29987994Y6630268D01*
X30105285Y6678852D01*
X30210845Y6749385D01*
X30300615Y6839155D01*
X30371148Y6944715D01*
X30419732Y7062006D01*
X30444500Y7186522D01*
X30444500Y7313478D01*
X30419732Y7437994D01*
X30371148Y7555285D01*
X30300615Y7660845D01*
X30210845Y7750615D01*
X30105285Y7821148D01*
X29987994Y7869732D01*
X29863478Y7894500D01*
X29736522Y7894500D01*
X29632006Y7873710D01*
X29644500Y7936522D01*
X29644500Y8063478D01*
X29619732Y8187994D01*
X29571148Y8305285D01*
X29500615Y8410845D01*
X29410845Y8500615D01*
X29305285Y8571148D01*
X29187994Y8619732D01*
X29063478Y8644500D01*
X28936522Y8644500D01*
X28812006Y8619732D01*
X28694715Y8571148D01*
X28589155Y8500615D01*
X28499385Y8410845D01*
X28428852Y8305285D01*
X28380268Y8187994D01*
X28355500Y8063478D01*
X3857805Y8063478D01*
X3601696Y8402620D01*
X2825123Y9656830D01*
X4023000Y9656830D01*
X4023000Y9543170D01*
X4045174Y9431695D01*
X4088669Y9326688D01*
X4151815Y9232184D01*
X4232184Y9151815D01*
X4326688Y9088669D01*
X4431695Y9045174D01*
X4543170Y9023000D01*
X4656830Y9023000D01*
X4768305Y9045174D01*
X4873312Y9088669D01*
X4967816Y9151815D01*
X5048185Y9232184D01*
X5111331Y9326688D01*
X5154826Y9431695D01*
X5177000Y9543170D01*
X5177000Y9656830D01*
X5154826Y9768305D01*
X5111331Y9873312D01*
X5048185Y9967816D01*
X4967816Y10048185D01*
X4873312Y10111331D01*
X4768305Y10154826D01*
X4656830Y10177000D01*
X4543170Y10177000D01*
X4431695Y10154826D01*
X4326688Y10111331D01*
X4232184Y10048185D01*
X4151815Y9967816D01*
X4088669Y9873312D01*
X4045174Y9768305D01*
X4023000Y9656830D01*
X2825123Y9656830D01*
X2707095Y9847451D01*
X2503249Y10256830D01*
X25123000Y10256830D01*
X25123000Y10143170D01*
X25145174Y10031695D01*
X25188669Y9926688D01*
X25251815Y9832184D01*
X25332184Y9751815D01*
X25426688Y9688669D01*
X25531695Y9645174D01*
X25643170Y9623000D01*
X25756830Y9623000D01*
X25868305Y9645174D01*
X25973312Y9688669D01*
X26067816Y9751815D01*
X26148185Y9832184D01*
X26211331Y9926688D01*
X26254826Y10031695D01*
X26259825Y10056830D01*
X26523000Y10056830D01*
X26523000Y9943170D01*
X26545174Y9831695D01*
X26588669Y9726688D01*
X26651815Y9632184D01*
X26732184Y9551815D01*
X26826688Y9488669D01*
X26931695Y9445174D01*
X27043170Y9423000D01*
X27156830Y9423000D01*
X27268305Y9445174D01*
X27373312Y9488669D01*
X27467816Y9551815D01*
X27548185Y9632184D01*
X27611331Y9726688D01*
X27654826Y9831695D01*
X27677000Y9943170D01*
X27677000Y10056830D01*
X27654826Y10168305D01*
X27611331Y10273312D01*
X27548185Y10367816D01*
X27467816Y10448185D01*
X27373312Y10511331D01*
X27268305Y10554826D01*
X27156830Y10577000D01*
X27043170Y10577000D01*
X26931695Y10554826D01*
X26826688Y10511331D01*
X26732184Y10448185D01*
X26651815Y10367816D01*
X26588669Y10273312D01*
X26545174Y10168305D01*
X26523000Y10056830D01*
X26259825Y10056830D01*
X26277000Y10143170D01*
X26277000Y10256830D01*
X26254826Y10368305D01*
X26211331Y10473312D01*
X26148185Y10567816D01*
X26067816Y10648185D01*
X25973312Y10711331D01*
X25868305Y10754826D01*
X25756830Y10777000D01*
X25643170Y10777000D01*
X25531695Y10754826D01*
X25426688Y10711331D01*
X25332184Y10648185D01*
X25251815Y10567816D01*
X25188669Y10473312D01*
X25145174Y10368305D01*
X25123000Y10256830D01*
X2503249Y10256830D01*
X2005308Y11256830D01*
X26373000Y11256830D01*
X26373000Y11143170D01*
X26395174Y11031695D01*
X26438669Y10926688D01*
X26501815Y10832184D01*
X26582184Y10751815D01*
X26676688Y10688669D01*
X26781695Y10645174D01*
X26893170Y10623000D01*
X27006830Y10623000D01*
X27118305Y10645174D01*
X27223312Y10688669D01*
X27317816Y10751815D01*
X27398185Y10832184D01*
X27461331Y10926688D01*
X27504826Y11031695D01*
X27527000Y11143170D01*
X27527000Y11256830D01*
X27504826Y11368305D01*
X27461331Y11473312D01*
X27398185Y11567816D01*
X27317816Y11648185D01*
X27223312Y11711331D01*
X27118305Y11754826D01*
X27006830Y11777000D01*
X26893170Y11777000D01*
X26781695Y11754826D01*
X26676688Y11711331D01*
X26582184Y11648185D01*
X26501815Y11567816D01*
X26438669Y11473312D01*
X26395174Y11368305D01*
X26373000Y11256830D01*
X2005308Y11256830D01*
X1949622Y11368661D01*
X1502970Y12521603D01*
X1723000Y12521603D01*
X1723000Y12378397D01*
X1750938Y12237942D01*
X1805741Y12105636D01*
X1885302Y11986564D01*
X1986564Y11885302D01*
X2105636Y11805741D01*
X2237942Y11750938D01*
X2378397Y11723000D01*
X2521603Y11723000D01*
X2662058Y11750938D01*
X2794364Y11805741D01*
X2913436Y11885302D01*
X3014698Y11986564D01*
X3094259Y12105636D01*
X3149062Y12237942D01*
X3177000Y12378397D01*
X3177000Y12521603D01*
X3149062Y12662058D01*
X3109807Y12756830D01*
X24123000Y12756830D01*
X24123000Y12643170D01*
X24145174Y12531695D01*
X24188669Y12426688D01*
X24251815Y12332184D01*
X24332184Y12251815D01*
X24424833Y12189909D01*
X24395174Y12118305D01*
X24373000Y12006830D01*
X24373000Y11893170D01*
X24395174Y11781695D01*
X24438669Y11676688D01*
X24501815Y11582184D01*
X24582184Y11501815D01*
X24676688Y11438669D01*
X24781695Y11395174D01*
X24893170Y11373000D01*
X25006830Y11373000D01*
X25118305Y11395174D01*
X25223312Y11438669D01*
X25317816Y11501815D01*
X25398185Y11582184D01*
X25461331Y11676688D01*
X25504826Y11781695D01*
X25527000Y11893170D01*
X25527000Y12006830D01*
X25504826Y12118305D01*
X25461331Y12223312D01*
X25398185Y12317816D01*
X25317816Y12398185D01*
X25225167Y12460091D01*
X25254826Y12531695D01*
X25277000Y12643170D01*
X25277000Y12756830D01*
X25254826Y12868305D01*
X25211331Y12973312D01*
X25148185Y13067816D01*
X25067816Y13148185D01*
X24973312Y13211331D01*
X24868305Y13254826D01*
X24756830Y13277000D01*
X24643170Y13277000D01*
X24531695Y13254826D01*
X24426688Y13211331D01*
X24332184Y13148185D01*
X24251815Y13067816D01*
X24188669Y12973312D01*
X24145174Y12868305D01*
X24123000Y12756830D01*
X3109807Y12756830D01*
X3094259Y12794364D01*
X3014698Y12913436D01*
X2913436Y13014698D01*
X2794364Y13094259D01*
X2662058Y13149062D01*
X2521603Y13177000D01*
X2378397Y13177000D01*
X2237942Y13149062D01*
X2105636Y13094259D01*
X1986564Y13014698D01*
X1885302Y12913436D01*
X1805741Y12794364D01*
X1750938Y12662058D01*
X1723000Y12521603D01*
X1502970Y12521603D01*
X1335740Y12953273D01*
X1093670Y13804062D01*
X1128664Y13839056D01*
X1151519Y13635764D01*
X1338684Y13554923D01*
X1538023Y13512149D01*
X1741877Y13509087D01*
X1942412Y13545853D01*
X2131920Y13621034D01*
X2159481Y13635764D01*
X2173091Y13756830D01*
X18123000Y13756830D01*
X18123000Y13643170D01*
X18145174Y13531695D01*
X18188669Y13426688D01*
X18251815Y13332184D01*
X18332184Y13251815D01*
X18426688Y13188669D01*
X18531695Y13145174D01*
X18643170Y13123000D01*
X18756830Y13123000D01*
X18868305Y13145174D01*
X18973312Y13188669D01*
X19067816Y13251815D01*
X19148185Y13332184D01*
X19211331Y13426688D01*
X19254826Y13531695D01*
X19277000Y13643170D01*
X19277000Y13756830D01*
X19254826Y13868305D01*
X19211331Y13973312D01*
X19148185Y14067816D01*
X19067816Y14148185D01*
X19054878Y14156830D01*
X23323000Y14156830D01*
X23323000Y14043170D01*
X23345174Y13931695D01*
X23388669Y13826688D01*
X23451815Y13732184D01*
X23532184Y13651815D01*
X23626688Y13588669D01*
X23731695Y13545174D01*
X23843170Y13523000D01*
X23956830Y13523000D01*
X24068305Y13545174D01*
X24173312Y13588669D01*
X24267816Y13651815D01*
X24348185Y13732184D01*
X24411331Y13826688D01*
X24454826Y13931695D01*
X24477000Y14043170D01*
X24477000Y14156830D01*
X24454826Y14268305D01*
X24438869Y14306830D01*
X25023000Y14306830D01*
X25023000Y14193170D01*
X25045174Y14081695D01*
X25088669Y13976688D01*
X25151815Y13882184D01*
X25232184Y13801815D01*
X25326688Y13738669D01*
X25431695Y13695174D01*
X25543170Y13673000D01*
X25656830Y13673000D01*
X25768305Y13695174D01*
X25873312Y13738669D01*
X25947686Y13788364D01*
X25951815Y13782184D01*
X26032184Y13701815D01*
X26126688Y13638669D01*
X26231695Y13595174D01*
X26343170Y13573000D01*
X26456830Y13573000D01*
X26568305Y13595174D01*
X26673312Y13638669D01*
X26767816Y13701815D01*
X26848185Y13782184D01*
X26911331Y13876688D01*
X26954826Y13981695D01*
X26977000Y14093170D01*
X26977000Y14206830D01*
X26954826Y14318305D01*
X26911331Y14423312D01*
X26848185Y14517816D01*
X26767816Y14598185D01*
X26673312Y14661331D01*
X26568305Y14704826D01*
X26456830Y14727000D01*
X26343170Y14727000D01*
X26231695Y14704826D01*
X26126688Y14661331D01*
X26052314Y14611636D01*
X26048185Y14617816D01*
X25967816Y14698185D01*
X25873312Y14761331D01*
X25768305Y14804826D01*
X25656830Y14827000D01*
X25543170Y14827000D01*
X25431695Y14804826D01*
X25326688Y14761331D01*
X25232184Y14698185D01*
X25151815Y14617816D01*
X25088669Y14523312D01*
X25045174Y14418305D01*
X25023000Y14306830D01*
X24438869Y14306830D01*
X24411331Y14373312D01*
X24348185Y14467816D01*
X24267816Y14548185D01*
X24173312Y14611331D01*
X24068305Y14654826D01*
X23956830Y14677000D01*
X23843170Y14677000D01*
X23731695Y14654826D01*
X23626688Y14611331D01*
X23532184Y14548185D01*
X23451815Y14467816D01*
X23388669Y14373312D01*
X23345174Y14268305D01*
X23323000Y14156830D01*
X19054878Y14156830D01*
X18973312Y14211331D01*
X18868305Y14254826D01*
X18756830Y14277000D01*
X18643170Y14277000D01*
X18531695Y14254826D01*
X18426688Y14211331D01*
X18332184Y14148185D01*
X18251815Y14067816D01*
X18188669Y13973312D01*
X18145174Y13868305D01*
X18123000Y13756830D01*
X2173091Y13756830D01*
X2182336Y13839059D01*
X1655500Y14365895D01*
X1641358Y14351752D01*
X1461753Y14531357D01*
X1475895Y14545500D01*
X1835105Y14545500D01*
X2361941Y14018664D01*
X2565236Y14041519D01*
X2646077Y14228684D01*
X2688851Y14428023D01*
X2691913Y14631877D01*
X2655147Y14832412D01*
X2579966Y15021920D01*
X2565236Y15049481D01*
X2361941Y15072336D01*
X1835105Y14545500D01*
X1475895Y14545500D01*
X949059Y15072336D01*
X783583Y15053733D01*
X746532Y15251941D01*
X1128664Y15251941D01*
X1655500Y14725105D01*
X2182336Y15251941D01*
X2159481Y15455236D01*
X1972316Y15536077D01*
X1772977Y15578851D01*
X1569123Y15581913D01*
X1368588Y15545147D01*
X1179080Y15469966D01*
X1151519Y15455236D01*
X1128664Y15251941D01*
X746532Y15251941D01*
X558429Y16258199D01*
X540024Y16456830D01*
X9723000Y16456830D01*
X9723000Y16343170D01*
X9745174Y16231695D01*
X9788669Y16126688D01*
X9839911Y16050000D01*
X9788669Y15973312D01*
X9745174Y15868305D01*
X9723000Y15756830D01*
X9723000Y15643170D01*
X9745174Y15531695D01*
X9788669Y15426688D01*
X9851815Y15332184D01*
X9932184Y15251815D01*
X10026688Y15188669D01*
X10131695Y15145174D01*
X10243170Y15123000D01*
X10356830Y15123000D01*
X10468305Y15145174D01*
X10573312Y15188669D01*
X10667816Y15251815D01*
X10748185Y15332184D01*
X10750000Y15334900D01*
X10751815Y15332184D01*
X10832184Y15251815D01*
X10926688Y15188669D01*
X11031695Y15145174D01*
X11143170Y15123000D01*
X11256830Y15123000D01*
X11368305Y15145174D01*
X11473312Y15188669D01*
X11567816Y15251815D01*
X11648185Y15332184D01*
X11700000Y15409730D01*
X11751815Y15332184D01*
X11832184Y15251815D01*
X11926688Y15188669D01*
X12031695Y15145174D01*
X12143170Y15123000D01*
X12256830Y15123000D01*
X12368305Y15145174D01*
X12473312Y15188669D01*
X12567816Y15251815D01*
X12600000Y15283999D01*
X12632184Y15251815D01*
X12726688Y15188669D01*
X12831695Y15145174D01*
X12943170Y15123000D01*
X13056830Y15123000D01*
X13168305Y15145174D01*
X13273312Y15188669D01*
X13367816Y15251815D01*
X13448185Y15332184D01*
X13511331Y15426688D01*
X13554826Y15531695D01*
X13577000Y15643170D01*
X13577000Y15756830D01*
X17623000Y15756830D01*
X17623000Y15643170D01*
X17645174Y15531695D01*
X17688669Y15426688D01*
X17751815Y15332184D01*
X17832184Y15251815D01*
X17926688Y15188669D01*
X18031695Y15145174D01*
X18143170Y15123000D01*
X18256830Y15123000D01*
X18368305Y15145174D01*
X18473312Y15188669D01*
X18567816Y15251815D01*
X18648185Y15332184D01*
X18711331Y15426688D01*
X18754826Y15531695D01*
X18777000Y15643170D01*
X18777000Y15756830D01*
X18754826Y15868305D01*
X18718159Y15956830D01*
X21923000Y15956830D01*
X21923000Y15843170D01*
X21945174Y15731695D01*
X21988669Y15626688D01*
X22051815Y15532184D01*
X22132184Y15451815D01*
X22226688Y15388669D01*
X22331695Y15345174D01*
X22443170Y15323000D01*
X22556830Y15323000D01*
X22668305Y15345174D01*
X22773312Y15388669D01*
X22867816Y15451815D01*
X22948185Y15532184D01*
X23011331Y15626688D01*
X23054826Y15731695D01*
X23077000Y15843170D01*
X23077000Y15956830D01*
X23054826Y16068305D01*
X23011331Y16173312D01*
X22948185Y16267816D01*
X22867816Y16348185D01*
X22773312Y16411331D01*
X22668305Y16454826D01*
X22556830Y16477000D01*
X22443170Y16477000D01*
X22331695Y16454826D01*
X22226688Y16411331D01*
X22132184Y16348185D01*
X22051815Y16267816D01*
X21988669Y16173312D01*
X21945174Y16068305D01*
X21923000Y15956830D01*
X18718159Y15956830D01*
X18711331Y15973312D01*
X18648185Y16067816D01*
X18567816Y16148185D01*
X18473312Y16211331D01*
X18368305Y16254826D01*
X18256830Y16277000D01*
X18143170Y16277000D01*
X18031695Y16254826D01*
X17926688Y16211331D01*
X17832184Y16148185D01*
X17751815Y16067816D01*
X17688669Y15973312D01*
X17645174Y15868305D01*
X17623000Y15756830D01*
X13577000Y15756830D01*
X13554826Y15868305D01*
X13511331Y15973312D01*
X13460089Y16050000D01*
X13511331Y16126688D01*
X13554826Y16231695D01*
X13577000Y16343170D01*
X13577000Y16456830D01*
X13554826Y16568305D01*
X13511331Y16673312D01*
X13484493Y16713478D01*
X27105500Y16713478D01*
X27105500Y16586522D01*
X27130268Y16462006D01*
X27178852Y16344715D01*
X27249385Y16239155D01*
X27339155Y16149385D01*
X27444715Y16078852D01*
X27562006Y16030268D01*
X27686522Y16005500D01*
X27813478Y16005500D01*
X27937994Y16030268D01*
X28055285Y16078852D01*
X28160845Y16149385D01*
X28250615Y16239155D01*
X28321148Y16344715D01*
X28369732Y16462006D01*
X28388593Y16556830D01*
X29223000Y16556830D01*
X29223000Y16443170D01*
X29245174Y16331695D01*
X29288669Y16226688D01*
X29351815Y16132184D01*
X29432184Y16051815D01*
X29526688Y15988669D01*
X29631695Y15945174D01*
X29743170Y15923000D01*
X29856830Y15923000D01*
X29968305Y15945174D01*
X30073312Y15988669D01*
X30167816Y16051815D01*
X30248185Y16132184D01*
X30311331Y16226688D01*
X30354826Y16331695D01*
X30377000Y16443170D01*
X30377000Y16556830D01*
X30354826Y16668305D01*
X30311331Y16773312D01*
X30248185Y16867816D01*
X30167816Y16948185D01*
X30073312Y17011331D01*
X29968305Y17054826D01*
X29856830Y17077000D01*
X29743170Y17077000D01*
X29631695Y17054826D01*
X29526688Y17011331D01*
X29432184Y16948185D01*
X29351815Y16867816D01*
X29288669Y16773312D01*
X29245174Y16668305D01*
X29223000Y16556830D01*
X28388593Y16556830D01*
X28394500Y16586522D01*
X28394500Y16713478D01*
X28369732Y16837994D01*
X28321148Y16955285D01*
X28250615Y17060845D01*
X28160845Y17150615D01*
X28055285Y17221148D01*
X27937994Y17269732D01*
X27813478Y17294500D01*
X27686522Y17294500D01*
X27562006Y17269732D01*
X27444715Y17221148D01*
X27339155Y17150615D01*
X27249385Y17060845D01*
X27178852Y16955285D01*
X27130268Y16837994D01*
X27105500Y16713478D01*
X13484493Y16713478D01*
X13448185Y16767816D01*
X13367816Y16848185D01*
X13273312Y16911331D01*
X13168305Y16954826D01*
X13056830Y16977000D01*
X12943170Y16977000D01*
X12831695Y16954826D01*
X12726688Y16911331D01*
X12632184Y16848185D01*
X12600000Y16816001D01*
X12567816Y16848185D01*
X12473312Y16911331D01*
X12368305Y16954826D01*
X12256830Y16977000D01*
X12143170Y16977000D01*
X12031695Y16954826D01*
X11926688Y16911331D01*
X11832184Y16848185D01*
X11751815Y16767816D01*
X11700000Y16690270D01*
X11648185Y16767816D01*
X11567816Y16848185D01*
X11473312Y16911331D01*
X11368305Y16954826D01*
X11256830Y16977000D01*
X11143170Y16977000D01*
X11031695Y16954826D01*
X10926688Y16911331D01*
X10832184Y16848185D01*
X10751815Y16767816D01*
X10750000Y16765100D01*
X10748185Y16767816D01*
X10667816Y16848185D01*
X10573312Y16911331D01*
X10468305Y16954826D01*
X10356830Y16977000D01*
X10243170Y16977000D01*
X10131695Y16954826D01*
X10026688Y16911331D01*
X9932184Y16848185D01*
X9851815Y16767816D01*
X9788669Y16673312D01*
X9745174Y16568305D01*
X9723000Y16456830D01*
X540024Y16456830D01*
X401631Y17950317D01*
X401631Y18113478D01*
X30155500Y18113478D01*
X30155500Y17986522D01*
X30180268Y17862006D01*
X30228852Y17744715D01*
X30299385Y17639155D01*
X30389155Y17549385D01*
X30494715Y17478852D01*
X30612006Y17430268D01*
X30736522Y17405500D01*
X30863478Y17405500D01*
X30987994Y17430268D01*
X31105285Y17478852D01*
X31210845Y17549385D01*
X31300615Y17639155D01*
X31371148Y17744715D01*
X31419732Y17862006D01*
X31444500Y17986522D01*
X31444500Y18113478D01*
X31419732Y18237994D01*
X31371148Y18355285D01*
X31300615Y18460845D01*
X31210845Y18550615D01*
X31105285Y18621148D01*
X30987994Y18669732D01*
X30863478Y18694500D01*
X30736522Y18694500D01*
X30612006Y18669732D01*
X30494715Y18621148D01*
X30389155Y18550615D01*
X30299385Y18460845D01*
X30228852Y18355285D01*
X30180268Y18237994D01*
X30155500Y18113478D01*
X401631Y18113478D01*
X401631Y19426830D01*
X10973000Y19426830D01*
X10973000Y19313170D01*
X10995174Y19201695D01*
X11038669Y19096688D01*
X11101815Y19002184D01*
X11182184Y18921815D01*
X11276688Y18858669D01*
X11381695Y18815174D01*
X11493170Y18793000D01*
X11606830Y18793000D01*
X11718305Y18815174D01*
X11823312Y18858669D01*
X11917816Y18921815D01*
X11998185Y19002184D01*
X12061331Y19096688D01*
X12104826Y19201695D01*
X12125738Y19306830D01*
X12723000Y19306830D01*
X12723000Y19193170D01*
X12745174Y19081695D01*
X12788669Y18976688D01*
X12851815Y18882184D01*
X12932184Y18801815D01*
X13026688Y18738669D01*
X13131695Y18695174D01*
X13243170Y18673000D01*
X13356830Y18673000D01*
X13468305Y18695174D01*
X13573312Y18738669D01*
X13667816Y18801815D01*
X13748185Y18882184D01*
X13811331Y18976688D01*
X13826569Y19013478D01*
X31605500Y19013478D01*
X31605500Y18886522D01*
X31630268Y18762006D01*
X31678852Y18644715D01*
X31749385Y18539155D01*
X31839155Y18449385D01*
X31944715Y18378852D01*
X32062006Y18330268D01*
X32186522Y18305500D01*
X32313478Y18305500D01*
X32437994Y18330268D01*
X32555285Y18378852D01*
X32660845Y18449385D01*
X32750615Y18539155D01*
X32821148Y18644715D01*
X32869732Y18762006D01*
X32894500Y18886522D01*
X32894500Y19013478D01*
X32869732Y19137994D01*
X32821148Y19255285D01*
X32750615Y19360845D01*
X32660845Y19450615D01*
X32555285Y19521148D01*
X32437994Y19569732D01*
X32313478Y19594500D01*
X32186522Y19594500D01*
X32062006Y19569732D01*
X31944715Y19521148D01*
X31839155Y19450615D01*
X31749385Y19360845D01*
X31678852Y19255285D01*
X31630268Y19137994D01*
X31605500Y19013478D01*
X13826569Y19013478D01*
X13854826Y19081695D01*
X13877000Y19193170D01*
X13877000Y19306830D01*
X13854826Y19418305D01*
X13811331Y19523312D01*
X13748185Y19617816D01*
X13667816Y19698185D01*
X13573312Y19761331D01*
X13468305Y19804826D01*
X13356830Y19827000D01*
X13243170Y19827000D01*
X13131695Y19804826D01*
X13026688Y19761331D01*
X12932184Y19698185D01*
X12851815Y19617816D01*
X12788669Y19523312D01*
X12745174Y19418305D01*
X12723000Y19306830D01*
X12125738Y19306830D01*
X12127000Y19313170D01*
X12127000Y19426830D01*
X12104826Y19538305D01*
X12061331Y19643312D01*
X11998185Y19737816D01*
X11917816Y19818185D01*
X11823312Y19881331D01*
X11718305Y19924826D01*
X11606830Y19947000D01*
X11493170Y19947000D01*
X11381695Y19924826D01*
X11276688Y19881331D01*
X11182184Y19818185D01*
X11101815Y19737816D01*
X11038669Y19643312D01*
X10995174Y19538305D01*
X10973000Y19426830D01*
X401631Y19426830D01*
X401631Y19649683D01*
X457891Y20256830D01*
X23123000Y20256830D01*
X23123000Y20143170D01*
X23145174Y20031695D01*
X23188669Y19926688D01*
X23251815Y19832184D01*
X23332184Y19751815D01*
X23426688Y19688669D01*
X23531695Y19645174D01*
X23643170Y19623000D01*
X23756830Y19623000D01*
X23868305Y19645174D01*
X23973312Y19688669D01*
X24067816Y19751815D01*
X24148185Y19832184D01*
X24164653Y19856830D01*
X27823000Y19856830D01*
X27823000Y19743170D01*
X27845174Y19631695D01*
X27888669Y19526688D01*
X27951815Y19432184D01*
X28032184Y19351815D01*
X28126688Y19288669D01*
X28231695Y19245174D01*
X28343170Y19223000D01*
X28456830Y19223000D01*
X28568305Y19245174D01*
X28673312Y19288669D01*
X28767816Y19351815D01*
X28848185Y19432184D01*
X28911331Y19526688D01*
X28954826Y19631695D01*
X28977000Y19743170D01*
X28977000Y19856830D01*
X28954826Y19968305D01*
X28911331Y20073312D01*
X28848185Y20167816D01*
X28767816Y20248185D01*
X28673312Y20311331D01*
X28568305Y20354826D01*
X28456830Y20377000D01*
X28343170Y20377000D01*
X28231695Y20354826D01*
X28126688Y20311331D01*
X28032184Y20248185D01*
X27951815Y20167816D01*
X27888669Y20073312D01*
X27845174Y19968305D01*
X27823000Y19856830D01*
X24164653Y19856830D01*
X24211331Y19926688D01*
X24254826Y20031695D01*
X24277000Y20143170D01*
X24277000Y20256830D01*
X24254826Y20368305D01*
X24211331Y20473312D01*
X24148185Y20567816D01*
X24067816Y20648185D01*
X23973312Y20711331D01*
X23868305Y20754826D01*
X23756830Y20777000D01*
X23643170Y20777000D01*
X23531695Y20754826D01*
X23426688Y20711331D01*
X23332184Y20648185D01*
X23251815Y20567816D01*
X23188669Y20473312D01*
X23145174Y20368305D01*
X23123000Y20256830D01*
X457891Y20256830D01*
X532022Y21056830D01*
X25623000Y21056830D01*
X25623000Y20943170D01*
X25645174Y20831695D01*
X25688669Y20726688D01*
X25751815Y20632184D01*
X25832184Y20551815D01*
X25926688Y20488669D01*
X26031695Y20445174D01*
X26143170Y20423000D01*
X26256830Y20423000D01*
X26368305Y20445174D01*
X26473312Y20488669D01*
X26567816Y20551815D01*
X26648185Y20632184D01*
X26711331Y20726688D01*
X26754826Y20831695D01*
X26777000Y20943170D01*
X26777000Y21056830D01*
X26754826Y21168305D01*
X26711331Y21273312D01*
X26648185Y21367816D01*
X26567816Y21448185D01*
X26473312Y21511331D01*
X26368305Y21554826D01*
X26256830Y21577000D01*
X26143170Y21577000D01*
X26031695Y21554826D01*
X25926688Y21511331D01*
X25832184Y21448185D01*
X25751815Y21367816D01*
X25688669Y21273312D01*
X25645174Y21168305D01*
X25623000Y21056830D01*
X532022Y21056830D01*
X558429Y21341801D01*
X636011Y21756830D01*
X19123000Y21756830D01*
X19123000Y21643170D01*
X19145174Y21531695D01*
X19188669Y21426688D01*
X19251815Y21332184D01*
X19332184Y21251815D01*
X19426688Y21188669D01*
X19531695Y21145174D01*
X19643170Y21123000D01*
X19756830Y21123000D01*
X19868305Y21145174D01*
X19973312Y21188669D01*
X20067816Y21251815D01*
X20148185Y21332184D01*
X20211331Y21426688D01*
X20254826Y21531695D01*
X20277000Y21643170D01*
X20277000Y21756830D01*
X20254826Y21868305D01*
X20211331Y21973312D01*
X20151084Y22063478D01*
X31755500Y22063478D01*
X31755500Y21936522D01*
X31780268Y21812006D01*
X31828852Y21694715D01*
X31899385Y21589155D01*
X31989155Y21499385D01*
X32094715Y21428852D01*
X32212006Y21380268D01*
X32336522Y21355500D01*
X32463478Y21355500D01*
X32587994Y21380268D01*
X32705285Y21428852D01*
X32810845Y21499385D01*
X32900615Y21589155D01*
X32971148Y21694715D01*
X33019732Y21812006D01*
X33044500Y21936522D01*
X33044500Y22063478D01*
X33019732Y22187994D01*
X32971148Y22305285D01*
X32900615Y22410845D01*
X32810845Y22500615D01*
X32705285Y22571148D01*
X32587994Y22619732D01*
X32463478Y22644500D01*
X32336522Y22644500D01*
X32212006Y22619732D01*
X32094715Y22571148D01*
X31989155Y22500615D01*
X31899385Y22410845D01*
X31828852Y22305285D01*
X31780268Y22187994D01*
X31755500Y22063478D01*
X20151084Y22063478D01*
X20148185Y22067816D01*
X20067816Y22148185D01*
X19973312Y22211331D01*
X19868305Y22254826D01*
X19756830Y22277000D01*
X19643170Y22277000D01*
X19531695Y22254826D01*
X19426688Y22211331D01*
X19332184Y22148185D01*
X19251815Y22067816D01*
X19188669Y21973312D01*
X19145174Y21868305D01*
X19123000Y21756830D01*
X636011Y21756830D01*
X870687Y23012232D01*
X926054Y23206830D01*
X973000Y23206830D01*
X973000Y23093170D01*
X995174Y22981695D01*
X1038669Y22876688D01*
X1101815Y22782184D01*
X1182184Y22701815D01*
X1276688Y22638669D01*
X1381695Y22595174D01*
X1493170Y22573000D01*
X1606830Y22573000D01*
X1718305Y22595174D01*
X1823312Y22638669D01*
X1917816Y22701815D01*
X1998185Y22782184D01*
X2061331Y22876688D01*
X2104826Y22981695D01*
X2127000Y23093170D01*
X2127000Y23206830D01*
X2117055Y23256830D01*
X20623000Y23256830D01*
X20623000Y23143170D01*
X20645174Y23031695D01*
X20688669Y22926688D01*
X20751815Y22832184D01*
X20832184Y22751815D01*
X20926688Y22688669D01*
X21031695Y22645174D01*
X21143170Y22623000D01*
X21256830Y22623000D01*
X21368305Y22645174D01*
X21473312Y22688669D01*
X21567816Y22751815D01*
X21572831Y22756830D01*
X25873000Y22756830D01*
X25873000Y22643170D01*
X25895174Y22531695D01*
X25938669Y22426688D01*
X26001815Y22332184D01*
X26082184Y22251815D01*
X26176688Y22188669D01*
X26281695Y22145174D01*
X26393170Y22123000D01*
X26506830Y22123000D01*
X26618305Y22145174D01*
X26723312Y22188669D01*
X26817816Y22251815D01*
X26898185Y22332184D01*
X26961331Y22426688D01*
X27004826Y22531695D01*
X27027000Y22643170D01*
X27027000Y22756830D01*
X27004826Y22868305D01*
X26961331Y22973312D01*
X26898185Y23067816D01*
X26817816Y23148185D01*
X26723312Y23211331D01*
X26618305Y23254826D01*
X26506830Y23277000D01*
X26393170Y23277000D01*
X26281695Y23254826D01*
X26176688Y23211331D01*
X26082184Y23148185D01*
X26001815Y23067816D01*
X25938669Y22973312D01*
X25895174Y22868305D01*
X25873000Y22756830D01*
X21572831Y22756830D01*
X21648185Y22832184D01*
X21711331Y22926688D01*
X21754826Y23031695D01*
X21777000Y23143170D01*
X21777000Y23256830D01*
X21754826Y23368305D01*
X21711331Y23473312D01*
X21648185Y23567816D01*
X21567816Y23648185D01*
X21473312Y23711331D01*
X21368305Y23754826D01*
X21256830Y23777000D01*
X21143170Y23777000D01*
X21031695Y23754826D01*
X20926688Y23711331D01*
X20832184Y23648185D01*
X20751815Y23567816D01*
X20688669Y23473312D01*
X20645174Y23368305D01*
X20623000Y23256830D01*
X2117055Y23256830D01*
X2104826Y23318305D01*
X2061331Y23423312D01*
X1998185Y23517816D01*
X1917816Y23598185D01*
X1823312Y23661331D01*
X1718305Y23704826D01*
X1606830Y23727000D01*
X1493170Y23727000D01*
X1381695Y23704826D01*
X1276688Y23661331D01*
X1182184Y23598185D01*
X1101815Y23517816D01*
X1038669Y23423312D01*
X995174Y23318305D01*
X973000Y23206830D01*
X926054Y23206830D01*
X1335740Y24646727D01*
X1380969Y24763478D01*
X29255500Y24763478D01*
X29255500Y24636522D01*
X29280268Y24512006D01*
X29328852Y24394715D01*
X29399385Y24289155D01*
X29489155Y24199385D01*
X29594715Y24128852D01*
X29712006Y24080268D01*
X29836522Y24055500D01*
X29963478Y24055500D01*
X30087994Y24080268D01*
X30205285Y24128852D01*
X30310845Y24199385D01*
X30400615Y24289155D01*
X30471148Y24394715D01*
X30519732Y24512006D01*
X30544500Y24636522D01*
X30544500Y24763478D01*
X30519732Y24887994D01*
X30471148Y25005285D01*
X30400615Y25110845D01*
X30310845Y25200615D01*
X30205285Y25271148D01*
X30087994Y25319732D01*
X29963478Y25344500D01*
X29836522Y25344500D01*
X29712006Y25319732D01*
X29594715Y25271148D01*
X29489155Y25200615D01*
X29399385Y25110845D01*
X29328852Y25005285D01*
X29280268Y24887994D01*
X29255500Y24763478D01*
X1380969Y24763478D01*
X1949622Y26231339D01*
X1962315Y26256830D01*
X4123000Y26256830D01*
X4123000Y26143170D01*
X4145174Y26031695D01*
X4188669Y25926688D01*
X4251815Y25832184D01*
X4332184Y25751815D01*
X4426688Y25688669D01*
X4531695Y25645174D01*
X4643170Y25623000D01*
X4756830Y25623000D01*
X4868305Y25645174D01*
X4973312Y25688669D01*
X5067816Y25751815D01*
X5148185Y25832184D01*
X5211331Y25926688D01*
X5223816Y25956830D01*
X13123000Y25956830D01*
X13123000Y25843170D01*
X13145174Y25731695D01*
X13188669Y25626688D01*
X13251815Y25532184D01*
X13332184Y25451815D01*
X13426688Y25388669D01*
X13531695Y25345174D01*
X13643170Y25323000D01*
X13756830Y25323000D01*
X13868305Y25345174D01*
X13973312Y25388669D01*
X14067816Y25451815D01*
X14148185Y25532184D01*
X14211331Y25626688D01*
X14254826Y25731695D01*
X14277000Y25843170D01*
X14277000Y25956830D01*
X22523000Y25956830D01*
X22523000Y25843170D01*
X22545174Y25731695D01*
X22588669Y25626688D01*
X22651815Y25532184D01*
X22732184Y25451815D01*
X22826688Y25388669D01*
X22931695Y25345174D01*
X23043170Y25323000D01*
X23156830Y25323000D01*
X23268305Y25345174D01*
X23373312Y25388669D01*
X23467816Y25451815D01*
X23548185Y25532184D01*
X23611331Y25626688D01*
X23654826Y25731695D01*
X23677000Y25843170D01*
X23677000Y25956830D01*
X23657109Y26056830D01*
X25673000Y26056830D01*
X25673000Y25943170D01*
X25695174Y25831695D01*
X25738669Y25726688D01*
X25801815Y25632184D01*
X25882184Y25551815D01*
X25976688Y25488669D01*
X26081695Y25445174D01*
X26193170Y25423000D01*
X26306830Y25423000D01*
X26418305Y25445174D01*
X26523312Y25488669D01*
X26617816Y25551815D01*
X26698185Y25632184D01*
X26761331Y25726688D01*
X26804826Y25831695D01*
X26827000Y25943170D01*
X26827000Y26056830D01*
X26804826Y26168305D01*
X26761331Y26273312D01*
X26698185Y26367816D01*
X26617816Y26448185D01*
X26523312Y26511331D01*
X26418305Y26554826D01*
X26306830Y26577000D01*
X26193170Y26577000D01*
X26081695Y26554826D01*
X25976688Y26511331D01*
X25882184Y26448185D01*
X25801815Y26367816D01*
X25738669Y26273312D01*
X25695174Y26168305D01*
X25673000Y26056830D01*
X23657109Y26056830D01*
X23654826Y26068305D01*
X23611331Y26173312D01*
X23548185Y26267816D01*
X23467816Y26348185D01*
X23373312Y26411331D01*
X23268305Y26454826D01*
X23156830Y26477000D01*
X23043170Y26477000D01*
X22931695Y26454826D01*
X22826688Y26411331D01*
X22732184Y26348185D01*
X22651815Y26267816D01*
X22588669Y26173312D01*
X22545174Y26068305D01*
X22523000Y25956830D01*
X14277000Y25956830D01*
X14254826Y26068305D01*
X14211331Y26173312D01*
X14148185Y26267816D01*
X14067816Y26348185D01*
X13973312Y26411331D01*
X13868305Y26454826D01*
X13756830Y26477000D01*
X13643170Y26477000D01*
X13531695Y26454826D01*
X13426688Y26411331D01*
X13332184Y26348185D01*
X13251815Y26267816D01*
X13188669Y26173312D01*
X13145174Y26068305D01*
X13123000Y25956830D01*
X5223816Y25956830D01*
X5254826Y26031695D01*
X5277000Y26143170D01*
X5277000Y26256830D01*
X5254826Y26368305D01*
X5211331Y26473312D01*
X5148185Y26567816D01*
X5067816Y26648185D01*
X4973312Y26711331D01*
X4868305Y26754826D01*
X4756830Y26777000D01*
X4643170Y26777000D01*
X4531695Y26754826D01*
X4426688Y26711331D01*
X4332184Y26648185D01*
X4251815Y26567816D01*
X4188669Y26473312D01*
X4145174Y26368305D01*
X4123000Y26256830D01*
X1962315Y26256830D01*
X2435359Y27206830D01*
X9473000Y27206830D01*
X9473000Y27093170D01*
X9495174Y26981695D01*
X9538669Y26876688D01*
X9601815Y26782184D01*
X9682184Y26701815D01*
X9776688Y26638669D01*
X9881695Y26595174D01*
X9993170Y26573000D01*
X10106830Y26573000D01*
X10218305Y26595174D01*
X10323312Y26638669D01*
X10417816Y26701815D01*
X10498185Y26782184D01*
X10561331Y26876688D01*
X10604826Y26981695D01*
X10627000Y27093170D01*
X10627000Y27206830D01*
X10604826Y27318305D01*
X10561331Y27423312D01*
X10498185Y27517816D01*
X10417816Y27598185D01*
X10323312Y27661331D01*
X10218305Y27704826D01*
X10106830Y27727000D01*
X9993170Y27727000D01*
X9881695Y27704826D01*
X9776688Y27661331D01*
X9682184Y27598185D01*
X9601815Y27517816D01*
X9538669Y27423312D01*
X9495174Y27318305D01*
X9473000Y27206830D01*
X2435359Y27206830D01*
X2707095Y27752549D01*
X2864539Y28006830D01*
X4873000Y28006830D01*
X4873000Y27893170D01*
X4895174Y27781695D01*
X4938669Y27676688D01*
X5001815Y27582184D01*
X5082184Y27501815D01*
X5176688Y27438669D01*
X5281695Y27395174D01*
X5393170Y27373000D01*
X5506830Y27373000D01*
X5618305Y27395174D01*
X5723312Y27438669D01*
X5817816Y27501815D01*
X5898185Y27582184D01*
X5961331Y27676688D01*
X6004826Y27781695D01*
X6027000Y27893170D01*
X6027000Y28006830D01*
X6004826Y28118305D01*
X5961331Y28223312D01*
X5938935Y28256830D01*
X13133000Y28256830D01*
X13133000Y28143170D01*
X13155174Y28031695D01*
X13198669Y27926688D01*
X13261815Y27832184D01*
X13342184Y27751815D01*
X13436688Y27688669D01*
X13541695Y27645174D01*
X13653170Y27623000D01*
X13766830Y27623000D01*
X13878305Y27645174D01*
X13983312Y27688669D01*
X14077816Y27751815D01*
X14082831Y27756830D01*
X22123000Y27756830D01*
X22123000Y27643170D01*
X22145174Y27531695D01*
X22188669Y27426688D01*
X22251815Y27332184D01*
X22332184Y27251815D01*
X22426688Y27188669D01*
X22531695Y27145174D01*
X22643170Y27123000D01*
X22756830Y27123000D01*
X22868305Y27145174D01*
X22973312Y27188669D01*
X23067816Y27251815D01*
X23101831Y27285830D01*
X26352000Y27285830D01*
X26352000Y27172170D01*
X26374174Y27060695D01*
X26417669Y26955688D01*
X26480815Y26861184D01*
X26561184Y26780815D01*
X26655688Y26717669D01*
X26760695Y26674174D01*
X26872170Y26652000D01*
X26985830Y26652000D01*
X27097305Y26674174D01*
X27202312Y26717669D01*
X27296816Y26780815D01*
X27377185Y26861184D01*
X27440331Y26955688D01*
X27483826Y27060695D01*
X27506000Y27172170D01*
X27506000Y27285830D01*
X27483826Y27397305D01*
X27440331Y27502312D01*
X27377185Y27596816D01*
X27296816Y27677185D01*
X27202312Y27740331D01*
X27097305Y27783826D01*
X26985830Y27806000D01*
X26872170Y27806000D01*
X26760695Y27783826D01*
X26655688Y27740331D01*
X26561184Y27677185D01*
X26480815Y27596816D01*
X26417669Y27502312D01*
X26374174Y27397305D01*
X26352000Y27285830D01*
X23101831Y27285830D01*
X23148185Y27332184D01*
X23211331Y27426688D01*
X23254826Y27531695D01*
X23277000Y27643170D01*
X23277000Y27756830D01*
X23254826Y27868305D01*
X23211331Y27973312D01*
X23148185Y28067816D01*
X23067816Y28148185D01*
X22973312Y28211331D01*
X22868305Y28254826D01*
X22858231Y28256830D01*
X25623000Y28256830D01*
X25623000Y28143170D01*
X25645174Y28031695D01*
X25688669Y27926688D01*
X25751815Y27832184D01*
X25832184Y27751815D01*
X25926688Y27688669D01*
X26031695Y27645174D01*
X26143170Y27623000D01*
X26256830Y27623000D01*
X26368305Y27645174D01*
X26473312Y27688669D01*
X26567816Y27751815D01*
X26648185Y27832184D01*
X26711331Y27926688D01*
X26754826Y28031695D01*
X26777000Y28143170D01*
X26777000Y28256830D01*
X26754826Y28368305D01*
X26711331Y28473312D01*
X26648185Y28567816D01*
X26567816Y28648185D01*
X26473312Y28711331D01*
X26368305Y28754826D01*
X26256830Y28777000D01*
X26143170Y28777000D01*
X26031695Y28754826D01*
X25926688Y28711331D01*
X25832184Y28648185D01*
X25751815Y28567816D01*
X25688669Y28473312D01*
X25645174Y28368305D01*
X25623000Y28256830D01*
X22858231Y28256830D01*
X22756830Y28277000D01*
X22643170Y28277000D01*
X22531695Y28254826D01*
X22426688Y28211331D01*
X22332184Y28148185D01*
X22251815Y28067816D01*
X22188669Y27973312D01*
X22145174Y27868305D01*
X22123000Y27756830D01*
X14082831Y27756830D01*
X14158185Y27832184D01*
X14221331Y27926688D01*
X14264826Y28031695D01*
X14287000Y28143170D01*
X14287000Y28256830D01*
X14264826Y28368305D01*
X14221331Y28473312D01*
X14158185Y28567816D01*
X14077816Y28648185D01*
X13983312Y28711331D01*
X13878305Y28754826D01*
X13766830Y28777000D01*
X13653170Y28777000D01*
X13541695Y28754826D01*
X13436688Y28711331D01*
X13342184Y28648185D01*
X13261815Y28567816D01*
X13198669Y28473312D01*
X13155174Y28368305D01*
X13133000Y28256830D01*
X5938935Y28256830D01*
X5898185Y28317816D01*
X5817816Y28398185D01*
X5723312Y28461331D01*
X5618305Y28504826D01*
X5506830Y28527000D01*
X5393170Y28527000D01*
X5281695Y28504826D01*
X5176688Y28461331D01*
X5082184Y28398185D01*
X5001815Y28317816D01*
X4938669Y28223312D01*
X4895174Y28118305D01*
X4873000Y28006830D01*
X2864539Y28006830D01*
X3601696Y29197380D01*
X4625794Y30553504D01*
X4999534Y30963478D01*
X8505500Y30963478D01*
X8505500Y30836522D01*
X8530268Y30712006D01*
X8578852Y30594715D01*
X8649385Y30489155D01*
X8739155Y30399385D01*
X8844715Y30328852D01*
X8962006Y30280268D01*
X9086522Y30255500D01*
X9213478Y30255500D01*
X9337994Y30280268D01*
X9455285Y30328852D01*
X9525000Y30375434D01*
X9594715Y30328852D01*
X9712006Y30280268D01*
X9836522Y30255500D01*
X9963478Y30255500D01*
X9970164Y30256830D01*
X10473000Y30256830D01*
X10473000Y30143170D01*
X10495174Y30031695D01*
X10538669Y29926688D01*
X10601815Y29832184D01*
X10682184Y29751815D01*
X10759730Y29700000D01*
X10682184Y29648185D01*
X10601815Y29567816D01*
X10538669Y29473312D01*
X10495174Y29368305D01*
X10473000Y29256830D01*
X10473000Y29143170D01*
X10495174Y29031695D01*
X10538669Y28926688D01*
X10601815Y28832184D01*
X10682184Y28751815D01*
X10776688Y28688669D01*
X10881695Y28645174D01*
X10993170Y28623000D01*
X11106830Y28623000D01*
X11218305Y28645174D01*
X11323312Y28688669D01*
X11417816Y28751815D01*
X11498185Y28832184D01*
X11561331Y28926688D01*
X11604826Y29031695D01*
X11627000Y29143170D01*
X11627000Y29256830D01*
X20123000Y29256830D01*
X20123000Y29143170D01*
X20145174Y29031695D01*
X20188669Y28926688D01*
X20251815Y28832184D01*
X20332184Y28751815D01*
X20426688Y28688669D01*
X20531695Y28645174D01*
X20643170Y28623000D01*
X20756830Y28623000D01*
X20868305Y28645174D01*
X20973312Y28688669D01*
X21067816Y28751815D01*
X21148185Y28832184D01*
X21211331Y28926688D01*
X21254826Y29031695D01*
X21277000Y29143170D01*
X21277000Y29256830D01*
X21254826Y29368305D01*
X21211331Y29473312D01*
X21148185Y29567816D01*
X21067816Y29648185D01*
X20973312Y29711331D01*
X20868305Y29754826D01*
X20756830Y29777000D01*
X20643170Y29777000D01*
X20531695Y29754826D01*
X20426688Y29711331D01*
X20332184Y29648185D01*
X20251815Y29567816D01*
X20188669Y29473312D01*
X20145174Y29368305D01*
X20123000Y29256830D01*
X11627000Y29256830D01*
X11604826Y29368305D01*
X11561331Y29473312D01*
X11498185Y29567816D01*
X11417816Y29648185D01*
X11340270Y29700000D01*
X11417816Y29751815D01*
X11498185Y29832184D01*
X11561331Y29926688D01*
X11604826Y30031695D01*
X11627000Y30143170D01*
X11627000Y30256830D01*
X11604826Y30368305D01*
X11561331Y30473312D01*
X11498185Y30567816D01*
X11417816Y30648185D01*
X11323312Y30711331D01*
X11218305Y30754826D01*
X11208231Y30756830D01*
X22873000Y30756830D01*
X22873000Y30643170D01*
X22895174Y30531695D01*
X22938669Y30426688D01*
X23001815Y30332184D01*
X23082184Y30251815D01*
X23176688Y30188669D01*
X23281695Y30145174D01*
X23393170Y30123000D01*
X23506830Y30123000D01*
X23618305Y30145174D01*
X23723312Y30188669D01*
X23817816Y30251815D01*
X23829479Y30263478D01*
X28755500Y30263478D01*
X28755500Y30136522D01*
X28780268Y30012006D01*
X28828852Y29894715D01*
X28899385Y29789155D01*
X28989155Y29699385D01*
X29094715Y29628852D01*
X29212006Y29580268D01*
X29336522Y29555500D01*
X29463478Y29555500D01*
X29587994Y29580268D01*
X29705285Y29628852D01*
X29810845Y29699385D01*
X29900615Y29789155D01*
X29971148Y29894715D01*
X30019732Y30012006D01*
X30044500Y30136522D01*
X30044500Y30263478D01*
X30019732Y30387994D01*
X29971148Y30505285D01*
X29900615Y30610845D01*
X29810845Y30700615D01*
X29705285Y30771148D01*
X29587994Y30819732D01*
X29463478Y30844500D01*
X29336522Y30844500D01*
X29212006Y30819732D01*
X29094715Y30771148D01*
X28989155Y30700615D01*
X28899385Y30610845D01*
X28828852Y30505285D01*
X28780268Y30387994D01*
X28755500Y30263478D01*
X23829479Y30263478D01*
X23898185Y30332184D01*
X23961331Y30426688D01*
X24004826Y30531695D01*
X24027000Y30643170D01*
X24027000Y30756830D01*
X24004826Y30868305D01*
X23961331Y30973312D01*
X23898185Y31067816D01*
X23817816Y31148185D01*
X23723312Y31211331D01*
X23618305Y31254826D01*
X23506830Y31277000D01*
X23393170Y31277000D01*
X23281695Y31254826D01*
X23176688Y31211331D01*
X23082184Y31148185D01*
X23001815Y31067816D01*
X22938669Y30973312D01*
X22895174Y30868305D01*
X22873000Y30756830D01*
X11208231Y30756830D01*
X11106830Y30777000D01*
X10993170Y30777000D01*
X10881695Y30754826D01*
X10776688Y30711331D01*
X10682184Y30648185D01*
X10601815Y30567816D01*
X10538669Y30473312D01*
X10495174Y30368305D01*
X10473000Y30256830D01*
X9970164Y30256830D01*
X10087994Y30280268D01*
X10205285Y30328852D01*
X10310845Y30399385D01*
X10400615Y30489155D01*
X10471148Y30594715D01*
X10519732Y30712006D01*
X10544500Y30836522D01*
X10544500Y30963478D01*
X10519732Y31087994D01*
X10471148Y31205285D01*
X10400615Y31310845D01*
X10310845Y31400615D01*
X10205285Y31471148D01*
X10087994Y31519732D01*
X9963478Y31544500D01*
X9836522Y31544500D01*
X9712006Y31519732D01*
X9594715Y31471148D01*
X9525000Y31424566D01*
X9455285Y31471148D01*
X9337994Y31519732D01*
X9213478Y31544500D01*
X9086522Y31544500D01*
X8962006Y31519732D01*
X8844715Y31471148D01*
X8739155Y31400615D01*
X8649385Y31310845D01*
X8578852Y31205285D01*
X8530268Y31087994D01*
X8505500Y30963478D01*
X4999534Y30963478D01*
X5677188Y31706830D01*
X28073000Y31706830D01*
X28073000Y31593170D01*
X28095174Y31481695D01*
X28138669Y31376688D01*
X28201815Y31282184D01*
X28282184Y31201815D01*
X28376688Y31138669D01*
X28481695Y31095174D01*
X28593170Y31073000D01*
X28706830Y31073000D01*
X28818305Y31095174D01*
X28923312Y31138669D01*
X29017816Y31201815D01*
X29098185Y31282184D01*
X29161331Y31376688D01*
X29204826Y31481695D01*
X29227000Y31593170D01*
X29227000Y31706830D01*
X29204826Y31818305D01*
X29161331Y31923312D01*
X29098185Y32017816D01*
X29017816Y32098185D01*
X28923312Y32161331D01*
X28818305Y32204826D01*
X28706830Y32227000D01*
X28593170Y32227000D01*
X28481695Y32204826D01*
X28376688Y32161331D01*
X28282184Y32098185D01*
X28201815Y32017816D01*
X28138669Y31923312D01*
X28095174Y31818305D01*
X28073000Y31706830D01*
X5677188Y31706830D01*
X5770649Y31809351D01*
X7026496Y32954206D01*
X7824498Y33556830D01*
X20323000Y33556830D01*
X20323000Y33443170D01*
X20345174Y33331695D01*
X20388669Y33226688D01*
X20451815Y33132184D01*
X20532184Y33051815D01*
X20626688Y32988669D01*
X20731695Y32945174D01*
X20843170Y32923000D01*
X20956830Y32923000D01*
X21068305Y32945174D01*
X21173312Y32988669D01*
X21267816Y33051815D01*
X21348185Y33132184D01*
X21411331Y33226688D01*
X21454826Y33331695D01*
X21477000Y33443170D01*
X21477000Y33556830D01*
X22323000Y33556830D01*
X22323000Y33443170D01*
X22345174Y33331695D01*
X22388669Y33226688D01*
X22451815Y33132184D01*
X22532184Y33051815D01*
X22626688Y32988669D01*
X22731695Y32945174D01*
X22843170Y32923000D01*
X22956830Y32923000D01*
X23068305Y32945174D01*
X23173312Y32988669D01*
X23267816Y33051815D01*
X23348185Y33132184D01*
X23411331Y33226688D01*
X23454826Y33331695D01*
X23477000Y33443170D01*
X23477000Y33556830D01*
X23454826Y33668305D01*
X23411331Y33773312D01*
X23348185Y33867816D01*
X23267816Y33948185D01*
X23173312Y34011331D01*
X23068305Y34054826D01*
X22956830Y34077000D01*
X22843170Y34077000D01*
X22731695Y34054826D01*
X22626688Y34011331D01*
X22532184Y33948185D01*
X22451815Y33867816D01*
X22388669Y33773312D01*
X22345174Y33668305D01*
X22323000Y33556830D01*
X21477000Y33556830D01*
X21454826Y33668305D01*
X21411331Y33773312D01*
X21348185Y33867816D01*
X21267816Y33948185D01*
X21173312Y34011331D01*
X21068305Y34054826D01*
X20956830Y34077000D01*
X20843170Y34077000D01*
X20731695Y34054826D01*
X20626688Y34011331D01*
X20532184Y33948185D01*
X20451815Y33867816D01*
X20388669Y33773312D01*
X20345174Y33668305D01*
X20323000Y33556830D01*
X7824498Y33556830D01*
X8382620Y33978304D01*
X9480500Y34658082D01*
X9480500Y34636522D01*
X9505268Y34512006D01*
X9553852Y34394715D01*
X9624385Y34289155D01*
X9714155Y34199385D01*
X9819715Y34128852D01*
X9937006Y34080268D01*
X10061522Y34055500D01*
X10188478Y34055500D01*
X10312994Y34080268D01*
X10430285Y34128852D01*
X10535845Y34199385D01*
X10625615Y34289155D01*
X10696148Y34394715D01*
X10744732Y34512006D01*
X10769500Y34636522D01*
X10769500Y34763478D01*
X10744732Y34887994D01*
X10696148Y35005285D01*
X10625615Y35110845D01*
X10535845Y35200615D01*
X10514382Y35214956D01*
X11192119Y35552429D01*
X11752963Y35563993D01*
X11753637Y35564000D01*
X26344643Y35564000D01*
X27732549Y34872905D01*
G37*
G04 #@! TD.AperFunction*
M02*
