G04 #@! TF.GenerationSoftware,KiCad,Pcbnew,(5.1.10)-1*
G04 #@! TF.CreationDate,2021-08-15T15:57:37-07:00*
G04 #@! TF.ProjectId,esp32-smartwatch,65737033-322d-4736-9d61-727477617463,rev?*
G04 #@! TF.SameCoordinates,Original*
G04 #@! TF.FileFunction,Legend,Bot*
G04 #@! TF.FilePolarity,Positive*
%FSLAX46Y46*%
G04 Gerber Fmt 4.6, Leading zero omitted, Abs format (unit mm)*
G04 Created by KiCad (PCBNEW (5.1.10)-1) date 2021-08-15 15:57:37*
%MOMM*%
%LPD*%
G01*
G04 APERTURE LIST*
%ADD10C,0.150000*%
%ADD11C,0.120000*%
%ADD12C,1.100000*%
%ADD13O,2.000000X1.300000*%
%ADD14C,1.550000*%
G04 APERTURE END LIST*
D10*
X172590476Y-74092857D02*
X172323809Y-74092857D01*
X172209523Y-74511904D02*
X172590476Y-74511904D01*
X172590476Y-73711904D01*
X172209523Y-73711904D01*
X171904761Y-74473809D02*
X171790476Y-74511904D01*
X171600000Y-74511904D01*
X171523809Y-74473809D01*
X171485714Y-74435714D01*
X171447619Y-74359523D01*
X171447619Y-74283333D01*
X171485714Y-74207142D01*
X171523809Y-74169047D01*
X171600000Y-74130952D01*
X171752380Y-74092857D01*
X171828571Y-74054761D01*
X171866666Y-74016666D01*
X171904761Y-73940476D01*
X171904761Y-73864285D01*
X171866666Y-73788095D01*
X171828571Y-73750000D01*
X171752380Y-73711904D01*
X171561904Y-73711904D01*
X171447619Y-73750000D01*
X171104761Y-74511904D02*
X171104761Y-73711904D01*
X170800000Y-73711904D01*
X170723809Y-73750000D01*
X170685714Y-73788095D01*
X170647619Y-73864285D01*
X170647619Y-73978571D01*
X170685714Y-74054761D01*
X170723809Y-74092857D01*
X170800000Y-74130952D01*
X171104761Y-74130952D01*
X170380952Y-73711904D02*
X169885714Y-73711904D01*
X170152380Y-74016666D01*
X170038095Y-74016666D01*
X169961904Y-74054761D01*
X169923809Y-74092857D01*
X169885714Y-74169047D01*
X169885714Y-74359523D01*
X169923809Y-74435714D01*
X169961904Y-74473809D01*
X170038095Y-74511904D01*
X170266666Y-74511904D01*
X170342857Y-74473809D01*
X170380952Y-74435714D01*
X169580952Y-73788095D02*
X169542857Y-73750000D01*
X169466666Y-73711904D01*
X169276190Y-73711904D01*
X169200000Y-73750000D01*
X169161904Y-73788095D01*
X169123809Y-73864285D01*
X169123809Y-73940476D01*
X169161904Y-74054761D01*
X169619047Y-74511904D01*
X169123809Y-74511904D01*
X168209523Y-74473809D02*
X168095238Y-74511904D01*
X167904761Y-74511904D01*
X167828571Y-74473809D01*
X167790476Y-74435714D01*
X167752380Y-74359523D01*
X167752380Y-74283333D01*
X167790476Y-74207142D01*
X167828571Y-74169047D01*
X167904761Y-74130952D01*
X168057142Y-74092857D01*
X168133333Y-74054761D01*
X168171428Y-74016666D01*
X168209523Y-73940476D01*
X168209523Y-73864285D01*
X168171428Y-73788095D01*
X168133333Y-73750000D01*
X168057142Y-73711904D01*
X167866666Y-73711904D01*
X167752380Y-73750000D01*
X167409523Y-74511904D02*
X167409523Y-73978571D01*
X167409523Y-74054761D02*
X167371428Y-74016666D01*
X167295238Y-73978571D01*
X167180952Y-73978571D01*
X167104761Y-74016666D01*
X167066666Y-74092857D01*
X167066666Y-74511904D01*
X167066666Y-74092857D02*
X167028571Y-74016666D01*
X166952380Y-73978571D01*
X166838095Y-73978571D01*
X166761904Y-74016666D01*
X166723809Y-74092857D01*
X166723809Y-74511904D01*
X166000000Y-74511904D02*
X166000000Y-74092857D01*
X166038095Y-74016666D01*
X166114285Y-73978571D01*
X166266666Y-73978571D01*
X166342857Y-74016666D01*
X166000000Y-74473809D02*
X166076190Y-74511904D01*
X166266666Y-74511904D01*
X166342857Y-74473809D01*
X166380952Y-74397619D01*
X166380952Y-74321428D01*
X166342857Y-74245238D01*
X166266666Y-74207142D01*
X166076190Y-74207142D01*
X166000000Y-74169047D01*
X165619047Y-74511904D02*
X165619047Y-73978571D01*
X165619047Y-74130952D02*
X165580952Y-74054761D01*
X165542857Y-74016666D01*
X165466666Y-73978571D01*
X165390476Y-73978571D01*
X165238095Y-73978571D02*
X164933333Y-73978571D01*
X165123809Y-73711904D02*
X165123809Y-74397619D01*
X165085714Y-74473809D01*
X165009523Y-74511904D01*
X164933333Y-74511904D01*
X164742857Y-73978571D02*
X164590476Y-74511904D01*
X164438095Y-74130952D01*
X164285714Y-74511904D01*
X164133333Y-73978571D01*
X163485714Y-74511904D02*
X163485714Y-74092857D01*
X163523809Y-74016666D01*
X163600000Y-73978571D01*
X163752380Y-73978571D01*
X163828571Y-74016666D01*
X163485714Y-74473809D02*
X163561904Y-74511904D01*
X163752380Y-74511904D01*
X163828571Y-74473809D01*
X163866666Y-74397619D01*
X163866666Y-74321428D01*
X163828571Y-74245238D01*
X163752380Y-74207142D01*
X163561904Y-74207142D01*
X163485714Y-74169047D01*
X163219047Y-73978571D02*
X162914285Y-73978571D01*
X163104761Y-73711904D02*
X163104761Y-74397619D01*
X163066666Y-74473809D01*
X162990476Y-74511904D01*
X162914285Y-74511904D01*
X162304761Y-74473809D02*
X162380952Y-74511904D01*
X162533333Y-74511904D01*
X162609523Y-74473809D01*
X162647619Y-74435714D01*
X162685714Y-74359523D01*
X162685714Y-74130952D01*
X162647619Y-74054761D01*
X162609523Y-74016666D01*
X162533333Y-73978571D01*
X162380952Y-73978571D01*
X162304761Y-74016666D01*
X161961904Y-74511904D02*
X161961904Y-73711904D01*
X161619047Y-74511904D02*
X161619047Y-74092857D01*
X161657142Y-74016666D01*
X161733333Y-73978571D01*
X161847619Y-73978571D01*
X161923809Y-74016666D01*
X161961904Y-74054761D01*
X171466666Y-75061904D02*
X171009523Y-75061904D01*
X171238095Y-75861904D02*
X171238095Y-75061904D01*
X170742857Y-75861904D02*
X170742857Y-75328571D01*
X170742857Y-75061904D02*
X170780952Y-75100000D01*
X170742857Y-75138095D01*
X170704761Y-75100000D01*
X170742857Y-75061904D01*
X170742857Y-75138095D01*
X170361904Y-75861904D02*
X170361904Y-75328571D01*
X170361904Y-75404761D02*
X170323809Y-75366666D01*
X170247619Y-75328571D01*
X170133333Y-75328571D01*
X170057142Y-75366666D01*
X170019047Y-75442857D01*
X170019047Y-75861904D01*
X170019047Y-75442857D02*
X169980952Y-75366666D01*
X169904761Y-75328571D01*
X169790476Y-75328571D01*
X169714285Y-75366666D01*
X169676190Y-75442857D01*
X169676190Y-75861904D01*
X169180952Y-75861904D02*
X169257142Y-75823809D01*
X169295238Y-75785714D01*
X169333333Y-75709523D01*
X169333333Y-75480952D01*
X169295238Y-75404761D01*
X169257142Y-75366666D01*
X169180952Y-75328571D01*
X169066666Y-75328571D01*
X168990476Y-75366666D01*
X168952380Y-75404761D01*
X168914285Y-75480952D01*
X168914285Y-75709523D01*
X168952380Y-75785714D01*
X168990476Y-75823809D01*
X169066666Y-75861904D01*
X169180952Y-75861904D01*
X168685714Y-75328571D02*
X168380952Y-75328571D01*
X168571428Y-75061904D02*
X168571428Y-75747619D01*
X168533333Y-75823809D01*
X168457142Y-75861904D01*
X168380952Y-75861904D01*
X168114285Y-75861904D02*
X168114285Y-75061904D01*
X167771428Y-75861904D02*
X167771428Y-75442857D01*
X167809523Y-75366666D01*
X167885714Y-75328571D01*
X168000000Y-75328571D01*
X168076190Y-75366666D01*
X168114285Y-75404761D01*
X167466666Y-75328571D02*
X167276190Y-75861904D01*
X167085714Y-75328571D02*
X167276190Y-75861904D01*
X167352380Y-76052380D01*
X167390476Y-76090476D01*
X167466666Y-76128571D01*
X166171428Y-75861904D02*
X166171428Y-75061904D01*
X165714285Y-75861904D01*
X165714285Y-75061904D01*
X164990476Y-75328571D02*
X164990476Y-75976190D01*
X165028571Y-76052380D01*
X165066666Y-76090476D01*
X165142857Y-76128571D01*
X165257142Y-76128571D01*
X165333333Y-76090476D01*
X164990476Y-75823809D02*
X165066666Y-75861904D01*
X165219047Y-75861904D01*
X165295238Y-75823809D01*
X165333333Y-75785714D01*
X165371428Y-75709523D01*
X165371428Y-75480952D01*
X165333333Y-75404761D01*
X165295238Y-75366666D01*
X165219047Y-75328571D01*
X165066666Y-75328571D01*
X164990476Y-75366666D01*
X164266666Y-75328571D02*
X164266666Y-75861904D01*
X164609523Y-75328571D02*
X164609523Y-75747619D01*
X164571428Y-75823809D01*
X164495238Y-75861904D01*
X164380952Y-75861904D01*
X164304761Y-75823809D01*
X164266666Y-75785714D01*
X163961904Y-75328571D02*
X163771428Y-75861904D01*
X163580952Y-75328571D02*
X163771428Y-75861904D01*
X163847619Y-76052380D01*
X163885714Y-76090476D01*
X163961904Y-76128571D01*
X162971428Y-75823809D02*
X163047619Y-75861904D01*
X163200000Y-75861904D01*
X163276190Y-75823809D01*
X163314285Y-75747619D01*
X163314285Y-75442857D01*
X163276190Y-75366666D01*
X163200000Y-75328571D01*
X163047619Y-75328571D01*
X162971428Y-75366666D01*
X162933333Y-75442857D01*
X162933333Y-75519047D01*
X163314285Y-75595238D01*
X162590476Y-75328571D02*
X162590476Y-75861904D01*
X162590476Y-75404761D02*
X162552380Y-75366666D01*
X162476190Y-75328571D01*
X162361904Y-75328571D01*
X162285714Y-75366666D01*
X162247619Y-75442857D01*
X162247619Y-75861904D01*
X168095238Y-77211904D02*
X168361904Y-76830952D01*
X168552380Y-77211904D02*
X168552380Y-76411904D01*
X168247619Y-76411904D01*
X168171428Y-76450000D01*
X168133333Y-76488095D01*
X168095238Y-76564285D01*
X168095238Y-76678571D01*
X168133333Y-76754761D01*
X168171428Y-76792857D01*
X168247619Y-76830952D01*
X168552380Y-76830952D01*
X167447619Y-77173809D02*
X167523809Y-77211904D01*
X167676190Y-77211904D01*
X167752380Y-77173809D01*
X167790476Y-77097619D01*
X167790476Y-76792857D01*
X167752380Y-76716666D01*
X167676190Y-76678571D01*
X167523809Y-76678571D01*
X167447619Y-76716666D01*
X167409523Y-76792857D01*
X167409523Y-76869047D01*
X167790476Y-76945238D01*
X167142857Y-76678571D02*
X166952380Y-77211904D01*
X166761904Y-76678571D01*
X166457142Y-77135714D02*
X166419047Y-77173809D01*
X166457142Y-77211904D01*
X166495238Y-77173809D01*
X166457142Y-77135714D01*
X166457142Y-77211904D01*
X165009523Y-77135714D02*
X165047619Y-77173809D01*
X165161904Y-77211904D01*
X165238095Y-77211904D01*
X165352380Y-77173809D01*
X165428571Y-77097619D01*
X165466666Y-77021428D01*
X165504761Y-76869047D01*
X165504761Y-76754761D01*
X165466666Y-76602380D01*
X165428571Y-76526190D01*
X165352380Y-76450000D01*
X165238095Y-76411904D01*
X165161904Y-76411904D01*
X165047619Y-76450000D01*
X165009523Y-76488095D01*
X165050000Y-100413500D02*
X164050000Y-100413500D01*
X163250000Y-110813500D02*
X174650000Y-110813500D01*
X162850000Y-110413500D02*
X162850000Y-104163500D01*
X174650000Y-100413500D02*
X173650000Y-100413500D01*
X164550000Y-104663500D02*
G75*
G03*
X164550000Y-104663500I-500000J0D01*
G01*
X174550000Y-104663500D02*
G75*
G03*
X174550000Y-104663500I-500000J0D01*
G01*
X175050000Y-110413500D02*
X175050000Y-100813500D01*
X163650000Y-103363500D02*
X163650000Y-100763500D01*
X163250000Y-110813500D02*
G75*
G02*
X162850000Y-110413500I0J400000D01*
G01*
X175050000Y-110413500D02*
G75*
G02*
X174650000Y-110813500I-400000J0D01*
G01*
X162850000Y-104163500D02*
G75*
G02*
X163250000Y-103763500I400000J0D01*
G01*
X163650000Y-103363500D02*
G75*
G02*
X163250000Y-103763500I-400000J0D01*
G01*
X174650000Y-100413500D02*
G75*
G02*
X175050000Y-100813500I0J-400000D01*
G01*
X163650000Y-100813500D02*
G75*
G02*
X164050000Y-100413500I400000J0D01*
G01*
D11*
X168012164Y-99801000D02*
X168227836Y-99801000D01*
X168012164Y-99081000D02*
X168227836Y-99081000D01*
D10*
X163161904Y-101152380D02*
X163161904Y-101961904D01*
X163114285Y-102057142D01*
X163066666Y-102104761D01*
X162971428Y-102152380D01*
X162780952Y-102152380D01*
X162685714Y-102104761D01*
X162638095Y-102057142D01*
X162590476Y-101961904D01*
X162590476Y-101152380D01*
X161971428Y-101580952D02*
X162066666Y-101533333D01*
X162114285Y-101485714D01*
X162161904Y-101390476D01*
X162161904Y-101342857D01*
X162114285Y-101247619D01*
X162066666Y-101200000D01*
X161971428Y-101152380D01*
X161780952Y-101152380D01*
X161685714Y-101200000D01*
X161638095Y-101247619D01*
X161590476Y-101342857D01*
X161590476Y-101390476D01*
X161638095Y-101485714D01*
X161685714Y-101533333D01*
X161780952Y-101580952D01*
X161971428Y-101580952D01*
X162066666Y-101628571D01*
X162114285Y-101676190D01*
X162161904Y-101771428D01*
X162161904Y-101961904D01*
X162114285Y-102057142D01*
X162066666Y-102104761D01*
X161971428Y-102152380D01*
X161780952Y-102152380D01*
X161685714Y-102104761D01*
X161638095Y-102057142D01*
X161590476Y-101961904D01*
X161590476Y-101771428D01*
X161638095Y-101676190D01*
X161685714Y-101628571D01*
X161780952Y-101580952D01*
X174790476Y-100052380D02*
X175361904Y-100052380D01*
X175076190Y-100052380D02*
X175076190Y-99052380D01*
X175171428Y-99195238D01*
X175266666Y-99290476D01*
X175361904Y-99338095D01*
X174409523Y-99147619D02*
X174361904Y-99100000D01*
X174266666Y-99052380D01*
X174028571Y-99052380D01*
X173933333Y-99100000D01*
X173885714Y-99147619D01*
X173838095Y-99242857D01*
X173838095Y-99338095D01*
X173885714Y-99480952D01*
X174457142Y-100052380D01*
X173838095Y-100052380D01*
X164214285Y-100052380D02*
X164785714Y-100052380D01*
X164500000Y-100052380D02*
X164500000Y-99052380D01*
X164595238Y-99195238D01*
X164690476Y-99290476D01*
X164785714Y-99338095D01*
%LPC*%
D12*
X153314400Y-83210400D03*
G36*
G01*
X168775000Y-102613500D02*
X168775000Y-100113500D01*
G75*
G02*
X168825000Y-100063500I50000J0D01*
G01*
X169175000Y-100063500D01*
G75*
G02*
X169225000Y-100113500I0J-50000D01*
G01*
X169225000Y-102613500D01*
G75*
G02*
X169175000Y-102663500I-50000J0D01*
G01*
X168825000Y-102663500D01*
G75*
G02*
X168775000Y-102613500I0J50000D01*
G01*
G37*
G36*
G01*
X168075000Y-102613500D02*
X168075000Y-100113500D01*
G75*
G02*
X168125000Y-100063500I50000J0D01*
G01*
X168475000Y-100063500D01*
G75*
G02*
X168525000Y-100113500I0J-50000D01*
G01*
X168525000Y-102613500D01*
G75*
G02*
X168475000Y-102663500I-50000J0D01*
G01*
X168125000Y-102663500D01*
G75*
G02*
X168075000Y-102613500I0J50000D01*
G01*
G37*
G36*
G01*
X167375000Y-102613500D02*
X167375000Y-100113500D01*
G75*
G02*
X167425000Y-100063500I50000J0D01*
G01*
X167775000Y-100063500D01*
G75*
G02*
X167825000Y-100113500I0J-50000D01*
G01*
X167825000Y-102613500D01*
G75*
G02*
X167775000Y-102663500I-50000J0D01*
G01*
X167425000Y-102663500D01*
G75*
G02*
X167375000Y-102613500I0J50000D01*
G01*
G37*
G36*
G01*
X166675000Y-102613500D02*
X166675000Y-100113500D01*
G75*
G02*
X166725000Y-100063500I50000J0D01*
G01*
X167075000Y-100063500D01*
G75*
G02*
X167125000Y-100113500I0J-50000D01*
G01*
X167125000Y-102613500D01*
G75*
G02*
X167075000Y-102663500I-50000J0D01*
G01*
X166725000Y-102663500D01*
G75*
G02*
X166675000Y-102613500I0J50000D01*
G01*
G37*
G36*
G01*
X165975000Y-102613500D02*
X165975000Y-100113500D01*
G75*
G02*
X166025000Y-100063500I50000J0D01*
G01*
X166375000Y-100063500D01*
G75*
G02*
X166425000Y-100113500I0J-50000D01*
G01*
X166425000Y-102613500D01*
G75*
G02*
X166375000Y-102663500I-50000J0D01*
G01*
X166025000Y-102663500D01*
G75*
G02*
X165975000Y-102613500I0J50000D01*
G01*
G37*
G36*
G01*
X165275000Y-102613500D02*
X165275000Y-100113500D01*
G75*
G02*
X165325000Y-100063500I50000J0D01*
G01*
X165675000Y-100063500D01*
G75*
G02*
X165725000Y-100113500I0J-50000D01*
G01*
X165725000Y-102613500D01*
G75*
G02*
X165675000Y-102663500I-50000J0D01*
G01*
X165325000Y-102663500D01*
G75*
G02*
X165275000Y-102613500I0J50000D01*
G01*
G37*
G36*
G01*
X169475000Y-102613500D02*
X169475000Y-100113500D01*
G75*
G02*
X169525000Y-100063500I50000J0D01*
G01*
X169875000Y-100063500D01*
G75*
G02*
X169925000Y-100113500I0J-50000D01*
G01*
X169925000Y-102613500D01*
G75*
G02*
X169875000Y-102663500I-50000J0D01*
G01*
X169525000Y-102663500D01*
G75*
G02*
X169475000Y-102613500I0J50000D01*
G01*
G37*
G36*
G01*
X170175000Y-102613500D02*
X170175000Y-100113500D01*
G75*
G02*
X170225000Y-100063500I50000J0D01*
G01*
X170575000Y-100063500D01*
G75*
G02*
X170625000Y-100113500I0J-50000D01*
G01*
X170625000Y-102613500D01*
G75*
G02*
X170575000Y-102663500I-50000J0D01*
G01*
X170225000Y-102663500D01*
G75*
G02*
X170175000Y-102613500I0J50000D01*
G01*
G37*
G36*
G01*
X170875000Y-102613500D02*
X170875000Y-100113500D01*
G75*
G02*
X170925000Y-100063500I50000J0D01*
G01*
X171275000Y-100063500D01*
G75*
G02*
X171325000Y-100113500I0J-50000D01*
G01*
X171325000Y-102613500D01*
G75*
G02*
X171275000Y-102663500I-50000J0D01*
G01*
X170925000Y-102663500D01*
G75*
G02*
X170875000Y-102613500I0J50000D01*
G01*
G37*
G36*
G01*
X171575000Y-102613500D02*
X171575000Y-100113500D01*
G75*
G02*
X171625000Y-100063500I50000J0D01*
G01*
X171975000Y-100063500D01*
G75*
G02*
X172025000Y-100113500I0J-50000D01*
G01*
X172025000Y-102613500D01*
G75*
G02*
X171975000Y-102663500I-50000J0D01*
G01*
X171625000Y-102663500D01*
G75*
G02*
X171575000Y-102613500I0J50000D01*
G01*
G37*
G36*
G01*
X172275000Y-102613500D02*
X172275000Y-100113500D01*
G75*
G02*
X172325000Y-100063500I50000J0D01*
G01*
X172675000Y-100063500D01*
G75*
G02*
X172725000Y-100113500I0J-50000D01*
G01*
X172725000Y-102613500D01*
G75*
G02*
X172675000Y-102663500I-50000J0D01*
G01*
X172325000Y-102663500D01*
G75*
G02*
X172275000Y-102613500I0J50000D01*
G01*
G37*
G36*
G01*
X172975000Y-102613500D02*
X172975000Y-100113500D01*
G75*
G02*
X173025000Y-100063500I50000J0D01*
G01*
X173375000Y-100063500D01*
G75*
G02*
X173425000Y-100113500I0J-50000D01*
G01*
X173425000Y-102613500D01*
G75*
G02*
X173375000Y-102663500I-50000J0D01*
G01*
X173025000Y-102663500D01*
G75*
G02*
X172975000Y-102613500I0J50000D01*
G01*
G37*
X176600000Y-104200000D03*
X161798000Y-104495600D03*
X153720800Y-96062800D03*
D13*
X152262500Y-92500000D03*
X152262500Y-85500000D03*
D14*
X154962500Y-91500000D03*
X154962500Y-86500000D03*
G36*
G01*
X168270000Y-99636000D02*
X168270000Y-99246000D01*
G75*
G02*
X168435000Y-99081000I165000J0D01*
G01*
X168765000Y-99081000D01*
G75*
G02*
X168930000Y-99246000I0J-165000D01*
G01*
X168930000Y-99636000D01*
G75*
G02*
X168765000Y-99801000I-165000J0D01*
G01*
X168435000Y-99801000D01*
G75*
G02*
X168270000Y-99636000I0J165000D01*
G01*
G37*
G36*
G01*
X167310000Y-99636000D02*
X167310000Y-99246000D01*
G75*
G02*
X167475000Y-99081000I165000J0D01*
G01*
X167805000Y-99081000D01*
G75*
G02*
X167970000Y-99246000I0J-165000D01*
G01*
X167970000Y-99636000D01*
G75*
G02*
X167805000Y-99801000I-165000J0D01*
G01*
X167475000Y-99801000D01*
G75*
G02*
X167310000Y-99636000I0J165000D01*
G01*
G37*
M02*
