M48
; DRILL file {KiCad (5.1.10)-1} date 08/15/21 15:57:43
; FORMAT={-:-/ absolute / metric / decimal}
; #@! TF.CreationDate,2021-08-15T15:57:43-07:00
; #@! TF.GenerationSoftware,Kicad,Pcbnew,(5.1.10)-1
; #@! TF.FileFunction,Plated,1,4,PTH
FMAT,2
METRIC
T1C0.250
T2C0.318
T3C0.500
T4C0.600
T5C0.850
%
G90
G05
T1
X160.274Y-86.106
X160.325Y-87.274
X161.036Y-86.614
X161.29Y-77.343
X162.75Y-91.631
X162.75Y-93.726
X163.322Y-88.646
X163.356Y-91.0
X163.474Y-92.608
X163.766Y-93.726
X164.084Y-88.9
X164.401Y-93.726
X164.592Y-84.328
X165.227Y-93.599
X165.608Y-83.566
X165.862Y-89.789
X165.862Y-94.894
X166.421Y-97.866
X166.878Y-89.154
X166.936Y-97.315
X167.069Y-99.441
X167.64Y-93.599
X167.64Y-98.857
X168.605Y-98.857
X169.164Y-99.441
X169.291Y-92.583
X171.04Y-97.463
X171.196Y-84.328
X171.831Y-85.979
X172.0Y-90.85
X172.237Y-89.967
X172.339Y-86.614
X172.466Y-88.9
X172.563Y-93.4
X172.578Y-92.37
X172.72Y-85.344
X173.025Y-89.967
X173.203Y-99.797
X173.55Y-74.862
X173.55Y-78.046
X173.609Y-98.349
X173.99Y-88.396
X174.117Y-79.184
X174.371Y-73.343
X174.371Y-81.343
X175.004Y-91.15
X175.514Y-89.916
X175.6Y-92.593
X176.276Y-95.504
X176.403Y-79.375
X176.466Y-80.328
X176.53Y-82.296
X176.53Y-83.312
X177.419Y-89.154
X177.482Y-94.107
X177.8Y-97.79
X177.863Y-90.487
X177.876Y-83.033
X177.927Y-88.456
X178.186Y-78.864
X178.562Y-80.645
X178.765Y-83.871
X182.753Y-84.709
X182.753Y-85.915
T2
X155.6Y-81.331
X156.261Y-90.272
X156.413Y-83.947
X156.972Y-86.589
X157.527Y-81.225
X158.801Y-73.762
X158.801Y-74.879
X158.902Y-86.335
X159.004Y-101.092
X159.563Y-98.095
X160.083Y-98.679
X160.274Y-72.898
X160.464Y-97.028
X160.503Y-74.625
X161.036Y-99.568
X161.798Y-100.33
X162.471Y-87.008
X165.481Y-99.695
X166.421Y-95.682
X167.132Y-79.629
X167.132Y-80.772
X167.132Y-81.915
X167.132Y-83.058
X167.284Y-91.745
X167.284Y-103.988
X167.284Y-104.902
X167.284Y-105.816
X168.084Y-97.663
X168.453Y-80.772
X168.465Y-79.629
X168.465Y-81.94
X168.465Y-83.058
X169.697Y-97.688
X169.736Y-79.629
X169.736Y-80.772
X169.736Y-81.915
X169.736Y-83.058
X170.879Y-79.629
X170.879Y-80.772
X170.879Y-81.915
X170.879Y-83.058
X170.942Y-103.988
X170.942Y-104.902
X170.942Y-105.816
X172.618Y-98.298
X174.244Y-72.326
X176.53Y-72.326
X177.8Y-96.266
X178.308Y-73.152
X178.359Y-75.946
X178.562Y-95.123
X180.01Y-77.419
X181.864Y-97.155
X185.775Y-90.45
X185.864Y-88.9
X185.864Y-93.599
X186.499Y-87.312
X187.007Y-86.169
T3
X153.314Y-83.21
X153.721Y-96.063
X161.798Y-104.496
X176.6Y-104.2
T5
X154.963Y-86.5
X154.963Y-91.5
T4
X151.912Y-85.5G85X152.612Y-85.5
G05
X152.612Y-92.5G85X151.912Y-92.5
G05
T0
M30
