G04 #@! TF.GenerationSoftware,KiCad,Pcbnew,(5.1.10)-1*
G04 #@! TF.CreationDate,2021-07-30T17:06:45-07:00*
G04 #@! TF.ProjectId,esp32-smartwatch,65737033-322d-4736-9d61-727477617463,rev?*
G04 #@! TF.SameCoordinates,PX8f56560PY66b5f20*
G04 #@! TF.FileFunction,Soldermask,Bot*
G04 #@! TF.FilePolarity,Negative*
%FSLAX46Y46*%
G04 Gerber Fmt 4.6, Leading zero omitted, Abs format (unit mm)*
G04 Created by KiCad (PCBNEW (5.1.10)-1) date 2021-07-30 17:06:45*
%MOMM*%
%LPD*%
G01*
G04 APERTURE LIST*
G04 #@! TA.AperFunction,Profile*
%ADD10C,0.050000*%
G04 #@! TD*
%ADD11O,1.300000X2.000000*%
%ADD12C,1.550000*%
%ADD13C,0.900000*%
G04 APERTURE END LIST*
D10*
X37530000Y18800000D02*
G75*
G03*
X37530000Y18800000I-18750000J0D01*
G01*
D11*
X22618000Y2036000D03*
X15618000Y2036000D03*
D12*
X21618000Y4736000D03*
X16618000Y4736000D03*
G36*
G01*
X18162000Y6691500D02*
X18162000Y9191500D01*
G75*
G02*
X18212000Y9241500I50000J0D01*
G01*
X18562000Y9241500D01*
G75*
G02*
X18612000Y9191500I0J-50000D01*
G01*
X18612000Y6691500D01*
G75*
G02*
X18562000Y6641500I-50000J0D01*
G01*
X18212000Y6641500D01*
G75*
G02*
X18162000Y6691500I0J50000D01*
G01*
G37*
G36*
G01*
X17462000Y6691500D02*
X17462000Y9191500D01*
G75*
G02*
X17512000Y9241500I50000J0D01*
G01*
X17862000Y9241500D01*
G75*
G02*
X17912000Y9191500I0J-50000D01*
G01*
X17912000Y6691500D01*
G75*
G02*
X17862000Y6641500I-50000J0D01*
G01*
X17512000Y6641500D01*
G75*
G02*
X17462000Y6691500I0J50000D01*
G01*
G37*
G36*
G01*
X16762000Y6691500D02*
X16762000Y9191500D01*
G75*
G02*
X16812000Y9241500I50000J0D01*
G01*
X17162000Y9241500D01*
G75*
G02*
X17212000Y9191500I0J-50000D01*
G01*
X17212000Y6691500D01*
G75*
G02*
X17162000Y6641500I-50000J0D01*
G01*
X16812000Y6641500D01*
G75*
G02*
X16762000Y6691500I0J50000D01*
G01*
G37*
G36*
G01*
X16062000Y6691500D02*
X16062000Y9191500D01*
G75*
G02*
X16112000Y9241500I50000J0D01*
G01*
X16462000Y9241500D01*
G75*
G02*
X16512000Y9191500I0J-50000D01*
G01*
X16512000Y6691500D01*
G75*
G02*
X16462000Y6641500I-50000J0D01*
G01*
X16112000Y6641500D01*
G75*
G02*
X16062000Y6691500I0J50000D01*
G01*
G37*
G36*
G01*
X15362000Y6691500D02*
X15362000Y9191500D01*
G75*
G02*
X15412000Y9241500I50000J0D01*
G01*
X15762000Y9241500D01*
G75*
G02*
X15812000Y9191500I0J-50000D01*
G01*
X15812000Y6691500D01*
G75*
G02*
X15762000Y6641500I-50000J0D01*
G01*
X15412000Y6641500D01*
G75*
G02*
X15362000Y6691500I0J50000D01*
G01*
G37*
G36*
G01*
X14662000Y6691500D02*
X14662000Y9191500D01*
G75*
G02*
X14712000Y9241500I50000J0D01*
G01*
X15062000Y9241500D01*
G75*
G02*
X15112000Y9191500I0J-50000D01*
G01*
X15112000Y6691500D01*
G75*
G02*
X15062000Y6641500I-50000J0D01*
G01*
X14712000Y6641500D01*
G75*
G02*
X14662000Y6691500I0J50000D01*
G01*
G37*
G36*
G01*
X18862000Y6691500D02*
X18862000Y9191500D01*
G75*
G02*
X18912000Y9241500I50000J0D01*
G01*
X19262000Y9241500D01*
G75*
G02*
X19312000Y9191500I0J-50000D01*
G01*
X19312000Y6691500D01*
G75*
G02*
X19262000Y6641500I-50000J0D01*
G01*
X18912000Y6641500D01*
G75*
G02*
X18862000Y6691500I0J50000D01*
G01*
G37*
G36*
G01*
X19562000Y6691500D02*
X19562000Y9191500D01*
G75*
G02*
X19612000Y9241500I50000J0D01*
G01*
X19962000Y9241500D01*
G75*
G02*
X20012000Y9191500I0J-50000D01*
G01*
X20012000Y6691500D01*
G75*
G02*
X19962000Y6641500I-50000J0D01*
G01*
X19612000Y6641500D01*
G75*
G02*
X19562000Y6691500I0J50000D01*
G01*
G37*
G36*
G01*
X20262000Y6691500D02*
X20262000Y9191500D01*
G75*
G02*
X20312000Y9241500I50000J0D01*
G01*
X20662000Y9241500D01*
G75*
G02*
X20712000Y9191500I0J-50000D01*
G01*
X20712000Y6691500D01*
G75*
G02*
X20662000Y6641500I-50000J0D01*
G01*
X20312000Y6641500D01*
G75*
G02*
X20262000Y6691500I0J50000D01*
G01*
G37*
G36*
G01*
X20962000Y6691500D02*
X20962000Y9191500D01*
G75*
G02*
X21012000Y9241500I50000J0D01*
G01*
X21362000Y9241500D01*
G75*
G02*
X21412000Y9191500I0J-50000D01*
G01*
X21412000Y6691500D01*
G75*
G02*
X21362000Y6641500I-50000J0D01*
G01*
X21012000Y6641500D01*
G75*
G02*
X20962000Y6691500I0J50000D01*
G01*
G37*
G36*
G01*
X21662000Y6691500D02*
X21662000Y9191500D01*
G75*
G02*
X21712000Y9241500I50000J0D01*
G01*
X22062000Y9241500D01*
G75*
G02*
X22112000Y9191500I0J-50000D01*
G01*
X22112000Y6691500D01*
G75*
G02*
X22062000Y6641500I-50000J0D01*
G01*
X21712000Y6641500D01*
G75*
G02*
X21662000Y6691500I0J50000D01*
G01*
G37*
G36*
G01*
X22362000Y6691500D02*
X22362000Y9191500D01*
G75*
G02*
X22412000Y9241500I50000J0D01*
G01*
X22762000Y9241500D01*
G75*
G02*
X22812000Y9191500I0J-50000D01*
G01*
X22812000Y6691500D01*
G75*
G02*
X22762000Y6641500I-50000J0D01*
G01*
X22412000Y6641500D01*
G75*
G02*
X22362000Y6691500I0J50000D01*
G01*
G37*
D13*
X1655500Y14545500D03*
X28008000Y4068000D03*
X2450000Y12450000D03*
X25087000Y2671000D03*
M02*
